<svg width="33" height="33" viewBox="0 0 33 33" fill="none" xmlns="http://www.w3.org/2000/svg">
<path d="M26.9265 21.2208L21.5818 25.0209C21.3919 23.9687 20.5206 23.1365 19.4282 23.0248L16.1935 22.6953C15.7143 22.6484 15.33 22.5322 14.9122 22.3065C12.8782 21.2152 10.4419 21.1985 8.39561 22.2619C7.80918 22.5623 7.25849 22.702 6.63408 22.7198V22.4931C6.63408 21.9938 6.22413 21.5872 5.72037 21.5872H3.4059C2.9066 21.5872 2.5 21.9938 2.5 22.4931V29.5862C2.5 30.09 2.9066 30.4999 3.4059 30.4999H5.71922C6.22299 30.4999 6.63293 30.09 6.63293 29.5862V29.4488L18.5738 29.9503C18.7861 29.9716 18.995 29.9827 19.2005 29.9827C20.3722 29.9827 21.4345 29.6342 22.432 28.926L29.9215 23.5979C30.2465 23.3677 30.4498 23.0193 30.4934 22.6104C30.5258 22.2027 30.3985 21.8319 30.1259 21.5381C29.296 20.6579 27.9197 20.5205 26.9265 21.2208ZM29.5772 23.1119L22.0878 28.4401C21.0378 29.1852 19.9074 29.4845 18.6171 29.3561L6.6339 28.8534V25.6599C6.6339 25.4957 6.50098 25.3616 6.33565 25.3616C6.17145 25.3616 6.0374 25.4945 6.0374 25.6599V29.586C6.0374 29.7592 5.89107 29.9044 5.71905 29.9044H3.40573C3.23483 29.9044 3.09521 29.7614 3.09521 29.586L3.09633 22.4941C3.09633 22.3198 3.23261 22.1836 3.40685 22.1836H5.72017C5.89554 22.1836 6.03852 22.3232 6.03852 22.4941V24.4533C6.03852 24.6175 6.17144 24.7516 6.33677 24.7516C6.50097 24.7516 6.63502 24.6186 6.63502 24.4533V23.3207C7.35883 23.3028 7.99219 23.1397 8.67022 22.7923C10.5435 21.8194 12.772 21.835 14.6318 22.8325C15.1177 23.0939 15.5813 23.2335 16.1353 23.2883L19.3692 23.6178C20.2851 23.7116 20.9978 24.4745 21.0268 25.3894C21.0335 25.6306 20.9542 25.825 20.7844 25.9825C20.609 26.1456 20.4035 26.216 20.1734 26.1914L13.7986 25.5413C13.6333 25.5223 13.4881 25.6441 13.4725 25.8071C13.4557 25.9702 13.5752 26.1177 13.7383 26.1333L20.112 26.7834C20.1622 26.789 20.2136 26.7912 20.2628 26.7912C20.6079 26.7912 20.9251 26.6639 21.1899 26.4181C21.3876 26.2349 21.5138 26.0082 21.5764 25.7557L27.272 21.7066C28.0238 21.1771 29.0659 21.2799 29.6937 21.9445C29.8534 22.1166 29.9216 22.3187 29.9026 22.5544C29.8769 22.7868 29.7641 22.9789 29.5776 23.1118L29.5772 23.1119ZM28.7204 9.64861H28.2703C28.9349 9.13143 29.365 8.32718 29.365 7.42128C29.365 5.86082 28.0994 4.59079 26.5423 4.59079C24.9818 4.59079 23.7118 5.86082 23.7118 7.42128C23.7118 8.32607 24.1429 9.13143 24.8098 9.64861H24.3563C23.8737 9.64861 23.437 9.84297 23.1164 10.158C22.8953 9.24647 22.0754 8.56733 21.098 8.56733H20.3809C21.2488 7.96525 21.8184 6.96553 21.8184 5.834C21.8184 3.99428 20.3216 2.49634 18.4808 2.49634C16.6455 2.49634 15.152 3.99314 15.152 5.834C15.152 6.96553 15.7205 7.96525 16.5851 8.56733H15.8635C14.8884 8.56733 14.0718 9.24759 13.8518 10.1602C13.5301 9.84406 13.09 9.64858 12.6041 9.64858H12.1539C12.8185 9.1314 13.2486 8.32716 13.2486 7.42125C13.2486 5.8608 11.983 4.59076 10.4259 4.59076C8.86544 4.59076 7.5954 5.8608 7.5954 7.42125C7.5954 8.32604 8.02656 9.1314 8.69341 9.64858H8.24772C7.26363 9.64858 6.46385 10.4495 6.46385 11.4325V15.3586C6.46385 15.5228 6.59677 15.6569 6.7621 15.6569H13.8217C13.8039 15.8233 13.7938 15.9909 13.7938 16.1606C13.7938 18.7499 15.8972 20.8577 18.4821 20.8577C21.0724 20.8577 23.1791 18.751 23.1791 16.1606C23.1791 15.9908 23.168 15.8222 23.1501 15.6569H30.2017C30.3659 15.6569 30.5 15.5239 30.5 15.3586L30.4944 11.4325C30.4955 10.4495 29.699 9.64861 28.7204 9.64861ZM8.18747 7.42128C8.18747 6.18922 9.19054 5.18614 10.4226 5.18614C11.6502 5.18614 12.6499 6.18922 12.6499 7.42128C12.6499 8.64888 11.6513 9.64861 10.4226 9.64861C9.19054 9.64861 8.18747 8.65 8.18747 7.42128ZM13.7893 15.0606H7.05595V11.4324C7.05595 10.7767 7.58876 10.2439 8.24443 10.2439H12.6018C13.2564 10.2439 13.7903 10.7767 13.7903 11.4324L13.7893 15.0606ZM15.7441 5.83394C15.7441 4.32262 16.9706 3.0917 18.4774 3.0917C19.9887 3.0917 21.2197 4.32153 21.2197 5.83394C21.2197 7.34078 19.9898 8.56727 18.4774 8.56727C16.9706 8.56727 15.7441 7.3419 15.7441 5.83394ZM22.579 11.4324V13.8853C22.2628 13.3201 21.8317 12.8152 21.2911 12.4097C21.1593 12.3103 20.9727 12.3382 20.8744 12.4701C20.7761 12.6019 20.8029 12.7884 20.9347 12.8867C21.9802 13.6686 22.5801 14.8627 22.5801 16.1606C22.5801 18.4225 20.7404 20.2612 18.4784 20.2612C16.222 20.2612 14.3858 18.4215 14.3858 16.1606C14.3858 13.9042 16.2222 12.068 18.4784 12.068C18.9933 12.068 19.4915 12.1585 19.9595 12.3361C20.1137 12.3942 20.2857 12.3171 20.3438 12.1629C20.4019 12.0088 20.3248 11.8368 20.1707 11.7787C19.6345 11.5754 19.0648 11.4726 18.4773 11.4726C16.7202 11.4726 15.1876 12.4455 14.3847 13.8798V10.6471C14.3847 9.8283 15.0471 9.16368 15.8603 9.16368H21.0958C21.9146 9.16368 22.5792 9.82941 22.5792 10.6471L22.579 11.4324ZM24.3059 7.42128C24.3059 6.18922 25.309 5.18614 26.541 5.18614C27.7686 5.18614 28.7683 6.18922 28.7683 7.42128C28.7683 8.64888 27.7697 9.64861 26.541 9.64861C25.309 9.64861 24.3059 8.65 24.3059 7.42128ZM29.8997 15.0606H23.1741V11.4324C23.1741 10.7767 23.7035 10.2439 24.3536 10.2439H28.719C29.3691 10.2439 29.8986 10.7767 29.8986 11.4324L29.8997 15.0606ZM19.5865 13.6866C19.5865 13.5224 19.4536 13.3884 19.2882 13.3884L17.6753 13.3895C17.5111 13.3895 17.377 13.5224 17.377 13.6878V15.0617H16.0031C15.8389 15.0617 15.7048 15.1946 15.7048 15.3599V16.9729C15.7048 17.1371 15.8378 17.2711 16.0031 17.2711H17.377V18.6361C17.377 18.8003 17.5099 18.9344 17.6753 18.9344H19.2882C19.4524 18.9344 19.5865 18.8014 19.5865 18.6361V17.2711H20.9515C21.1157 17.2711 21.2497 17.1382 21.2497 16.9729V15.3599C21.2497 15.1957 21.1168 15.0617 20.9515 15.0617H19.5865V13.6866ZM20.6532 15.657V16.6746H19.2883C19.1241 16.6746 18.99 16.8076 18.99 16.9729V18.3379L17.9735 18.3367V16.9718C17.9735 16.8076 17.8406 16.6735 17.6753 16.6735H16.3013V15.6559H17.6753C17.8395 15.6559 17.9735 15.523 17.9735 15.3577V13.9837H18.99V15.3577C18.99 15.5219 19.1229 15.6559 19.2883 15.6559L20.6532 15.657Z" fill="#695fa3"/>
</svg>
