<svg width="33" height="33" viewBox="0 0 33 33" fill="none" xmlns="http://www.w3.org/2000/svg">
<path d="M25.7012 11.0609C25.1664 10.8724 24.7373 10.4659 24.5207 9.9419C24.3055 9.41785 24.3215 8.82693 24.5675 8.31623C24.9953 7.41917 24.8108 6.35099 24.1089 5.64777C23.4071 4.9459 22.3376 4.76276 21.4418 5.18923C20.9311 5.42987 20.3442 5.44458 19.8228 5.22934C19.3015 5.01276 18.8964 4.58629 18.7065 4.05554C18.3723 3.12104 17.4873 2.49805 16.4953 2.49805C15.502 2.49805 14.617 3.12104 14.2828 4.05554C14.0943 4.58629 13.6892 5.01277 13.1691 5.22934C12.6491 5.44458 12.0608 5.42988 11.5515 5.18923C10.6557 4.76276 9.58622 4.94592 8.88434 5.64777C8.18246 6.35099 7.99799 7.41917 8.4258 8.31623C8.66644 8.8256 8.67981 9.41381 8.46457 9.93389C8.25067 10.4553 7.82286 10.8604 7.2921 11.0462C6.3576 11.3804 5.73328 12.2668 5.73328 13.2587C5.73328 14.2507 6.3576 15.1371 7.2921 15.4713C7.82286 15.6598 8.24933 16.0662 8.46457 16.5863C8.68115 17.1076 8.66644 17.6959 8.4258 18.2053C8.10628 18.8791 8.12634 19.6625 8.47794 20.3189C8.82953 20.9753 9.47124 21.4272 10.2079 21.5355C7.02072 25.0367 8.25065 30.3161 8.26537 30.3695C8.2774 30.427 8.31884 30.4738 8.37499 30.4939C8.39638 30.4992 8.41911 30.4992 8.43916 30.4939C8.4766 30.4925 8.51269 30.4805 8.54344 30.4578L10.7186 28.911L13.0074 30.2118H13.006C13.0689 30.2479 13.1464 30.2425 13.2025 30.1984C13.2587 30.1543 13.2841 30.0821 13.2667 30.0126C12.486 27.0073 14.1651 23.7413 14.5782 23.0007C15.0127 23.625 15.7226 24.0007 16.4833 24.0087C17.2453 24.0154 17.9619 23.6531 18.4071 23.0354C18.871 23.863 20.5033 27.0715 19.74 30.0128H19.7413C19.7226 30.0823 19.748 30.1545 19.8055 30.1986C19.8616 30.2427 19.9392 30.2481 20.0007 30.212L22.2894 28.9112L24.4646 30.4579C24.4953 30.4807 24.5301 30.4927 24.5675 30.494C24.5889 30.4994 24.6116 30.4994 24.6317 30.494C24.6878 30.474 24.7293 30.4272 24.7426 30.3697C24.7426 30.3162 25.9793 25.0221 22.7493 21.5422C23.4967 21.4472 24.1518 20.9994 24.5127 20.339C24.875 19.6785 24.8977 18.8857 24.5755 18.2053C24.3335 17.6959 24.3188 17.1077 24.5354 16.5863C24.752 16.0662 25.1771 15.6598 25.7092 15.4713C26.6437 15.1371 27.2667 14.2507 27.2667 13.2587C27.2667 12.2668 26.6437 11.3804 25.7092 11.0462L25.7012 11.0609ZM14.3574 22.6866C14.2652 22.8404 12.1609 26.3124 12.824 29.7307L10.7919 28.573C10.7331 28.5369 10.6596 28.5369 10.5994 28.573L8.5526 30.0275C8.3534 28.9112 7.77587 24.4835 10.6916 21.5569H10.693C10.9964 21.5409 11.2946 21.466 11.57 21.335C12.0633 21.1011 12.6315 21.081 13.1422 21.2789C10.5473 23.1866 10.6462 26.4807 10.6462 26.5156C10.6515 26.6092 10.7304 26.6827 10.824 26.6827C10.8721 26.6813 10.9162 26.6613 10.9483 26.6265C10.9804 26.5918 10.9978 26.545 10.9951 26.4982C10.9951 26.4661 10.8842 23.2295 13.4911 21.4569C13.8655 21.6935 14.1502 22.0505 14.2973 22.4689C14.3227 22.5358 14.3521 22.5999 14.3855 22.6614C14.3855 22.6614 14.3574 22.6826 14.3574 22.6866ZM24.439 30.0381L22.3962 28.5835C22.3373 28.5474 22.2638 28.5474 22.2037 28.5835L20.1689 29.7306C20.8066 26.4325 18.836 23.0821 18.6074 22.7077C18.6448 22.6328 18.6783 22.5553 18.7063 22.4764C18.8561 22.0673 19.1341 21.717 19.4978 21.4778C19.5085 21.5219 19.5352 21.5606 19.5726 21.5847C22.1889 23.3668 22.0005 26.4723 21.9964 26.5045H21.9978C21.9911 26.6021 22.0646 26.6863 22.1609 26.693C22.2545 26.6943 22.332 26.6221 22.34 26.5299C22.34 26.4978 22.5432 23.2037 19.7879 21.3147H19.8093L19.8079 21.3134C20.3293 21.0968 20.9176 21.1102 21.4269 21.3535C21.6863 21.4765 21.967 21.55 22.2545 21.5701C22.2518 21.5781 22.2518 21.5875 22.2545 21.5955C25.2064 24.5113 24.6422 28.9217 24.439 30.0381ZM25.5793 15.1504H25.5807C24.9577 15.3736 24.4577 15.8482 24.205 16.4592C23.951 17.0702 23.9657 17.76 24.2465 18.3589C24.6061 19.1196 24.4483 20.0234 23.8534 20.617C23.2585 21.2119 22.3548 21.3696 21.594 21.0113C20.9951 20.7306 20.3066 20.7145 19.6956 20.9686C19.0847 21.2226 18.6087 21.7212 18.3855 22.3442C18.1047 23.1383 17.3534 23.6691 16.5111 23.6691C15.6676 23.6691 14.9162 23.1383 14.6355 22.3442C14.2972 21.407 13.4042 20.7854 12.4069 20.7934C12.0579 20.7934 11.713 20.871 11.3988 21.022C10.6381 21.3803 9.7344 21.2226 9.13948 20.6277C8.54455 20.0341 8.38681 19.1303 8.74644 18.3696C9.02719 17.7707 9.0419 17.0809 8.78789 16.4699C8.53521 15.8589 8.03522 15.3843 7.41223 15.1611C6.61811 14.879 6.08736 14.1277 6.08736 13.2854C6.08736 12.4431 6.61811 11.6918 7.41223 11.4097C8.03522 11.1865 8.5352 10.7118 8.78789 10.1009C9.0419 9.48992 9.02719 8.80009 8.74644 8.20116C8.38681 7.44045 8.54457 6.53671 9.13948 5.94312C9.7344 5.3482 10.6381 5.19045 11.3988 5.54875C11.9978 5.8295 12.6863 5.84554 13.2973 5.59153C13.9082 5.33752 14.3842 4.83887 14.6074 4.21588C14.8882 3.42176 15.6395 2.89101 16.4817 2.89101C17.3253 2.89101 18.0767 3.42176 18.3574 4.21588C18.5807 4.83887 19.0566 5.33752 19.6676 5.59153C20.2772 5.84554 20.9671 5.8295 21.566 5.54875C22.3267 5.19045 23.2304 5.34822 23.8254 5.94312C24.4189 6.53671 24.5767 7.44045 24.2184 8.20116C23.9376 8.80009 23.9216 9.48992 24.1756 10.1009C24.4296 10.7119 24.9296 11.1865 25.5513 11.4097C26.3467 11.6918 26.8775 12.4431 26.8775 13.2854C26.8775 14.1277 26.3467 14.879 25.5513 15.1611L25.5793 15.1504ZM16.4965 6.47272C14.6917 6.47139 12.9618 7.18795 11.6848 8.46336C10.4081 9.73878 9.69152 11.4687 9.69019 13.2723C9.69019 15.0771 10.4068 16.807 11.6822 18.0839C12.9576 19.3593 14.6875 20.0772 16.4911 20.0772C18.2959 20.0772 20.0258 19.3606 21.3027 18.0852C22.5781 16.8098 23.2947 15.0799 23.2947 13.275C23.2933 11.4715 22.5767 9.74436 21.3014 8.46881C20.0273 7.19339 18.2999 6.47539 16.4965 6.47272ZM16.4965 19.7241C14.7866 19.7255 13.1475 19.0463 11.9378 17.8391C10.7278 16.6306 10.0487 14.9915 10.0474 13.2818C10.0461 11.5732 10.7252 9.93283 11.9324 8.72306C13.1409 7.51452 14.78 6.83403 16.4898 6.8327C18.1983 6.8327 19.8387 7.51052 21.0485 8.71905C22.257 9.92626 22.9375 11.5653 22.9388 13.275C22.9388 14.9836 22.2597 16.624 21.0525 17.8324C19.8439 19.0423 18.2049 19.7228 16.4965 19.7241ZM19.9258 11.5571L18.4993 11.3499H18.5006C18.2894 11.3192 18.1089 11.1855 18.0194 10.9929L17.6918 10.3298L17.3883 9.70686C17.2226 9.36461 16.8763 9.14937 16.4966 9.15071C16.1169 9.14937 15.7707 9.36461 15.6049 9.70686L14.9672 10.9943V10.9929C14.8776 11.1855 14.6958 11.3191 14.4859 11.3499L13.0594 11.5571C12.6865 11.6146 12.3776 11.878 12.2613 12.2376C12.1423 12.5972 12.2399 12.9943 12.514 13.2577L13.5407 14.263C13.6931 14.4074 13.7627 14.6187 13.7266 14.8258L13.4846 16.2523C13.4204 16.6253 13.5742 17.0023 13.8803 17.2242C14.1864 17.4475 14.5929 17.4769 14.9284 17.3004L16.2012 16.6307V16.6293C16.3857 16.5331 16.6076 16.5331 16.7921 16.6293L18.0648 17.2991V17.3004C18.2079 17.3753 18.367 17.4154 18.5287 17.4141C18.7386 17.4141 18.9432 17.3472 19.113 17.2256C19.4218 17.0037 19.5755 16.6253 19.5087 16.2523L19.2667 14.8258C19.2306 14.6199 19.2988 14.4087 19.4485 14.263L20.4792 13.2576C20.7533 12.9943 20.8509 12.5972 20.7319 12.2376C20.6169 11.8726 20.3041 11.6052 19.9258 11.5491L19.9258 11.5571ZM20.2292 12.9836L19.2025 13.985C18.9686 14.2136 18.8603 14.5424 18.9137 14.8646L19.1597 16.2911C19.2025 16.5318 19.1022 16.7737 18.903 16.9154C18.7079 17.0612 18.4458 17.0785 18.2333 16.9609L16.9605 16.2978C16.6704 16.1467 16.3228 16.1467 16.0327 16.2978L14.76 16.9649C14.5474 17.0825 14.2854 17.0638 14.0902 16.9181C13.891 16.7777 13.7907 16.5344 13.8335 16.2951L14.0795 14.8686C14.133 14.5451 14.0247 14.2162 13.7907 13.9876L12.764 12.9863C12.5889 12.8165 12.5247 12.5611 12.6009 12.3298C12.6771 12.0972 12.879 11.9288 13.1209 11.8954L14.5474 11.6881H14.5461C14.8629 11.644 15.1384 11.4502 15.2881 11.1681L15.9231 9.87801C16.0287 9.65742 16.252 9.51838 16.4967 9.52105C16.7413 9.51837 16.9646 9.65741 17.0702 9.87801L17.7052 11.1681C17.8509 11.4609 18.1304 11.6628 18.4539 11.7095L19.8804 11.9168C20.1224 11.9502 20.3229 12.1186 20.3991 12.3512C20.4753 12.5825 20.4124 12.8379 20.236 13.0077L20.2292 12.9836ZM16.8242 12.0318V12.0304C16.8629 12.0598 16.887 12.1013 16.8937 12.1494C16.9004 12.1962 16.887 12.243 16.8563 12.2804C16.4258 12.8994 15.7279 13.2804 14.9739 13.3072C14.8001 13.3058 14.6277 13.2844 14.4579 13.247H14.4285C14.3549 13.2443 14.2908 13.1962 14.268 13.1253C14.252 13.0799 14.256 13.0304 14.276 12.9876C14.2974 12.9449 14.3335 12.9128 14.379 12.8967C14.4298 12.8834 14.4819 12.8834 14.5327 12.8967C15.3215 13.0705 16.1357 12.7363 16.5755 12.0598C16.6397 11.9863 16.7507 11.9783 16.8242 12.0411L16.8242 12.0318Z" fill="#695fa3"/>
</svg>
