<svg width="33" height="33" viewBox="0 0 33 33" fill="none" xmlns="http://www.w3.org/2000/svg">
<path d="M16.6156 2.49805H16.4978C8.84387 2.49805 2.56448 8.78491 2.50048 16.384C2.46993 20.0955 3.89687 23.6496 6.51946 26.2943C9.14206 28.9404 12.6447 30.498 16.3844 30.498H16.5022C24.1561 30.498 30.4355 24.2097 30.4995 16.6121C30.5621 8.95237 24.3336 2.94267 16.6156 2.49805ZM16.5022 29.6102H16.3916C12.8905 29.5814 9.61188 28.2013 7.15657 25.7255C4.7027 23.2483 3.36595 19.866 3.39504 16.3927C3.45468 9.28006 9.33115 3.38875 16.4964 3.38875H16.6069C23.8318 3.83337 29.6617 9.43742 29.6021 16.6078C29.5439 23.7175 23.666 29.6102 16.5022 29.6102Z" fill="#695fa3"/>
<path d="M16.9487 16.4245L17.0316 6.53012C17.0345 6.28471 16.8353 6.05518 16.588 6.05518H16.5851C16.3393 6.05518 16.14 6.27893 16.1371 6.52435L16.0527 16.5891C16.0513 16.706 16.0978 16.8273 16.1807 16.911L21.7037 22.4862C21.791 22.5743 21.9074 22.6204 22.0223 22.6204C22.1357 22.6204 22.2492 22.5786 22.3365 22.4934C22.5125 22.3216 22.5154 22.0401 22.3423 21.8654L16.9487 16.4245Z" fill="#695fa3"/>
</svg>
