<svg width="33" height="33" viewBox="0 0 33 33" fill="none" xmlns="http://www.w3.org/2000/svg">
<path d="M15.5485 19.1454C15.4802 19.1454 15.4118 19.1323 15.3474 19.1073L2.83916 14.0962C2.63408 14.0147 2.5 13.8162 2.5 13.5967C2.5 13.3758 2.63409 13.1787 2.83916 13.0972L15.3487 8.08606C15.4776 8.03479 15.6209 8.03479 15.7497 8.08606L28.2593 13.0972C28.463 13.1787 28.5971 13.3758 28.5971 13.5967C28.5971 13.8162 28.463 14.0147 28.2593 14.0962L15.7497 19.1073C15.6853 19.1323 15.6169 19.1454 15.5485 19.1454ZM4.48637 13.5969L15.5485 18.0269L26.6107 13.5969L15.5485 9.16698L4.48637 13.5969Z" fill="#E11D48"/>
<path d="M15.5487 24.9485C13.0352 24.9485 10.4953 24.1414 7.99892 22.5494V22.5508C7.8438 22.4509 7.74915 22.28 7.74915 22.0959V15.6994C7.74915 15.4023 7.99103 15.1604 8.28814 15.1604C8.58523 15.1604 8.82713 15.4023 8.82713 15.6994V21.7974C13.3481 24.579 17.752 24.579 22.2713 21.7974V15.6994C22.2713 15.4023 22.5118 15.1617 22.8089 15.1617C23.1074 15.1617 23.3479 15.4023 23.3479 15.6994V22.0959C23.3479 22.28 23.2546 22.4509 23.0995 22.5508C20.6018 24.1414 18.0623 24.9485 15.5487 24.9485Z" fill="#E11D48"/>
<path d="M28.0594 16.9397C27.761 16.9397 27.5204 16.6991 27.5204 16.402V13.5968C27.5204 13.2997 27.761 13.0579 28.0594 13.0579C28.3565 13.0579 28.5971 13.2997 28.5971 13.5968V16.402C28.5971 16.544 28.5405 16.682 28.4393 16.7819C28.3381 16.8831 28.2013 16.9397 28.0594 16.9397Z" fill="#E11D48"/>
<path d="M28.0594 19.9529C27.2312 19.9529 26.4858 19.4547 26.169 18.6909C25.8522 17.9259 26.027 17.0465 26.612 16.4615C27.197 15.8765 28.0765 15.7017 28.8416 16.0185C29.6053 16.3353 30.1036 17.0806 30.1036 17.9088C30.1022 19.0367 29.1873 19.9516 28.0594 19.9529ZM28.0594 16.94C27.6676 16.94 27.314 17.1753 27.1641 17.5381C27.0143 17.8996 27.0971 18.3163 27.3732 18.5923C27.6505 18.8697 28.0673 18.9525 28.4288 18.8027C28.7903 18.6528 29.0269 18.3005 29.0269 17.9088C29.0256 17.3738 28.5931 16.9413 28.0594 16.94Z" fill="#E11D48"/>
<path d="M29.9615 24.3672H26.1556C25.9966 24.3672 25.8454 24.2962 25.7428 24.174C25.6403 24.0517 25.5969 23.89 25.6258 23.7336L26.4803 18.8961C26.5342 18.6056 26.8129 18.4137 27.1035 18.465C27.394 18.5162 27.5899 18.7923 27.5412 19.0841L26.7985 23.2906H29.3199L28.5758 19.0841C28.5495 18.9421 28.5811 18.7962 28.6626 18.6779C28.7441 18.5596 28.8703 18.4794 29.0123 18.4545C29.1529 18.4295 29.2989 18.4623 29.4158 18.5452C29.5342 18.628 29.613 18.7542 29.6367 18.8962L30.4912 23.7336C30.5201 23.89 30.4767 24.0517 30.3742 24.174C30.2717 24.2962 30.1206 24.3672 29.9615 24.3672Z" fill="#E11D48"/>
</svg>
