<svg xmlns="http://www.w3.org/2000/svg" xmlns:xlink="http://www.w3.org/1999/xlink" width="56" zoomAndPan="magnify" viewBox="0 0 42 42" height="56" preserveAspectRatio="xMidYMid meet" version="1.0"><defs><clipPath id="bfe248ca9f"><path d="M 7.027344 0 L 34.863281 0 L 34.863281 41 L 7.027344 41 Z M 7.027344 0 " clip-rule="nonzero"/></clipPath></defs><g clip-path="url(#bfe248ca9f)"><path fill="#827fc6" d="M 12.601562 16.582031 C 12.636719 16.445312 12.621094 16.320312 12.550781 16.199219 C 12.480469 16.078125 12.378906 16 12.242188 15.960938 C 12.109375 15.925781 11.980469 15.941406 11.859375 16.011719 C 11.738281 16.082031 11.660156 16.183594 11.625 16.320312 L 10.296875 21.265625 C 10.246094 21.464844 10.160156 21.644531 10.039062 21.808594 C 9.917969 21.972656 9.773438 22.113281 9.605469 22.226562 C 9.433594 22.335938 9.25 22.414062 9.050781 22.457031 C 8.851562 22.503906 8.652344 22.511719 8.449219 22.480469 C 8.421875 22.476562 8.390625 22.472656 8.363281 22.464844 C 8.332031 22.460938 8.304688 22.453125 8.277344 22.445312 C 8.0625 22.386719 7.867188 22.292969 7.691406 22.160156 C 7.515625 22.023438 7.371094 21.863281 7.261719 21.671875 C 7.148438 21.480469 7.078125 21.273438 7.046875 21.054688 C 7.019531 20.835938 7.03125 20.621094 7.085938 20.40625 L 9.339844 11.992188 C 9.636719 10.882812 10.253906 10.832031 11.507812 10.832031 L 21.832031 10.832031 C 23.085938 10.832031 23.703125 10.882812 24 11.992188 L 26.253906 20.40625 C 26.3125 20.617188 26.324219 20.832031 26.296875 21.050781 C 26.265625 21.269531 26.195312 21.476562 26.085938 21.664062 C 25.976562 21.855469 25.835938 22.019531 25.660156 22.152344 C 25.484375 22.289062 25.292969 22.382812 25.078125 22.441406 C 25.023438 22.457031 24.960938 22.46875 24.902344 22.480469 C 24.898438 22.480469 24.894531 22.480469 24.890625 22.480469 C 24.875 22.480469 24.859375 22.484375 24.84375 22.488281 L 24.835938 22.492188 C 24.621094 22.546875 24.40625 22.5625 24.1875 22.535156 C 23.96875 22.503906 23.765625 22.433594 23.574219 22.324219 C 23.382812 22.214844 23.21875 22.074219 23.085938 21.898438 C 22.953125 21.722656 22.855469 21.53125 22.796875 21.316406 L 21.476562 16.371094 C 21.4375 16.238281 21.359375 16.132812 21.238281 16.066406 C 21.117188 15.996094 20.992188 15.976562 20.855469 16.015625 C 20.722656 16.050781 20.621094 16.128906 20.550781 16.25 C 20.480469 16.371094 20.460938 16.496094 20.5 16.632812 L 21.820312 21.578125 C 21.898438 21.863281 22.019531 22.128906 22.183594 22.371094 C 22.347656 22.617188 22.546875 22.828125 22.78125 23.007812 C 23.011719 23.183594 23.269531 23.320312 23.546875 23.417969 C 23.828125 23.511719 24.113281 23.558594 24.40625 23.558594 C 24.460938 23.558594 24.511719 23.558594 24.5625 23.554688 L 24.75 24.511719 C 24.054688 24.570312 23.398438 24.761719 22.777344 25.078125 C 22.34375 25.292969 21.949219 25.566406 21.59375 25.890625 C 21.238281 26.21875 20.933594 26.585938 20.679688 27 C 20.429688 27.414062 20.238281 27.851562 20.109375 28.316406 C 19.980469 28.785156 19.917969 29.257812 19.925781 29.742188 C 19.925781 29.949219 19.941406 30.160156 19.976562 30.367188 L 7.441406 30.367188 L 8.785156 23.507812 C 9.074219 23.496094 9.351562 23.441406 9.617188 23.34375 C 9.886719 23.242188 10.132812 23.105469 10.355469 22.925781 C 10.582031 22.75 10.769531 22.539062 10.929688 22.300781 C 11.085938 22.0625 11.203125 21.804688 11.277344 21.527344 Z M 11.773438 4.929688 C 11.773438 5.25 11.804688 5.566406 11.871094 5.882812 C 11.933594 6.199219 12.023438 6.503906 12.148438 6.800781 C 12.269531 7.097656 12.421875 7.378906 12.601562 7.648438 C 12.777344 7.914062 12.980469 8.164062 13.207031 8.390625 C 13.4375 8.617188 13.683594 8.820312 13.949219 9 C 14.21875 9.175781 14.5 9.328125 14.796875 9.453125 C 15.09375 9.574219 15.398438 9.667969 15.714844 9.730469 C 16.03125 9.792969 16.347656 9.824219 16.671875 9.824219 C 16.992188 9.824219 17.308594 9.792969 17.625 9.730469 C 17.941406 9.667969 18.246094 9.574219 18.542969 9.453125 C 18.839844 9.328125 19.121094 9.179688 19.390625 9 C 19.65625 8.820312 19.90625 8.617188 20.132812 8.390625 C 20.359375 8.164062 20.5625 7.917969 20.742188 7.648438 C 20.917969 7.382812 21.070312 7.101562 21.191406 6.804688 C 21.316406 6.507812 21.410156 6.199219 21.472656 5.882812 C 21.535156 5.570312 21.566406 5.25 21.566406 4.929688 C 21.566406 4.609375 21.535156 4.289062 21.472656 3.972656 C 21.410156 3.660156 21.316406 3.351562 21.195312 3.054688 C 21.070312 2.757812 20.921875 2.476562 20.742188 2.210938 C 20.5625 1.941406 20.359375 1.695312 20.132812 1.46875 C 19.90625 1.242188 19.660156 1.039062 19.390625 0.859375 C 19.125 0.679688 18.84375 0.53125 18.546875 0.40625 C 18.25 0.285156 17.941406 0.191406 17.625 0.128906 C 17.3125 0.0664062 16.992188 0.0351562 16.671875 0.0351562 C 16.351562 0.0351562 16.03125 0.0664062 15.71875 0.128906 C 15.402344 0.191406 15.097656 0.285156 14.800781 0.40625 C 14.503906 0.53125 14.21875 0.679688 13.953125 0.859375 C 13.6875 1.039062 13.4375 1.242188 13.210938 1.46875 C 12.984375 1.695312 12.78125 1.941406 12.601562 2.210938 C 12.421875 2.476562 12.273438 2.757812 12.148438 3.054688 C 12.027344 3.351562 11.933594 3.660156 11.871094 3.972656 C 11.808594 4.289062 11.777344 4.605469 11.773438 4.929688 Z M 11.664062 38.726562 C 11.664062 39.027344 11.71875 39.3125 11.832031 39.589844 C 11.949219 39.867188 12.109375 40.109375 12.320312 40.320312 C 12.53125 40.53125 12.777344 40.695312 13.050781 40.808594 C 13.328125 40.921875 13.617188 40.980469 13.914062 40.980469 C 14.214844 40.980469 14.5 40.921875 14.777344 40.808594 C 15.050781 40.695312 15.296875 40.53125 15.507812 40.320312 C 15.71875 40.109375 15.878906 39.867188 15.996094 39.589844 C 16.109375 39.3125 16.167969 39.027344 16.167969 38.726562 L 16.167969 31.375 L 11.664062 31.375 Z M 17.175781 31.375 L 17.175781 38.726562 C 17.175781 39.027344 17.234375 39.3125 17.347656 39.589844 C 17.460938 39.863281 17.625 40.109375 17.835938 40.320312 C 18.046875 40.53125 18.289062 40.691406 18.566406 40.808594 C 18.84375 40.921875 19.128906 40.976562 19.425781 40.976562 C 19.726562 40.976562 20.011719 40.921875 20.289062 40.808594 C 20.566406 40.691406 20.808594 40.53125 21.019531 40.320312 C 21.230469 40.109375 21.394531 39.863281 21.507812 39.589844 C 21.621094 39.3125 21.679688 39.027344 21.679688 38.726562 L 21.679688 33.785156 C 21.0625 32.996094 20.554688 32.1875 20.25 31.375 Z M 34.972656 29.742188 C 34.972656 32.269531 31.488281 35.351562 29.183594 37.390625 C 28.722656 37.800781 28.304688 38.167969 27.953125 38.5 C 27.601562 38.171875 27.1875 37.800781 26.722656 37.390625 C 24.710938 35.609375 21.796875 33.035156 21.09375 30.726562 C 21.09375 30.722656 21.089844 30.714844 21.089844 30.710938 C 20.992188 30.394531 20.941406 30.074219 20.9375 29.742188 C 20.925781 28.945312 21.128906 28.207031 21.546875 27.53125 C 21.960938 26.851562 22.523438 26.332031 23.238281 25.976562 C 23.851562 25.664062 24.503906 25.503906 25.195312 25.503906 C 26.101562 25.503906 26.921875 25.769531 27.65625 26.300781 C 27.855469 26.445312 28.050781 26.445312 28.25 26.300781 C 28.898438 25.835938 29.617188 25.574219 30.414062 25.515625 C 31.210938 25.457031 31.964844 25.609375 32.671875 25.976562 C 33.382812 26.332031 33.949219 26.851562 34.363281 27.53125 C 34.777344 28.207031 34.980469 28.945312 34.972656 29.742188 Z M 28.457031 32.996094 L 28.457031 32.105469 C 28.664062 32.0625 28.859375 31.996094 29.046875 31.90625 C 29.234375 31.816406 29.40625 31.707031 29.566406 31.574219 C 29.730469 31.441406 29.871094 31.292969 29.992188 31.125 C 30.117188 30.957031 30.21875 30.777344 30.296875 30.582031 C 30.378906 30.390625 30.429688 30.191406 30.460938 29.984375 C 30.492188 29.78125 30.496094 29.574219 30.476562 29.367188 C 30.453125 29.160156 30.410156 28.957031 30.339844 28.761719 C 30.269531 28.566406 30.175781 28.382812 30.058594 28.207031 C 29.941406 28.035156 29.808594 27.878906 29.652344 27.738281 C 29.5 27.601562 29.328125 27.480469 29.144531 27.382812 C 28.960938 27.285156 28.769531 27.210938 28.566406 27.160156 C 28.367188 27.109375 28.160156 27.085938 27.953125 27.085938 C 27.746094 27.085938 27.539062 27.109375 27.335938 27.160156 C 27.136719 27.210938 26.941406 27.285156 26.757812 27.382812 C 26.574219 27.480469 26.40625 27.601562 26.253906 27.738281 C 26.097656 27.878906 25.964844 28.035156 25.847656 28.207031 C 25.730469 28.382812 25.636719 28.566406 25.566406 28.761719 C 25.496094 28.957031 25.453125 29.160156 25.429688 29.367188 C 25.410156 29.574219 25.414062 29.78125 25.445312 29.984375 C 25.472656 30.191406 25.527344 30.390625 25.609375 30.582031 C 25.6875 30.777344 25.789062 30.957031 25.910156 31.125 C 26.035156 31.292969 26.175781 31.441406 26.335938 31.574219 C 26.496094 31.707031 26.671875 31.816406 26.859375 31.90625 C 27.046875 31.996094 27.242188 32.0625 27.449219 32.105469 L 27.449219 32.996094 L 26.308594 32.996094 C 26.171875 33 26.054688 33.050781 25.957031 33.148438 C 25.859375 33.246094 25.8125 33.363281 25.8125 33.503906 C 25.8125 33.640625 25.859375 33.757812 25.957031 33.859375 C 26.054688 33.957031 26.171875 34.007812 26.308594 34.007812 L 27.449219 34.007812 L 27.449219 36.609375 C 27.449219 36.75 27.496094 36.867188 27.59375 36.96875 C 27.695312 37.066406 27.8125 37.117188 27.953125 37.117188 C 28.09375 37.117188 28.210938 37.066406 28.3125 36.96875 C 28.410156 36.867188 28.457031 36.75 28.457031 36.609375 L 28.457031 34.007812 L 29.597656 34.007812 C 29.738281 34.011719 29.859375 33.960938 29.957031 33.863281 C 30.058594 33.765625 30.109375 33.644531 30.109375 33.503906 C 30.109375 33.363281 30.058594 33.242188 29.957031 33.144531 C 29.859375 33.042969 29.738281 32.996094 29.597656 32.996094 Z M 29.480469 29.617188 C 29.480469 29.414062 29.441406 29.21875 29.363281 29.035156 C 29.285156 28.847656 29.175781 28.683594 29.035156 28.539062 C 28.890625 28.394531 28.726562 28.285156 28.539062 28.207031 C 28.351562 28.132812 28.15625 28.09375 27.953125 28.09375 C 27.753906 28.09375 27.558594 28.132812 27.371094 28.207031 C 27.183594 28.285156 27.019531 28.394531 26.875 28.539062 C 26.734375 28.683594 26.621094 28.847656 26.546875 29.035156 C 26.46875 29.21875 26.429688 29.414062 26.429688 29.617188 C 26.429688 29.820312 26.46875 30.015625 26.542969 30.199219 C 26.621094 30.386719 26.730469 30.554688 26.875 30.695312 C 27.019531 30.839844 27.183594 30.949219 27.371094 31.027344 C 27.554688 31.105469 27.75 31.144531 27.953125 31.144531 C 28.15625 31.144531 28.351562 31.105469 28.539062 31.027344 C 28.722656 30.949219 28.890625 30.839844 29.03125 30.695312 C 29.175781 30.554688 29.285156 30.386719 29.363281 30.203125 C 29.441406 30.015625 29.480469 29.820312 29.480469 29.617188 Z M 29.480469 29.617188 " fill-opacity="1" fill-rule="nonzero"/></g></svg>