<svg xmlns="http://www.w3.org/2000/svg" xmlns:xlink="http://www.w3.org/1999/xlink" width="56" zoomAndPan="magnify" viewBox="0 0 42 42" height="56" preserveAspectRatio="xMidYMid meet" version="1.0"><defs><clipPath id="fa67610494"><path d="M 0.816406 0.328125 L 41.109375 0.328125 L 41.109375 40.621094 L 0.816406 40.621094 Z M 0.816406 0.328125 " clip-rule="nonzero"/></clipPath></defs><path fill="#827fc6" d="M 13.675781 17.507812 L 11.34375 28.152344 C 11.183594 28.109375 11.027344 28.09375 10.855469 28.09375 C 10.824219 28.09375 10.796875 28.09375 10.773438 28.09375 C 9.730469 28.136719 8.890625 29.011719 8.890625 30.070312 C 8.890625 31.164062 9.78125 32.046875 10.867188 32.046875 C 11.941406 32.046875 12.824219 31.171875 12.839844 30.09375 C 12.839844 30.085938 12.839844 30.078125 12.839844 30.0625 C 12.839844 29.65625 12.722656 29.277344 12.503906 28.96875 L 14.667969 19.214844 C 14.328125 18.582031 13.976562 17.953125 13.675781 17.507812 Z M 12.277344 30.070312 C 12.277344 30.84375 11.648438 31.472656 10.875 31.472656 C 10.101562 31.472656 9.46875 30.84375 9.46875 30.070312 C 9.46875 29.296875 10.101562 28.664062 10.875 28.664062 C 10.90625 28.664062 10.941406 28.664062 10.984375 28.671875 C 10.992188 28.671875 11 28.671875 11.007812 28.671875 L 11.015625 28.671875 C 11.722656 28.742188 12.277344 29.339844 12.277344 30.070312 Z M 12.277344 30.070312 " fill-opacity="1" fill-rule="nonzero"/><path fill="#827fc6" d="M 19.171875 28.09375 C 19.140625 28.09375 19.113281 28.09375 19.089844 28.09375 C 18.921875 28.09375 18.761719 28.109375 18.601562 28.152344 L 16.273438 17.507812 C 15.960938 17.953125 15.609375 18.582031 15.273438 19.222656 L 17.433594 28.976562 C 17.222656 29.289062 17.097656 29.664062 17.097656 30.070312 C 17.097656 30.078125 17.097656 30.085938 17.097656 30.101562 C 17.113281 31.179688 17.996094 32.046875 19.070312 32.046875 C 20.164062 32.046875 21.046875 31.152344 21.046875 30.070312 C 21.066406 29.011719 20.222656 28.136719 19.171875 28.09375 Z M 19.089844 31.472656 C 18.316406 31.472656 17.683594 30.84375 17.683594 30.070312 C 17.683594 29.328125 18.257812 28.722656 18.980469 28.664062 L 18.988281 28.664062 C 19.023438 28.65625 19.0625 28.65625 19.097656 28.65625 C 19.871094 28.65625 20.5 29.289062 20.5 30.0625 C 20.492188 30.84375 19.863281 31.472656 19.089844 31.472656 Z M 19.089844 31.472656 " fill-opacity="1" fill-rule="nonzero"/><path fill="#827fc6" d="M 15.996094 16.609375 L 15.550781 15.734375 C 15.523438 15.691406 15.507812 15.640625 15.480469 15.589844 L 14.464844 15.589844 C 14.449219 15.632812 14.421875 15.683594 14.398438 15.734375 L 13.953125 16.609375 C 13.917969 16.675781 13.882812 16.742188 13.859375 16.808594 C 14.195312 17.203125 14.582031 17.851562 14.976562 18.582031 C 15.371094 17.859375 15.75 17.214844 16.097656 16.808594 C 16.0625 16.742188 16.035156 16.675781 15.996094 16.609375 Z M 14.976562 17.171875 C 14.765625 17.171875 14.609375 17.003906 14.609375 16.800781 C 14.609375 16.589844 14.777344 16.429688 14.976562 16.429688 C 15.1875 16.429688 15.347656 16.597656 15.347656 16.800781 C 15.355469 17.003906 15.1875 17.171875 14.976562 17.171875 Z M 14.976562 17.171875 " fill-opacity="1" fill-rule="nonzero"/><path fill="#827fc6" d="M 15.363281 14.96875 L 15.363281 12.65625 C 15.363281 12.183594 15.332031 11.714844 15.253906 11.261719 C 15.179688 10.773438 15.085938 10.359375 14.96875 10.007812 C 14.851562 10.359375 14.757812 10.78125 14.683594 11.261719 C 14.617188 11.714844 14.574219 12.183594 14.574219 12.65625 L 14.574219 14.96875 C 14.574219 14.984375 14.574219 15.011719 14.574219 15.027344 L 15.347656 15.027344 C 15.363281 15.003906 15.363281 14.976562 15.363281 14.96875 Z M 15.363281 14.96875 " fill-opacity="1" fill-rule="nonzero"/><path fill="#827fc6" d="M 30.371094 26.578125 C 29.75 26.578125 29.171875 26.789062 28.714844 27.144531 C 27.734375 25.597656 27.941406 24.082031 28.167969 22.34375 C 28.203125 22.125 28.230469 21.886719 28.261719 21.652344 L 28.632812 19.476562 L 29.902344 12.015625 C 29.96875 11.613281 29.976562 11.21875 29.917969 10.847656 C 29.742188 9.714844 29.070312 9.082031 27.917969 8.964844 C 27.757812 8.949219 27.625 9.066406 27.605469 9.21875 C 27.589844 9.375 27.707031 9.511719 27.859375 9.527344 C 28.742188 9.613281 29.210938 10.066406 29.355469 10.933594 C 29.40625 11.242188 29.398438 11.570312 29.339844 11.917969 L 28.109375 19.121094 L 26.414062 19.121094 L 25.183594 11.917969 C 25.125 11.570312 25.117188 11.242188 25.167969 10.933594 C 25.300781 10.058594 25.78125 9.613281 26.664062 9.527344 C 26.824219 9.511719 26.933594 9.367188 26.917969 9.21875 C 26.898438 9.058594 26.765625 8.949219 26.605469 8.964844 C 25.453125 9.074219 24.78125 9.714844 24.605469 10.847656 C 24.546875 11.21875 24.546875 11.613281 24.621094 12.015625 L 25.890625 19.476562 L 26.261719 21.652344 C 26.292969 21.886719 26.320312 22.117188 26.355469 22.34375 C 26.589844 24.082031 26.800781 25.597656 25.808594 27.144531 C 25.34375 26.789062 24.773438 26.578125 24.152344 26.578125 C 22.644531 26.578125 21.417969 27.808594 21.417969 29.3125 C 21.417969 30.816406 22.644531 32.046875 24.152344 32.046875 C 25.65625 32.046875 26.882812 30.816406 26.882812 29.3125 C 26.882812 28.640625 26.640625 28.019531 26.226562 27.539062 C 27.394531 25.789062 27.160156 24.074219 26.917969 22.265625 C 26.898438 22.148438 26.882812 22.023438 26.867188 21.898438 L 27.65625 21.898438 C 27.640625 22.015625 27.625 22.140625 27.605469 22.265625 C 27.363281 24.074219 27.128906 25.78125 28.296875 27.539062 C 27.882812 28.019531 27.640625 28.640625 27.640625 29.3125 C 27.640625 30.816406 28.867188 32.046875 30.371094 32.046875 C 31.878906 32.046875 33.105469 30.816406 33.105469 29.3125 C 33.105469 27.808594 31.878906 26.578125 30.371094 26.578125 Z M 26.328125 29.3125 C 26.328125 30.507812 25.351562 31.480469 24.167969 31.480469 C 22.972656 31.480469 22.007812 30.507812 22.007812 29.3125 C 22.007812 28.117188 22.980469 27.152344 24.167969 27.152344 C 25.351562 27.144531 26.328125 28.117188 26.328125 29.3125 Z M 26.789062 21.332031 L 26.511719 19.703125 L 28.019531 19.703125 L 27.742188 21.332031 Z M 30.371094 31.472656 C 29.179688 31.472656 28.203125 30.5 28.203125 29.304688 C 28.203125 28.109375 29.179688 27.144531 30.371094 27.144531 C 31.566406 27.144531 32.535156 28.117188 32.535156 29.304688 C 32.535156 30.507812 31.566406 31.472656 30.371094 31.472656 Z M 30.371094 31.472656 " fill-opacity="1" fill-rule="nonzero"/><g clip-path="url(#fa67610494)"><path fill="#827fc6" d="M 39.589844 12.65625 C 38.570312 10.25 37.117188 8.097656 35.265625 6.242188 C 33.417969 4.390625 31.253906 2.9375 28.851562 1.917969 C 26.363281 0.867188 23.722656 0.328125 20.996094 0.328125 C 18.273438 0.328125 15.632812 0.859375 13.144531 1.917969 C 10.738281 2.9375 8.585938 4.390625 6.730469 6.242188 C 4.871094 8.089844 3.425781 10.25 2.40625 12.65625 C 1.355469 15.144531 0.816406 17.785156 0.816406 20.507812 C 0.816406 23.234375 1.347656 25.875 2.40625 28.363281 C 3.425781 30.765625 4.878906 32.917969 6.730469 34.777344 C 8.578125 36.628906 10.738281 38.082031 13.144531 39.101562 C 15.632812 40.152344 18.273438 40.6875 20.996094 40.6875 C 23.722656 40.6875 26.363281 40.160156 28.851562 39.101562 C 31.253906 38.082031 33.410156 36.628906 35.265625 34.777344 C 37.117188 32.929688 38.570312 30.765625 39.589844 28.363281 C 40.640625 25.875 41.175781 23.234375 41.175781 20.507812 C 41.175781 17.785156 40.640625 15.144531 39.589844 12.65625 Z M 40.421875 20.507812 C 40.421875 31.222656 31.703125 39.941406 20.988281 39.941406 C 10.277344 39.941406 1.558594 31.222656 1.558594 20.507812 C 1.558594 9.796875 10.277344 1.078125 20.988281 1.078125 C 31.710938 1.078125 40.421875 9.796875 40.421875 20.507812 Z M 40.421875 20.507812 " fill-opacity="1" fill-rule="nonzero"/></g></svg>