<svg xmlns="http://www.w3.org/2000/svg" xmlns:xlink="http://www.w3.org/1999/xlink" width="56" zoomAndPan="magnify" viewBox="0 0 42 42" height="56" preserveAspectRatio="xMidYMid meet" version="1.0"><defs><clipPath id="3a012cf3c4"><path d="M 1 0.511719 L 41 0.511719 L 41 40.804688 L 1 40.804688 Z M 1 0.511719 " clip-rule="nonzero"/></clipPath></defs><g clip-path="url(#3a012cf3c4)"><path fill="#827fc6" d="M 36.757812 15.402344 C 36.414062 14.460938 35.371094 13.972656 34.429688 14.3125 L 30.542969 15.722656 C 29.859375 15.972656 29.414062 16.59375 29.355469 17.28125 L 20.386719 19.113281 L 12.652344 17.46875 C 12.640625 17.234375 12.582031 17 12.480469 16.78125 C 12.273438 16.339844 11.910156 16.007812 11.457031 15.84375 L 7.570312 14.433594 C 6.628906 14.089844 5.585938 14.578125 5.242188 15.519531 L 1.109375 26.894531 C 0.769531 27.835938 1.257812 28.878906 2.199219 29.222656 L 6.082031 30.636719 C 6.289062 30.710938 6.496094 30.746094 6.703125 30.746094 C 7.144531 30.746094 7.570312 30.578125 7.902344 30.289062 L 17.464844 39.785156 C 17.46875 39.789062 17.46875 39.792969 17.472656 39.792969 C 17.953125 40.253906 18.582031 40.503906 19.246094 40.503906 C 19.269531 40.503906 19.296875 40.503906 19.320312 40.503906 C 20.015625 40.484375 20.65625 40.195312 21.128906 39.683594 C 21.476562 39.3125 21.691406 38.863281 21.78125 38.398438 C 22.21875 38.683594 22.730469 38.828125 23.261719 38.8125 C 23.953125 38.789062 24.59375 38.5 25.066406 37.992188 C 25.457031 37.566406 25.683594 37.042969 25.746094 36.503906 C 26.050781 36.617188 26.378906 36.671875 26.71875 36.664062 C 27.410156 36.640625 28.050781 36.351562 28.523438 35.84375 C 29.097656 35.222656 29.316406 34.386719 29.179688 33.605469 C 29.195312 33.605469 29.210938 33.605469 29.222656 33.605469 C 29.914062 33.585938 30.554688 33.292969 31.027344 32.785156 C 31.519531 32.257812 31.761719 31.546875 31.71875 30.832031 L 33.945312 30.027344 C 34.105469 30.203125 34.300781 30.347656 34.523438 30.453125 C 34.769531 30.566406 35.03125 30.625 35.292969 30.625 C 35.503906 30.625 35.710938 30.589844 35.910156 30.515625 L 39.796875 29.105469 C 40.738281 28.765625 41.226562 27.71875 40.886719 26.777344 L 36.753906 15.402344 Z M 31.179688 29.695312 L 25.851562 24.265625 C 25.207031 23.609375 24.265625 23.457031 23.328125 23.847656 L 19.542969 25.4375 C 17.777344 26.175781 15.949219 25.703125 14.992188 24.257812 C 14.917969 24.152344 14.894531 24.023438 14.921875 23.902344 C 14.949219 23.777344 15.027344 23.675781 15.136719 23.609375 L 20.613281 20.34375 L 29.617188 18.503906 L 33.390625 28.894531 Z M 6.511719 29.460938 L 2.625 28.046875 C 2.332031 27.941406 2.179688 27.617188 2.285156 27.324219 L 6.417969 15.949219 C 6.472656 15.808594 6.574219 15.695312 6.710938 15.628906 C 6.789062 15.59375 6.871094 15.574219 6.953125 15.574219 C 7.019531 15.574219 7.082031 15.585938 7.144531 15.609375 L 11.03125 17.019531 C 11.171875 17.070312 11.285156 17.175781 11.347656 17.3125 C 11.410156 17.449219 11.417969 17.601562 11.367188 17.742188 L 7.234375 29.121094 C 7.128906 29.414062 6.800781 29.566406 6.511719 29.460938 Z M 30.109375 31.933594 C 29.867188 32.195312 29.539062 32.34375 29.183594 32.355469 C 28.835938 32.367188 28.5 32.238281 28.246094 32 C 28.242188 31.996094 28.238281 31.992188 28.234375 31.988281 L 24.144531 28.085938 C 23.894531 27.847656 23.496094 27.855469 23.257812 28.105469 C 23.019531 28.355469 23.03125 28.75 23.28125 28.988281 L 27.347656 32.871094 C 27.355469 32.878906 27.363281 32.890625 27.371094 32.894531 C 27.371094 32.898438 27.371094 32.898438 27.371094 32.898438 L 27.546875 33.066406 C 28.089844 33.582031 28.113281 34.445312 27.605469 34.992188 C 27.363281 35.25 27.035156 35.402344 26.679688 35.414062 C 26.324219 35.421875 25.984375 35.292969 25.726562 35.046875 L 24.957031 34.3125 C 24.957031 34.3125 24.953125 34.308594 24.953125 34.308594 L 21.222656 30.75 C 20.972656 30.511719 20.578125 30.519531 20.339844 30.769531 C 20.101562 31.019531 20.109375 31.414062 20.359375 31.652344 L 24.085938 35.210938 C 24.089844 35.210938 24.089844 35.210938 24.089844 35.214844 C 24.628906 35.730469 24.652344 36.59375 24.144531 37.140625 C 23.90625 37.402344 23.578125 37.550781 23.222656 37.5625 C 22.863281 37.570312 22.527344 37.441406 22.269531 37.195312 L 21.019531 36.003906 C 21.015625 36.003906 21.015625 36 21.015625 36 C 21.011719 36 21.011719 35.996094 21.007812 35.996094 L 18.300781 33.410156 C 18.050781 33.171875 17.65625 33.183594 17.417969 33.429688 C 17.179688 33.679688 17.1875 34.078125 17.4375 34.316406 L 20.144531 36.898438 C 20.144531 36.898438 20.148438 36.902344 20.148438 36.902344 C 20.148438 36.902344 20.152344 36.90625 20.15625 36.910156 C 20.695312 37.425781 20.71875 38.289062 20.210938 38.835938 C 19.96875 39.09375 19.640625 39.246094 19.28125 39.253906 C 18.929688 39.265625 18.59375 39.136719 18.339844 38.894531 L 8.546875 29.171875 L 12.355469 18.6875 L 18.691406 20.035156 L 14.492188 22.535156 C 14.085938 22.78125 13.804688 23.167969 13.699219 23.628906 C 13.59375 24.085938 13.683594 24.558594 13.945312 24.953125 C 15.246094 26.914062 17.6875 27.570312 20.023438 26.59375 L 23.8125 25.003906 C 24.023438 24.914062 24.566406 24.746094 24.953125 25.144531 L 30.445312 30.738281 C 30.527344 31.167969 30.40625 31.617188 30.109375 31.933594 Z M 39.371094 27.929688 L 35.484375 29.339844 C 35.34375 29.390625 35.191406 29.382812 35.054688 29.320312 C 34.917969 29.253906 34.8125 29.140625 34.761719 29 L 30.628906 17.625 C 30.523438 17.332031 30.675781 17.007812 30.96875 16.898438 L 34.855469 15.488281 C 34.917969 15.46875 34.980469 15.457031 35.046875 15.457031 C 35.128906 15.457031 35.210938 15.472656 35.285156 15.511719 C 35.425781 15.574219 35.527344 15.6875 35.578125 15.828125 L 39.707031 27.207031 C 39.816406 27.5 39.664062 27.824219 39.371094 27.929688 Z M 36.398438 2.507812 C 33.535156 2.152344 30.914062 4.195312 30.558594 7.058594 C 30.375 8.511719 30.8125 9.898438 31.65625 10.960938 C 31.683594 11.003906 31.714844 11.039062 31.75 11.074219 C 32.570312 12.050781 33.746094 12.734375 35.109375 12.902344 C 35.328125 12.929688 35.546875 12.941406 35.757812 12.941406 C 37.339844 12.941406 38.792969 12.226562 39.765625 11.070312 C 39.792969 11.039062 39.820312 11.011719 39.84375 10.976562 C 40.429688 10.246094 40.828125 9.347656 40.953125 8.347656 C 41.308594 5.484375 39.265625 2.863281 36.398438 2.507812 Z M 35.265625 11.660156 C 34.339844 11.546875 33.53125 11.121094 32.921875 10.507812 C 33.15625 10.09375 33.53125 9.734375 34.003906 9.472656 C 34.40625 9.785156 34.882812 9.984375 35.402344 10.050781 C 35.523438 10.0625 35.640625 10.070312 35.761719 10.070312 C 36.390625 10.070312 37 9.863281 37.507812 9.472656 C 37.976562 9.730469 38.351562 10.089844 38.585938 10.507812 C 37.746094 11.355469 36.535156 11.820312 35.265625 11.660156 Z M 37.359375 7.402344 C 37.308594 7.828125 37.089844 8.214844 36.75 8.476562 C 36.410156 8.742188 35.984375 8.859375 35.558594 8.808594 C 35.128906 8.753906 34.746094 8.535156 34.480469 8.195312 C 34.214844 7.855469 34.097656 7.429688 34.148438 7.003906 C 34.203125 6.574219 34.421875 6.191406 34.761719 5.925781 C 35.046875 5.703125 35.394531 5.582031 35.75 5.582031 C 35.820312 5.582031 35.886719 5.589844 35.953125 5.597656 C 36.382812 5.648438 36.765625 5.867188 37.03125 6.207031 C 37.296875 6.546875 37.414062 6.972656 37.359375 7.402344 Z M 39.710938 8.195312 C 39.65625 8.632812 39.535156 9.042969 39.355469 9.417969 C 39.074219 9.0625 38.722656 8.75 38.316406 8.5 C 38.464844 8.207031 38.5625 7.886719 38.601562 7.554688 C 38.695312 6.792969 38.488281 6.042969 38.019531 5.4375 C 37.546875 4.835938 36.871094 4.449219 36.109375 4.355469 C 35.347656 4.261719 34.597656 4.46875 33.992188 4.9375 C 33.386719 5.410156 33.003906 6.085938 32.910156 6.847656 C 32.835938 7.421875 32.9375 7.992188 33.195312 8.496094 C 32.789062 8.75 32.4375 9.0625 32.15625 9.414062 C 31.839844 8.753906 31.703125 7.996094 31.800781 7.214844 C 32.050781 5.199219 33.773438 3.714844 35.753906 3.714844 C 35.917969 3.714844 36.082031 3.726562 36.246094 3.746094 C 38.429688 4.019531 39.984375 6.015625 39.710938 8.195312 Z M 21.355469 0.625 C 21.140625 0.476562 20.855469 0.476562 20.640625 0.625 C 18.867188 1.867188 16.660156 2.480469 13.890625 2.507812 C 13.546875 2.511719 13.273438 2.789062 13.273438 3.132812 L 13.273438 8.847656 C 13.273438 11.179688 13.933594 13.128906 15.242188 14.640625 C 16.53125 16.132812 18.421875 17.164062 20.863281 17.703125 C 20.90625 17.710938 20.953125 17.714844 20.996094 17.714844 C 21.042969 17.714844 21.085938 17.710938 21.132812 17.703125 C 23.570312 17.164062 25.460938 16.132812 26.753906 14.640625 C 28.058594 13.128906 28.722656 11.179688 28.722656 8.847656 L 28.722656 3.132812 C 28.722656 2.789062 28.445312 2.511719 28.101562 2.507812 C 25.332031 2.480469 23.125 1.867188 21.355469 0.625 Z M 27.472656 8.847656 C 27.472656 12.902344 25.292969 15.457031 20.996094 16.449219 C 16.699219 15.457031 14.523438 12.902344 14.523438 8.847656 L 14.523438 3.742188 C 17.09375 3.636719 19.222656 3.03125 20.996094 1.890625 C 22.773438 3.03125 24.902344 3.636719 27.472656 3.742188 Z M 18.988281 8.507812 C 18.089844 7.847656 17.089844 8.195312 16.570312 8.878906 C 16.050781 9.5625 15.984375 10.613281 16.863281 11.296875 L 18.929688 12.910156 C 19.246094 13.160156 19.621094 13.28125 19.992188 13.28125 C 20.480469 13.28125 20.964844 13.070312 21.304688 12.664062 L 25.398438 7.8125 C 25.699219 7.453125 25.839844 7.003906 25.796875 6.546875 C 25.757812 6.089844 25.539062 5.679688 25.1875 5.382812 L 25.15625 5.359375 C 25.15625 5.359375 25.152344 5.355469 25.148438 5.351562 C 24.425781 4.75 23.34375 4.84375 22.734375 5.5625 L 19.757812 9.074219 Z M 20.335938 10.332031 L 23.6875 6.371094 C 23.855469 6.175781 24.148438 6.148438 24.34375 6.308594 L 24.371094 6.335938 C 24.375 6.335938 24.378906 6.339844 24.382812 6.34375 C 24.480469 6.425781 24.539062 6.535156 24.550781 6.660156 C 24.5625 6.785156 24.523438 6.90625 24.441406 7.007812 L 20.347656 11.859375 C 20.183594 12.054688 19.902344 12.082031 19.703125 11.925781 L 17.632812 10.3125 C 17.292969 10.050781 17.496094 9.730469 17.566406 9.636719 C 17.617188 9.570312 17.757812 9.410156 17.960938 9.410156 C 18.046875 9.410156 18.140625 9.4375 18.246094 9.515625 L 19.484375 10.429688 C 19.75 10.625 20.121094 10.582031 20.332031 10.332031 Z M 2.230469 11.070312 C 3.054688 12.046875 4.230469 12.734375 5.59375 12.902344 C 5.8125 12.929688 6.03125 12.941406 6.246094 12.941406 C 7.824219 12.941406 9.277344 12.226562 10.25 11.070312 C 10.28125 11.039062 10.304688 11.011719 10.328125 10.976562 C 10.914062 10.246094 11.3125 9.347656 11.4375 8.351562 C 11.792969 5.484375 9.753906 2.863281 6.886719 2.507812 C 6.886719 2.507812 6.886719 2.507812 6.882812 2.507812 C 4.019531 2.152344 1.398438 4.195312 1.042969 7.0625 C 0.863281 8.511719 1.300781 9.902344 2.148438 10.964844 C 2.171875 11.003906 2.199219 11.039062 2.234375 11.070312 Z M 5.75 11.660156 C 4.828125 11.546875 4.019531 11.121094 3.410156 10.507812 C 3.644531 10.09375 4.019531 9.734375 4.488281 9.472656 C 4.882812 9.777344 5.359375 9.984375 5.886719 10.046875 C 6.007812 10.0625 6.128906 10.070312 6.246094 10.070312 C 6.878906 10.070312 7.484375 9.863281 7.992188 9.472656 C 8.460938 9.730469 8.835938 10.089844 9.070312 10.507812 C 8.230469 11.355469 7.023438 11.820312 5.75 11.660156 Z M 7.847656 7.402344 C 7.792969 7.828125 7.574219 8.214844 7.234375 8.476562 C 6.894531 8.742188 6.472656 8.859375 6.042969 8.808594 C 5.15625 8.699219 4.523438 7.886719 4.632812 7.003906 C 4.6875 6.574219 4.90625 6.191406 5.246094 5.925781 C 5.53125 5.703125 5.878906 5.582031 6.234375 5.582031 C 6.304688 5.582031 6.371094 5.589844 6.4375 5.597656 C 6.867188 5.648438 7.25 5.867188 7.515625 6.207031 C 7.78125 6.546875 7.898438 6.972656 7.84375 7.402344 Z M 2.285156 7.214844 C 2.535156 5.199219 4.257812 3.71875 6.238281 3.71875 C 6.402344 3.71875 6.566406 3.726562 6.730469 3.75 C 8.914062 4.019531 10.46875 6.015625 10.195312 8.195312 C 10.144531 8.632812 10.019531 9.042969 9.839844 9.417969 C 9.558594 9.0625 9.207031 8.75 8.800781 8.5 C 8.949219 8.207031 9.046875 7.890625 9.085938 7.554688 C 9.179688 6.796875 8.972656 6.042969 8.503906 5.4375 C 8.03125 4.835938 7.355469 4.449219 6.59375 4.355469 C 5.832031 4.261719 5.082031 4.46875 4.476562 4.941406 C 3.871094 5.410156 3.488281 6.089844 3.394531 6.851562 C 3.320312 7.4375 3.429688 8.007812 3.683594 8.5 C 3.277344 8.753906 2.925781 9.0625 2.640625 9.417969 C 2.324219 8.753906 2.1875 7.996094 2.28125 7.214844 Z M 2.285156 7.214844 " fill-opacity="1" fill-rule="nonzero"/></g></svg>