<svg xmlns="http://www.w3.org/2000/svg" xmlns:xlink="http://www.w3.org/1999/xlink" width="56" zoomAndPan="magnify" viewBox="0 0 42 42" height="56" preserveAspectRatio="xMidYMid meet" version="1.0"><defs><clipPath id="8af2c5bc61"><path d="M 2.746094 28 L 9 28 L 9 40 L 2.746094 40 Z M 2.746094 28 " clip-rule="nonzero"/></clipPath><clipPath id="7d557c1995"><path d="M 10 29 L 33 29 L 33 41.023438 L 10 41.023438 Z M 10 29 " clip-rule="nonzero"/></clipPath><clipPath id="f840d52ebc"><path d="M 33 1 L 39.371094 1 L 39.371094 13 L 33 13 Z M 33 1 " clip-rule="nonzero"/></clipPath></defs><g clip-path="url(#8af2c5bc61)"><path fill="#827fc6" d="M 2.757812 28.019531 L 8.804688 28.019531 L 8.804688 39.109375 L 2.757812 39.109375 Z M 2.757812 28.019531 " fill-opacity="1" fill-rule="nonzero"/></g><g clip-path="url(#7d557c1995)"><path fill="#827fc6" d="M 30.777344 32.359375 L 24.925781 34.890625 C 24.539062 35.640625 23.746094 36.246094 22.355469 36.246094 L 15.980469 36.246094 C 15.5625 36.246094 15.21875 35.90625 15.21875 35.496094 C 15.21875 35.085938 15.5625 34.746094 15.980469 34.746094 L 22.355469 34.746094 C 23.019531 34.746094 23.449219 34.539062 23.609375 34.136719 C 23.617188 34.09375 23.636719 34.050781 23.652344 34.019531 C 23.679688 33.914062 23.695312 33.796875 23.695312 33.675781 C 23.695312 32.898438 23.097656 31.960938 22.355469 31.960938 L 19.167969 31.960938 C 19.046875 31.960938 18.929688 31.933594 18.816406 31.875 L 14.539062 29.667969 L 10.316406 29.667969 L 10.316406 38.367188 C 12.332031 38.929688 14.496094 40.210938 14.800781 40.398438 C 17.988281 41.929688 21.875 40.1875 22.191406 40.039062 L 32.023438 34.367188 C 32.289062 34.214844 32.484375 33.957031 32.570312 33.660156 C 32.65625 33.351562 32.613281 33.035156 32.460938 32.769531 C 32.101562 32.136719 31.332031 32.121094 30.777344 32.359375 Z M 30.777344 32.359375 " fill-opacity="1" fill-rule="nonzero"/></g><g clip-path="url(#f840d52ebc)"><path fill="#827fc6" d="M 33.1875 1.90625 L 33.1875 2.058594 C 33.1875 2.066406 33.1875 2.074219 33.1875 2.085938 L 33.1875 12.992188 L 39.234375 12.992188 L 39.234375 1.90625 Z M 33.1875 1.90625 " fill-opacity="1" fill-rule="nonzero"/></g><path fill="#827fc6" d="M 11.222656 8.664062 L 17.066406 6.132812 C 17.449219 5.382812 18.246094 4.777344 19.636719 4.777344 L 26.011719 4.777344 C 26.429688 4.777344 26.761719 5.117188 26.761719 5.527344 C 26.761719 5.945312 26.421875 6.277344 26.011719 6.277344 L 19.636719 6.277344 C 18.972656 6.277344 18.550781 6.484375 18.382812 6.878906 C 18.371094 6.917969 18.355469 6.960938 18.339844 7.003906 C 18.3125 7.109375 18.296875 7.226562 18.296875 7.355469 C 18.296875 8.132812 18.894531 9.074219 19.636719 9.074219 L 22.824219 9.074219 C 22.945312 9.074219 23.0625 9.097656 23.175781 9.15625 L 27.453125 11.363281 L 31.675781 11.363281 L 31.675781 2.664062 C 29.65625 2.101562 27.496094 0.820312 27.1875 0.632812 C 23.984375 -0.90625 20.117188 0.847656 19.800781 0.992188 L 9.976562 6.671875 C 9.710938 6.824219 9.515625 7.082031 9.429688 7.382812 C 9.34375 7.6875 9.386719 8.003906 9.539062 8.269531 C 9.898438 8.882812 10.667969 8.902344 11.222656 8.664062 Z M 11.222656 8.664062 " fill-opacity="1" fill-rule="nonzero"/><path fill="#b8b7f8" d="M 11.640625 19.8125 C 11.640625 23.59375 14.714844 26.671875 18.5 26.671875 C 22.285156 26.671875 25.359375 23.59375 25.359375 19.8125 C 25.359375 16.027344 22.285156 12.949219 18.5 12.949219 C 14.714844 12.949219 11.640625 16.027344 11.640625 19.8125 Z M 19.261719 15.882812 L 19.261719 19.050781 L 22.429688 19.050781 C 22.847656 19.050781 23.183594 19.390625 23.183594 19.800781 C 23.183594 20.222656 22.839844 20.554688 22.429688 20.554688 L 19.261719 20.554688 L 19.261719 23.722656 C 19.261719 24.140625 18.917969 24.476562 18.507812 24.476562 C 18.089844 24.476562 17.757812 24.132812 17.757812 23.722656 L 17.757812 20.554688 L 14.589844 20.554688 C 14.167969 20.554688 13.835938 20.210938 13.835938 19.800781 C 13.835938 19.382812 14.179688 19.050781 14.589844 19.050781 L 17.757812 19.050781 L 17.757812 15.882812 C 17.757812 15.460938 18.097656 15.128906 18.507812 15.128906 C 18.917969 15.128906 19.261719 15.460938 19.261719 15.882812 Z M 19.261719 15.882812 " fill-opacity="1" fill-rule="nonzero"/></svg>