<svg width="735" height="735" viewBox="0 0 735 735" fill="none" xmlns="http://www.w3.org/2000/svg">
<path d="M367.621 731C568.31 731 731 568.255 731 367.5C731 166.744 568.31 4 367.621 4C166.932 4 4.2417 166.744 4.2417 367.5C4.2417 568.255 166.932 731 367.621 731Z" fill="#F2E6DC"/>
<path d="M689.669 373.288L647.061 369.749L698.273 357.448C731.872 291.99 739.315 231.038 713.766 215.931C685.567 199.257 627.853 244.748 584.859 317.538C541.865 390.328 529.872 462.853 558.071 479.527C586.271 496.201 643.985 450.711 686.979 377.921C687.891 376.376 688.784 374.832 689.669 373.288Z" fill="#E6D0BE"/>
<path d="M617.886 278.997C622.67 242.313 622.851 207.884 619.261 179.504L583.479 219.062L615.054 155.781C608.116 126.434 596.083 107.471 580.379 105.51C547.702 101.431 511.514 172.489 499.55 264.223C487.587 355.957 504.379 433.63 537.057 437.709C569.734 441.789 605.923 370.731 617.886 278.997Z" fill="#D3BBA3"/>
<path d="M476.991 632.617C476.89 632.617 476.786 632.599 476.686 632.561C476.232 632.392 476.002 631.888 476.171 631.434C532.443 480.431 556.034 354.668 565.916 275.756C576.619 190.284 573.989 139.893 573.961 139.394C573.934 138.911 574.303 138.498 574.786 138.471C575.263 138.445 575.682 138.813 575.709 139.297C575.737 139.797 578.376 190.347 567.653 275.974C557.76 354.978 534.142 480.885 477.812 632.046C477.681 632.399 477.346 632.617 476.991 632.617Z" fill="#E6D0BE"/>
<path d="M482.441 635.829C482.329 635.829 482.215 635.807 482.106 635.762C481.659 635.576 481.447 635.064 481.633 634.617C571.081 419.133 673.762 269.352 674.789 267.864C675.063 267.467 675.608 267.365 676.007 267.641C676.405 267.916 676.505 268.462 676.23 268.859C675.204 270.346 572.624 419.986 483.25 635.289C483.11 635.626 482.784 635.829 482.441 635.829Z" fill="#F7F1EB"/>
<path d="M440.513 344.028L470.157 356.281L440.12 331.105C439.801 278.366 455.423 237.364 477.585 236.516C502.047 235.579 525.212 283.914 529.327 344.475C533.443 405.035 516.948 454.889 492.487 455.825C468.025 456.762 444.859 408.427 440.744 347.866C440.657 346.582 440.582 345.303 440.513 344.028Z" fill="#E6D0BE"/>
<path d="M469.496 639.686C469.417 639.686 469.338 639.675 469.259 639.653C468.793 639.522 468.522 639.039 468.652 638.573C495.973 541.195 499.103 449.215 496.917 389.201C494.488 322.487 485.229 279.012 483.925 276.669C483.61 276.302 483.678 275.783 484.045 275.469C484.412 275.153 484.991 275.232 485.305 275.598C486.847 277.395 496.115 321.85 498.618 387.815C500.912 448.266 497.868 540.923 470.338 639.047C470.229 639.433 469.878 639.686 469.496 639.686Z" fill="#F7F1EB"/>
<path d="M426.024 265.707C426.024 265.707 426.024 265.707 426.023 265.707L258.739 265.418C258.256 265.417 257.864 265.025 257.865 264.541L258.201 53.6355C258.201 53.4031 258.294 53.1803 258.458 53.0162C258.622 52.8529 258.844 52.7607 259.076 52.7607C259.076 52.7607 259.077 52.7607 259.078 52.7607L426.362 53.0492C426.846 53.05 427.237 53.4425 427.236 53.9263L426.9 264.832C426.9 265.065 426.807 265.287 426.643 265.451C426.479 265.614 426.256 265.707 426.024 265.707ZM259.617 263.668L425.15 263.953L425.484 54.7995L259.951 54.5143L259.617 263.668Z" fill="#84524D"/>
<path d="M428.835 68.2522C425.429 68.2522 422.228 66.8784 419.819 64.3824C417.413 61.8907 416.085 58.5763 416.08 55.0506C416.068 47.7599 421.781 41.8184 428.814 41.8061C432.23 41.7711 435.437 43.1746 437.852 45.6758C440.258 48.1675 441.586 51.4819 441.592 55.0077C441.603 62.2983 435.89 68.2398 428.857 68.2522C428.85 68.2522 428.842 68.2522 428.835 68.2522ZM428.836 43.558C428.83 43.558 428.824 43.558 428.817 43.558C422.749 43.5687 417.821 48.7233 417.831 55.0482C417.836 58.1187 418.989 61.0012 421.079 63.1656C423.155 65.3164 425.909 66.5002 428.835 66.5002C428.842 66.5002 428.848 66.5002 428.854 66.5002C434.922 66.4895 439.85 61.3349 439.84 55.01C439.835 51.9396 438.682 49.057 436.592 46.8927C434.516 44.7419 431.762 43.558 428.836 43.558Z" fill="#363E44"/>
<path d="M411.355 68.2819C407.949 68.2819 404.748 66.9082 402.339 64.4125C399.933 61.9209 398.605 58.6068 398.599 55.0807C398.587 47.7896 404.3 41.8481 411.334 41.8362C411.341 41.8362 411.349 41.8362 411.357 41.8362C414.762 41.8362 417.962 43.2095 420.372 45.7056C422.777 48.1972 424.106 51.5112 424.111 55.0374C424.123 62.3284 418.41 68.27 411.376 68.2819C411.369 68.2819 411.362 68.2819 411.355 68.2819ZM411.356 43.5881C411.35 43.5881 411.344 43.5881 411.338 43.5881C405.269 43.5985 400.341 48.753 400.351 55.0783C400.356 58.1488 401.509 61.0314 403.599 63.1957C405.675 65.3461 408.429 66.5299 411.355 66.5299C411.361 66.5299 411.367 66.5299 411.374 66.5299C417.441 66.5196 422.37 61.3651 422.36 55.0398C422.355 51.9693 421.202 49.0867 419.112 46.9224C417.036 44.772 414.282 43.5881 411.356 43.5881Z" fill="#363E44"/>
<path d="M393.874 68.3117C390.468 68.3117 387.268 66.9383 384.858 64.4423C382.453 61.9506 381.124 58.6362 381.119 55.1105C381.107 47.8194 386.82 41.8779 393.854 41.866C393.861 41.866 393.868 41.866 393.875 41.866C397.281 41.866 400.482 43.2397 402.891 45.7354C405.297 48.227 406.625 51.5414 406.631 55.0672C406.642 62.3582 400.93 68.2998 393.896 68.3117C393.889 68.3117 393.881 68.3117 393.874 68.3117ZM393.875 43.6179C393.869 43.6179 393.863 43.6179 393.857 43.6179C387.788 43.6282 382.86 48.7828 382.87 55.1081C382.875 58.1786 384.028 61.0611 386.118 63.2255C388.194 65.3759 390.948 66.5597 393.874 66.5597C393.88 66.5597 393.886 66.5597 393.893 66.5597C399.961 66.5494 404.889 61.3949 404.88 55.0696C404.874 51.9991 403.721 49.1165 401.631 46.9522C399.556 44.8018 396.801 43.6179 393.875 43.6179Z" fill="#363E44"/>
<path d="M376.395 68.3421C372.989 68.3421 369.788 66.9684 367.378 64.4723C364.973 61.9807 363.644 58.6667 363.639 55.1405C363.627 47.8498 369.34 41.9083 376.373 41.896C376.38 41.896 376.388 41.896 376.395 41.896C379.801 41.896 383.002 43.2697 385.412 45.7658C387.817 48.2574 389.146 51.5714 389.151 55.0976C389.163 62.3883 383.45 68.3298 376.417 68.3421C376.409 68.3421 376.402 68.3421 376.395 68.3421ZM365.39 55.1381C365.395 58.2086 366.549 61.0912 368.638 63.2555C370.714 65.4063 373.469 66.5902 376.395 66.5902C376.401 66.5902 376.407 66.5902 376.413 66.5902C382.481 66.5794 387.409 61.4249 387.4 55.1C387.395 52.0295 386.241 49.1469 384.152 46.9826C382.075 44.8318 379.321 43.6479 376.395 43.6479C376.389 43.6479 376.383 43.6479 376.376 43.6479C370.309 43.6587 365.38 48.8128 365.39 55.1381Z" fill="#363E44"/>
<path d="M358.913 68.372C355.508 68.372 352.307 66.9986 349.898 64.5026C347.492 62.0109 346.164 58.6965 346.158 55.1708C346.147 47.8797 351.86 41.9382 358.893 41.9263C358.9 41.9263 358.908 41.9263 358.915 41.9263C362.321 41.9263 365.521 43.2996 367.931 45.7957C370.337 48.2873 371.665 51.6017 371.671 55.1275C371.682 62.4185 365.969 68.3601 358.935 68.372C358.928 68.372 358.92 68.372 358.913 68.372ZM347.91 55.1684C347.915 58.2389 349.068 61.1215 351.158 63.2858C353.234 65.4362 355.988 66.62 358.913 66.62C358.92 66.62 358.926 66.62 358.932 66.62C365 66.6097 369.929 61.4552 369.919 55.1299C369.914 52.0594 368.761 49.1768 366.671 47.0125C364.595 44.8621 361.841 43.6782 358.915 43.6782C358.909 43.6782 358.903 43.6782 358.896 43.6782C352.828 43.6886 347.9 48.8431 347.91 55.1684Z" fill="#363E44"/>
<path d="M341.434 68.4027C338.028 68.4027 334.827 67.0289 332.417 64.5329C330.012 62.0412 328.684 58.7272 328.678 55.201C328.666 47.9104 334.379 41.9689 341.413 41.9565C341.42 41.9565 341.427 41.9565 341.434 41.9565C344.84 41.9565 348.041 43.3303 350.451 45.8259C352.856 48.318 354.184 51.6324 354.19 55.1581C354.202 62.4488 348.489 68.3903 341.455 68.4027C341.448 68.4027 341.441 68.4027 341.434 68.4027ZM330.43 55.1987C330.435 58.2692 331.588 61.1517 333.678 63.316C335.754 65.4668 338.508 66.6507 341.434 66.6507C341.44 66.6507 341.446 66.6507 341.453 66.6507C347.521 66.64 352.449 61.4854 352.439 55.1605C352.434 52.09 351.281 49.2071 349.191 47.0432C347.115 44.8923 344.361 43.7085 341.435 43.7085C341.428 43.7085 341.422 43.7085 341.416 43.7085C335.348 43.7188 330.42 48.8734 330.43 55.1987Z" fill="#363E44"/>
<path d="M323.954 68.4323C320.548 68.4323 317.347 67.0585 314.937 64.5629C312.532 62.0712 311.204 58.7568 311.198 55.2311C311.186 47.94 316.899 41.9985 323.933 41.9866C323.94 41.9866 323.948 41.9866 323.955 41.9866C327.361 41.9866 330.561 43.3599 332.971 45.856C335.376 48.3476 336.704 51.662 336.71 55.1878C336.722 62.4788 331.009 68.4204 323.975 68.4323C323.968 68.4323 323.961 68.4323 323.954 68.4323ZM312.949 55.2287C312.955 58.2992 314.108 61.1818 316.198 63.3461C318.279 65.5012 321.076 66.6839 323.973 66.6803C330.041 66.67 334.969 61.5155 334.959 55.1902C334.954 52.1197 333.801 49.2371 331.711 47.0728C329.63 44.9176 326.891 43.6996 323.936 43.7385C317.868 43.7489 312.939 48.9034 312.949 55.2287Z" fill="#363E44"/>
<path d="M306.473 68.4621C303.068 68.4621 299.867 67.0887 297.457 64.5927C295.052 62.101 293.723 58.787 293.718 55.2609C293.706 47.9698 299.419 42.0283 306.453 42.0164C306.46 42.0164 306.468 42.0164 306.475 42.0164C309.88 42.0164 313.081 43.3897 315.49 45.8857C317.896 48.3774 319.224 51.6914 319.23 55.2176C319.242 62.5086 313.529 68.4502 306.495 68.4621C306.488 68.4621 306.48 68.4621 306.473 68.4621ZM295.469 55.2589C295.474 58.3294 296.628 61.2119 298.717 63.3763C300.794 65.5267 303.547 66.7105 306.473 66.7105C306.479 66.7105 306.485 66.7105 306.492 66.7105C312.56 66.7002 317.489 61.5456 317.478 55.2203C317.474 52.1499 316.32 49.2673 314.231 47.103C312.154 44.9526 309.401 43.7687 306.475 43.7687C306.468 43.7687 306.462 43.7687 306.456 43.7687C300.388 43.7786 295.459 48.9332 295.469 55.2589Z" fill="#363E44"/>
<path d="M288.993 68.4927C285.588 68.4927 282.387 67.119 279.977 64.623C277.571 62.1313 276.243 58.8169 276.238 55.2911C276.226 48.0005 281.939 42.0589 288.972 42.0466C288.979 42.0466 288.986 42.0466 288.994 42.0466C292.399 42.0466 295.6 43.4204 298.01 45.9164C300.416 48.4081 301.744 51.7225 301.75 55.2482C301.761 62.5389 296.049 68.4804 289.015 68.4927C289.008 68.4927 289.001 68.4927 288.993 68.4927ZM288.994 43.7986C288.988 43.7986 288.982 43.7986 288.975 43.7986C282.907 43.8093 277.979 48.9639 277.989 55.2888C277.994 58.3592 279.147 61.2418 281.237 63.4061C283.313 65.5569 286.067 66.7408 288.993 66.7408C289 66.7408 289.005 66.7408 289.012 66.7408C295.08 66.7301 300.008 61.5755 299.998 55.2506C299.993 52.1801 298.84 49.2976 296.75 47.1333C294.674 44.9824 291.92 43.7986 288.994 43.7986Z" fill="#363E44"/>
<path d="M447.497 53.0485L267.065 52.7417L266.721 255.361L447.153 255.667L447.497 53.0485Z" fill="#EFBC73"/>
<path d="M439.91 78.4686L275.19 78.1885L274.901 248.579L439.62 248.859L439.91 78.4686Z" fill="#F7F1EB"/>
<path d="M415.783 70.4622C418.875 70.4622 421.383 67.8565 421.383 64.6422C421.383 61.428 418.875 58.8223 415.783 58.8223C412.69 58.8223 410.183 61.428 410.183 64.6422C410.183 67.8565 412.69 70.4622 415.783 70.4622Z" fill="white"/>
<path d="M392.702 64.6818C392.707 67.8961 395.218 70.4974 398.311 70.4922C401.404 70.4867 403.907 67.877 403.902 64.6627C403.897 61.4485 401.386 58.8471 398.293 58.8523C395.2 58.8575 392.697 61.4675 392.702 64.6818Z" fill="white"/>
<path d="M380.822 70.5225C383.915 70.5225 386.422 67.9168 386.422 64.7025C386.422 61.4883 383.915 58.8826 380.822 58.8826C377.729 58.8826 375.222 61.4883 375.222 64.7025C375.222 67.9168 377.729 70.5225 380.822 70.5225Z" fill="white"/>
<path d="M363.342 70.5523C366.435 70.5523 368.942 67.9466 368.942 64.7323C368.942 61.518 366.435 58.9124 363.342 58.9124C360.249 58.9124 357.742 61.518 357.742 64.7323C357.742 67.9466 360.249 70.5523 363.342 70.5523Z" fill="white"/>
<path d="M345.862 70.5826C348.955 70.5826 351.462 67.9769 351.462 64.7626C351.462 61.5483 348.955 58.9426 345.862 58.9426C342.769 58.9426 340.262 61.5483 340.262 64.7626C340.262 67.9769 342.769 70.5826 345.862 70.5826Z" fill="white"/>
<path d="M328.381 70.6126C331.474 70.6126 333.981 68.0069 333.981 64.7926C333.981 61.5783 331.474 58.9727 328.381 58.9727C325.288 58.9727 322.781 61.5783 322.781 64.7926C322.781 68.0069 325.288 70.6126 328.381 70.6126Z" fill="white"/>
<path d="M310.902 70.6429C313.994 70.6429 316.502 68.0372 316.502 64.8229C316.502 61.6086 313.994 59.0029 310.902 59.0029C307.809 59.0029 305.302 61.6086 305.302 64.8229C305.302 68.0372 307.809 70.6429 310.902 70.6429Z" fill="white"/>
<path d="M293.421 70.6729C296.514 70.6729 299.021 68.0672 299.021 64.8529C299.021 61.6386 296.514 59.033 293.421 59.033C290.328 59.033 287.821 61.6386 287.821 64.8529C287.821 68.0672 290.328 70.6729 293.421 70.6729Z" fill="white"/>
<path d="M275.941 70.7029C279.034 70.7029 281.541 68.0972 281.541 64.883C281.541 61.6687 279.034 59.063 275.941 59.063C272.848 59.063 270.341 61.6687 270.341 64.883C270.341 68.0972 272.848 70.7029 275.941 70.7029Z" fill="white"/>
<path d="M431.059 68.0359C430.649 68.0359 430.283 67.7467 430.2 67.3288C430.107 66.8544 430.416 66.394 430.891 66.3006C436.085 65.2781 439.849 60.5295 439.84 55.0099C439.835 51.9394 438.682 49.0568 436.592 46.8925C434.516 44.7417 431.762 43.5579 428.836 43.5579C428.829 43.5579 428.825 43.5595 428.816 43.5579C428.333 43.5579 427.941 43.1665 427.941 42.6831C427.94 42.1924 428.317 41.8039 428.836 41.8059C432.242 41.8059 435.443 43.1797 437.852 45.6757C440.258 48.1674 441.586 51.4818 441.592 55.0075C441.602 61.3634 437.243 66.8362 431.229 68.0196C431.171 68.0307 431.115 68.0359 431.059 68.0359Z" fill="#363E44"/>
<path d="M413.578 68.0662C413.168 68.0662 412.802 67.777 412.72 67.3591C412.626 66.8843 412.935 66.4243 413.41 66.3306C418.604 65.3088 422.368 60.5602 422.36 55.0398C422.355 51.9693 421.201 49.0868 419.112 46.9224C417.035 44.772 414.282 43.5882 411.356 43.5882C411.349 43.5878 411.337 43.5862 411.335 43.5882C410.852 43.5882 410.461 43.1969 410.46 42.7138C410.459 42.2228 410.862 41.8318 411.356 41.8362C414.762 41.8362 417.962 43.2096 420.372 45.7056C422.777 48.1973 424.106 51.5113 424.111 55.0374C424.121 61.3937 419.763 66.8665 413.748 68.0495C413.691 68.0611 413.634 68.0662 413.578 68.0662Z" fill="#363E44"/>
<path d="M396.097 68.0964C395.688 68.0964 395.321 67.8071 395.239 67.3892C395.145 66.9149 395.455 66.4545 395.929 66.3611C401.124 65.3385 404.888 60.59 404.88 55.0696C404.875 51.9991 403.721 49.1165 401.631 46.9522C399.555 44.8018 396.801 43.6179 393.875 43.6179C393.869 43.6179 393.862 43.6211 393.855 43.6179C393.372 43.6179 392.98 43.2266 392.979 42.7431C392.979 42.2525 393.346 41.8648 393.875 41.866C397.28 41.866 400.481 43.2397 402.891 45.7354C405.297 48.227 406.625 51.5414 406.631 55.0672C406.641 61.4235 402.282 66.8958 396.267 68.0797C396.211 68.0912 396.153 68.0964 396.097 68.0964Z" fill="#363E44"/>
<path d="M378.618 68.1262C378.208 68.1262 377.842 67.8369 377.759 67.419C377.666 66.9443 377.975 66.4843 378.45 66.3905C383.644 65.3687 387.409 60.6202 387.4 55.0997C387.395 52.0293 386.241 49.1467 384.152 46.9824C382.075 44.8316 379.321 43.6477 376.395 43.6477C376.388 43.6477 376.384 43.6481 376.375 43.6477C375.892 43.6477 375.5 43.2564 375.499 42.7729C375.498 42.2823 375.86 41.8954 376.395 41.8958C379.8 41.8958 383.002 43.2695 385.411 45.7655C387.817 48.2572 389.145 51.5712 389.151 55.0974C389.161 61.4536 384.802 66.9264 378.787 68.1095C378.73 68.121 378.674 68.1262 378.618 68.1262Z" fill="#363E44"/>
<path d="M361.137 68.1564C360.727 68.1564 360.361 67.8671 360.279 67.4492C360.185 66.9745 360.495 66.5145 360.969 66.4207C366.164 65.3989 369.928 60.6504 369.919 55.1303C369.914 52.0599 368.761 49.1773 366.671 47.013C364.595 44.8626 361.841 43.6787 358.915 43.6787C358.908 43.6783 358.897 43.6771 358.895 43.6787C358.411 43.6787 358.02 43.2874 358.019 42.8043C358.018 42.3133 358.402 41.9482 358.916 41.9268C362.321 41.9268 365.522 43.3001 367.931 45.7962C370.337 48.2878 371.665 51.6022 371.671 55.128C371.681 61.4843 367.322 66.957 361.307 68.1401C361.25 68.1512 361.193 68.1564 361.137 68.1564Z" fill="#363E44"/>
<path d="M343.657 68.1865C343.247 68.1865 342.881 67.8973 342.799 67.4794C342.705 67.0051 343.014 66.5446 343.489 66.4513C348.683 65.4287 352.447 60.6802 352.439 55.1605C352.434 52.09 351.281 49.2071 349.191 47.0432C347.115 44.8923 344.361 43.7085 341.434 43.7085C341.428 43.7085 341.421 43.7101 341.414 43.7085C340.931 43.7085 340.539 43.3172 340.539 42.8337C340.538 42.3431 340.919 41.9569 341.434 41.9565C344.84 41.9565 348.041 43.3303 350.45 45.8259C352.856 48.318 354.184 51.6324 354.19 55.1581C354.2 61.514 349.842 66.9864 343.826 68.1703C343.77 68.1814 343.713 68.1865 343.657 68.1865Z" fill="#363E44"/>
<path d="M326.177 68.2167C325.767 68.2167 325.401 67.9275 325.319 67.5095C325.225 67.0348 325.534 66.5748 326.009 66.481C331.203 65.4592 334.968 60.7107 334.959 55.1906C334.954 52.1202 333.801 49.2376 331.711 47.0733C329.63 44.9181 326.891 43.7001 323.936 43.739C323.935 43.739 323.934 43.739 323.934 43.739C323.451 43.739 323.059 43.3477 323.059 42.8646C323.058 42.3736 323.439 42.0057 323.955 41.9871C327.36 41.9871 330.561 43.3604 332.97 45.8564C335.376 48.3481 336.704 51.6625 336.71 55.1883C336.72 61.5446 332.362 67.0169 326.347 68.2004C326.29 68.2115 326.233 68.2167 326.177 68.2167Z" fill="#363E44"/>
<path d="M308.696 68.2464C308.287 68.2464 307.92 67.9572 307.838 67.5393C307.745 67.0646 308.054 66.6045 308.528 66.5108C313.723 65.489 317.487 60.7405 317.478 55.2204C317.474 52.15 316.32 49.2674 314.231 47.1031C312.154 44.9526 309.401 43.7688 306.474 43.7688C306.467 43.7688 306.456 43.768 306.454 43.7688C305.971 43.7688 305.579 43.3775 305.578 42.8944C305.578 42.4034 305.971 42.0343 306.475 42.0168C309.88 42.0168 313.081 43.3902 315.49 45.8862C317.896 48.3779 319.224 51.6919 319.23 55.218C319.24 61.5743 314.881 67.0467 308.866 68.2302C308.809 68.2413 308.752 68.2464 308.696 68.2464Z" fill="#363E44"/>
<path d="M291.217 68.2768C290.807 68.2768 290.441 67.9876 290.358 67.5697C290.265 67.0953 290.574 66.6349 291.049 66.5415C296.243 65.519 300.007 60.7704 299.998 55.2504C299.994 52.1799 298.84 49.2973 296.751 47.133C294.674 44.9822 291.92 43.7983 288.994 43.7983C288.987 43.7983 288.98 43.7987 288.974 43.7983C288.491 43.7983 288.099 43.407 288.099 42.9236C288.098 42.4333 288.463 42.0488 288.994 42.0464C292.4 42.0464 295.601 43.4201 298.01 45.9162C300.416 48.4078 301.744 51.7222 301.75 55.248C301.76 61.6039 297.402 67.0762 291.387 68.2601C291.329 68.2716 291.273 68.2768 291.217 68.2768Z" fill="#363E44"/>
<path d="M415.238 131.574H432.039V114.114H415.238V131.574Z" fill="#E6D0BE"/>
<path d="M381.607 131.574H398.407V114.114H381.607V131.574Z" fill="#E6D0BE"/>
<path d="M347.975 131.574H364.775V114.114H347.975V131.574Z" fill="#E6D0BE"/>
<path d="M331.144 132.45H314.343C313.859 132.45 313.467 132.058 313.467 131.574V114.114C313.467 113.63 313.859 113.238 314.343 113.238H331.144C331.628 113.238 332.02 113.63 332.02 114.114V131.574C332.02 132.058 331.628 132.45 331.144 132.45ZM315.219 130.698H330.268V114.99H315.219V130.698Z" fill="#E6D0BE"/>
<path d="M415.238 166.527H432.039V149.067H415.238V166.527Z" fill="#E2A18D"/>
<path d="M381.607 166.527H398.407V149.067H381.607V166.527Z" fill="#E6D0BE"/>
<path d="M347.975 166.527H364.775V149.067H347.975V166.527Z" fill="#E6D0BE"/>
<path d="M314.343 166.527H331.144V149.067H314.343V166.527Z" fill="#E6D0BE"/>
<path d="M415.238 201.48H432.039V184.02H415.238V201.48Z" fill="#E6D0BE"/>
<path d="M381.607 201.48H398.407V184.02H381.607V201.48Z" fill="#E2A18D"/>
<path d="M347.975 201.48H364.775V184.02H347.975V201.48Z" fill="#E2A18D"/>
<path d="M314.343 201.48H331.144V184.02H314.343V201.48Z" fill="#D87355"/>
<path d="M415.238 236.433H432.039V218.972H415.238V236.433Z" fill="#E6D0BE"/>
<path d="M381.607 236.433H398.407V218.972H381.607V236.433Z" fill="#E6D0BE"/>
<path d="M347.975 236.433H364.775V218.972H347.975V236.433Z" fill="#E6D0BE"/>
<path d="M314.343 236.433H331.144V218.972H314.343V236.433Z" fill="#E6D0BE"/>
<path d="M298.411 131.797H281.61C281.127 131.797 280.735 131.405 280.735 130.921V113.46C280.735 112.977 281.127 112.584 281.61 112.584H298.411C298.895 112.584 299.287 112.977 299.287 113.46V130.921C299.287 131.404 298.895 131.797 298.411 131.797ZM282.486 130.045H297.535V114.336H282.486V130.045Z" fill="#E6D0BE"/>
<path d="M281.61 165.874H298.411V148.413H281.61V165.874Z" fill="#E6D0BE"/>
<path d="M281.61 200.826H298.411V183.366H281.61V200.826Z" fill="#E2A18D"/>
<path d="M281.61 235.779H298.411V218.318H281.61V235.779Z" fill="#E6D0BE"/>
<path d="M315.556 103.81L399.679 103.81V85.3574L315.556 85.3574V103.81Z" fill="#D3BBA3"/>
<path d="M181.116 730.124L188.061 568.364L212.345 730.124L313.041 730.416C293.02 631.108 271.394 535.532 247.795 444.542L118.59 467.044L88.3005 730.124H181.116Z" fill="#363E44"/>
<path d="M225.91 382.391C244.984 409.579 294.347 495.846 323.548 473.192C352.152 451.003 300.124 379.238 279.841 350.358C261.008 361.544 244.743 371.205 225.91 382.391Z" fill="#BC8271"/>
<path d="M93.5844 339.417C71.8631 347.853 -7.82297 371.543 5.49021 406.502C12.9838 426.179 76.0255 409.053 95.5673 401.708C90.5571 387.473 98.5951 353.653 93.5844 339.417Z" fill="#BC8271"/>
<path d="M319.17 392.317C319.17 392.317 274.222 316.406 194.921 318.753C117.132 321.055 40.7546 341.302 40.7546 341.302L86.4669 412.624L104.409 495.053L271.711 497.783L271.764 446.706L319.17 392.317Z" fill="#8B865C"/>
<path d="M320.922 424.434C347.482 436.697 318.461 555.309 313.128 575.13C313.291 578.025 313.092 582.382 310.715 586.55C308.006 591.303 305.061 591.259 301.422 595.829C295.278 603.541 297.814 611.438 294.331 611.686C291.939 611.857 290.263 607.319 289.809 602.783C289.344 598.126 291.003 594.918 290.298 594.617C289.525 594.287 288.261 597.763 286.293 601.943C285.378 603.884 286.15 610.762 282.917 611.477C280.34 612.047 277.749 605.097 279.02 598.753C279.919 594.264 283.414 591.522 282.778 590.98C282.301 590.573 280.259 592.259 278.931 594.236C276.741 597.498 277.454 604.544 274.466 605.143C271.539 605.731 269.383 599.621 270.182 593.712C270.856 588.73 274.899 585.858 274.112 585.18C273.559 584.703 271.482 585.612 267.893 588.723C264.897 591.32 260.746 598.302 257.561 595.572C254.882 593.276 259.069 585.84 264.195 579.699C267.591 575.631 271.505 571.911 273.675 569.673C272.04 569.412 269.508 569.117 266.418 569.238C260.908 569.454 258.959 570.251 257.633 568.138C256.266 565.96 259.809 563.341 264.465 561.51C270.018 559.325 274.854 559.975 277.633 559.802C278.702 549.029 285.413 494.767 286.482 483.995C292.318 429.105 307.721 418.339 320.922 424.434Z" fill="#BC8271"/>
<path d="M295.529 472.17C295.306 472.17 295.083 472.086 294.913 471.917L279.882 457.027C279.538 456.686 279.535 456.132 279.876 455.788C280.215 455.444 280.77 455.441 281.114 455.782L296.145 470.672C296.489 471.013 296.491 471.567 296.151 471.911C295.98 472.084 295.754 472.17 295.529 472.17Z" fill="#363E44"/>
<path d="M168.848 276.74L214.902 281.076L218.284 245.131L172.23 240.796L168.848 276.74Z" fill="#363E44"/>
<path d="M191.946 336.937L174.802 318.394V290.203H207.724L209.089 320.304L191.946 336.937Z" fill="#BC8271"/>
<path d="M215.815 272.68C215.212 285.47 207.606 305.399 191.084 304.621C174.562 303.843 168.864 283.289 169.467 270.498C170.07 257.708 181.037 251.185 193.836 251.787C206.634 252.39 216.418 259.89 215.815 272.68Z" fill="#BC8271"/>
<path d="M171.664 287.565C175.037 286.252 176.175 281.089 174.206 276.032C172.238 270.976 167.908 267.941 164.535 269.254C161.162 270.567 160.024 275.731 161.993 280.787C163.961 285.844 168.291 288.878 171.664 287.565Z" fill="#BC8271"/>
<path d="M222.167 283.628C224.603 278.779 223.957 273.531 220.723 271.905C217.49 270.28 212.894 272.893 210.458 277.742C208.022 282.591 208.669 287.839 211.902 289.464C215.136 291.09 219.731 288.477 222.167 283.628Z" fill="#BC8271"/>
<path d="M216.875 285.986C216.571 285.986 216.275 285.828 216.114 285.544C215.874 285.124 216.021 284.589 216.441 284.35C217.335 283.84 218.134 282.948 218.691 281.839C219.246 280.73 219.483 279.557 219.356 278.537C219.293 278.021 219.07 277.098 218.299 276.711C218.19 276.657 218.074 276.616 217.953 276.588C217.482 276.48 217.187 276.011 217.295 275.539C217.403 275.068 217.87 274.769 218.344 274.88C218.601 274.939 218.85 275.028 219.083 275.145C220.194 275.702 220.909 276.83 221.094 278.32C221.263 279.681 220.965 281.209 220.256 282.624C219.546 284.039 218.499 285.192 217.308 285.871C217.171 285.95 217.023 285.986 216.875 285.986Z" fill="#363E44"/>
<path d="M167.334 283.655C167.161 283.655 166.985 283.603 166.832 283.496C165.709 282.708 164.776 281.462 164.202 279.987C163.629 278.511 163.476 276.961 163.772 275.623C164.097 274.156 164.914 273.1 166.074 272.651C166.318 272.556 166.573 272.491 166.833 272.456C167.314 272.397 167.753 272.73 167.816 273.21C167.88 273.689 167.543 274.13 167.063 274.193C166.94 274.209 166.82 274.24 166.706 274.284C165.902 274.596 165.594 275.494 165.482 276.001C165.26 277.005 165.385 278.195 165.835 279.352C166.284 280.508 166.995 281.47 167.838 282.062C168.234 282.34 168.329 282.885 168.051 283.281C167.881 283.525 167.61 283.655 167.334 283.655Z" fill="#363E44"/>
<path d="M213.155 286.744C213.058 286.744 212.959 286.728 212.863 286.694C212.407 286.532 212.169 286.031 212.33 285.576C213.531 282.189 214.367 278.553 214.749 275.06C214.802 274.579 215.238 274.237 215.715 274.284C216.195 274.337 216.542 274.769 216.49 275.25C216.093 278.876 215.226 282.649 213.981 286.161C213.853 286.52 213.516 286.744 213.155 286.744Z" fill="#363E44"/>
<path d="M171.201 285.984C170.818 285.984 170.467 285.731 170.359 285.345C169.157 281.073 168.515 276.338 168.55 272.012C168.554 271.531 168.945 271.143 169.425 271.143C169.427 271.143 169.43 271.143 169.433 271.143C169.916 271.147 170.305 271.543 170.301 272.026C170.267 276.192 170.886 280.753 172.044 284.87C172.176 285.336 171.904 285.82 171.439 285.95C171.359 285.973 171.28 285.984 171.201 285.984Z" fill="#363E44"/>
<path d="M191.879 305.922C191.576 305.922 191.271 305.913 190.963 305.894C184.381 305.494 179.391 300.925 175.779 296.99C175.452 296.634 175.476 296.08 175.832 295.753C176.189 295.425 176.743 295.449 177.069 295.805C180.669 299.727 185.147 303.786 191.069 304.146C196.995 304.502 202.009 300.781 205.711 297.495C206.073 297.173 206.626 297.207 206.947 297.569C207.268 297.931 207.235 298.484 206.873 298.805C203.104 302.151 198.036 305.922 191.879 305.922Z" fill="#363E44"/>
<path d="M192.372 288.183C192.044 288.183 191.731 287.999 191.581 287.684C191.373 287.248 191.558 286.725 191.994 286.517C192.815 286.126 193.312 285.685 193.395 285.276C193.448 285.014 193.338 284.771 193.031 284.195C192.785 283.733 192.48 283.158 192.271 282.389C191.965 281.261 191.958 280.058 192.249 278.813C192.359 278.342 192.833 278.048 193.301 278.16C193.772 278.27 194.065 278.741 193.954 279.212C193.73 280.171 193.732 281.085 193.961 281.93C194.119 282.51 194.352 282.948 194.577 283.372C194.93 284.036 195.294 284.721 195.111 285.624C194.911 286.613 194.116 287.446 192.748 288.098C192.626 288.156 192.498 288.183 192.372 288.183Z" fill="#363E44"/>
<path d="M190.819 293.254C189.388 293.254 187.905 292.508 186.987 291.308C186.392 290.531 186.056 289.598 186.039 288.68C186.03 288.197 186.415 287.798 186.899 287.789C187.352 287.796 187.781 288.165 187.79 288.649C187.8 289.195 188.008 289.761 188.377 290.243C189.003 291.06 190.012 291.546 190.955 291.499C191.429 291.462 191.851 291.838 191.88 292.321C191.909 292.804 191.54 293.219 191.058 293.247C190.978 293.251 190.899 293.254 190.819 293.254Z" fill="#363E44"/>
<path d="M209.175 251.399C210.549 254.911 214.511 256.645 218.025 255.273C221.539 253.9 228.699 249.935 227.326 246.423C225.952 242.911 216.566 241.183 213.051 242.555C209.537 243.927 207.802 247.887 209.175 251.399Z" fill="#363E44"/>
<path d="M159.949 252.792C161.626 257.08 172.427 256.709 176.718 255.033C181.008 253.357 183.127 248.523 181.45 244.235C179.774 239.948 174.936 237.83 170.646 239.505C166.355 241.181 158.272 248.504 159.949 252.792Z" fill="#363E44"/>
<path d="M204.156 243.502C205.833 247.79 210.671 249.908 214.961 248.232C219.252 246.556 226.415 236.641 223.57 233.343C220.562 229.856 213.18 231.028 208.889 232.704C204.599 234.38 202.48 239.215 204.156 243.502Z" fill="#363E44"/>
<path d="M175.402 240.989C176.458 243.692 179.508 245.027 182.213 243.97C184.918 242.914 186.253 239.867 185.196 237.164C184.139 234.461 179.043 230.581 176.338 231.637C173.633 232.693 174.344 238.286 175.402 240.989Z" fill="#363E44"/>
<path d="M183.004 242.819C184.68 247.106 189.518 249.224 193.808 247.549C198.099 245.873 200.218 241.039 198.541 236.751C196.864 232.463 188.14 220.066 183.85 221.742C179.559 223.417 181.327 238.531 183.004 242.819Z" fill="#363E44"/>
<path d="M184.077 258.138C185.754 262.425 195.27 261.389 199.56 259.713C203.851 258.038 205.97 253.203 204.293 248.915C202.616 244.628 197.779 242.51 193.488 244.186C189.197 245.861 182.4 253.85 184.077 258.138Z" fill="#363E44"/>
<path d="M194.041 239.253C195.717 243.541 200.555 245.659 204.846 243.983C209.136 242.307 211.255 237.473 209.578 233.185C207.902 228.898 201.114 223.023 196.824 224.699C192.533 226.375 192.364 234.965 194.041 239.253Z" fill="#363E44"/>
<path d="M201.154 260.192C202.211 262.895 206.297 266.814 209.002 265.758C211.706 264.702 212.006 259.069 210.949 256.366C209.892 253.663 206.843 252.328 204.138 253.385C201.433 254.441 200.097 257.489 201.154 260.192Z" fill="#363E44"/>
<path d="M171.822 268.315C171.822 268.315 173.391 272.055 176.742 274.713C177.412 275.244 179.692 268.29 178.391 268.091C174.852 267.549 171.822 268.315 171.822 268.315Z" fill="white"/>
<path d="M189.517 277.144C189.517 277.144 183.853 278.576 178.966 276.138C178.146 275.728 177.401 275.235 176.727 274.699C176.639 274.358 176.566 274.011 176.528 273.65C176.305 271.536 177.036 269.544 178.367 268.089C179.675 268.288 181.052 268.662 182.372 269.321C187.259 271.759 189.517 277.144 189.517 277.144Z" fill="#363E44"/>
<path d="M202.43 270.772C198.224 272.966 195.916 277.104 195.916 277.104C195.916 277.104 198.928 278.236 202.578 278.051C203.846 277.987 202.893 270.53 202.43 270.772Z" fill="white"/>
<path d="M202.432 270.772C202.895 270.531 203.381 270.312 203.889 270.125C209.017 268.247 214.486 270.301 214.486 270.301C214.486 270.301 211.641 275.401 206.513 277.279C205.189 277.765 203.842 277.986 202.572 278.05C201.219 275.869 201.123 273.072 202.432 270.772Z" fill="#363E44"/>
<path d="M163.822 730.343L234.966 730.781C236.646 696.266 228.844 589.762 217.162 556.647L189.372 477.917L136.883 510.466L136.346 519.55L132.122 591.258C137.536 600.353 142.201 607.835 146.069 614.646C154.421 629.343 163.505 712.222 163.822 730.343Z" fill="#B77250"/>
<path d="M66.1912 730.781L139.086 730.562C140.074 715.635 144.898 629.103 146.07 614.656V614.646C147.029 602.808 148.047 591.373 149.122 580.764C149.496 577.042 149.871 573.425 150.264 569.923C152.837 546.66 155.622 518.321 158.685 510.407L76.3889 516.682C76.3889 516.682 62.4192 642.976 66.1912 730.781Z" fill="#B77250"/>
<path d="M147.771 608.224C147.756 608.224 147.741 608.223 147.725 608.222C147.242 608.198 146.871 607.787 146.895 607.304L148.816 569.504L166.527 563.406C166.983 563.25 167.482 563.491 167.639 563.949C167.797 564.407 167.554 564.905 167.096 565.063L150.505 570.774L148.644 607.392C148.621 607.86 148.234 608.224 147.771 608.224Z" fill="#363E44"/>
<path d="M49.7837 456.46C52.2424 517.189 52.4699 524.099 52.4699 524.099C79.9033 521.977 210.138 516.511 210.138 516.511C210.138 516.511 207.171 493.644 204.787 477.953C201.932 459.157 195 436.748 186.914 408.082C181.271 388.076 168.376 367.848 148.741 360.991C134.903 356.158 119.126 351.916 95.5671 357.041C79.2039 360.601 71.6687 368.389 65.4551 387.062C56.5461 413.836 48.4573 423.694 49.7837 456.46Z" fill="#EFBC73"/>
<path d="M36.0842 458.81C36.0842 458.81 39.6688 414.074 76.1834 366.747C84.42 356.071 100.731 357.769 111.345 366.09C123.754 375.818 125.973 393.735 116.313 406.194L72.2907 462.974L36.0842 458.81Z" fill="#E2A18D"/>
<path d="M49.4261 434.424C49.4273 434.423 59.9569 435.767 59.9585 435.768C108.228 444.348 142.639 449.511 153.2 451.522C154.306 451.733 156.26 452.096 158.576 453.238C167.159 457.468 166.968 465.611 173.962 474.174C181.898 483.891 191.872 484.872 191.279 488.02C190.866 490.21 187 490.898 179.244 489.318C179.243 489.318 179.243 489.319 179.243 489.319C184.998 491.197 192.691 494.083 191.644 497.258C190.238 500.86 180.801 498.529 175.161 496.84C181.988 498.884 185.005 502.012 183.98 503.637C182.366 506.195 176.703 505.842 167.785 502.79L167.784 502.79C173.353 506.616 174.133 508.374 172.877 509.589C170.581 511.809 163.298 509.162 157.217 505.836C150.372 502.091 146.363 496.814 143.915 493.426C143.914 493.425 143.913 493.425 143.912 493.425C109.482 490.918 72.7419 489.572 45.6203 483.309C30.7182 479.868 32.8612 446.388 49.4261 434.424Z" fill="#E2A18D"/>
<path d="M74.7714 438.953C74.7218 438.953 74.6713 438.948 74.6209 438.94C69.3724 438.029 64.3164 437.141 59.4174 436.27C58.9412 436.186 58.6239 435.731 58.7085 435.255C58.7931 434.778 59.2474 434.458 59.7236 434.546C64.621 435.416 69.6742 436.304 74.9204 437.214C75.3965 437.296 75.7158 437.75 75.6336 438.226C75.5593 438.652 75.1896 438.953 74.7714 438.953Z" fill="#363E44"/>
<path d="M165.714 467.815C178.054 469.202 182.799 467.09 182.957 465.128C183.222 461.83 173.172 456.335 155.392 452.036C157.874 456.69 163.233 463.161 165.714 467.815Z" fill="#E2A18D"/>
<path d="M169.563 469.226C169.254 469.226 168.954 469.063 168.795 468.773C168.067 467.451 167.433 466.171 166.819 464.932C165.551 462.373 164.353 459.956 162.675 457.96C162.364 457.59 162.412 457.038 162.781 456.726C163.15 456.415 163.704 456.462 164.015 456.832C165.829 458.989 167.072 461.498 168.389 464.155C168.993 465.376 169.619 466.639 170.329 467.928C170.562 468.352 170.408 468.884 169.984 469.118C169.85 469.191 169.705 469.226 169.563 469.226Z" fill="#363E44"/>
<path d="M179.138 489.848C179.026 489.848 178.913 489.826 178.803 489.78C176.7 488.907 174.728 487.759 172.94 486.369C171.71 485.413 170.559 484.334 169.519 483.161C169.198 482.799 169.232 482.245 169.593 481.925C169.955 481.602 170.509 481.637 170.829 481.998C171.797 483.091 172.869 484.096 174.014 484.986C175.679 486.281 177.516 487.349 179.475 488.163C179.921 488.349 180.133 488.861 179.947 489.308C179.807 489.645 179.481 489.848 179.138 489.848Z" fill="#363E44"/>
<path d="M175.949 497.603C175.837 497.603 175.724 497.581 175.614 497.536C173.511 496.662 171.539 495.514 169.751 494.124C168.519 493.166 167.368 492.087 166.33 490.915C166.01 490.553 166.043 490 166.405 489.679C166.767 489.358 167.32 489.391 167.641 489.754C168.607 490.844 169.678 491.849 170.825 492.741C172.489 494.035 174.326 495.104 176.285 495.918C176.732 496.104 176.943 496.616 176.758 497.063C176.618 497.399 176.292 497.603 175.949 497.603Z" fill="#363E44"/>
<path d="M167.648 503.537C167.536 503.537 167.423 503.515 167.313 503.47C165.209 502.596 163.237 501.448 161.45 500.058C160.217 499.1 159.066 498.02 158.029 496.849C157.708 496.487 157.741 495.934 158.104 495.613C158.465 495.292 159.019 495.325 159.339 495.688C160.305 496.777 161.377 497.783 162.524 498.675C164.188 499.969 166.025 501.038 167.984 501.852C168.431 502.038 168.642 502.55 168.457 502.997C168.317 503.334 167.991 503.537 167.648 503.537Z" fill="#363E44"/>
<path d="M113.638 350.427C124.272 350.427 132.893 341.803 132.893 331.165C132.893 320.527 124.272 311.904 113.638 311.904C103.003 311.904 94.3826 320.527 94.3826 331.165C94.3826 341.803 103.003 350.427 113.638 350.427Z" fill="#363E44"/>
<path d="M115.554 355.136C104.454 355.136 95.4231 346.103 95.4231 334.999C95.4231 323.895 104.454 314.862 115.554 314.862C126.654 314.862 135.684 323.895 135.684 334.999C135.684 346.102 126.654 355.136 115.554 355.136ZM115.554 316.613C105.419 316.613 97.1741 324.861 97.1741 334.999C97.1741 345.137 105.419 353.385 115.554 353.385C125.688 353.385 133.933 345.137 133.933 334.999C133.933 324.861 125.688 316.613 115.554 316.613Z" fill="#40484C"/>
<path d="M109.166 353.858C98.0661 353.858 89.0356 344.825 89.0356 333.721C89.0356 322.617 98.0661 313.584 109.166 313.584C120.266 313.584 129.297 322.617 129.297 333.721C129.297 344.825 120.266 353.858 109.166 353.858ZM109.166 315.336C99.0319 315.336 90.7866 323.583 90.7866 333.721C90.7866 343.859 99.0319 352.107 109.166 352.107C119.301 352.107 127.546 343.859 127.546 333.721C127.546 323.583 119.301 315.336 109.166 315.336Z" fill="#40484C"/>
<path d="M138.296 370.146C145.487 370.146 150.185 366.6 150.185 359.407V318.632C150.185 311.439 144.356 305.608 137.166 305.608C129.975 305.608 124.146 311.439 124.146 318.632V359.407C123.537 369.736 138.296 370.146 138.296 370.146Z" fill="#E2A18D"/>
<path d="M171.672 306.375C170.32 310.913 168.68 318.497 169.582 327.847C170.389 336.214 172.916 342.728 174.878 346.809C172.315 343.443 167.994 336.852 166.027 327.428C164 317.718 165.461 309.733 166.515 305.608C168.234 305.864 169.953 306.119 171.672 306.375Z" fill="#363E44"/>
<path d="M142.706 284.714C143.841 284.604 154.728 283.713 161.286 291.159C166.165 296.7 166.752 303.813 165.931 315.891C164.964 330.114 162.4 338.481 158.308 341.289C151.841 345.725 132.462 335.804 125.175 323.385C119.915 314.421 120.514 302.875 126.074 294.007C131.618 285.163 141.981 284.784 142.706 284.714Z" fill="#E2A18D"/>
<path d="M150.838 284.61C151.815 287.639 152.953 292.466 152.581 298.408C152.309 302.75 151.317 306.318 150.383 308.87C147.933 308.744 145.482 308.618 143.031 308.491C144.414 305.831 146.492 300.947 146.669 294.542C146.79 290.189 145.991 286.603 145.229 284.156C147.099 284.307 148.968 284.459 150.838 284.61Z" fill="#363E44"/>
<path d="M154.952 283.966C156.69 286.632 159.054 290.991 160.255 296.823C161.132 301.084 161.111 304.787 160.879 307.495C158.481 308.017 156.084 308.538 153.686 309.059C154.322 306.13 155.046 300.871 153.536 294.644C152.51 290.413 150.799 287.162 149.421 285C151.265 284.655 153.109 284.31 154.952 283.966Z" fill="#363E44"/>
<path d="M150.695 287.618C149.662 290.654 148.282 293.923 146.421 297.285C139.1 310.509 130.939 320.357 124.146 324.181C121.547 323.065 109.41 313.546 109.066 302.118C108.648 288.228 123.625 277.412 136.385 276.463C141.377 276.092 145.549 277.266 148.279 278.322C149.541 277.63 151.407 276.852 153.668 276.835C162.264 276.77 170.334 284.601 172.643 291.522C176.255 302.342 170.917 315.236 169.465 318.478C167.716 313.18 164.88 306.428 160.173 299.33C156.999 294.544 153.682 290.669 150.695 287.618Z" fill="#363E44"/>
<path d="M134.521 325.02C137.956 322.334 138.164 316.861 134.986 312.797C131.807 308.732 126.446 307.615 123.011 310.302C119.576 312.988 119.368 318.46 122.546 322.525C125.725 326.589 131.086 327.706 134.521 325.02Z" fill="#E2A18D"/>
<path d="M126.273 321.724C126.063 321.724 125.853 321.649 125.685 321.497C125.413 321.25 125.159 320.977 124.93 320.684C124.021 319.522 123.55 318.122 123.603 316.742C123.658 315.306 124.266 314.063 125.316 313.241C125.852 312.823 126.466 312.541 127.142 312.404C127.619 312.307 128.079 312.615 128.174 313.089C128.27 313.564 127.964 314.026 127.49 314.121C127.083 314.204 126.714 314.372 126.395 314.622C125.758 315.12 125.387 315.897 125.353 316.809C125.316 317.775 125.655 318.769 126.309 319.605C126.476 319.819 126.662 320.019 126.861 320.199C127.219 320.524 127.247 321.077 126.922 321.436C126.749 321.626 126.511 321.724 126.273 321.724Z" fill="#363E44"/>
<path d="M140.939 296.541C138.51 302.117 135.613 310.458 134.527 320.941C133.446 331.375 134.558 340.096 135.781 346.038C133.696 339.934 131.399 330.904 131.321 319.826C131.261 311.2 132.564 303.918 133.97 298.493C136.292 297.843 138.616 297.192 140.939 296.541Z" fill="#363E44"/>
<path d="M150.186 342.727C150.132 342.727 150.078 342.722 150.023 342.711C144.495 341.668 139.1 339.154 135.219 335.816C134.852 335.5 134.811 334.947 135.126 334.581C135.441 334.214 135.995 334.173 136.36 334.488C140.015 337.632 145.114 340.002 150.348 340.99C150.823 341.08 151.135 341.538 151.046 342.013C150.967 342.434 150.599 342.727 150.186 342.727Z" fill="#363E44"/>
<path d="M165.784 316.098C161.47 317.526 157.006 315.998 157.006 315.998C157.006 315.998 159.391 311.4 163.884 309.599C163.979 309.561 164.074 309.525 164.169 309.49C168.581 307.868 165.989 316.03 165.784 316.098Z" fill="white"/>
<path d="M164.171 309.498C168.583 307.877 173.276 309.475 173.276 309.475C173.276 309.475 170.891 314.073 166.398 315.874C166.193 315.956 165.987 316.023 165.782 316.091C164.292 314.659 163.53 312.53 163.942 310.348C163.997 310.054 164.078 309.773 164.171 309.498Z" fill="#8B865C"/>
<path d="M134.809 311.739C134.809 311.739 137.717 316.025 142.39 317.287C142.535 317.326 142.679 317.361 142.824 317.394C147.348 318.412 141.958 310.361 140.922 310.376C137.544 310.427 134.809 311.739 134.809 311.739Z" fill="white"/>
<path d="M151.732 316.308C151.732 316.308 147.348 318.412 142.824 317.394C141.919 316.642 141.209 315.633 140.83 314.427C140.397 313.05 140.466 311.638 140.922 310.378C141.958 310.363 143.054 310.465 144.151 310.761C148.824 312.022 151.732 316.308 151.732 316.308Z" fill="#8B865C"/>
<path d="M157.948 324.839C157.692 324.839 157.439 324.728 157.266 324.514C156.962 324.138 157.021 323.586 157.397 323.282C158.08 322.73 158.448 322.206 158.434 321.807C158.425 321.552 158.267 321.35 157.85 320.876C157.512 320.493 157.092 320.016 156.718 319.332C156.171 318.328 155.891 317.186 155.886 315.936C155.884 315.453 156.273 315.059 156.757 315.056C156.758 315.056 156.76 315.056 156.761 315.056C157.243 315.056 157.634 315.446 157.637 315.928C157.641 316.884 157.85 317.748 158.256 318.493C158.535 319.005 158.854 319.367 159.163 319.717C159.65 320.27 160.153 320.84 160.185 321.745C160.219 322.736 159.652 323.711 158.497 324.644C158.335 324.776 158.141 324.839 157.948 324.839Z" fill="#363E44"/>
<path d="M155.114 330.091C154.024 330.091 152.899 329.704 152.026 328.992C151.283 328.387 150.75 327.574 150.526 326.703C150.405 326.235 150.687 325.757 151.156 325.637C151.627 325.516 152.102 325.799 152.222 326.267C152.353 326.778 152.676 327.263 153.131 327.634C153.903 328.263 154.967 328.5 155.836 328.237C156.301 328.1 156.787 328.36 156.927 328.823C157.066 329.286 156.805 329.775 156.341 329.915C155.949 330.033 155.534 330.091 155.114 330.091Z" fill="#363E44"/>
<path d="M37.4487 371.61C51.3512 386.247 85.7991 419.095 89.0338 422.435C95.081 428.679 127.219 458.723 120.079 464.239C116.713 466.841 102.511 452.12 99.3252 448.854C102.269 453.158 117.027 470.232 112.41 473.264C107.659 476.383 90.8618 455.441 90.6501 455.34C92.1879 457.642 105.03 473.581 100.253 477.263C95.6529 480.808 84.5652 462.356 82.2662 460.435C83.8456 463.605 91.9226 474.623 88.9194 476.931C84.8961 480.022 75.0304 465.335 72.7822 463.849C67.405 458.306 57.61 451.034 46.4247 441.623C20.155 419.519 20.4632 422.669 7.97483 410.235C3.34264 405.622 23.2654 369.825 37.4487 371.61Z" fill="#BC8271"/>
<path d="M46.8355 382.006C46.6075 382.006 46.3795 381.917 46.2084 381.741C44.596 380.085 41.9995 377.472 39.6969 375.155C37.5878 373.032 35.7661 371.199 35.1025 370.507C34.7681 370.157 34.7796 369.603 35.1291 369.268C35.479 368.934 36.0322 368.946 36.3674 369.295C37.0195 369.976 38.8359 371.804 40.9392 373.92C43.2461 376.242 45.8478 378.86 47.4629 380.519C47.8001 380.865 47.793 381.42 47.4467 381.758C47.2763 381.924 47.0555 382.006 46.8355 382.006Z" fill="#363E44"/>
<path d="M118.215 199.693C179.198 199.693 228.635 161.862 228.635 115.196C228.635 68.5297 179.198 30.6992 118.215 30.6992C57.2314 30.6992 7.79468 68.5297 7.79468 115.196C7.79468 161.862 57.2314 199.693 118.215 199.693Z" fill="#E6D0BE"/>
<path d="M120.54 198.243C59.171 198.243 9.2439 159.945 9.2439 112.87C9.2439 65.7953 59.171 27.4971 120.54 27.4971C181.908 27.4971 231.835 65.7953 231.835 112.87C231.835 159.945 181.908 198.243 120.54 198.243ZM120.54 29.249C60.1364 29.249 10.9953 66.7614 10.9953 112.87C10.9953 158.979 60.1364 196.491 120.54 196.491C180.943 196.491 230.084 158.979 230.084 112.87C230.084 66.7614 180.943 29.249 120.54 29.249Z" fill="#D3BBA3"/>
<path d="M98.9838 90.4514C62.7745 119.614 43.301 151.921 58.4176 170.703C73.5341 189.485 110.428 177.503 146.637 148.34C182.846 119.177 200.303 87.3841 185.187 68.6028C170.071 49.8212 135.193 61.2883 98.9838 90.4514Z" fill="white"/>
<path d="M175.111 89.7718C175.555 78.8287 167.046 69.5982 156.107 69.1548C145.167 68.7114 135.94 77.223 135.496 88.1661C135.052 99.1091 143.561 108.34 154.5 108.783C165.44 109.226 174.668 100.715 175.111 89.7718Z" fill="#BC8271"/>
<path d="M175.907 84.3924C177.4 82.0555 176.717 78.95 174.381 77.4561C172.045 75.9622 168.941 76.6455 167.447 78.9824C165.954 81.3192 166.637 84.4247 168.973 85.9186C171.309 87.4125 174.414 86.7292 175.907 84.3924Z" fill="#363E44"/>
<path d="M172.028 75.1406C173.292 72.1055 171.858 68.6196 168.823 67.3547C165.789 66.0898 162.304 67.5249 161.04 70.56C159.776 73.5952 161.21 77.0811 164.244 78.346C167.278 79.6109 170.763 78.1758 172.028 75.1406Z" fill="#363E44"/>
<path d="M170.728 70.9221C168.795 72.479 168.489 75.3092 170.046 77.2431C171.602 79.177 174.431 79.4825 176.364 77.9256C178.298 76.3687 178.603 73.5386 177.047 71.6047C175.49 69.6708 172.661 69.3653 170.728 70.9221Z" fill="#363E44"/>
<path d="M171.892 107.814C175.332 106.285 177.294 103.186 176.275 100.893C175.255 98.5987 171.64 97.9784 168.2 99.5072C164.76 101.036 162.798 104.135 163.817 106.429C164.836 108.723 168.452 109.343 171.892 107.814Z" fill="#BC8271"/>
<path d="M168.922 107.114C168.654 107.114 168.391 107.092 168.136 107.049C167.66 106.966 167.339 106.514 167.421 106.037C167.503 105.561 167.952 105.241 168.432 105.322C169.072 105.432 169.86 105.309 170.588 104.986C171.316 104.662 171.934 104.16 172.283 103.61C172.447 103.35 172.694 102.851 172.502 102.418C172.476 102.36 172.443 102.305 172.404 102.255C172.108 101.872 172.179 101.322 172.561 101.026C172.944 100.73 173.493 100.801 173.79 101.184C173.914 101.345 174.019 101.521 174.102 101.706C174.484 102.567 174.36 103.602 173.762 104.547C173.225 105.395 172.351 106.12 171.299 106.587C170.519 106.934 169.698 107.114 168.922 107.114Z" fill="#363E44"/>
<path d="M147.769 74.0943C145.541 77.1298 142.096 78.386 140.073 76.9002C138.05 75.4144 138.216 71.7496 140.443 68.7141C142.671 65.6786 146.117 64.4224 148.14 65.9082C150.163 67.394 149.997 71.0592 147.769 74.0943Z" fill="#BC8271"/>
<path d="M141.251 73.4733C141.238 73.4733 141.224 73.4729 141.211 73.4725C140.728 73.4507 140.354 73.0415 140.375 72.558C140.421 71.5549 140.821 70.4922 141.502 69.5646C143.009 67.5107 145.365 66.7658 146.866 67.8671C147.03 67.9878 147.179 68.1277 147.309 68.2826C147.621 68.6529 147.572 69.2055 147.203 69.5169C146.833 69.828 146.28 69.7803 145.969 69.4101C145.927 69.3604 145.88 69.3163 145.829 69.2782C145.231 68.8404 143.887 69.2742 142.914 70.6011C142.442 71.2435 142.155 71.9855 142.125 72.6363C142.104 73.1066 141.717 73.4733 141.251 73.4733Z" fill="#363E44"/>
<path d="M150.871 92.6819C150.475 92.6819 150.115 92.4106 150.02 92.0078C149.697 90.6444 149.839 89.5852 150.441 88.861C150.993 88.1968 151.699 88.0613 152.381 87.9298C152.804 87.8484 153.242 87.7646 153.732 87.5496C154.176 87.3554 154.692 87.558 154.886 88.0005C155.08 88.4435 154.879 88.9603 154.435 89.1546C153.765 89.4486 153.181 89.5606 152.711 89.6508C152.151 89.758 151.926 89.8145 151.788 89.9813C151.563 90.2523 151.54 90.8283 151.724 91.6046C151.836 92.0749 151.545 92.5473 151.074 92.6589C151.006 92.674 150.938 92.6819 150.871 92.6819Z" fill="#363E44"/>
<path d="M151.001 97.9663C149.566 97.9663 148.145 97.2651 147.357 96.1603C147.077 95.7662 147.168 95.2195 147.562 94.9383C147.957 94.6574 148.502 94.7496 148.784 95.1433C149.255 95.8059 150.175 96.223 151.066 96.2143C151.598 96.2008 152.099 96.0316 152.477 95.7388C152.859 95.442 153.409 95.5107 153.706 95.8941C154.002 96.2759 153.933 96.8265 153.55 97.1229C152.88 97.6433 152.013 97.9428 151.11 97.9655C151.073 97.9659 151.037 97.9663 151.001 97.9663Z" fill="#363E44"/>
<path d="M167.734 97.9133C167.672 97.9133 167.611 97.9069 167.548 97.8938C166.21 97.605 163.641 96.7715 161.475 94.4344C159.347 92.1382 158.698 89.5592 158.501 88.2259C158.431 87.7472 158.762 87.3023 159.24 87.2316C159.714 87.1636 160.163 87.4914 160.234 87.9701C160.401 89.1023 160.951 91.2932 162.759 93.243C164.598 95.2282 166.78 95.9361 167.917 96.1812C168.39 96.2833 168.69 96.7493 168.588 97.2221C168.501 97.6328 168.138 97.9133 167.734 97.9133Z" fill="#363E44"/>
<path d="M155.204 85.0223C155.143 85.0223 155.081 85.016 155.019 85.0029C153.68 84.7141 151.112 83.8806 148.946 81.5435C146.817 79.2473 146.169 76.6682 145.973 75.335C145.902 74.8563 146.232 74.4113 146.711 74.3406C147.185 74.2731 147.634 74.6004 147.705 75.0791C147.872 76.2113 148.422 78.4023 150.23 80.3525C152.07 82.3368 154.251 83.0448 155.388 83.2903C155.861 83.3924 156.161 83.8584 156.059 84.3311C155.971 84.7419 155.608 85.0223 155.204 85.0223Z" fill="#363E44"/>
<path d="M134.623 154.367C134.253 154.367 133.909 154.131 133.79 153.759C129.346 139.992 126.505 125.723 125.348 111.348C124.435 100.014 124.566 88.5188 125.737 77.1828C125.787 76.7021 126.217 76.3489 126.698 76.4017C127.179 76.4514 127.529 76.8816 127.479 77.3631C126.319 88.5923 126.19 99.9791 127.093 111.208C128.24 125.447 131.054 139.582 135.457 153.221C135.605 153.681 135.353 154.175 134.892 154.324C134.803 154.352 134.712 154.367 134.623 154.367Z" fill="#E6D0BE"/>
<path d="M101.221 170.071C100.812 170.071 100.445 169.782 100.363 169.364C97.3304 153.938 96.0925 138.177 96.6838 122.517C96.9987 114.183 97.8403 105.778 99.1854 97.537C99.2632 97.0603 99.7096 96.7385 100.191 96.8136C100.668 96.8915 100.991 97.342 100.914 97.8191C99.5805 105.989 98.7465 114.321 98.4344 122.583C97.8478 138.108 99.075 153.734 102.082 169.027C102.175 169.501 101.866 169.961 101.391 170.055C101.334 170.066 101.277 170.071 101.221 170.071Z" fill="#E6D0BE"/>
<path d="M128.771 131.304C128.341 131.304 127.965 130.986 127.905 130.547C127.84 130.068 128.175 129.626 128.654 129.56C138.752 128.178 148.871 126.124 158.73 123.457C159.197 123.33 159.678 123.607 159.804 124.073C159.931 124.541 159.655 125.022 159.188 125.148C149.256 127.834 139.063 129.903 128.892 131.296C128.852 131.302 128.811 131.304 128.771 131.304Z" fill="#E6D0BE"/>
<path d="M96.337 133.516C84.2403 133.516 72.0454 132.592 60.0714 130.767C59.5928 130.694 59.2648 130.247 59.3375 129.769C59.4105 129.29 59.8613 128.963 60.3351 129.035C72.5828 130.902 85.0592 131.827 97.4272 131.762C97.4284 131.762 97.4295 131.762 97.4311 131.762C97.9129 131.762 98.3048 132.152 98.3068 132.634C98.3088 133.118 97.9188 133.511 97.4351 133.513C97.069 133.515 96.7032 133.516 96.337 133.516Z" fill="#E6D0BE"/>
<path d="M117.56 137.103C116.538 137.103 115.686 136.812 115.128 136.119C113.069 133.56 117.004 128.184 121.956 124.196C124.509 122.14 127.199 120.546 129.53 119.709C132.888 118.503 134.389 119.239 135.056 120.069C136.343 121.667 135.358 124.576 132.352 128.05C132.035 128.415 131.482 128.456 131.117 128.139C130.752 127.822 130.711 127.269 131.028 126.904C133.478 124.071 134.23 121.834 133.693 121.167C133.379 120.777 132.256 120.593 130.122 121.358C127.97 122.131 125.46 123.623 123.054 125.56C117.805 129.789 115.662 133.987 116.493 135.02C117.046 135.705 119.709 135.508 123.901 132.921C124.314 132.666 124.852 132.794 125.106 133.206C125.36 133.618 125.233 134.157 124.821 134.412C122.422 135.892 119.642 137.103 117.56 137.103Z" fill="#363E44"/>
<path d="M131.851 125.662C131.802 125.662 131.755 125.662 131.706 125.659C130.806 125.621 130.013 125.231 129.475 124.563C128.937 123.894 128.725 123.037 128.88 122.148C129.028 121.302 129.495 120.525 130.196 119.961C130.896 119.397 131.756 119.11 132.612 119.143C133.513 119.181 134.306 119.57 134.844 120.239C135.382 120.908 135.593 121.766 135.438 122.654C135.291 123.501 134.824 124.277 134.123 124.841C133.462 125.374 132.66 125.662 131.851 125.662ZM132.467 120.892C132.057 120.892 131.642 121.044 131.293 121.325C130.924 121.623 130.68 122.022 130.605 122.449C130.538 122.834 130.621 123.194 130.839 123.464C131.057 123.735 131.391 123.893 131.781 123.91C132.217 123.926 132.656 123.775 133.025 123.477C133.394 123.18 133.639 122.781 133.713 122.354C133.78 121.969 133.697 121.609 133.48 121.339C133.262 121.068 132.928 120.91 132.538 120.893C132.514 120.892 132.491 120.892 132.467 120.892Z" fill="#363E44"/>
<path d="M117.912 136.889C117.863 136.889 117.816 136.888 117.767 136.886C116.866 136.848 116.074 136.458 115.536 135.789C114.998 135.121 114.786 134.263 114.941 133.375C115.088 132.528 115.555 131.751 116.256 131.187C116.957 130.623 117.821 130.332 118.673 130.369C119.574 130.407 120.366 130.797 120.905 131.465C121.443 132.134 121.654 132.992 121.499 133.88C121.352 134.726 120.885 135.503 120.184 136.067C119.523 136.6 118.721 136.889 117.912 136.889ZM118.528 132.118C118.118 132.118 117.704 132.271 117.354 132.552C116.986 132.849 116.741 133.249 116.667 133.675C116.6 134.06 116.683 134.42 116.9 134.691C117.118 134.962 117.452 135.119 117.842 135.136C118.276 135.149 118.717 135.001 119.086 134.704C119.455 134.406 119.7 134.007 119.774 133.58C119.841 133.196 119.758 132.836 119.541 132.565C119.323 132.294 118.989 132.136 118.599 132.12C118.575 132.118 118.552 132.118 118.528 132.118Z" fill="#363E44"/>
<path d="M119.084 250.247C123.067 246.263 123.067 239.804 119.084 235.82C115.101 231.836 108.644 231.836 104.661 235.82C100.679 239.804 100.679 246.263 104.661 250.247C108.644 254.231 115.101 254.231 119.084 250.247Z" fill="#E6D0BE"/>
<path d="M86.986 230.949C95.3016 230.949 102.043 224.206 102.043 215.888C102.043 207.569 95.3016 200.826 86.986 200.826C78.6705 200.826 71.9294 207.569 71.9294 215.888C71.9294 224.206 78.6705 230.949 86.986 230.949Z" fill="#E6D0BE"/>
<path d="M141.355 267.374C145.41 267.374 148.697 264.085 148.697 260.029C148.697 255.973 145.41 252.684 141.355 252.684C137.3 252.684 134.012 255.973 134.012 260.029C134.012 264.085 137.3 267.374 141.355 267.374Z" fill="#E6D0BE"/>
<path d="M546.814 344.012C637.108 340.256 730.18 420.218 729.294 457.435C728.409 494.652 658.133 526.257 658.133 526.257L719.663 715.582L418.347 730.246L489.604 481.951L487.24 449.692C448.127 472.298 411.519 484.06 408.136 469.834C398.654 429.969 486.778 346.508 546.814 344.012Z" fill="white"/>
<path d="M526.608 468.806C526.566 468.806 526.524 468.803 526.482 468.797C526.166 468.751 525.901 468.538 525.788 468.239L503.475 408.992C503.351 408.661 503.437 408.288 503.694 408.046L520.166 392.523L505.747 390.877C505.505 390.849 505.285 390.722 505.141 390.526C504.996 390.33 504.94 390.082 504.986 389.843L513.752 343.72C513.815 343.388 514.064 343.122 514.392 343.036L532.782 338.25C532.855 338.231 532.928 338.221 533.003 338.221H562.204C562.29 338.221 562.376 338.234 562.457 338.259L582.993 344.458C583.387 344.577 583.645 344.955 583.613 345.365L579.949 392.194C579.914 392.65 579.533 393.001 579.076 393.001H556.906L569.67 411.651C569.883 411.963 569.872 412.375 569.645 412.675L527.306 468.459C527.139 468.68 526.88 468.806 526.608 468.806ZM505.32 408.92L526.869 466.138L567.868 412.12L554.523 392.62C554.34 392.352 554.319 392.004 554.471 391.717C554.623 391.429 554.921 391.249 555.246 391.249H578.267L581.812 345.931L562.075 339.973H533.115L515.37 344.592L506.883 389.243L522.239 390.996C522.578 391.035 522.864 391.266 522.971 391.59C523.079 391.913 522.989 392.27 522.741 392.504L505.32 408.92Z" fill="#BC8271"/>
<path d="M641.298 588.311L644.267 562.478L571.849 554.151L568.881 579.984L641.298 588.311Z" fill="#F7F1EB"/>
<path d="M435.449 672.468C435.37 672.468 435.289 672.457 435.208 672.434C434.744 672.301 434.474 671.816 434.607 671.351L488.721 481.858L484.836 426.143C480.05 419.558 478.476 413.557 480.157 408.305C482.805 400.035 492.489 396.777 492.9 396.642C493.361 396.491 493.854 396.742 494.004 397.201C494.155 397.66 493.905 398.155 493.446 398.307C493.353 398.337 484.189 401.433 481.822 408.848C480.309 413.588 481.848 419.126 486.398 425.311C486.496 425.445 486.554 425.604 486.566 425.77L490.478 481.89C490.485 481.992 490.475 482.094 490.446 482.192L436.29 671.832C436.181 672.217 435.83 672.468 435.449 672.468Z" fill="#BC8271"/>
<path d="M517.868 669.101C517.854 669.101 517.84 669.101 517.826 669.1C517.343 669.077 516.97 668.668 516.993 668.184L528.716 417.62C528.739 417.137 529.162 416.771 529.632 416.787C530.115 416.809 530.488 417.22 530.465 417.703L518.742 668.266C518.72 668.735 518.333 669.101 517.868 669.101Z" fill="#BC8271"/>
<path d="M453.48 584.579L461.643 557.468L490.515 554.148L493.483 579.98L453.48 584.579Z" fill="#F7F1EB"/>
<path d="M567.116 510.113L632.135 577.315L703.973 507.765L613.185 413.928L541.346 483.479L567.116 510.113Z" fill="#EFBC73"/>
<path d="M571.321 465.599L594.279 443.373L583.297 432.022L560.339 454.249L571.321 465.599Z" fill="#363E44"/>
<path d="M571.825 452.184C569.698 452.184 567.575 451.357 565.983 449.712C562.866 446.49 562.95 441.333 566.171 438.214C569.391 435.097 574.547 435.181 577.664 438.402C580.781 441.624 580.697 446.782 577.476 449.9C575.901 451.425 573.862 452.184 571.825 452.184ZM571.823 437.681C570.225 437.681 568.625 438.277 567.389 439.473C564.862 441.92 564.796 445.966 567.242 448.494C569.687 451.02 573.732 451.088 576.259 448.641C578.785 446.195 578.851 442.148 576.406 439.62C575.157 438.331 573.491 437.681 571.823 437.681Z" fill="#363E44"/>
<path d="M624.472 478.997C614.958 485.885 595.532 500.163 593.887 501.452C585.131 508.313 565.972 522.472 569.339 529.323C570.459 531.601 573.19 532.983 576.221 533.159C575.293 536.281 576.281 539.621 578.698 541.591C581.875 544.18 585.791 542.995 586.077 542.903C585.047 545.205 585.22 547.821 586.616 549.646C588.541 552.163 592.559 552.866 595.808 550.833C595.873 551.545 596.191 554.073 598.273 555.911C600.579 557.948 604.118 558.314 607.227 556.823C615.011 550.733 640.881 535.237 656.952 525.667C657.282 525.47 625.263 478.425 624.472 478.997Z" fill="#84524D"/>
<path d="M583.952 523.225C583.711 523.225 583.472 523.127 583.299 522.934L580.035 519.286C579.712 518.925 579.743 518.371 580.103 518.048C580.464 517.726 581.017 517.757 581.34 518.117L584.604 521.765C584.926 522.126 584.896 522.679 584.536 523.002C584.369 523.152 584.16 523.225 583.952 523.225Z" fill="#363E44"/>
<path d="M592.222 532.494C591.981 532.494 591.742 532.395 591.569 532.202L588.304 528.554C587.982 528.194 588.012 527.64 588.373 527.317C588.733 526.994 589.286 527.025 589.609 527.386L592.874 531.034C593.196 531.394 593.166 531.948 592.805 532.27C592.638 532.42 592.43 532.494 592.222 532.494Z" fill="#363E44"/>
<path d="M600.538 542.024C600.298 542.024 600.059 541.926 599.885 541.733L596.621 538.085C596.299 537.724 596.329 537.17 596.69 536.848C597.051 536.524 597.604 536.556 597.926 536.916L601.19 540.564C601.513 540.924 601.482 541.478 601.122 541.8C600.955 541.95 600.746 542.024 600.538 542.024Z" fill="#363E44"/>
<path d="M608.259 550.512C608.019 550.512 607.779 550.413 607.606 550.22L604.342 546.572C604.019 546.212 604.05 545.658 604.41 545.336C604.771 545.012 605.324 545.044 605.647 545.404L608.911 549.052C609.234 549.412 609.203 549.966 608.843 550.288C608.675 550.438 608.467 550.512 608.259 550.512Z" fill="#363E44"/>
<path d="M698.808 501.948L656.521 449.446L617.432 480.949L659.719 533.452L698.808 501.948Z" fill="white"/>
<path d="M651.44 454.274C651.185 454.274 650.932 454.163 650.759 453.95C650.456 453.573 650.513 453.022 650.889 452.717L675.692 432.632C676.068 432.327 676.619 432.385 676.924 432.761C677.228 433.138 677.17 433.689 676.794 433.994L651.991 454.079C651.829 454.211 651.634 454.274 651.44 454.274Z" fill="#BC8271"/>
<path d="M659.779 536.916L680.02 520.602L634.288 463.823L614.047 480.136L659.779 536.916Z" fill="#F7F1EB"/>
<path d="M341.513 362.898C343.169 361.055 346.482 361.148 347.239 361.295C346.39 359.181 346.311 356.718 348.356 354.659C350.173 352.831 353.666 353.429 353.969 353.498C353.894 353.198 351.874 350.741 354.063 347.64C355.542 345.545 358.377 345.259 359.281 345.388C359.264 345.011 358.906 342.32 360.924 340.483C366.437 335.465 379.407 347.136 394.473 364.624C426.128 401.37 440.693 425.659 441.01 426.021C446.689 432.479 409.674 447.678 400.943 460.171C400.284 459.293 389.453 450.842 358.073 390.371C354.798 384.06 345.276 374.475 342.144 370.734C340.436 368.694 339.36 365.294 341.513 362.898Z" fill="#84524D"/>
<path d="M381.591 354.304C375.795 333.72 379.756 330.421 382.387 330.658C391.319 331.461 406.384 380.987 406.384 380.987C406.384 380.987 392.481 366.28 381.591 354.304Z" fill="#84524D"/>
<path d="M391.556 415.233C391.404 415.233 391.252 415.193 391.118 415.115C390.917 414.999 390.771 414.807 390.711 414.583L336.258 210.228C336.133 209.76 336.411 209.28 336.878 209.156L342.407 207.682C342.63 207.622 342.87 207.653 343.071 207.77C343.272 207.887 343.418 208.078 343.478 208.302L397.931 412.658C398.056 413.125 397.778 413.605 397.311 413.73L391.782 415.204C391.708 415.224 391.632 415.233 391.556 415.233ZM338.175 210.623L392.177 413.285L396.014 412.263L342.012 209.6L338.175 210.623Z" fill="#363E44"/>
<path d="M352.958 379.804C352.707 379.804 352.458 379.697 352.285 379.489C351.975 379.117 352.026 378.565 352.397 378.255C355.057 376.039 355.556 372.102 353.532 369.292L351.781 366.862C351.52 366.498 351.574 365.996 351.908 365.697C352.242 365.399 352.746 365.4 353.079 365.7L357.448 369.647C358.853 370.916 360.964 371 362.466 369.846C363.312 369.196 363.846 368.255 363.971 367.195C364.096 366.136 363.795 365.096 363.124 364.267L358.192 358.175C357.899 357.813 357.94 357.285 358.286 356.973C358.632 356.661 359.161 356.674 359.491 357.003L362.174 359.677C364.645 361.904 366.858 361.861 367.856 360.866C368.797 359.927 368.883 357.883 366.849 355.616L363.289 351.458C362.986 351.103 363.014 350.572 363.353 350.251C363.692 349.931 364.223 349.933 364.56 350.256L369.094 354.607C370.104 355.52 371.648 355.581 372.746 354.735C373.366 354.26 373.756 353.571 373.848 352.796C373.939 352.02 373.719 351.26 373.228 350.653L369.377 345.895C369.073 345.52 369.131 344.968 369.506 344.663C369.881 344.359 370.433 344.416 370.738 344.793L374.589 349.55C375.38 350.527 375.735 351.752 375.587 353.001C375.44 354.249 374.81 355.358 373.814 356.124C372.631 357.034 371.128 357.291 369.767 356.915C370.678 359.083 370.195 361.005 369.092 362.106C368.069 363.128 366.341 363.61 364.332 362.976L364.485 363.165C365.456 364.364 365.891 365.868 365.71 367.401C365.529 368.933 364.756 370.295 363.533 371.235C361.36 372.905 358.308 372.783 356.274 370.947L356.217 370.895C357.08 373.99 356.111 377.442 353.519 379.602C353.355 379.737 353.156 379.804 352.958 379.804Z" fill="#363E44"/>
<path d="M409.439 473.63L370.3 426.386L412.451 378.617L449.27 417.463L419.355 475.301C418.606 476.521 410.352 474.732 409.439 473.63Z" fill="white"/>
<path d="M353.987 417.01L366.923 436.168L433.605 389.936L415.781 370.065L353.987 417.01Z" fill="#F7F1EB"/>
<path d="M446.969 416.901C446.711 416.901 446.455 416.787 446.282 416.568L437.653 405.633C437.353 405.253 437.418 404.702 437.797 404.403C438.176 404.104 438.727 404.168 439.027 404.548L447.656 415.482C447.956 415.862 447.891 416.413 447.512 416.712C447.351 416.84 447.16 416.901 446.969 416.901Z" fill="#BC8271"/>
<path d="M530.267 345.42L529.59 417.661L562.204 344.514V290.341H530.267V345.42Z" fill="#84524D"/>
<path d="M519.952 323.602C527.64 329.46 550.394 315.016 550.394 315.016L564.013 288.81C564.468 275.218 553.822 263.83 540.233 263.375C526.645 262.92 515.261 273.57 514.806 287.163C514.806 287.163 512.122 317.635 519.952 323.602Z" fill="#84524D"/>
<path d="M517.417 293.729C517.417 293.729 510.274 300.73 510.577 302.652C510.939 304.946 518.58 306.594 518.58 306.594C518.58 306.594 517.233 293.741 517.417 293.729Z" fill="#84524D"/>
<path d="M539.656 293.419C539.656 293.419 535.611 291.065 530.646 290.9C529.589 290.864 531.299 299.388 532.318 298.942C536.798 296.984 539.656 293.419 539.656 293.419Z" fill="white"/>
<path d="M529.025 299.967C522.699 301.144 516.75 297.682 516.75 297.682C516.75 297.682 521.056 292.311 527.382 291.134C528.489 290.928 529.583 290.87 530.637 290.905C532.616 293.178 533.167 296.232 532.322 298.939C531.302 299.385 530.198 299.749 529.025 299.967Z" fill="#363E44"/>
<path d="M524.644 311.936C523.778 311.936 522.911 311.678 522.169 311.164C521.771 310.889 521.671 310.344 521.946 309.946C522.221 309.548 522.766 309.448 523.164 309.723C524.002 310.303 525.102 310.34 525.966 309.819C526.799 309.317 527.284 308.361 527.201 307.383C527.16 306.901 527.518 306.477 528 306.436C528.485 306.39 528.905 306.753 528.946 307.235C529.085 308.873 528.27 310.475 526.87 311.319C526.186 311.732 525.415 311.936 524.644 311.936Z" fill="#363E44"/>
<path d="M532.993 324.746C532.625 324.746 532.283 324.512 532.162 324.143C532.011 323.683 532.261 323.188 532.72 323.037C541.049 320.297 549.823 314.757 549.911 314.702C550.319 314.442 550.86 314.563 551.119 314.972C551.378 315.38 551.257 315.921 550.849 316.18C550.484 316.412 541.802 321.893 533.267 324.701C533.176 324.731 533.084 324.746 532.993 324.746Z" fill="#363E44"/>
<path d="M568.993 302.965C574.938 297.923 572.828 281.339 565.959 272.163C557.104 260.332 539.435 256.608 527.092 260.982C524.058 262.057 517.366 265.433 516.169 270.475C515.238 274.4 520.607 280.641 527.065 281.148C536.146 281.859 547.305 276.876 545.479 287.492C539.946 319.663 562.459 308.506 568.993 302.965Z" fill="#363E44"/>
<path d="M645.51 314.711C665.681 294.534 665.681 261.82 645.51 241.643C625.34 221.465 592.636 221.465 572.466 241.643C552.295 261.82 552.295 294.534 572.466 314.711C592.636 334.889 625.34 334.889 645.51 314.711Z" fill="#363E44"/>
<path d="M599.259 305.027C580.898 305.027 564.084 292.696 559.217 274.117C553.433 252.034 566.686 229.362 588.761 223.576C610.838 217.789 633.501 231.047 639.286 253.129C645.07 275.212 631.816 297.884 609.742 303.671C606.24 304.589 602.721 305.027 599.259 305.027ZM560.911 273.673C566.451 294.821 588.155 307.518 609.298 301.976C630.438 296.435 643.131 274.721 637.591 253.574C632.052 232.426 610.348 219.731 589.205 225.27C568.064 230.812 555.372 252.525 560.911 273.673Z" fill="#363E44"/>
<path d="M600.316 325.807C587.552 325.807 575.481 319.315 568.463 308.063C568.207 307.653 568.333 307.113 568.743 306.856C569.153 306.601 569.693 306.725 569.949 307.136C578.318 320.553 594.225 326.873 609.533 322.861C622.927 319.35 633.219 308.278 635.755 294.655C635.843 294.18 636.297 293.862 636.776 293.955C637.252 294.043 637.565 294.501 637.476 294.976C634.817 309.263 624.023 320.874 609.976 324.555C606.759 325.399 603.515 325.807 600.316 325.807Z" fill="white"/>
<path d="M527.326 306.805C525.074 306.805 522.902 305.86 521.144 304.097C519.241 302.189 518.05 299.542 517.789 296.643C517.529 293.744 518.23 290.927 519.762 288.71C521.329 286.444 523.574 285.072 526.082 284.846C528.595 284.619 531.044 285.571 532.989 287.522C534.893 289.429 536.084 292.076 536.345 294.976C536.605 297.875 535.904 300.692 534.372 302.908C532.804 305.175 530.56 306.546 528.051 306.772C527.809 306.794 527.567 306.805 527.326 306.805ZM526.801 286.566C526.614 286.566 526.427 286.574 526.239 286.592C524.257 286.77 522.469 287.876 521.202 289.707C519.902 291.588 519.309 293.995 519.533 296.487C519.757 298.978 520.769 301.242 522.384 302.86C523.955 304.436 525.913 305.206 527.895 305.027C529.876 304.849 531.665 303.743 532.931 301.912C534.231 300.031 534.824 297.624 534.6 295.132C534.377 292.641 533.364 290.378 531.75 288.759C530.327 287.332 528.588 286.566 526.801 286.566Z" fill="white"/>
<path d="M549.492 295.695H549.491L536.226 295.681C535.742 295.68 535.35 295.288 535.351 294.804C535.351 294.32 535.743 293.929 536.227 293.929H536.227L549.492 293.943C549.976 293.943 550.368 294.336 550.367 294.82C550.367 295.303 549.975 295.695 549.492 295.695Z" fill="white"/>
<path d="M513.285 296.032C513.083 296.032 512.879 295.962 512.714 295.819C512.347 295.503 512.307 294.95 512.623 294.584C514.85 292.001 517.516 293.082 518.614 294.015C518.983 294.328 519.028 294.881 518.715 295.249C518.403 295.618 517.853 295.663 517.484 295.353C517.168 295.092 515.527 293.899 513.949 295.728C513.776 295.929 513.531 296.032 513.285 296.032Z" fill="white"/>
</svg>
