<svg width="40" height="40" viewBox="0 0 40 40" fill="none" xmlns="http://www.w3.org/2000/svg">
<path d="M23.1969 2.10981C21.0287 1.60648 18.8606 2.92288 18.3572 5.09106L16.1116 14.4994L13.866 5.09106C13.3627 2.92288 11.1945 1.60648 9.02631 2.10981C7.98094 2.34212 7.09044 3.00032 6.54839 3.92954C6.00635 4.85876 5.81276 5.90413 6.08378 6.94951C6.50968 8.80795 8.17453 10.0469 9.99425 10.0469C10.304 10.0469 10.6137 10.0082 10.9235 9.93076C11.9688 9.69845 12.8593 9.04025 13.4014 8.11103L15.5309 17.0161L10.6525 37.2653C10.575 37.5751 10.7686 37.8848 11.0783 37.9623C11.1171 37.9623 11.1558 37.9623 11.2332 37.9623C11.5042 37.9623 11.7365 37.7687 11.814 37.4977L16.1503 19.4553L20.4867 37.4977C20.5641 37.7687 20.7964 37.9623 21.0675 37.9623C21.1062 37.9623 21.1449 37.9623 21.2223 37.9623C21.5321 37.8848 21.7257 37.5751 21.6482 37.2653L16.6924 16.9774L18.8218 8.07232C19.3639 9.00154 20.2544 9.62102 21.2998 9.89204C21.6095 9.96948 21.9193 10.0082 22.229 10.0082C22.9646 10.0082 23.7003 9.81461 24.3197 9.42743C25.249 8.88538 25.8684 7.99488 26.1395 6.94951C26.4105 5.90413 26.2169 4.82004 25.6749 3.92954C25.0941 3.00032 24.2423 2.38084 23.1969 2.10981ZM12.356 7.53027C11.9688 8.18847 11.3106 8.65308 10.575 8.80795C9.06503 9.15641 7.51633 8.22719 7.12916 6.7172C6.93557 5.98157 7.09044 5.20722 7.47761 4.54902C7.86479 3.89082 8.52299 3.42621 9.25862 3.27134C9.49092 3.23262 9.68451 3.1939 9.91682 3.1939C11.1945 3.1939 12.3947 4.08441 12.7045 5.4008C12.8981 6.09772 12.7432 6.87207 12.356 7.53027ZM25.0167 6.67848C24.8231 7.41412 24.3972 8.0336 23.739 8.45949C23.0808 8.84667 22.3064 8.96282 21.5708 8.80795C20.8352 8.61436 20.2157 8.18847 19.7898 7.53027C19.4026 6.87207 19.2865 6.09772 19.4413 5.36209C19.7511 4.04569 20.9126 3.15519 22.229 3.15519C22.4613 3.15519 22.6549 3.1939 22.8872 3.23262C23.6228 3.42621 24.2423 3.8521 24.6682 4.5103C25.0941 5.1685 25.2102 5.94285 25.0167 6.67848Z" fill="white"/>
<path d="M33.7281 2.07013C33.5345 1.95398 33.3022 1.9927 33.1474 2.10885C27.5333 5.9806 28.1528 8.57468 28.9659 12.1367C29.3143 13.6467 29.7015 15.3502 29.7015 17.5184V37.4192C29.7015 37.729 29.9725 38 30.2823 38H33.4571C33.7668 38 34.0379 37.729 34.0379 37.4192V2.57346C34.0379 2.37987 33.9217 2.18629 33.7281 2.07013ZM32.8763 3.73499V16.0084H30.8243C30.7082 14.421 30.3984 13.1046 30.0887 11.9044C29.353 8.65211 28.9272 6.75495 32.8763 3.73499ZM30.9017 36.8385V17.5184C30.9017 17.4023 30.9017 17.2861 30.9017 17.17H32.9151V36.8385H30.9017Z" fill="white"/>
</svg>
