<svg width="32" height="32" viewBox="0 0 32 32" fill="none" xmlns="http://www.w3.org/2000/svg">
<path d="M11 6C11.8333 6.83333 13.5055 6.68713 16 4.6272M16 4.6272C15.631 4.32253 15.2477 3.97637 14.8517 3.58387C11.0088 -0.224001 5.77531 0.521532 3.32332 3.58387C1.62973 5.699 -2.70413 10.9643 7.90358 29.7327C8.34276 30.5097 9.21766 31 10.16 31C11.6633 31 12.8383 29.8002 12.8872 28.3998C12.9908 25.4298 13.5662 22.0058 16 22.0058C18.4338 22.0058 19.0091 25.4298 19.1128 28.3998C19.1616 29.8002 20.3366 31 21.84 31C22.7823 31 23.6571 30.5097 24.0963 29.7327C34.7041 10.9643 30.3703 5.699 28.6766 3.58387C26.2246 0.521532 20.9911 -0.224001 17.1483 3.58387C16.7523 3.97637 16.369 4.32253 16 4.6272Z" stroke="white" stroke-width="2" stroke-linecap="round" stroke-linejoin="round"/>
</svg>
