<svg width="237" height="60" viewBox="0 0 237 60" fill="none" xmlns="http://www.w3.org/2000/svg">
<path d="M6.73295 8.63636L12.0327 24.6648H12.2415L17.5312 8.63636H21.5881L14.4091 29H9.85511L2.68608 8.63636H6.73295ZM35.337 14.2344C35.2442 13.366 34.8531 12.6899 34.1637 12.206C33.4809 11.7221 32.5927 11.4801 31.4989 11.4801C30.73 11.4801 30.0704 11.5961 29.5202 11.8281C28.9701 12.0601 28.5491 12.375 28.2575 12.7727C27.9658 13.1705 27.8166 13.6245 27.81 14.1349C27.81 14.5592 27.9061 14.9271 28.0984 15.2386C28.2972 15.5502 28.5657 15.8153 28.9038 16.0341C29.2418 16.2462 29.6164 16.4252 30.0273 16.571C30.4383 16.7169 30.8526 16.8395 31.2702 16.9389L33.1793 17.4162C33.9483 17.5952 34.6874 17.8371 35.3967 18.142C36.1126 18.447 36.7522 18.8314 37.3157 19.2955C37.8858 19.7595 38.3365 20.3196 38.668 20.9759C38.9994 21.6321 39.1651 22.401 39.1651 23.2827C39.1651 24.4759 38.8602 25.5265 38.2504 26.4347C37.6405 27.3362 36.7589 28.0421 35.6055 28.5526C34.4587 29.0563 33.07 29.3082 31.4393 29.3082C29.855 29.3082 28.4795 29.063 27.3129 28.5724C26.1528 28.0819 25.2447 27.366 24.5884 26.4247C23.9388 25.4834 23.5875 24.3366 23.5344 22.9844H27.1637C27.2167 23.6937 27.4355 24.2836 27.82 24.7543C28.2044 25.2249 28.7049 25.5762 29.3214 25.8082C29.9445 26.0402 30.6405 26.1562 31.4094 26.1562C32.2115 26.1562 32.9142 26.0369 33.5174 25.7983C34.1272 25.553 34.6045 25.215 34.9492 24.7841C35.2939 24.3466 35.4696 23.8362 35.4762 23.2528C35.4696 22.7225 35.3138 22.285 35.0089 21.9403C34.704 21.589 34.2764 21.2973 33.7262 21.0653C33.1826 20.8267 32.5463 20.6146 31.8171 20.429L29.5004 19.8324C27.8233 19.4015 26.4975 18.7486 25.5231 17.8736C24.5553 16.992 24.0714 15.822 24.0714 14.3636C24.0714 13.1638 24.3962 12.1132 25.0458 11.2116C25.7021 10.3101 26.5936 9.6108 27.7205 9.11364C28.8474 8.60985 30.1235 8.35795 31.5487 8.35795C32.9937 8.35795 34.2598 8.60985 35.3469 9.11364C36.4407 9.6108 37.2991 10.3035 37.9222 11.1918C38.5453 12.0734 38.8668 13.0876 38.8867 14.2344H35.337ZM53.6847 29L47.9375 8.63636H51.9048L55.5739 23.6009H55.7628L59.6804 8.63636H63.2898L67.2173 23.6108H67.3963L71.0653 8.63636H75.0327L69.2855 29H65.6463L61.5696 14.7116H61.4105L57.3239 29H53.6847ZM82.5348 29.2983C81.0433 29.2983 79.7507 28.9702 78.657 28.3139C77.5632 27.6577 76.7147 26.7396 76.1115 25.5597C75.5149 24.3797 75.2166 23.0009 75.2166 21.4233C75.2166 19.8456 75.5149 18.4635 76.1115 17.277C76.7147 16.0904 77.5632 15.169 78.657 14.5128C79.7507 13.8565 81.0433 13.5284 82.5348 13.5284C84.0263 13.5284 85.3189 13.8565 86.4126 14.5128C87.5064 15.169 88.3516 16.0904 88.9482 17.277C89.5514 18.4635 89.853 19.8456 89.853 21.4233C89.853 23.0009 89.5514 24.3797 88.9482 25.5597C88.3516 26.7396 87.5064 27.6577 86.4126 28.3139C85.3189 28.9702 84.0263 29.2983 82.5348 29.2983ZM82.5547 26.4148C83.3634 26.4148 84.0395 26.1927 84.5831 25.7486C85.1267 25.2978 85.531 24.6946 85.7962 23.9389C86.0679 23.1832 86.2038 22.3414 86.2038 21.4134C86.2038 20.4787 86.0679 19.6335 85.7962 18.8778C85.531 18.1155 85.1267 17.509 84.5831 17.0582C84.0395 16.6075 83.3634 16.3821 82.5547 16.3821C81.7261 16.3821 81.0367 16.6075 80.4865 17.0582C79.9429 17.509 79.5353 18.1155 79.2635 18.8778C78.9983 19.6335 78.8658 20.4787 78.8658 21.4134C78.8658 22.3414 78.9983 23.1832 79.2635 23.9389C79.5353 24.6946 79.9429 25.2978 80.4865 25.7486C81.0367 26.1927 81.7261 26.4148 82.5547 26.4148ZM92.908 29V13.7273H96.3484V16.3224H96.5273C96.8455 15.4474 97.3725 14.7647 98.1083 14.2741C98.8441 13.777 99.7224 13.5284 100.743 13.5284C101.777 13.5284 102.649 13.7803 103.358 14.2841C104.074 14.7812 104.578 15.4607 104.87 16.3224H105.029C105.367 15.474 105.937 14.7978 106.739 14.294C107.548 13.7836 108.506 13.5284 109.613 13.5284C111.018 13.5284 112.165 13.9725 113.053 14.8608C113.941 15.7491 114.385 17.045 114.385 18.7486V29H110.776V19.3054C110.776 18.3575 110.524 17.6648 110.02 17.2273C109.516 16.7831 108.9 16.5611 108.171 16.5611C107.302 16.5611 106.623 16.8329 106.132 17.3764C105.649 17.9134 105.407 18.6127 105.407 19.4744V29H101.877V19.1562C101.877 18.3674 101.638 17.7377 101.161 17.267C100.69 16.7964 100.074 16.5611 99.3114 16.5611C98.7944 16.5611 98.3237 16.6937 97.8995 16.9588C97.4753 17.2173 97.1372 17.5852 96.8853 18.0625C96.6334 18.5331 96.5075 19.0833 96.5075 19.7131V29H92.908ZM124.798 29.2983C123.267 29.2983 121.945 28.9801 120.831 28.3438C119.724 27.7008 118.872 26.7926 118.276 25.6193C117.679 24.4394 117.381 23.0507 117.381 21.4531C117.381 19.8821 117.679 18.5033 118.276 17.3168C118.879 16.1236 119.721 15.1955 120.801 14.5327C121.882 13.8632 123.151 13.5284 124.609 13.5284C125.551 13.5284 126.439 13.6809 127.274 13.9858C128.116 14.2841 128.858 14.7481 129.501 15.3778C130.151 16.0076 130.661 16.8097 131.033 17.7841C131.404 18.7519 131.589 19.9053 131.589 21.2443V22.348H119.071V19.9219H128.139C128.133 19.2325 127.983 18.6193 127.692 18.0824C127.4 17.5388 126.992 17.1113 126.469 16.7997C125.952 16.4882 125.348 16.3324 124.659 16.3324C123.923 16.3324 123.277 16.5114 122.72 16.8693C122.163 17.2206 121.729 17.6847 121.418 18.2614C121.113 18.8314 120.957 19.4579 120.95 20.1406V22.2585C120.95 23.1468 121.113 23.9091 121.438 24.5455C121.762 25.1752 122.216 25.6591 122.8 25.9972C123.383 26.3286 124.066 26.4943 124.848 26.4943C125.372 26.4943 125.846 26.4214 126.27 26.2756C126.694 26.1231 127.062 25.901 127.374 25.6094C127.685 25.3177 127.92 24.9564 128.08 24.5256L131.44 24.9034C131.228 25.7917 130.824 26.5672 130.227 27.2301C129.637 27.8864 128.882 28.3968 127.96 28.7614C127.039 29.1193 125.985 29.2983 124.798 29.2983ZM138.234 20.0511V29H134.635V13.7273H138.075V16.3224H138.254C138.605 15.4673 139.165 14.7879 139.934 14.2841C140.71 13.7803 141.668 13.5284 142.808 13.5284C143.862 13.5284 144.78 13.7538 145.562 14.2045C146.351 14.6553 146.961 15.3082 147.392 16.1634C147.829 17.0185 148.045 18.0559 148.038 19.2756V29H144.439V19.8324C144.439 18.8116 144.173 18.0128 143.643 17.4361C143.119 16.8594 142.394 16.571 141.466 16.571C140.836 16.571 140.276 16.7102 139.785 16.9886C139.301 17.2604 138.92 17.6548 138.642 18.1719C138.37 18.6889 138.234 19.3153 138.234 20.0511ZM176.232 15.5071H172.513C172.407 14.8973 172.212 14.357 171.926 13.8864C171.641 13.4091 171.287 13.0047 170.863 12.6733C170.438 12.3419 169.954 12.0933 169.411 11.9276C168.874 11.7552 168.294 11.669 167.671 11.669C166.564 11.669 165.583 11.9474 164.728 12.5043C163.873 13.0544 163.203 13.8632 162.719 14.9304C162.235 15.991 161.993 17.2869 161.993 18.8182C161.993 20.3759 162.235 21.6884 162.719 22.7557C163.21 23.8163 163.879 24.6184 164.728 25.1619C165.583 25.6989 166.56 25.9673 167.661 25.9673C168.271 25.9673 168.841 25.8878 169.371 25.7287C169.908 25.563 170.389 25.321 170.813 25.0028C171.244 24.6847 171.605 24.2936 171.897 23.8295C172.195 23.3655 172.4 22.8352 172.513 22.2386L176.232 22.2585C176.093 23.2263 175.791 24.1345 175.327 24.983C174.87 25.8314 174.27 26.5805 173.527 27.2301C172.785 27.8731 171.917 28.3769 170.922 28.7415C169.928 29.0994 168.824 29.2784 167.611 29.2784C165.821 29.2784 164.224 28.8641 162.819 28.0355C161.413 27.2069 160.306 26.0104 159.498 24.446C158.689 22.8816 158.284 21.0057 158.284 18.8182C158.284 16.6241 158.692 14.7481 159.507 13.1903C160.323 11.6259 161.433 10.4295 162.838 9.60085C164.244 8.77225 165.835 8.35795 167.611 8.35795C168.745 8.35795 169.799 8.51704 170.773 8.83523C171.748 9.15341 172.616 9.62074 173.378 10.2372C174.141 10.8471 174.767 11.5961 175.257 12.4844C175.755 13.366 176.079 14.3736 176.232 15.5071ZM183.05 8.63636V29H179.451V8.63636H183.05ZM186.752 29V13.7273H190.351V29H186.752ZM188.561 11.5597C187.991 11.5597 187.501 11.3707 187.09 10.9929C186.679 10.6084 186.473 10.1477 186.473 9.61079C186.473 9.06723 186.679 8.60653 187.09 8.22869C187.501 7.84422 187.991 7.65199 188.561 7.65199C189.138 7.65199 189.629 7.84422 190.033 8.22869C190.444 8.60653 190.65 9.06723 190.65 9.61079C190.65 10.1477 190.444 10.6084 190.033 10.9929C189.629 11.3707 189.138 11.5597 188.561 11.5597ZM197.652 20.0511V29H194.053V13.7273H197.493V16.3224H197.672C198.023 15.4673 198.583 14.7879 199.352 14.2841C200.128 13.7803 201.086 13.5284 202.226 13.5284C203.28 13.5284 204.198 13.7538 204.98 14.2045C205.769 14.6553 206.379 15.3082 206.81 16.1634C207.247 17.0185 207.463 18.0559 207.456 19.2756V29H203.857V19.8324C203.857 18.8116 203.591 18.0128 203.061 17.4361C202.537 16.8594 201.812 16.571 200.884 16.571C200.254 16.571 199.694 16.7102 199.203 16.9886C198.719 17.2604 198.338 17.6548 198.06 18.1719C197.788 18.6889 197.652 19.3153 197.652 20.0511ZM211.115 29V13.7273H214.714V29H211.115ZM212.925 11.5597C212.355 11.5597 211.864 11.3707 211.453 10.9929C211.042 10.6084 210.837 10.1477 210.837 9.61079C210.837 9.06723 211.042 8.60653 211.453 8.22869C211.864 7.84422 212.355 7.65199 212.925 7.65199C213.501 7.65199 213.992 7.84422 214.396 8.22869C214.807 8.60653 215.013 9.06723 215.013 9.61079C215.013 10.1477 214.807 10.6084 214.396 10.9929C213.992 11.3707 213.501 11.5597 212.925 11.5597ZM225.078 29.2983C223.553 29.2983 222.244 28.9635 221.15 28.294C220.063 27.6245 219.225 26.6998 218.635 25.5199C218.051 24.3333 217.76 22.9678 217.76 21.4233C217.76 19.8722 218.058 18.5033 218.654 17.3168C219.251 16.1236 220.093 15.1955 221.18 14.5327C222.274 13.8632 223.566 13.5284 225.058 13.5284C226.297 13.5284 227.395 13.7571 228.349 14.2145C229.31 14.6652 230.076 15.3049 230.646 16.1335C231.216 16.9555 231.541 17.9167 231.62 19.017H228.18C228.041 18.2812 227.709 17.6681 227.186 17.1776C226.669 16.6804 225.976 16.4318 225.108 16.4318C224.372 16.4318 223.725 16.6307 223.169 17.0284C222.612 17.4195 222.178 17.983 221.866 18.7188C221.561 19.4545 221.409 20.3362 221.409 21.3636C221.409 22.4044 221.561 23.2992 221.866 24.0483C222.171 24.7907 222.599 25.3641 223.149 25.7685C223.706 26.1662 224.359 26.3651 225.108 26.3651C225.638 26.3651 226.112 26.2656 226.529 26.0668C226.954 25.8613 227.308 25.5663 227.593 25.1818C227.878 24.7973 228.074 24.33 228.18 23.7798H231.62C231.534 24.8603 231.216 25.8182 230.666 26.6534C230.116 27.482 229.367 28.1316 228.419 28.6023C227.471 29.0663 226.357 29.2983 225.078 29.2983Z" fill="#827FC6"/>
<path d="M5.52273 53.3117L2.34091 41.6753H3.77273L6.20455 51.1526H6.31818L8.79545 41.6753H10.3864L12.8636 51.1526H12.9773L15.4091 41.6753H16.8409L13.6591 53.3117H12.2045L9.63636 44.0389H9.54545L6.97727 53.3117H5.52273ZM21.1477 53.4935C20.3598 53.4935 19.6686 53.306 19.0739 52.931C18.483 52.556 18.0208 52.0314 17.6875 51.3571C17.358 50.6829 17.1932 49.895 17.1932 48.9935C17.1932 48.0844 17.358 47.2908 17.6875 46.6128C18.0208 45.9348 18.483 45.4083 19.0739 45.0333C19.6686 44.6583 20.3598 44.4708 21.1477 44.4708C21.9356 44.4708 22.625 44.6583 23.2159 45.0333C23.8106 45.4083 24.2727 45.9348 24.6023 46.6128C24.9356 47.2908 25.1023 48.0844 25.1023 48.9935C25.1023 49.895 24.9356 50.6829 24.6023 51.3571C24.2727 52.0314 23.8106 52.556 23.2159 52.931C22.625 53.306 21.9356 53.4935 21.1477 53.4935ZM21.1477 52.2889C21.7462 52.2889 22.2386 52.1355 22.625 51.8287C23.0114 51.5219 23.2973 51.1185 23.483 50.6185C23.6686 50.1185 23.7614 49.5768 23.7614 48.9935C23.7614 48.4102 23.6686 47.8666 23.483 47.3628C23.2973 46.859 23.0114 46.4518 22.625 46.1412C22.2386 45.8306 21.7462 45.6753 21.1477 45.6753C20.5492 45.6753 20.0568 45.8306 19.6705 46.1412C19.2841 46.4518 18.9981 46.859 18.8125 47.3628C18.6269 47.8666 18.5341 48.4102 18.5341 48.9935C18.5341 49.5768 18.6269 50.1185 18.8125 50.6185C18.9981 51.1185 19.2841 51.5219 19.6705 51.8287C20.0568 52.1355 20.5492 52.2889 21.1477 52.2889ZM27.1491 53.3117V44.5844H28.4446V45.948H28.5582C28.7401 45.4821 29.0336 45.1204 29.4389 44.8628C29.8442 44.6014 30.331 44.4708 30.8991 44.4708C31.4749 44.4708 31.9541 44.6014 32.3366 44.8628C32.723 45.1204 33.0241 45.4821 33.2401 45.948H33.331C33.5545 45.4973 33.8897 45.1393 34.3366 44.8742C34.7836 44.6052 35.3196 44.4708 35.9446 44.4708C36.7249 44.4708 37.3632 44.7151 37.8594 45.2037C38.3556 45.6886 38.6037 46.4443 38.6037 47.4708V53.3117H37.2628V47.4708C37.2628 46.8268 37.0866 46.3666 36.7344 46.0901C36.3821 45.8136 35.9673 45.6753 35.4901 45.6753C34.8764 45.6753 34.401 45.8609 34.0639 46.2321C33.7268 46.5996 33.5582 47.0655 33.5582 47.6299V53.3117H32.1946V47.3344C32.1946 46.8382 32.0336 46.4386 31.7116 46.1355C31.3897 45.8287 30.9749 45.6753 30.4673 45.6753C30.1188 45.6753 29.7931 45.7681 29.4901 45.9537C29.1908 46.1393 28.9484 46.3969 28.7628 46.7264C28.581 47.0522 28.4901 47.4291 28.4901 47.8571V53.3117H27.1491ZM44.7145 53.4935C43.8736 53.4935 43.1482 53.3079 42.5384 52.9367C41.9323 52.5617 41.4645 52.0389 41.1349 51.3685C40.8092 50.6943 40.6463 49.9102 40.6463 49.0162C40.6463 48.1223 40.8092 47.3344 41.1349 46.6526C41.4645 45.967 41.9228 45.4329 42.5099 45.0503C43.1009 44.6639 43.7902 44.4708 44.5781 44.4708C45.0327 44.4708 45.4815 44.5465 45.9247 44.698C46.3679 44.8496 46.7713 45.0958 47.1349 45.4367C47.4986 45.7738 47.7884 46.2208 48.0043 46.7776C48.2202 47.3344 48.3281 48.02 48.3281 48.8344V49.4026H41.6009V48.2435H46.9645C46.9645 47.7511 46.866 47.3117 46.669 46.9253C46.4759 46.5389 46.1993 46.234 45.8395 46.0105C45.4834 45.7871 45.063 45.6753 44.5781 45.6753C44.044 45.6753 43.5819 45.8079 43.1918 46.073C42.8054 46.3344 42.508 46.6753 42.2997 47.0958C42.0914 47.5162 41.9872 47.967 41.9872 48.448V49.2208C41.9872 49.8799 42.1009 50.4386 42.3281 50.8969C42.5592 51.3514 42.8793 51.698 43.2884 51.9367C43.6974 52.1715 44.1728 52.2889 44.7145 52.2889C45.0668 52.2889 45.3849 52.2397 45.669 52.1412C45.9569 52.0389 46.205 51.8874 46.4134 51.6867C46.6217 51.4821 46.7827 51.2283 46.8963 50.9253L48.1918 51.2889C48.0554 51.7283 47.8262 52.1147 47.5043 52.448C47.1823 52.7776 46.7846 53.0352 46.3111 53.2208C45.8376 53.4026 45.3054 53.4935 44.7145 53.4935ZM51.7088 48.0617V53.3117H50.3679V44.5844H51.6634V45.948H51.777C51.9815 45.5049 52.2921 45.1488 52.7088 44.8799C53.1255 44.6071 53.6634 44.4708 54.3224 44.4708C54.9134 44.4708 55.4304 44.592 55.8736 44.8344C56.3168 45.073 56.6615 45.4367 56.9077 45.9253C57.1539 46.4102 57.277 47.0238 57.277 47.7662V53.3117H55.9361V47.8571C55.9361 47.1715 55.758 46.6374 55.402 46.2549C55.0459 45.8685 54.5573 45.6753 53.9361 45.6753C53.508 45.6753 53.1255 45.7681 52.7884 45.9537C52.455 46.1393 52.1918 46.4102 51.9986 46.7662C51.8054 47.1223 51.7088 47.5541 51.7088 48.0617ZM73.7727 45.3117H72.3636C72.2803 44.9064 72.1345 44.5503 71.9261 44.2435C71.7216 43.9367 71.4716 43.6791 71.1761 43.4708C70.8845 43.2586 70.5606 43.0996 70.2045 42.9935C69.8485 42.8874 69.4773 42.8344 69.0909 42.8344C68.3864 42.8344 67.7481 43.0124 67.1761 43.3685C66.608 43.7246 66.1553 44.2492 65.8182 44.9424C65.4848 45.6355 65.3182 46.4859 65.3182 47.4935C65.3182 48.5011 65.4848 49.3514 65.8182 50.0446C66.1553 50.7378 66.608 51.2624 67.1761 51.6185C67.7481 51.9746 68.3864 52.1526 69.0909 52.1526C69.4773 52.1526 69.8485 52.0996 70.2045 51.9935C70.5606 51.8874 70.8845 51.7302 71.1761 51.5219C71.4716 51.3098 71.7216 51.0503 71.9261 50.7435C72.1345 50.4329 72.2803 50.0768 72.3636 49.6753H73.7727C73.6667 50.27 73.4735 50.8022 73.1932 51.2719C72.9129 51.7416 72.5644 52.1412 72.1477 52.4708C71.7311 52.7965 71.2633 53.0446 70.7443 53.2151C70.2292 53.3855 69.678 53.4708 69.0909 53.4708C68.0985 53.4708 67.2159 53.2283 66.4432 52.7435C65.6705 52.2586 65.0625 51.5693 64.6193 50.6753C64.1761 49.7814 63.9545 48.7208 63.9545 47.4935C63.9545 46.2662 64.1761 45.2056 64.6193 44.3117C65.0625 43.4177 65.6705 42.7283 66.4432 42.2435C67.2159 41.7586 68.0985 41.5162 69.0909 41.5162C69.678 41.5162 70.2292 41.6014 70.7443 41.7719C71.2633 41.9424 71.7311 42.1924 72.1477 42.5219C72.5644 42.8477 72.9129 43.2454 73.1932 43.7151C73.4735 44.181 73.6667 44.7132 73.7727 45.3117ZM78.4361 53.5162C77.883 53.5162 77.3812 53.4121 76.9304 53.2037C76.4796 52.9916 76.1217 52.6867 75.8565 52.2889C75.5914 51.8874 75.4588 51.4026 75.4588 50.8344C75.4588 50.3344 75.5573 49.9291 75.7543 49.6185C75.9512 49.3041 76.2145 49.0579 76.544 48.8799C76.8736 48.7018 77.2372 48.5693 77.6349 48.4821C78.0365 48.3912 78.4399 48.3193 78.8452 48.2662C79.3755 48.198 79.8054 48.1469 80.1349 48.1128C80.4683 48.0749 80.7107 48.0124 80.8622 47.9253C81.0175 47.8382 81.0952 47.6867 81.0952 47.4708V47.4253C81.0952 46.8647 80.9418 46.4291 80.6349 46.1185C80.3319 45.8079 79.8717 45.6526 79.2543 45.6526C78.6141 45.6526 78.1122 45.7927 77.7486 46.073C77.3849 46.3533 77.1293 46.6526 76.9815 46.9708L75.7088 46.5162C75.9361 45.9859 76.2391 45.573 76.6179 45.2776C77.0005 44.9783 77.4171 44.77 77.8679 44.6526C78.3224 44.5314 78.7694 44.4708 79.2088 44.4708C79.4891 44.4708 79.8111 44.5049 80.1747 44.573C80.5421 44.6374 80.8963 44.7719 81.2372 44.9764C81.5819 45.181 81.8679 45.4897 82.0952 45.9026C82.3224 46.3155 82.4361 46.8685 82.4361 47.5617V53.3117H81.0952V52.1299H81.027C80.9361 52.3193 80.7846 52.5219 80.5724 52.7378C80.3603 52.9537 80.0781 53.1374 79.7259 53.2889C79.3736 53.4405 78.9437 53.5162 78.4361 53.5162ZM78.6406 52.3117C79.1709 52.3117 79.6179 52.2075 79.9815 51.9992C80.349 51.7908 80.6255 51.5219 80.8111 51.1924C81.0005 50.8628 81.0952 50.5162 81.0952 50.1526V48.9253C81.0384 48.9935 80.9134 49.056 80.7202 49.1128C80.5308 49.1658 80.3111 49.2132 80.0611 49.2549C79.8149 49.2927 79.5743 49.3268 79.3395 49.3571C79.1084 49.3836 78.9209 49.4064 78.777 49.4253C78.4285 49.4708 78.1027 49.5446 77.7997 49.6469C77.5005 49.7454 77.258 49.895 77.0724 50.0958C76.8906 50.2927 76.7997 50.5617 76.7997 50.9026C76.7997 51.3685 76.9721 51.7208 77.3168 51.9594C77.6652 52.1943 78.1065 52.3117 78.6406 52.3117ZM84.8835 53.3117V44.5844H86.179V45.9026H86.2699C86.429 45.4708 86.7169 45.1204 87.1335 44.8514C87.5502 44.5825 88.0199 44.448 88.5426 44.448C88.6411 44.448 88.7642 44.4499 88.9119 44.4537C89.0597 44.4575 89.1714 44.4632 89.2472 44.4708V45.8344C89.2017 45.823 89.0975 45.806 88.9347 45.7833C88.7756 45.7568 88.607 45.7435 88.429 45.7435C88.0047 45.7435 87.6259 45.8325 87.2926 46.0105C86.9631 46.1848 86.7017 46.4272 86.5085 46.7378C86.3191 47.0446 86.2244 47.395 86.2244 47.7889V53.3117H84.8835ZM94.2301 53.4935C93.3892 53.4935 92.6638 53.3079 92.054 52.9367C91.4479 52.5617 90.9801 52.0389 90.6506 51.3685C90.3248 50.6943 90.1619 49.9102 90.1619 49.0162C90.1619 48.1223 90.3248 47.3344 90.6506 46.6526C90.9801 45.967 91.4384 45.4329 92.0256 45.0503C92.6165 44.6639 93.3059 44.4708 94.0938 44.4708C94.5483 44.4708 94.9972 44.5465 95.4403 44.698C95.8835 44.8496 96.2869 45.0958 96.6506 45.4367C97.0142 45.7738 97.304 46.2208 97.5199 46.7776C97.7358 47.3344 97.8438 48.02 97.8438 48.8344V49.4026H91.1165V48.2435H96.4801C96.4801 47.7511 96.3816 47.3117 96.1847 46.9253C95.9915 46.5389 95.715 46.234 95.3551 46.0105C94.9991 45.7871 94.5786 45.6753 94.0938 45.6753C93.5597 45.6753 93.0975 45.8079 92.7074 46.073C92.321 46.3344 92.0237 46.6753 91.8153 47.0958C91.607 47.5162 91.5028 47.967 91.5028 48.448V49.2208C91.5028 49.8799 91.6165 50.4386 91.8438 50.8969C92.0748 51.3514 92.3949 51.698 92.804 51.9367C93.2131 52.1715 93.6884 52.2889 94.2301 52.2889C94.5824 52.2889 94.9006 52.2397 95.1847 52.1412C95.4725 52.0389 95.7206 51.8874 95.929 51.6867C96.1373 51.4821 96.2983 51.2283 96.4119 50.9253L97.7074 51.2889C97.571 51.7283 97.3419 52.1147 97.0199 52.448C96.6979 52.7776 96.3002 53.0352 95.8267 53.2208C95.3532 53.4026 94.821 53.4935 94.2301 53.4935ZM107.679 53.4708C106.914 53.4708 106.255 53.3306 105.702 53.0503C105.149 52.77 104.723 52.3855 104.423 51.8969C104.124 51.4083 103.974 50.8496 103.974 50.2208C103.974 49.7359 104.077 49.306 104.281 48.931C104.49 48.5522 104.776 48.2018 105.139 47.8799C105.507 47.5541 105.929 47.2283 106.406 46.9026L108.088 45.6526C108.418 45.4367 108.681 45.2056 108.878 44.9594C109.079 44.7132 109.179 44.3912 109.179 43.9935C109.179 43.698 109.048 43.4121 108.787 43.1355C108.529 42.859 108.19 42.7208 107.77 42.7208C107.474 42.7208 107.213 42.7965 106.986 42.948C106.762 43.0958 106.586 43.2852 106.457 43.5162C106.332 43.7435 106.27 43.9783 106.27 44.2208C106.27 44.4935 106.344 44.77 106.491 45.0503C106.643 45.3268 106.834 45.6109 107.065 45.9026C107.3 46.1905 107.543 46.4859 107.793 46.7889L113.134 53.3117H111.52L107.111 47.9935C106.702 47.5011 106.33 47.0541 105.997 46.6526C105.664 46.2511 105.399 45.8552 105.202 45.4651C105.005 45.0749 104.906 44.6526 104.906 44.198C104.906 43.6753 105.022 43.217 105.253 42.823C105.488 42.4253 105.815 42.1166 106.236 41.8969C106.66 41.6734 107.156 41.5617 107.724 41.5617C108.308 41.5617 108.81 41.6753 109.23 41.9026C109.651 42.1261 109.974 42.4234 110.202 42.7946C110.429 43.1621 110.543 43.5617 110.543 43.9935C110.543 44.5503 110.404 45.0333 110.128 45.4424C109.851 45.8514 109.474 46.2321 108.997 46.5844L106.679 48.3117C106.156 48.698 105.802 49.073 105.616 49.4367C105.431 49.8003 105.338 50.0617 105.338 50.2208C105.338 50.5844 105.433 50.9234 105.622 51.2378C105.812 51.5522 106.079 51.806 106.423 51.9992C106.768 52.1924 107.171 52.2889 107.634 52.2889C108.073 52.2889 108.501 52.1961 108.918 52.0105C109.334 51.8211 109.711 51.5484 110.048 51.1924C110.389 50.8363 110.658 50.4083 110.855 49.9083C111.056 49.4083 111.156 48.8458 111.156 48.2208H112.452C112.452 48.9935 112.363 49.6242 112.185 50.1128C112.007 50.6014 111.806 50.984 111.582 51.2605C111.359 51.5371 111.179 51.7435 111.043 51.8799C110.997 51.9367 110.955 51.9935 110.918 52.0503C110.88 52.1071 110.838 52.1639 110.793 52.2208C110.418 52.6412 109.944 52.9556 109.372 53.1639C108.8 53.3685 108.236 53.4708 107.679 53.4708ZM120.709 41.6753V53.3117H119.3V41.6753H120.709ZM124.693 48.0617V53.3117H123.352V44.5844H124.648V45.948H124.761C124.966 45.5049 125.277 45.1488 125.693 44.8799C126.11 44.6071 126.648 44.4708 127.307 44.4708C127.898 44.4708 128.415 44.592 128.858 44.8344C129.301 45.073 129.646 45.4367 129.892 45.9253C130.138 46.4102 130.261 47.0238 130.261 47.7662V53.3117H128.92V47.8571C128.92 47.1715 128.742 46.6374 128.386 46.2549C128.03 45.8685 127.542 45.6753 126.92 45.6753C126.492 45.6753 126.11 45.7681 125.773 45.9537C125.439 46.1393 125.176 46.4102 124.983 46.7662C124.79 47.1223 124.693 47.5541 124.693 48.0617ZM136.507 44.5844V45.7208H131.984V44.5844H136.507ZM133.303 42.4935H134.643V50.8117C134.643 51.1905 134.698 51.4746 134.808 51.6639C134.922 51.8496 135.066 51.9746 135.24 52.0389C135.418 52.0996 135.606 52.1299 135.803 52.1299C135.95 52.1299 136.071 52.1223 136.166 52.1071C136.261 52.0882 136.337 52.073 136.393 52.0617L136.666 53.2662C136.575 53.3003 136.448 53.3344 136.286 53.3685C136.123 53.4064 135.916 53.4253 135.666 53.4253C135.287 53.4253 134.916 53.3439 134.553 53.181C134.193 53.0181 133.893 52.77 133.655 52.4367C133.42 52.1033 133.303 51.6829 133.303 51.1753V42.4935ZM138.524 53.3117V44.5844H139.865V53.3117H138.524ZM139.206 43.1299C138.945 43.1299 138.719 43.0408 138.53 42.8628C138.344 42.6848 138.251 42.4708 138.251 42.2208C138.251 41.9708 138.344 41.7568 138.53 41.5787C138.719 41.4007 138.945 41.3117 139.206 41.3117C139.467 41.3117 139.691 41.4007 139.876 41.5787C140.066 41.7568 140.161 41.9708 140.161 42.2208C140.161 42.4708 140.066 42.6848 139.876 42.8628C139.691 43.0408 139.467 43.1299 139.206 43.1299ZM142.321 53.3117V44.5844H143.616V45.948H143.73C143.912 45.4821 144.205 45.1204 144.611 44.8628C145.016 44.6014 145.503 44.4708 146.071 44.4708C146.647 44.4708 147.126 44.6014 147.509 44.8628C147.895 45.1204 148.196 45.4821 148.412 45.948H148.503C148.726 45.4973 149.062 45.1393 149.509 44.8742C149.955 44.6052 150.491 44.4708 151.116 44.4708C151.897 44.4708 152.535 44.7151 153.031 45.2037C153.527 45.6886 153.776 46.4443 153.776 47.4708V53.3117H152.435V47.4708C152.435 46.8268 152.259 46.3666 151.906 46.0901C151.554 45.8136 151.139 45.6753 150.662 45.6753C150.048 45.6753 149.573 45.8609 149.236 46.2321C148.899 46.5996 148.73 47.0655 148.73 47.6299V53.3117H147.366V47.3344C147.366 46.8382 147.205 46.4386 146.884 46.1355C146.562 45.8287 146.147 45.6753 145.639 45.6753C145.291 45.6753 144.965 45.7681 144.662 45.9537C144.363 46.1393 144.12 46.3969 143.935 46.7264C143.753 47.0522 143.662 47.4291 143.662 47.8571V53.3117H142.321ZM158.795 53.5162C158.242 53.5162 157.741 53.4121 157.29 53.2037C156.839 52.9916 156.481 52.6867 156.216 52.2889C155.951 51.8874 155.818 51.4026 155.818 50.8344C155.818 50.3344 155.917 49.9291 156.114 49.6185C156.311 49.3041 156.574 49.0579 156.903 48.8799C157.233 48.7018 157.597 48.5693 157.994 48.4821C158.396 48.3912 158.799 48.3193 159.205 48.2662C159.735 48.198 160.165 48.1469 160.494 48.1128C160.828 48.0749 161.07 48.0124 161.222 47.9253C161.377 47.8382 161.455 47.6867 161.455 47.4708V47.4253C161.455 46.8647 161.301 46.4291 160.994 46.1185C160.691 45.8079 160.231 45.6526 159.614 45.6526C158.973 45.6526 158.472 45.7927 158.108 46.073C157.744 46.3533 157.489 46.6526 157.341 46.9708L156.068 46.5162C156.295 45.9859 156.598 45.573 156.977 45.2776C157.36 44.9783 157.777 44.77 158.227 44.6526C158.682 44.5314 159.129 44.4708 159.568 44.4708C159.848 44.4708 160.17 44.5049 160.534 44.573C160.902 44.6374 161.256 44.7719 161.597 44.9764C161.941 45.181 162.227 45.4897 162.455 45.9026C162.682 46.3155 162.795 46.8685 162.795 47.5617V53.3117H161.455V52.1299H161.386C161.295 52.3193 161.144 52.5219 160.932 52.7378C160.72 52.9537 160.438 53.1374 160.085 53.2889C159.733 53.4405 159.303 53.5162 158.795 53.5162ZM159 52.3117C159.53 52.3117 159.977 52.2075 160.341 51.9992C160.708 51.7908 160.985 51.5219 161.17 51.1924C161.36 50.8628 161.455 50.5162 161.455 50.1526V48.9253C161.398 48.9935 161.273 49.056 161.08 49.1128C160.89 49.1658 160.67 49.2132 160.42 49.2549C160.174 49.2927 159.934 49.3268 159.699 49.3571C159.468 49.3836 159.28 49.4064 159.136 49.4253C158.788 49.4708 158.462 49.5446 158.159 49.6469C157.86 49.7454 157.617 49.895 157.432 50.0958C157.25 50.2927 157.159 50.5617 157.159 50.9026C157.159 51.3685 157.331 51.7208 157.676 51.9594C158.025 52.1943 158.466 52.3117 159 52.3117ZM169.038 44.5844V45.7208H164.516V44.5844H169.038ZM165.834 42.4935H167.175V50.8117C167.175 51.1905 167.23 51.4746 167.339 51.6639C167.453 51.8496 167.597 51.9746 167.771 52.0389C167.949 52.0996 168.137 52.1299 168.334 52.1299C168.482 52.1299 168.603 52.1223 168.697 52.1071C168.792 52.0882 168.868 52.073 168.925 52.0617L169.197 53.2662C169.107 53.3003 168.98 53.3344 168.817 53.3685C168.654 53.4064 168.447 53.4253 168.197 53.4253C167.819 53.4253 167.447 53.3439 167.084 53.181C166.724 53.0181 166.425 52.77 166.186 52.4367C165.951 52.1033 165.834 51.6829 165.834 51.1753V42.4935ZM174.621 53.4935C173.78 53.4935 173.054 53.3079 172.445 52.9367C171.839 52.5617 171.371 52.0389 171.041 51.3685C170.715 50.6943 170.553 49.9102 170.553 49.0162C170.553 48.1223 170.715 47.3344 171.041 46.6526C171.371 45.967 171.829 45.4329 172.416 45.0503C173.007 44.6639 173.696 44.4708 174.484 44.4708C174.939 44.4708 175.388 44.5465 175.831 44.698C176.274 44.8496 176.678 45.0958 177.041 45.4367C177.405 45.7738 177.695 46.2208 177.911 46.7776C178.126 47.3344 178.234 48.02 178.234 48.8344V49.4026H171.507V48.2435H176.871C176.871 47.7511 176.772 47.3117 176.575 46.9253C176.382 46.5389 176.106 46.234 175.746 46.0105C175.39 45.7871 174.969 45.6753 174.484 45.6753C173.95 45.6753 173.488 45.8079 173.098 46.073C172.712 46.3344 172.414 46.6753 172.206 47.0958C171.998 47.5162 171.893 47.967 171.893 48.448V49.2208C171.893 49.8799 172.007 50.4386 172.234 50.8969C172.465 51.3514 172.786 51.698 173.195 51.9367C173.604 52.1715 174.079 52.2889 174.621 52.2889C174.973 52.2889 175.291 52.2397 175.575 52.1412C175.863 52.0389 176.111 51.8874 176.32 51.6867C176.528 51.4821 176.689 51.2283 176.803 50.9253L178.098 51.2889C177.962 51.7283 177.732 52.1147 177.411 52.448C177.089 52.7776 176.691 53.0352 176.217 53.2208C175.744 53.4026 175.212 53.4935 174.621 53.4935ZM194.32 45.3117H192.911C192.827 44.9064 192.681 44.5503 192.473 44.2435C192.268 43.9367 192.018 43.6791 191.723 43.4708C191.431 43.2586 191.107 43.0996 190.751 42.9935C190.395 42.8874 190.024 42.8344 189.638 42.8344C188.933 42.8344 188.295 43.0124 187.723 43.3685C187.155 43.7246 186.702 44.2492 186.365 44.9424C186.032 45.6355 185.865 46.4859 185.865 47.4935C185.865 48.5011 186.032 49.3514 186.365 50.0446C186.702 50.7378 187.155 51.2624 187.723 51.6185C188.295 51.9746 188.933 52.1526 189.638 52.1526C190.024 52.1526 190.395 52.0996 190.751 51.9935C191.107 51.8874 191.431 51.7302 191.723 51.5219C192.018 51.3098 192.268 51.0503 192.473 50.7435C192.681 50.4329 192.827 50.0768 192.911 49.6753H194.32C194.214 50.27 194.02 50.8022 193.74 51.2719C193.46 51.7416 193.111 52.1412 192.695 52.4708C192.278 52.7965 191.81 53.0446 191.291 53.2151C190.776 53.3855 190.225 53.4708 189.638 53.4708C188.645 53.4708 187.763 53.2283 186.99 52.7435C186.217 52.2586 185.609 51.5693 185.166 50.6753C184.723 49.7814 184.501 48.7208 184.501 47.4935C184.501 46.2662 184.723 45.2056 185.166 44.3117C185.609 43.4177 186.217 42.7283 186.99 42.2435C187.763 41.7586 188.645 41.5162 189.638 41.5162C190.225 41.5162 190.776 41.6014 191.291 41.7719C191.81 41.9424 192.278 42.1924 192.695 42.5219C193.111 42.8477 193.46 43.2454 193.74 43.7151C194.02 44.181 194.214 44.7132 194.32 45.3117ZM197.756 41.6753V53.3117H196.415V41.6753H197.756ZM200.212 53.3117V44.5844H201.553V53.3117H200.212ZM200.893 43.1299C200.632 43.1299 200.407 43.0408 200.217 42.8628C200.032 42.6848 199.939 42.4708 199.939 42.2208C199.939 41.9708 200.032 41.7568 200.217 41.5787C200.407 41.4007 200.632 41.3117 200.893 41.3117C201.155 41.3117 201.378 41.4007 201.564 41.5787C201.753 41.7568 201.848 41.9708 201.848 42.2208C201.848 42.4708 201.753 42.6848 201.564 42.8628C201.378 43.0408 201.155 43.1299 200.893 43.1299ZM205.349 48.0617V53.3117H204.009V44.5844H205.304V45.948H205.418C205.622 45.5049 205.933 45.1488 206.349 44.8799C206.766 44.6071 207.304 44.4708 207.963 44.4708C208.554 44.4708 209.071 44.592 209.514 44.8344C209.957 45.073 210.302 45.4367 210.548 45.9253C210.795 46.4102 210.918 47.0238 210.918 47.7662V53.3117H209.577V47.8571C209.577 47.1715 209.399 46.6374 209.043 46.2549C208.687 45.8685 208.198 45.6753 207.577 45.6753C207.149 45.6753 206.766 45.7681 206.429 45.9537C206.096 46.1393 205.832 46.4102 205.639 46.7662C205.446 47.1223 205.349 47.5541 205.349 48.0617ZM213.368 53.3117V44.5844H214.709V53.3117H213.368ZM214.05 43.1299C213.788 43.1299 213.563 43.0408 213.374 42.8628C213.188 42.6848 213.095 42.4708 213.095 42.2208C213.095 41.9708 213.188 41.7568 213.374 41.5787C213.563 41.4007 213.788 41.3117 214.05 41.3117C214.311 41.3117 214.535 41.4007 214.72 41.5787C214.91 41.7568 215.004 41.9708 215.004 42.2208C215.004 42.4708 214.91 42.6848 214.72 42.8628C214.535 43.0408 214.311 43.1299 214.05 43.1299ZM220.71 53.4935C219.892 53.4935 219.188 53.3003 218.597 52.9139C218.006 52.5276 217.551 51.9954 217.233 51.3174C216.915 50.6393 216.756 49.8647 216.756 48.9935C216.756 48.1071 216.919 47.3249 217.244 46.6469C217.574 45.9651 218.032 45.4329 218.619 45.0503C219.21 44.6639 219.9 44.4708 220.688 44.4708C221.301 44.4708 221.854 44.5844 222.347 44.8117C222.839 45.0389 223.242 45.3571 223.557 45.7662C223.871 46.1753 224.066 46.6526 224.142 47.198H222.801C222.699 46.8003 222.472 46.448 222.119 46.1412C221.771 45.8306 221.301 45.6753 220.71 45.6753C220.188 45.6753 219.729 45.8117 219.335 46.0844C218.945 46.3533 218.64 46.734 218.42 47.2264C218.205 47.7151 218.097 48.2889 218.097 48.948C218.097 49.6223 218.203 50.2094 218.415 50.7094C218.631 51.2094 218.934 51.5977 219.324 51.8742C219.718 52.1507 220.18 52.2889 220.71 52.2889C221.059 52.2889 221.375 52.2283 221.659 52.1071C221.943 51.9859 222.184 51.8117 222.381 51.5844C222.578 51.3571 222.718 51.0844 222.801 50.7662H224.142C224.066 51.2814 223.879 51.7454 223.58 52.1583C223.284 52.5674 222.892 52.8931 222.403 53.1355C221.919 53.3742 221.354 53.4935 220.71 53.4935Z" fill="#111827"/>
</svg>
