<svg width="53" height="52" viewBox="0 0 53 52" fill="none" xmlns="http://www.w3.org/2000/svg">
<path d="M32.8164 22.4609C32.6302 22.4609 32.4776 22.3083 32.4776 22.1221V15.7288C32.4776 14.7951 31.7172 14.0348 30.7835 14.0348H25.7946C25.6083 14.0348 25.4557 13.8822 25.4557 13.696C25.4557 13.5098 25.6083 13.3572 25.7946 13.3572H30.7835C31.4172 13.3572 32.0146 13.6029 32.4621 14.0529C32.9095 14.5003 33.1578 15.0977 33.1578 15.7314V22.1221C33.1552 22.3083 33.0052 22.4609 32.8164 22.4609Z" fill="#E11D48"/>
<path d="M22.1065 37.9088H5.8283C5.19466 37.9088 4.59721 37.6631 4.14977 37.2131C3.70234 36.7656 3.45404 36.1682 3.45404 35.5345L3.45663 15.7287C3.45663 15.0951 3.70232 14.4977 4.15235 14.0502C4.59978 13.6028 5.1972 13.3545 5.83088 13.3545H10.8172C11.0034 13.3545 11.156 13.5071 11.156 13.6933C11.156 13.8795 11.0034 14.0321 10.8172 14.0321L5.82824 14.0347C4.89456 14.0347 4.13421 14.795 4.13421 15.7287V35.5345C4.13421 36.4682 4.89456 37.2285 5.82824 37.2285H22.1064C22.2926 37.2285 22.4452 37.3811 22.4452 37.5673C22.4452 37.7561 22.2927 37.9088 22.1065 37.9088Z" fill="#E11D48"/>
<path d="M22.9884 14.035H13.6257C13.4395 14.035 13.2869 13.8824 13.2869 13.6962C13.2869 13.51 13.4395 13.3574 13.6257 13.3574H22.9884C23.1746 13.3574 23.3272 13.51 23.3272 13.6962C23.3272 13.885 23.1746 14.035 22.9884 14.035Z" fill="#E11D48"/>
<path d="M22.9884 14.035H13.6257C13.4395 14.035 13.2869 13.8824 13.2869 13.6962C13.2869 13.51 13.4395 13.3574 13.6257 13.3574H22.9884C23.1746 13.3574 23.3272 13.51 23.3272 13.6962C23.3272 13.885 23.1746 14.035 22.9884 14.035Z" fill="#E11D48"/>
<path d="M32.8165 19.6523H3.79571C3.6095 19.6523 3.45691 19.4997 3.45691 19.3135V15.7289C3.45691 15.0952 3.7026 14.4978 4.15263 14.0503C4.60006 13.6029 5.19748 13.3546 5.83117 13.3546H10.8175C11.0037 13.3546 11.1563 13.5072 11.1563 13.6934C11.1563 13.8796 11.0037 14.0322 10.8175 14.0322L5.82852 14.0348C4.89484 14.0348 4.13449 14.7952 4.13449 15.7288V18.972H32.4779V15.7288C32.4779 14.7952 31.7176 14.0348 30.7839 14.0348H25.7949C25.6087 14.0348 25.4561 13.8822 25.4561 13.696C25.4561 13.5098 25.6087 13.3572 25.7949 13.3572H30.7839C31.4175 13.3572 32.015 13.6029 32.4624 14.0529C32.9099 14.5004 33.1582 15.0978 33.1582 15.7315V19.3161C33.1556 19.5023 33.0053 19.6523 32.8165 19.6523Z" fill="#E11D48"/>
<path d="M12.6875 17.3119H11.7513C11.0478 17.3119 10.4762 16.7403 10.4762 16.0369V12.5273C10.4762 11.8238 11.0478 11.2522 11.7513 11.2522H12.6875C13.391 11.2522 13.9626 11.8238 13.9626 12.5273V16.0369C13.9652 16.7403 13.391 17.3119 12.6875 17.3119ZM11.7513 11.9298C11.4228 11.9298 11.1538 12.1988 11.1538 12.5273V16.0369C11.1538 16.3653 11.4228 16.6343 11.7513 16.6343H12.6875C13.016 16.6343 13.2849 16.3653 13.2849 16.0369V12.5273C13.2849 12.1988 13.016 11.9298 12.6875 11.9298H11.7513Z" fill="#E11D48"/>
<path d="M24.8581 17.3119H23.9218C23.2184 17.3119 22.6468 16.7403 22.6468 16.0369V12.5273C22.6468 11.8238 23.2184 11.2522 23.9218 11.2522H24.8581C25.5616 11.2522 26.1332 11.8238 26.1332 12.5273V16.0369C26.1332 16.7403 25.5616 17.3119 24.8581 17.3119ZM23.9218 11.9298C23.5934 11.9298 23.3244 12.1988 23.3244 12.5273V16.0369C23.3244 16.3653 23.5934 16.6343 23.9218 16.6343H24.8581C25.1866 16.6343 25.4555 16.3653 25.4555 16.0369V12.5273C25.4555 12.1988 25.1866 11.9298 24.8581 11.9298H23.9218Z" fill="#E11D48"/>
<path d="M10.5821 27.1419H7.77341C7.06994 27.1419 6.49835 26.5703 6.49835 25.8669V23.0581C6.49835 22.3547 7.06992 21.7831 7.77341 21.7831H10.5821C11.2856 21.7831 11.8572 22.3547 11.8572 23.0581V25.8669C11.8572 26.5703 11.2856 27.1419 10.5821 27.1419ZM7.77341 22.4607C7.44495 22.4607 7.17598 22.7297 7.17598 23.0582V25.8669C7.17598 26.1953 7.44495 26.4643 7.77341 26.4643H10.5821C10.9106 26.4643 11.1796 26.1953 11.1796 25.8669V23.0582C11.1796 22.7297 10.9106 22.4607 10.5821 22.4607H7.77341Z" fill="#E11D48"/>
<path d="M19.709 27.1419H16.9003C16.1968 27.1419 15.6252 26.5703 15.6252 25.8669V23.0581C15.6252 22.3547 16.1968 21.7831 16.9003 21.7831H19.709C20.4125 21.7831 20.9841 22.3547 20.9841 23.0581V25.8669C20.9867 26.5703 20.4125 27.1419 19.709 27.1419ZM16.9003 22.4607C16.5718 22.4607 16.3029 22.7297 16.3029 23.0582V25.8669C16.3029 26.1953 16.5718 26.4643 16.9003 26.4643H19.709C20.0375 26.4643 20.3064 26.1953 20.3064 25.8669V23.0582C20.3064 22.7297 20.0375 22.4607 19.709 22.4607H16.9003Z" fill="#E11D48"/>
<path d="M28.8386 27.1419H26.0299C25.3264 27.1419 24.7548 26.5703 24.7548 25.8669V23.0581C24.7548 22.3547 25.3264 21.7831 26.0299 21.7831H28.8386C29.5421 21.7831 30.1137 22.3547 30.1137 23.0581V25.8669C30.1137 26.5703 29.5421 27.1419 28.8386 27.1419ZM26.0299 22.4607C25.7014 22.4607 25.4324 22.7297 25.4324 23.0582V25.8669C25.4324 26.1953 25.7014 26.4643 26.0299 26.4643H28.8386C29.1671 26.4643 29.436 26.1953 29.436 25.8669V23.0582C29.436 22.7297 29.1671 22.4607 28.8386 22.4607H26.0299Z" fill="#E11D48"/>
<path d="M10.5821 35.1003H7.77341C7.06994 35.1003 6.49835 34.5287 6.49835 33.8252V31.0165C6.49835 30.313 7.06992 29.7415 7.77341 29.7415H10.5821C11.2856 29.7415 11.8572 30.313 11.8572 31.0165V33.8252C11.8572 34.5287 11.2856 35.1003 10.5821 35.1003ZM7.77341 30.4191C7.44495 30.4191 7.17598 30.6881 7.17598 31.0165V33.8253C7.17598 34.1537 7.44495 34.4227 7.77341 34.4227H10.5821C10.9106 34.4227 11.1796 34.1537 11.1796 33.8253V31.0165C11.1796 30.6881 10.9106 30.4191 10.5821 30.4191H7.77341Z" fill="#E11D48"/>
<path d="M19.709 35.1003H16.9003C16.1968 35.1003 15.6252 34.5287 15.6252 33.8252V31.0165C15.6252 30.313 16.1968 29.7415 16.9003 29.7415H19.709C20.4125 29.7415 20.9841 30.313 20.9841 31.0165V33.8252C20.9867 34.5287 20.4125 35.1003 19.709 35.1003ZM16.9003 30.4191C16.5718 30.4191 16.3029 30.6881 16.3029 31.0165V33.8253C16.3029 34.1537 16.5718 34.4227 16.9003 34.4227H19.709C20.0375 34.4227 20.3064 34.1537 20.3064 33.8253V31.0165C20.3064 30.6881 20.0375 30.4191 19.709 30.4191H16.9003Z" fill="#E11D48"/>
<path d="M42.3988 39.5357C42.2488 39.5357 42.1117 39.4348 42.0703 39.2822C41.6229 37.5649 41.1754 35.7235 40.922 33.8821C40.666 32.0199 40.6349 30.3078 40.8263 28.6422C40.847 28.456 41.0177 28.3215 41.2013 28.3448C41.3875 28.3655 41.522 28.5362 41.4987 28.7198C41.1186 32.0069 41.6617 35.02 42.7247 39.1113C42.7738 39.2924 42.6626 39.4786 42.4816 39.5251C42.4557 39.5329 42.4272 39.5357 42.3988 39.5357Z" fill="#E11D48"/>
<path d="M47.5533 49.9483H47.5403C47.3541 49.9405 47.2067 49.7853 47.2145 49.5965C47.2972 47.3671 46.8369 45.5749 46.436 44.4679C46.0015 43.2627 45.5411 42.5747 45.5359 42.5696C45.4299 42.4144 45.4713 42.2049 45.6264 42.0989C45.7816 41.9928 45.9911 42.0316 46.0972 42.1894C46.1178 42.2204 46.6015 42.9368 47.0644 44.2145C47.336 44.9619 47.5454 45.7455 47.6851 46.5498C47.861 47.5533 47.9308 48.5878 47.892 49.6249C47.8843 49.8034 47.7343 49.9483 47.5533 49.9483Z" fill="#E11D48"/>
<path d="M31.8696 50C29.7463 50 28.1351 49.4698 27.0824 48.4198C25.8927 47.2352 25.8772 45.8283 25.8772 45.7688C25.8772 45.6447 25.9444 45.5309 26.0531 45.4714C26.1617 45.4119 26.2936 45.4171 26.3996 45.4817C27.6488 46.2783 28.9756 46.5887 29.8679 46.7077C30.6282 46.8085 31.2127 46.7956 31.4377 46.7827C34.7016 44.049 37.6189 41.954 39.4994 40.6738C41.5581 39.2746 42.8538 38.5194 42.8667 38.5117C43.0296 38.4186 43.2365 38.4729 43.3296 38.6333C43.4227 38.7962 43.3684 39.0031 43.2081 39.0962C43.1951 39.104 41.9149 39.8514 39.8743 41.2377C37.9915 42.5179 35.0638 44.6206 31.7895 47.3698C31.7378 47.4137 31.6731 47.4422 31.6033 47.4473C31.5723 47.4499 30.8481 47.5172 29.7981 47.3775C28.9808 47.2689 27.8247 47.0128 26.666 46.4128C26.7566 46.7361 26.9221 47.1422 27.2247 47.5456C28.0885 48.7017 29.6972 49.3147 31.8696 49.3147H31.9188C33.5481 49.3069 35.9896 48.3474 39.176 46.4594C41.8786 44.8585 44.4649 42.9653 45.7632 41.98C46.2908 41.5817 46.6633 41.2868 46.8288 41.1549C47.9797 35.7599 47.6978 28.9658 46.9426 24.9079C46.909 24.7243 47.0305 24.5458 47.2142 24.5122C47.3978 24.4786 47.5762 24.6001 47.6099 24.7837C48.0082 26.9304 48.2564 29.708 48.2823 32.4031C48.3159 35.698 48.034 38.8145 47.465 41.4188C47.4495 41.4938 47.4081 41.5636 47.346 41.6102C47.3409 41.6127 46.8986 41.9696 46.1719 42.5205C44.8606 43.5162 42.251 45.4275 39.5199 47.0439C36.2249 48.994 33.6697 49.9845 31.9164 49.9923C31.9061 50 31.8852 50 31.8696 50Z" fill="#E11D48"/>
<path d="M26.2161 46.1102C26.1126 46.1102 26.0144 46.0636 25.9471 45.9783C25.2023 45.0085 24.6229 43.9351 24.2246 42.7816C23.8134 41.5919 23.6065 40.3428 23.6065 39.0729C23.6065 37.6892 23.8522 36.3392 24.3359 35.0641C24.4031 34.8883 24.5997 34.8003 24.773 34.8676C24.9488 34.9348 25.0368 35.1314 24.9695 35.3046C24.5143 36.5047 24.2841 37.772 24.2841 39.0729C24.2841 41.4445 25.0445 43.6868 26.485 45.5619C26.5988 45.7119 26.5704 45.924 26.423 46.0378C26.3609 46.0869 26.2885 46.1102 26.2161 46.1102Z" fill="#E11D48"/>
<path d="M27.7031 31.1276C27.61 31.1276 27.5143 31.0888 27.4471 31.0112C27.3229 30.8716 27.3385 30.6543 27.4781 30.5328C28.9135 29.2733 30.6541 28.3913 32.5111 27.9852C32.6326 27.9594 32.7568 27.9335 32.8757 27.9102C32.63 27.2973 32.2033 25.9343 33.062 24.4239C33.543 23.3247 34.7043 22.2618 36.5069 21.2661C39.5949 19.5617 39.6544 16.559 39.6001 15.6823C39.5898 15.4961 39.732 15.3357 39.9182 15.3228C40.1044 15.3125 40.2648 15.4547 40.2777 15.6409C40.3036 16.0495 40.3165 17.1306 39.8872 18.3384C39.6441 19.0211 39.2975 19.6445 38.8527 20.1954C38.3173 20.8575 37.6397 21.4187 36.8353 21.8609C35.462 22.6213 34.4999 23.3997 33.9697 24.1886C33.9672 24.2455 33.9516 24.3024 33.9206 24.3515L33.6154 24.8584C33.6025 24.8817 33.5844 24.9024 33.5689 24.9205C32.9223 26.2033 33.3646 27.3206 33.5585 27.7861H33.7499C33.931 27.7861 34.0784 27.9257 34.0887 28.1068C34.0991 28.2878 33.9672 28.443 33.7861 28.4637C33.4163 28.5025 33.0361 28.5671 32.6533 28.6499C30.9076 29.0327 29.2705 29.8603 27.923 31.0422C27.8636 31.0991 27.7833 31.1276 27.7031 31.1276Z" fill="#E11D48"/>
<path d="M39.838 16.0161C39.675 16.0161 39.5017 16.0058 39.3233 15.9851C38.3844 15.8661 37.0732 15.3515 36.1551 13.5747C35.4361 12.1833 35.1154 10.6806 34.9705 9.66162C34.8153 8.55983 34.8283 7.79174 34.8283 7.75811C34.8309 7.57189 34.986 7.42189 35.1748 7.42447C35.361 7.42706 35.511 7.58223 35.5085 7.77104C35.5085 7.77879 35.4981 8.5288 35.6455 9.58146C35.7826 10.5435 36.0852 11.9635 36.7577 13.2643C37.381 14.4721 38.2628 15.1601 39.3801 15.3127C40.2284 15.4265 40.9112 15.1782 40.919 15.1756C41.0948 15.1084 41.2888 15.1963 41.356 15.3722C41.4233 15.5481 41.3354 15.742 41.1595 15.8119C41.1336 15.8145 40.5932 16.0161 39.838 16.0161Z" fill="#E11D48"/>
<path d="M48.3365 25.8567C48.2796 25.8567 48.2201 25.8412 48.1684 25.8128C46.7149 24.9774 45.1941 23.7515 43.9967 22.4429C42.7164 21.0437 41.9121 19.6781 41.7285 18.5919C41.6069 17.8729 41.7492 17.278 42.1449 16.8203C43.3009 15.4935 43.694 13.7452 43.3139 11.6166C43.0914 10.3726 42.6569 9.35103 42.4629 8.94239C41.3715 9.01481 40.3086 8.99153 39.3025 8.87514C38.4387 8.77686 37.6136 8.60876 36.8507 8.37599C35.5369 7.9777 34.8593 7.52507 34.8308 7.50699C34.7506 7.45268 34.6963 7.36216 34.6834 7.26647C34.5567 6.18799 35.0119 5.0578 35.9739 4.08532C36.8067 3.24222 37.968 2.58529 39.0749 2.32926C41.0948 1.86114 42.7811 1.89217 44.2242 2.42236C44.9302 2.681 45.5794 3.05859 46.2001 3.56811C46.7846 4.04916 47.3329 4.63626 47.8787 5.37079C48.3261 5.97339 48.6649 6.77515 48.8873 7.76053C49.0709 8.57782 49.177 9.54248 49.2054 10.6261C49.2545 12.5813 49.0425 14.5444 48.9028 15.8427C48.8666 16.1815 48.8356 16.4737 48.8149 16.7039C48.5744 19.4531 48.6752 25.4508 48.6778 25.5104C48.6804 25.6319 48.6157 25.7483 48.5097 25.8078C48.4554 25.8414 48.396 25.8567 48.3365 25.8567ZM42.6673 8.24911C42.7915 8.24911 42.9078 8.31636 42.9673 8.43016C42.9958 8.48188 43.6682 9.76208 43.9785 11.482C44.1622 12.501 44.1777 13.4657 44.0251 14.345C43.8337 15.4597 43.3708 16.4425 42.6544 17.2675C42.3957 17.565 42.3104 17.971 42.3957 18.4805C42.7035 20.3116 45.2045 23.1617 47.9899 24.9152C47.9718 23.304 47.9407 18.9073 48.1399 16.6497C48.1606 16.4117 48.1916 16.1169 48.2304 15.7729C48.4994 13.2824 49.0606 8.09666 47.3381 5.77934C45.2354 2.95255 42.8896 2.14559 39.2328 2.99135C38.2422 3.22153 37.2077 3.80863 36.4603 4.56381C35.6999 5.33455 35.3094 6.20355 35.3482 7.026C35.5939 7.16566 36.1784 7.46566 37.0862 7.73979C38.2189 8.08119 40.1044 8.44585 42.6441 8.24929L42.6673 8.24911Z" fill="#E11D48"/>
<path d="M24.6621 35.5247C24.0466 35.5247 23.4284 35.2893 22.9603 34.8212C22.7508 34.6117 22.6345 34.3324 22.6345 34.0324C22.6345 33.735 22.7508 33.4556 22.9603 33.2436L26.0561 30.1478C26.2656 29.9383 26.5449 29.8219 26.845 29.8219C27.1424 29.8219 27.4217 29.9383 27.6338 30.1478C28.089 30.603 28.3398 31.2082 28.3398 31.8495C28.3398 32.4909 28.089 33.0961 27.6338 33.5513L26.3665 34.8186C25.8958 35.2893 25.2802 35.5247 24.6621 35.5247ZM26.845 30.5021C26.7286 30.5021 26.6199 30.5461 26.5372 30.6289L23.4414 33.7247C23.3586 33.8074 23.3147 33.916 23.3147 34.0324C23.3147 34.1488 23.3586 34.2574 23.4414 34.3402C23.7776 34.6764 24.2199 34.8445 24.6621 34.8445C25.1044 34.8445 25.5466 34.6764 25.8829 34.3402L27.1502 33.0729C27.4761 32.747 27.6571 32.3125 27.6571 31.8521C27.6571 31.3892 27.4761 30.9572 27.1502 30.6314C27.07 30.546 26.9613 30.5021 26.845 30.5021Z" fill="#E11D48"/>
<path d="M34.761 24.626C34.042 24.626 33.5817 24.5147 33.5506 24.507C33.3696 24.463 33.2584 24.2768 33.3049 24.0958C33.3489 23.9147 33.5351 23.8035 33.7161 23.8501C33.7265 23.8527 34.8075 24.1087 36.2404 23.7776C38.1594 23.338 39.7732 22.1121 41.0379 20.1336C41.1388 19.9758 41.3483 19.9293 41.506 20.0301C41.6638 20.131 41.7104 20.3405 41.6095 20.4982C40.8569 21.6724 39.9672 22.6164 38.9663 23.3018C38.1593 23.8527 37.28 24.2381 36.3542 24.445C35.7515 24.5846 35.2058 24.626 34.761 24.626Z" fill="#E11D48"/>
</svg>
