<svg width="53" height="52" viewBox="0 0 53 52" fill="none" xmlns="http://www.w3.org/2000/svg">
<path d="M33.4033 44.8277C41.0907 39.0682 44.9813 33.1557 44.9676 27.255C44.9502 19.7074 38.3859 14.7567 38.3197 14.7074C38.2078 14.6243 38.1397 14.495 38.1352 14.3557C38.1306 14.2164 38.1895 14.0826 38.2955 13.9921C39.6894 12.8055 40.322 11.5134 40.1759 10.1514C39.7625 6.29602 33.4878 2.89329 33.4248 2.85949C33.2023 2.74028 33.1188 2.4635 33.2375 2.24106C33.3567 2.01863 33.6326 1.9355 33.8555 2.0538C34.1313 2.20178 40.618 5.71824 41.0839 10.0532C41.2488 11.5869 40.6477 13.0197 39.2971 14.3183C40.8372 15.6012 45.8609 20.3148 45.881 27.2441C45.8993 33.4612 41.8727 39.6332 33.9135 45.5869C33.887 45.6065 33.85 45.627 33.8198 45.6407C33.8052 45.6476 33.4586 45.8093 33.2983 46.2985C33.1366 46.7922 33.1343 47.7166 34.0373 49.318C34.161 49.5372 34.0834 49.8163 33.8637 49.9401C33.7929 49.9803 33.7157 49.999 33.6399 49.999C33.4805 49.999 33.3257 49.9154 33.2416 49.7665C32.3729 48.2264 32.1043 46.9502 32.4437 45.9733C32.6999 45.2379 33.2156 44.9218 33.4033 44.8277Z" fill="#E11D48"/>
<path d="M11.9651 28.4051C19.5744 21.6175 14.8298 14.2744 14.6105 13.9433C11.332 8.38747 11.8258 2.6558 11.8481 2.41464C11.8719 2.16389 12.0948 1.97663 12.3455 2.00266C12.5967 2.02641 12.7813 2.2493 12.7575 2.50051C12.752 2.55623 12.2674 8.176 15.3833 13.4578C15.4386 13.54 20.7857 21.7614 12.573 29.0871C6.72396 34.3044 6.9304 41.188 13.17 48.9937C13.2554 49.1002 13.3271 49.1906 13.3837 49.2627C13.5386 49.4623 13.5025 49.7487 13.3033 49.9036C13.2202 49.9689 13.1215 49.9999 13.0233 49.9999C12.8872 49.9999 12.7525 49.9392 12.6625 49.8236L12.4565 49.5642C5.95754 41.4333 5.78307 33.9194 11.9651 28.4051Z" fill="#E11D48"/>
<path d="M29.8011 14.4503C33.4829 14.4503 36.5066 17.1003 36.6212 17.2022C36.8519 17.3927 42.2647 21.9482 41.9062 28.544C41.6381 33.4814 38.2029 38.1571 31.6962 42.4418C29.797 43.6919 27.2945 43.9545 25.5297 43.9545C23.9005 43.9545 22.702 43.7403 22.6431 43.7298C20.2552 43.2475 18.5895 42.0289 17.692 40.1078C14.8533 34.0332 20.696 22.9923 21.0979 22.2465C23.1542 17.0734 26.0823 14.4503 29.8011 14.4503ZM18.5201 39.7214C19.2883 41.3657 20.7366 42.4126 22.8153 42.8323C22.8267 42.8346 23.9822 43.041 25.5297 43.041C27.1698 43.041 29.4837 42.8044 31.1937 41.6795C37.4415 37.5647 40.7383 33.1315 40.9936 28.5025C41.3316 22.3698 36.0918 17.9499 36.0265 17.8955C35.9978 17.8704 33.139 15.3638 29.8011 15.3638C26.5103 15.3638 23.879 17.7713 21.9771 22.5127C22.0425 23.4628 22.3512 24.1337 22.9002 24.5023C24.0174 25.2523 25.8165 24.6307 25.8343 24.6243C25.859 24.6156 25.8846 24.6087 25.9101 24.6046C27.8518 24.2717 29.3202 24.8083 30.3227 25.4523L30.0651 24.8385C29.8363 24.2922 29.9441 23.6551 30.3396 23.2161L33.741 19.4347C34.0159 19.1296 34.3928 18.9492 34.8029 18.9278C35.208 18.91 35.6068 19.0456 35.9114 19.3201C36.217 19.5946 36.3969 19.9714 36.4189 20.3811C36.4408 20.7908 36.3015 21.185 36.027 21.4905L33.3971 24.4146L36.2394 26.8422C36.4883 27.008 38.1531 28.1736 38.4148 29.864C38.5541 30.7643 38.2774 31.6371 37.5712 32.4821C37.5502 32.504 35.4871 34.6699 34.9829 36.6023C34.9774 36.6224 34.971 36.6425 34.9628 36.6617C34.9495 36.6937 33.8113 39.3369 30.6968 39.3369C30.1857 39.3369 29.618 39.2597 28.9968 39.0943C28.1427 40.3992 26.6706 41.2652 24.998 41.2652C22.3631 41.2652 20.2201 39.1217 20.2201 36.4868C20.2201 33.8518 22.3635 31.7088 24.998 31.7088C26.0367 31.7088 26.9958 32.0454 27.7805 32.6104L28.2025 32.0915L27.1342 30.7382H23.8279C22.9806 30.7382 22.2909 30.0485 22.2909 29.2013C22.2909 28.354 22.9806 27.6643 23.8279 27.6643H27.8792C28.3528 27.6643 28.7922 27.8772 29.0854 28.2481L30.1894 29.6461L31.439 28.1087L31.1549 27.4319C30.9444 27.145 29.2366 24.9801 26.1006 25.4985C25.7827 25.604 23.8041 26.2023 22.3964 25.2628C21.9004 24.9312 21.5423 24.4544 21.3199 23.8441C19.856 26.8934 16.3551 35.0891 18.5201 39.7214ZM28.8621 36.4882C28.8621 34.3574 27.1283 32.6237 24.9976 32.6237C22.8669 32.6237 21.1331 34.3574 21.1331 36.4882C21.1331 38.6193 22.8669 40.3531 24.9976 40.3531C27.1283 40.3531 28.8621 38.6193 28.8621 36.4882ZM29.1416 32.3848L28.4674 33.2133C29.2759 34.0692 29.7756 35.2202 29.7756 36.4877C29.7756 37.1143 29.6513 37.7118 29.4307 38.2608C32.7626 39.04 33.9762 36.627 34.1082 36.337C34.686 34.1875 36.8208 31.9454 36.8907 31.8741C37.4063 31.2557 37.6096 30.645 37.5123 30.0079C37.3013 28.6281 35.7333 27.6036 35.7178 27.5935C35.7004 27.5826 35.6835 27.5693 35.668 27.5565L32.4475 24.8056C32.3539 24.7252 32.2963 24.611 32.2881 24.4882C32.2799 24.3653 32.3219 24.2447 32.4041 24.1529L35.3474 20.8803C35.4588 20.7566 35.5154 20.5967 35.5068 20.4309C35.4981 20.2647 35.425 20.1116 35.3008 20.0002C35.177 19.8888 35.0158 19.8349 34.8513 19.8408C34.6851 19.8499 34.5321 19.923 34.4206 20.0468L31.0188 23.8286C30.8585 24.0063 30.8151 24.2643 30.9078 24.4859L32.3863 28.0092C32.4516 28.1645 32.426 28.3431 32.3196 28.4741L30.5379 30.6665C30.4511 30.7729 30.3209 30.835 30.1834 30.835C30.1825 30.835 30.1811 30.835 30.1802 30.835C30.0414 30.8341 29.9108 30.7702 29.8249 30.6615L28.3674 28.8162C28.2487 28.6655 28.0705 28.5792 27.8782 28.5792H23.8269C23.483 28.5792 23.2035 28.8587 23.2035 29.2026C23.2035 29.5466 23.483 29.8261 23.8269 29.8261H27.3548C27.4946 29.8261 27.6266 29.89 27.7134 29.9997L29.1457 31.8138C29.2782 31.9819 29.2763 32.219 29.1416 32.3848Z" fill="#E11D48"/>
</svg>
