<svg width="52" height="52" viewBox="0 0 52 52" fill="none" xmlns="http://www.w3.org/2000/svg">
<path d="M26.0014 44.0197C25.9555 44.0197 25.9095 44.0071 25.8698 43.9861C23.0359 42.3794 19.3455 39.6143 17.8469 35.5651C16.9985 33.2734 17.0465 31.4153 17.9932 29.8881C18.9336 28.3715 20.6243 27.4288 22.4028 27.4288C23.7424 27.4288 25.0381 27.9546 26.0015 28.8826C26.9629 27.9567 28.2586 27.4288 29.6002 27.4288C31.3808 27.4288 33.0694 28.3715 34.0098 29.8881C34.9565 31.4132 35.0046 33.2712 34.1561 35.5651C32.6598 39.6144 28.967 42.3795 26.1333 43.984C26.0935 44.007 26.0474 44.0197 26.0014 44.0197ZM22.4027 27.9669C20.806 27.9669 19.2909 28.8132 18.4466 30.1728C17.594 31.5491 17.5606 33.2521 18.3463 35.3804C19.7674 39.2139 23.2637 41.8704 26.0016 43.4433C28.7394 41.8722 32.2355 39.216 33.6548 35.3804C34.4406 33.2521 34.4093 31.5511 33.5545 30.1728C32.7102 28.8111 31.1951 27.9669 29.5985 27.9669C28.3132 27.9669 27.0739 28.5074 26.1962 29.4479C26.0959 29.5569 25.9057 29.5569 25.8054 29.4479C24.9297 28.5074 23.688 27.9669 22.4027 27.9669Z" fill="#E11D48"/>
<path d="M27.1591 39.0693H24.8415C24.6931 39.0693 24.574 38.9499 24.574 38.8012V37.1526H22.9293C22.781 37.1526 22.6618 37.0332 22.6618 36.8845V34.5613C22.6618 34.4126 22.781 34.2932 22.9293 34.2932H24.574V32.6446C24.574 32.4959 24.6931 32.3765 24.8415 32.3765H27.1591C27.3075 32.3765 27.4266 32.4959 27.4266 32.6446V34.2932H29.0713C29.2197 34.2932 29.3388 34.4126 29.3388 34.5613V36.8845C29.3388 37.0332 29.2197 37.1526 29.0713 37.1526H27.4266V38.8012C27.4266 38.9499 27.3075 39.0693 27.1591 39.0693ZM25.1111 38.5331H26.8937V36.8845C26.8937 36.7357 27.0129 36.6163 27.1612 36.6163H28.8059V34.8295H27.1612C27.0129 34.8295 26.8937 34.7101 26.8937 34.5613V32.9127H25.1111V34.5613C25.1111 34.7101 24.992 34.8295 24.8436 34.8295H23.1989V36.6163H24.8436C24.992 36.6163 25.1111 36.7357 25.1111 36.8845V38.5331Z" fill="#E11D48"/>
<path d="M26.0014 49.9999C25.9722 49.9999 25.9429 49.9958 25.9157 49.9853C8.44692 44.0257 12.0641 25.4487 12.1042 25.2621C12.1334 25.1176 12.2735 25.0233 12.4197 25.0526C21.0215 26.8269 25.7322 19.845 25.7782 19.7758C25.8764 19.625 26.1251 19.625 26.2254 19.7758C26.2672 19.8387 29.9787 25.3418 36.8232 25.3418C37.6926 25.3418 38.6121 25.2538 39.5839 25.0527C39.726 25.0234 39.8702 25.1156 39.8995 25.2622C39.9371 25.4486 43.5567 44.0252 26.0879 49.987C26.0607 49.9953 26.0315 49.9995 26.0022 49.9995L26.0014 49.9999ZM12.5804 25.6329C12.2147 27.8869 10.2022 43.9959 26.0014 49.4487C41.8005 43.9959 39.7884 27.8847 39.4224 25.6307C31.6858 27.0845 27.042 21.7386 26.0014 20.3769C24.9607 21.7386 20.3149 27.0847 12.5804 25.6329Z" fill="#E11D48"/>
<path d="M26.0014 49.9582C25.853 49.9582 25.7339 49.8388 25.7339 49.6921V43.7492C25.7339 43.6026 25.853 43.4832 26.0014 43.4832C26.1498 43.4832 26.2689 43.6026 26.2689 43.7492V49.6921C26.2689 49.8388 26.1498 49.9582 26.0014 49.9582Z" fill="#E11D48"/>
<path d="M38.277 25.7086C38.1349 25.7086 38.0179 25.5976 38.0095 25.4552C37.6396 18.8209 31.7923 18.2573 30.0096 18.245C29.5687 18.2408 29.1654 17.9999 28.9585 17.6144C28.3566 16.5 27.552 14.489 28.9376 13.5526C30.0222 12.8194 30.3378 10.9635 30.4277 9.92234C30.4444 9.73799 30.5426 9.55365 30.6366 9.37561C30.6784 9.296 30.7202 9.22059 30.7432 9.15775C30.9668 8.55235 31.0943 7.95532 31.1278 7.38762C31.1925 6.21244 30.7098 5.04144 29.7652 4.09251C28.7328 3.05139 27.3305 2.46696 26.0118 2.54027C24.0558 2.43972 21.8133 3.88931 21.109 5.70132C20.6534 6.87441 20.8144 8.4141 21.5395 9.82181C21.5563 9.85323 21.5646 9.88675 21.5688 9.92236C21.6607 10.9635 21.9742 12.8216 23.0589 13.5547C24.4444 14.4911 23.6419 16.5021 23.0401 17.6166C22.8311 18.002 22.4298 18.2429 21.9889 18.245C20.2063 18.2597 14.3587 18.8232 13.989 25.4552C13.9807 25.6018 13.849 25.7107 13.7069 25.7087C13.5585 25.7003 13.4457 25.5746 13.454 25.4259C13.849 18.3267 20.0832 17.7234 21.9846 17.7084C22.2312 17.7063 22.4548 17.5722 22.5698 17.3606C22.9857 16.5918 23.8363 14.7254 22.7621 13.9985C21.5708 13.1941 21.1696 11.403 21.0421 10.0225C20.2689 8.4933 20.108 6.80908 20.6116 5.5082C21.3911 3.49927 23.8634 1.90725 26.0119 2.00571C27.4539 1.93239 29.0046 2.56922 30.1436 3.71507C31.1969 4.77506 31.734 6.0885 31.6608 7.41866C31.6273 8.04085 31.4852 8.68812 31.2449 9.34591C31.2156 9.42971 31.1634 9.52816 31.107 9.63081C31.0464 9.74393 30.9649 9.89685 30.9586 9.97017C30.8374 11.359 30.4403 13.1836 29.2345 13.9985C28.1603 14.7233 29.0108 16.5918 29.4267 17.3606C29.5417 17.5743 29.7653 17.7084 30.0119 17.7084C31.9137 17.723 38.1455 18.3263 38.5425 25.4258C38.5508 25.5746 38.438 25.7003 38.2917 25.7086C38.2875 25.7065 38.2833 25.7086 38.277 25.7086Z" fill="#E11D48"/>
<path d="M21.3956 12.5116C20.9547 12.5116 20.5053 12.3943 20.2128 11.8622C19.9265 11.3448 19.7656 10.5886 20.0853 10.1487C20.2274 9.95389 20.5158 9.7465 21.0843 9.86171C21.2285 9.89104 21.3225 10.0314 21.2932 10.178C21.264 10.3226 21.1219 10.4168 20.9777 10.3875C20.7436 10.3393 20.589 10.3666 20.5158 10.465C20.3737 10.6619 20.4489 11.1814 20.6788 11.6025C20.8523 11.9167 21.0884 12.011 21.6151 11.9649C21.7614 11.9544 21.8909 12.0634 21.9035 12.21C21.916 12.3566 21.8053 12.4865 21.659 12.4991C21.5712 12.5074 21.4834 12.5116 21.3956 12.5116Z" fill="#E11D48"/>
<path d="M30.5612 12.5113C30.4735 12.5113 30.3857 12.5071 30.2979 12.4987C30.1516 12.4861 30.0409 12.3562 30.0534 12.2096C30.066 12.0609 30.2081 11.9561 30.3418 11.9645C30.8705 12.0085 31.1025 11.9163 31.2781 11.6021C31.51 11.1832 31.5853 10.6615 31.4411 10.4667C31.37 10.3683 31.2133 10.341 30.9792 10.3892C30.8371 10.4185 30.6929 10.3243 30.6636 10.1797C30.6344 10.0352 30.7284 9.89274 30.8726 9.86342C31.4432 9.74821 31.7295 9.95559 31.8716 10.1504C32.1913 10.5903 32.0304 11.3466 31.7441 11.864C31.4515 12.3939 31.0022 12.5113 30.5612 12.5113Z" fill="#E11D48"/>
<path d="M27.3454 49.4825C27.197 49.4825 27.0779 49.3631 27.0779 49.2165V47.2327C27.0779 47.0861 27.197 46.9667 27.3454 46.9667C27.4937 46.9667 27.6129 47.0861 27.6129 47.2327V49.2165C27.6129 49.3631 27.4937 49.4825 27.3454 49.4825Z" fill="#E11D48"/>
<path d="M5.69015 34.591C5.41847 34.591 5.1468 34.5344 4.88974 34.4234C3.87409 33.9814 3.40597 32.7915 3.84691 31.7734C4.28787 30.7554 5.47492 30.2862 6.49056 30.7281C7.50621 31.1702 7.97433 32.36 7.53339 33.3781C7.32022 33.8725 6.92734 34.2516 6.42786 34.4485C6.18962 34.5449 5.93884 34.591 5.69015 34.591ZM5.69224 31.0444C5.50206 31.0444 5.31398 31.08 5.13215 31.1513C4.7518 31.3021 4.45297 31.5912 4.29204 31.9661C4.12694 32.3411 4.12067 32.758 4.26905 33.1371C4.41952 33.5184 4.70792 33.8158 5.08198 33.9792C5.85522 34.3186 6.75594 33.9583 7.09241 33.1853C7.42887 32.4102 7.07151 31.5074 6.30034 31.1701C6.10389 31.0863 5.89703 31.0444 5.69224 31.0444Z" fill="#E11D48"/>
<path d="M7.02549 30.2965C6.91682 30.2965 6.81024 30.2735 6.70784 30.2295C6.30449 30.0535 6.12057 29.5822 6.29405 29.1779C6.4696 28.7757 6.93979 28.5892 7.34104 28.7631C7.5354 28.849 7.68587 29.004 7.76528 29.203C7.8426 29.402 7.84052 29.6178 7.75483 29.8147C7.67124 30.0095 7.5145 30.1603 7.31597 30.24C7.22192 30.2777 7.12371 30.2965 7.02549 30.2965ZM7.02549 29.1821C6.90428 29.1821 6.78725 29.2533 6.7371 29.3706C6.66813 29.5298 6.74128 29.7163 6.9001 29.7854C6.97743 29.8189 7.06311 29.821 7.14044 29.7896C7.21776 29.7603 7.28046 29.7016 7.3139 29.622C7.34733 29.5445 7.34942 29.4586 7.31808 29.3811C7.28673 29.3015 7.22821 29.2407 7.15089 29.2072C7.10909 29.1905 7.06729 29.1821 7.02549 29.1821Z" fill="#E11D48"/>
<path d="M4.29424 36.5934C4.18766 36.5934 4.08107 36.5724 3.97868 36.5263C3.78432 36.4405 3.63385 36.2854 3.55444 36.0864C3.47711 35.8874 3.4792 35.6717 3.56489 35.4748C3.64848 35.2799 3.80522 35.1291 4.00375 35.0495C4.2002 34.972 4.41754 34.9762 4.61397 35.06C5.01731 35.236 5.20124 35.7073 5.02776 36.1116C4.8961 36.4132 4.60145 36.5934 4.29424 36.5934ZM4.29633 35.479C4.25662 35.479 4.21901 35.4873 4.18139 35.502C4.10407 35.5334 4.04137 35.5921 4.00793 35.6696C3.9745 35.7471 3.97241 35.833 4.00375 35.9105C4.0351 35.9901 4.09362 36.0508 4.17094 36.0844C4.32977 36.1535 4.51576 36.0802 4.58473 35.921C4.6537 35.7617 4.58055 35.5753 4.42172 35.5062C4.37993 35.4894 4.33812 35.479 4.29633 35.479Z" fill="#E11D48"/>
<path d="M8.60535 34.645C8.49668 34.645 8.3901 34.6219 8.28769 34.578C7.88435 34.402 7.70042 33.9307 7.8739 33.5264C8.04945 33.1242 8.51965 32.9398 8.9209 33.1116C9.32424 33.2876 9.50817 33.7568 9.33469 34.1611C9.25109 34.3559 9.09436 34.5067 8.89582 34.5863C8.80387 34.624 8.70566 34.645 8.60535 34.645ZM8.60744 33.5306C8.48623 33.5306 8.3692 33.6018 8.31904 33.7191C8.25008 33.8783 8.32322 34.0647 8.48205 34.1339C8.55938 34.1674 8.64506 34.1674 8.72238 34.1381C8.79971 34.1066 8.8624 34.048 8.89584 33.9705C8.96481 33.8113 8.89166 33.6248 8.73283 33.5557C8.69104 33.5389 8.64924 33.5306 8.60744 33.5306Z" fill="#E11D48"/>
<path d="M2.7958 32.1147C2.68713 32.1147 2.58055 32.0917 2.47814 32.0477C2.28379 31.9639 2.13332 31.8068 2.05599 31.6078C1.97867 31.4088 1.98076 31.193 2.06644 30.9961C2.15004 30.8013 2.30678 30.6505 2.50531 30.573C2.70176 30.4955 2.9191 30.4976 3.11553 30.5834C3.30989 30.6672 3.46035 30.8243 3.53768 31.0234C3.615 31.2224 3.61291 31.4381 3.52723 31.635C3.44363 31.8319 3.2869 31.9807 3.08836 32.0603C2.99223 32.0938 2.89402 32.1147 2.7958 32.1147ZM2.7958 31.0003C2.75609 31.0003 2.71847 31.0087 2.68086 31.0234C2.60144 31.0548 2.54084 31.1134 2.5074 31.1909C2.47396 31.2684 2.47187 31.3543 2.50322 31.4339C2.53457 31.5114 2.59308 31.5722 2.67041 31.6057C2.74773 31.6392 2.83342 31.6413 2.91074 31.6099C2.99016 31.5785 3.05076 31.5198 3.0842 31.4423C3.11764 31.3648 3.11973 31.2789 3.08838 31.2014C3.05703 31.1239 2.99851 31.0632 2.92119 31.0296C2.87939 31.0087 2.8376 31.0003 2.7958 31.0003Z" fill="#E11D48"/>
<path d="M6.39636 31.1909C6.36501 31.1909 6.33157 31.1846 6.30022 31.17C6.17901 31.1155 6.12259 30.9752 6.17483 30.8516L6.58235 29.9089C6.63668 29.7874 6.7788 29.7308 6.90001 29.7832C7.02122 29.8377 7.07764 29.978 7.0254 30.1016L6.61788 31.0443C6.57608 31.1365 6.48831 31.1909 6.39636 31.1909Z" fill="#E11D48"/>
<path d="M7.93288 33.7945C7.90153 33.7945 7.86809 33.7882 7.83674 33.7736L7.21395 33.5034C7.09274 33.4489 7.03631 33.3085 7.08856 33.1849C7.14081 33.0634 7.28291 33.0048 7.40622 33.0592L8.02901 33.3295C8.15022 33.3839 8.20665 33.5243 8.1544 33.6479C8.1147 33.7401 8.02692 33.7945 7.93288 33.7945Z" fill="#E11D48"/>
<path d="M4.06851 32.1106C4.03716 32.1106 4.00372 32.1043 3.97237 32.0896L3.3538 31.8215C3.2326 31.767 3.17617 31.6267 3.22841 31.5031C3.28066 31.3816 3.42277 31.3229 3.54607 31.3774L4.16677 31.6476C4.28798 31.7021 4.34441 31.8424 4.29217 31.966C4.25037 32.0561 4.16255 32.1106 4.06851 32.1106Z" fill="#E11D48"/>
<path d="M4.51785 35.5271C4.4865 35.5271 4.45306 35.5208 4.42171 35.5061C4.3005 35.4516 4.24408 35.3113 4.29632 35.1877L4.76654 34.1047C4.82088 33.9832 4.96299 33.9266 5.0842 33.979C5.20541 34.0335 5.26183 34.1738 5.20959 34.2974L4.73937 35.3804C4.69758 35.4726 4.6098 35.5271 4.51785 35.5271Z" fill="#E11D48"/>
<path d="M7.39786 32.077C7.29337 32.077 7.19514 32.0057 7.16589 31.901C7.13036 31.7711 7.20559 31.6391 7.33307 31.6035L7.84299 31.4632C7.97047 31.4255 8.10422 31.503 8.13975 31.6308C8.17528 31.7606 8.10005 31.8926 7.97256 31.9282L7.46265 32.0686C7.43966 32.0728 7.41875 32.077 7.39786 32.077Z" fill="#E11D48"/>
<path d="M3.47708 33.7007C3.38095 33.7007 3.29109 33.642 3.25347 33.5478C3.20331 33.4242 3.26392 33.2838 3.38722 33.2335L3.95774 33.0052C4.08105 32.957 4.22107 33.0157 4.27122 33.1393C4.32138 33.2629 4.26077 33.4032 4.13747 33.4535L3.56695 33.6818C3.5356 33.6944 3.50634 33.7007 3.47708 33.7007Z" fill="#E11D48"/>
<path d="M8.33999 32.2065C8.24803 32.2065 8.15818 32.1876 8.0704 32.1499C7.9053 32.0787 7.77782 31.9467 7.71303 31.7771C7.64616 31.6095 7.65034 31.4251 7.72139 31.2596C7.79245 31.0941 7.9262 30.9664 8.09338 30.8993C8.26057 30.8323 8.44448 30.8365 8.60957 30.9077C8.77467 30.9789 8.90215 31.1109 8.96902 31.2785C9.0359 31.4461 9.03172 31.6304 8.96067 31.7959C8.88961 31.9614 8.75795 32.0892 8.58867 32.1562C8.50717 32.1897 8.42358 32.2065 8.33999 32.2065ZM8.33999 31.3371C8.317 31.3371 8.29192 31.3413 8.26894 31.3497C8.22087 31.3686 8.18325 31.4042 8.16235 31.4524C8.14146 31.4984 8.14145 31.5529 8.16026 31.599C8.17907 31.6472 8.2146 31.6849 8.26267 31.7037C8.31073 31.7247 8.36298 31.7247 8.41104 31.7058C8.45911 31.687 8.49673 31.6514 8.51763 31.6032C8.53853 31.5571 8.53853 31.5026 8.51972 31.4565C8.50091 31.4084 8.46538 31.3707 8.41731 31.3518C8.39224 31.3434 8.36507 31.3371 8.33999 31.3371Z" fill="#E11D48"/>
<path d="M3.05496 34.2767C2.963 34.2767 2.87314 34.2578 2.78536 34.2201C2.62027 34.1489 2.49278 34.0169 2.42591 33.8493C2.35903 33.6817 2.36321 33.4974 2.43427 33.3319C2.50532 33.1664 2.63907 33.0386 2.80626 32.9716C2.97345 32.9046 3.15735 32.9087 3.32245 32.98C3.48754 33.0512 3.61503 33.1832 3.6819 33.3508C3.74878 33.5183 3.7446 33.7027 3.67355 33.8682C3.60249 34.0337 3.46874 34.1614 3.30155 34.2285C3.22214 34.2599 3.13855 34.2767 3.05496 34.2767ZM3.05496 33.4073C3.03197 33.4073 3.00689 33.4115 2.9839 33.4199C2.93584 33.4387 2.89822 33.4743 2.87732 33.5225C2.85642 33.5686 2.85642 33.6231 2.87523 33.6692C2.89404 33.7173 2.92957 33.7551 2.97764 33.7739C3.02361 33.7949 3.07586 33.7949 3.12393 33.7781C3.17199 33.7592 3.20961 33.7236 3.23051 33.6755C3.25141 33.6294 3.25141 33.5749 3.2326 33.5288C3.21379 33.4806 3.17826 33.4429 3.13019 33.4241C3.10721 33.4115 3.08003 33.4073 3.05496 33.4073Z" fill="#E11D48"/>
<path d="M6.59909 35.0162C6.50505 35.0162 6.41519 34.9596 6.37757 34.8675L6.14351 34.3081C6.09126 34.1845 6.14978 34.0442 6.27308 33.9918C6.39429 33.9415 6.5364 33.9981 6.58865 34.1217L6.82271 34.681C6.87495 34.8046 6.81644 34.945 6.69314 34.9973C6.66179 35.0099 6.63044 35.0162 6.59909 35.0162Z" fill="#E11D48"/>
<path d="M5.04014 31.1801C4.95028 31.1801 4.8646 31.1298 4.8228 31.0439L4.54276 30.4699C4.48424 30.3505 4.5344 30.206 4.65352 30.1473C4.77473 30.0887 4.91684 30.139 4.97535 30.2584L5.25539 30.8323C5.31391 30.9517 5.26375 31.0963 5.14463 31.1549C5.1112 31.1717 5.07567 31.1801 5.04014 31.1801Z" fill="#E11D48"/>
<path d="M6.7687 35.8813C6.68302 35.8813 6.59525 35.8645 6.51165 35.831C6.34447 35.7619 6.21489 35.632 6.14593 35.4665C6.07697 35.301 6.07697 35.1167 6.14593 34.9491C6.28804 34.6056 6.68511 34.4422 7.02574 34.5825C7.36847 34.725 7.53357 35.123 7.39146 35.4665C7.28488 35.7263 7.03204 35.8813 6.7687 35.8813ZM6.7687 35.014C6.69347 35.014 6.62033 35.0601 6.59107 35.1334C6.57017 35.1816 6.57226 35.234 6.59107 35.2801C6.60988 35.3283 6.6475 35.3639 6.69556 35.3848C6.79378 35.4267 6.90663 35.3785 6.94634 35.2801C6.98605 35.1816 6.94007 35.0685 6.84185 35.0287C6.81886 35.0182 6.79378 35.014 6.7687 35.014Z" fill="#E11D48"/>
<path d="M4.6137 30.6209C4.52593 30.6209 4.43815 30.6042 4.35665 30.5686C4.18947 30.4994 4.05989 30.3696 3.99093 30.2041C3.92197 30.0386 3.92197 29.8542 3.99093 29.6866C4.13304 29.3431 4.52802 29.1797 4.87074 29.3201C5.03793 29.3892 5.1675 29.5191 5.23646 29.6866C5.30542 29.8542 5.30543 30.0365 5.23646 30.2041C5.16749 30.3716 5.03793 30.5015 4.87074 30.5686C4.78715 30.6042 4.70148 30.6209 4.6137 30.6209ZM4.6137 29.7516C4.53847 29.7516 4.46533 29.7956 4.43607 29.871C4.41517 29.9192 4.41517 29.9715 4.43607 30.0176C4.45488 30.0658 4.49249 30.1014 4.54056 30.1224C4.58654 30.1433 4.64087 30.1412 4.68685 30.1224C4.73492 30.1014 4.77044 30.0658 4.79134 30.0176C4.81224 29.9694 4.81224 29.9171 4.79134 29.871C4.77044 29.8228 4.73491 29.7872 4.68685 29.7663C4.66386 29.7579 4.63878 29.7516 4.6137 29.7516Z" fill="#E11D48"/>
<path d="M46.3127 34.591C46.064 34.591 45.8132 34.5449 45.575 34.4486C45.0755 34.2517 44.6826 33.8704 44.4694 33.3781C44.0285 32.3601 44.4966 31.1702 45.5123 30.7282C46.0055 30.5145 46.5509 30.5061 47.0504 30.7031C47.5499 30.9 47.9428 31.2812 48.1559 31.7756C48.3691 32.27 48.3795 32.8167 48.181 33.3174C47.9845 33.818 47.6042 34.2119 47.1131 34.4255C46.856 34.5366 46.5844 34.591 46.3127 34.591ZM46.3106 31.0445C46.1037 31.0445 45.8968 31.0864 45.7025 31.1723C45.3284 31.3357 45.0379 31.6352 44.8895 32.0144C44.7391 32.3956 44.7474 32.8104 44.9104 33.1875C45.2448 33.9626 46.1497 34.3187 46.9208 33.9814C47.6941 33.6463 48.0494 32.7413 47.7129 31.9662C47.5499 31.5913 47.2531 31.3022 46.8728 31.1514C46.691 31.0801 46.5008 31.0445 46.3106 31.0445Z" fill="#E11D48"/>
<path d="M44.9773 30.2964C44.8791 30.2964 44.7809 30.2776 44.6848 30.2399C44.4862 30.1624 44.3316 30.0115 44.2459 29.8167C44.1623 29.6219 44.1581 29.404 44.2355 29.205C44.3128 29.006 44.4632 28.851 44.6576 28.7651C45.0609 28.5913 45.5291 28.7756 45.7046 29.1799C45.7924 29.3747 45.7965 29.5926 45.7192 29.7895C45.6398 29.9885 45.4893 30.1435 45.295 30.2294C45.1926 30.2734 45.086 30.2964 44.9773 30.2964ZM44.9773 29.182C44.9356 29.182 44.8938 29.1904 44.852 29.2071C44.7746 29.2407 44.714 29.3035 44.6848 29.381C44.6534 29.4606 44.6555 29.5444 44.6889 29.6219C44.7224 29.6994 44.7851 29.7602 44.8624 29.7895C44.9418 29.8188 45.0254 29.8188 45.1027 29.7853C45.1801 29.7518 45.2407 29.6889 45.2699 29.6114C45.3013 29.5318 45.2992 29.448 45.2657 29.3705C45.2156 29.2532 45.0986 29.182 44.9773 29.182Z" fill="#E11D48"/>
<path d="M47.7085 36.5933C47.4013 36.5933 47.1066 36.4132 46.977 36.1136C46.8015 35.7093 46.9875 35.238 47.3908 35.0621C47.5873 34.9783 47.8046 34.9741 48.0011 35.0516C48.1996 35.1312 48.3542 35.282 48.4399 35.4768C48.5235 35.6717 48.5277 35.8895 48.4504 36.0885C48.373 36.2875 48.2226 36.4425 48.0282 36.5284C47.9216 36.5724 47.813 36.5933 47.7085 36.5933ZM47.418 35.9209C47.487 36.0801 47.673 36.1534 47.8318 36.0843C47.9091 36.0508 47.9697 35.9879 47.999 35.9104C48.0303 35.8308 48.0282 35.747 47.9948 35.6695C47.9614 35.592 47.8987 35.5313 47.8213 35.502C47.7419 35.4705 47.6583 35.4726 47.581 35.5061C47.4222 35.5753 47.349 35.7617 47.418 35.9209Z" fill="#E11D48"/>
<path d="M43.3975 34.6451C43.2972 34.6451 43.199 34.6262 43.1049 34.5885C42.9064 34.5089 42.7517 34.3581 42.666 34.1633C42.5825 33.9685 42.5783 33.7506 42.6556 33.5516C42.7329 33.3526 42.8834 33.1976 43.0777 33.1117C43.4811 32.9378 43.9492 33.1222 44.1247 33.5265C44.3003 33.9308 44.1143 34.4021 43.711 34.578C43.6127 34.622 43.5041 34.6451 43.3975 34.6451ZM43.3975 33.5307C43.3557 33.5307 43.3139 33.539 43.2721 33.5558C43.1948 33.5893 43.1342 33.6522 43.1049 33.7297C43.0736 33.8093 43.0757 33.8931 43.1091 33.9706C43.1425 34.0481 43.2052 34.1088 43.2826 34.1381C43.362 34.1696 43.4456 34.1675 43.5229 34.134C43.6817 34.0648 43.7549 33.8784 43.6859 33.7192C43.6336 33.6019 43.5187 33.5307 43.3975 33.5307Z" fill="#E11D48"/>
<path d="M49.2071 32.1151C49.1088 32.1151 49.0106 32.0963 48.9145 32.0586C48.716 31.979 48.5613 31.8303 48.4756 31.6354C48.392 31.4385 48.3878 31.2228 48.4652 31.0238C48.5425 30.8248 48.693 30.6697 48.8873 30.5839C49.2886 30.41 49.7588 30.5943 49.9343 30.9986C50.0179 31.1955 50.0221 31.4113 49.9448 31.6103C49.8674 31.8093 49.7149 31.9643 49.5205 32.0502C49.4223 32.0921 49.3157 32.1151 49.2071 32.1151ZM49.2071 31.0007C49.1653 31.0007 49.1235 31.0091 49.0817 31.0259C49.0043 31.0594 48.9458 31.1201 48.9145 31.1976C48.8831 31.2772 48.8852 31.361 48.9187 31.4385C48.9876 31.5977 49.1715 31.6711 49.3325 31.6019C49.4098 31.5684 49.4704 31.5077 49.4996 31.4281C49.531 31.3506 49.5289 31.2647 49.4955 31.1872C49.4453 31.0719 49.3283 31.0007 49.2071 31.0007Z" fill="#E11D48"/>
<path d="M45.6081 31.1908C45.5161 31.1908 45.4263 31.1363 45.3866 31.0462L44.977 30.1036C44.9247 29.9821 44.9811 29.8396 45.1023 29.7852C45.2236 29.7328 45.3657 29.7894 45.42 29.9109L45.8296 30.8535C45.8819 30.975 45.8254 31.1175 45.7042 31.1719C45.6708 31.1845 45.6394 31.1908 45.6081 31.1908Z" fill="#E11D48"/>
<path d="M44.07 33.7946C43.978 33.7946 43.8881 33.7402 43.8484 33.648C43.7962 33.5265 43.8526 33.384 43.9738 33.3296L44.5966 33.0593C44.7178 33.007 44.8599 33.0635 44.9143 33.185C44.9665 33.3065 44.9101 33.449 44.7889 33.5034L44.1661 33.7737C44.1327 33.7862 44.1013 33.7946 44.07 33.7946Z" fill="#E11D48"/>
<path d="M47.9342 32.1105C47.8423 32.1105 47.7524 32.0561 47.7127 31.9639C47.6605 31.8424 47.7169 31.7 47.8381 31.6455L48.4588 31.3753C48.58 31.3229 48.7221 31.3794 48.7765 31.5009C48.8287 31.6224 48.7723 31.7649 48.6511 31.8194L48.0304 32.0896C47.999 32.1043 47.9656 32.1105 47.9342 32.1105Z" fill="#E11D48"/>
<path d="M47.4849 35.5273C47.3929 35.5273 47.3031 35.4729 47.2634 35.3828L46.7953 34.2998C46.743 34.1783 46.7994 34.0358 46.9206 33.9814C47.0439 33.9269 47.184 33.9856 47.2383 34.1071L47.7064 35.1901C47.7587 35.3116 47.7022 35.454 47.581 35.5085C47.5497 35.521 47.5183 35.5273 47.4849 35.5273Z" fill="#E11D48"/>
<path d="M44.605 32.077C44.5841 32.077 44.5632 32.0749 44.5402 32.0686L44.0303 31.9282C43.9028 31.8926 43.8276 31.7606 43.8631 31.6308C43.8986 31.503 44.0303 31.4255 44.1599 31.4632L44.6698 31.6035C44.7973 31.6391 44.8725 31.7711 44.837 31.901C44.8077 32.0057 44.7116 32.077 44.605 32.077Z" fill="#E11D48"/>
<path d="M48.526 33.7004C48.4968 33.7004 48.4675 33.6942 48.4382 33.6837L47.8677 33.4553C47.7444 33.4051 47.6838 33.2668 47.734 33.1411C47.7841 33.0175 47.9241 32.9568 48.0474 33.0071L48.618 33.2354C48.7392 33.2836 48.7998 33.4239 48.7496 33.5475C48.712 33.6418 48.6221 33.7004 48.526 33.7004Z" fill="#E11D48"/>
<path d="M43.665 32.2068C43.4058 32.2068 43.1571 32.056 43.0464 31.8004C42.9754 31.6349 42.9712 31.4527 43.0381 31.283C43.1049 31.1154 43.2324 30.9834 43.3975 30.9101C43.7361 30.7635 44.1352 30.9185 44.2836 31.2599C44.3546 31.4254 44.3588 31.6098 44.2919 31.7773C44.2251 31.9449 44.0976 32.0769 43.9325 32.1502C43.8447 32.1879 43.7527 32.2068 43.665 32.2068ZM43.4873 31.6077C43.5291 31.704 43.642 31.748 43.7402 31.7082C43.7883 31.6873 43.8238 31.6496 43.8426 31.6014C43.8614 31.5532 43.8593 31.5008 43.8405 31.4547C43.7987 31.3584 43.6817 31.3123 43.5877 31.3542C43.5396 31.3751 43.5041 31.4128 43.4852 31.4589C43.4644 31.5071 43.4664 31.5616 43.4873 31.6077Z" fill="#E11D48"/>
<path d="M48.9481 34.2767C48.689 34.2767 48.4403 34.1258 48.3296 33.8703C48.2585 33.7048 48.2543 33.5225 48.3212 33.3528C48.3881 33.1853 48.5155 33.0533 48.6806 32.98C48.8457 32.9087 49.0276 32.9046 49.1968 32.9716C49.364 33.0386 49.4957 33.1643 49.5688 33.3319C49.6399 33.4974 49.6441 33.6796 49.5772 33.8493C49.5103 34.0169 49.3849 34.1489 49.2177 34.2222C49.13 34.2578 49.0401 34.2767 48.9481 34.2767ZM48.7726 33.6775C48.8144 33.7739 48.9272 33.8179 49.0254 33.7781C49.0735 33.7571 49.109 33.7194 49.1279 33.6712C49.1467 33.6231 49.1467 33.5707 49.1258 33.5246C49.1049 33.4764 49.0672 33.4408 49.0192 33.422C48.969 33.401 48.9189 33.4052 48.8729 33.4241C48.8248 33.445 48.7893 33.4827 48.7705 33.5309C48.7517 33.577 48.7517 33.6293 48.7726 33.6775Z" fill="#E11D48"/>
<path d="M46.9627 31.1801C46.9272 31.1801 46.8917 31.1717 46.8583 31.155C46.7391 31.0963 46.689 30.9518 46.7475 30.8324L47.0275 30.2584C47.0861 30.1369 47.2303 30.0866 47.3494 30.1474C47.4685 30.2061 47.5186 30.3506 47.4601 30.47L47.1801 31.044C47.1362 31.1299 47.0505 31.1801 46.9627 31.1801Z" fill="#E11D48"/>
<path d="M45.2341 35.8813C44.9687 35.8813 44.7179 35.7241 44.6113 35.4644C44.4692 35.1208 44.6322 34.7249 44.975 34.5825C45.1422 34.5134 45.3261 34.5134 45.4912 34.5825C45.6583 34.6516 45.7879 34.7815 45.8548 34.9491C45.9238 35.1167 45.9238 35.2989 45.8548 35.4665C45.7858 35.6341 45.6563 35.764 45.4912 35.831C45.4076 35.8645 45.3198 35.8813 45.2341 35.8813ZM45.2341 35.014C45.209 35.014 45.184 35.0182 45.161 35.0287C45.0628 35.0705 45.0168 35.1837 45.0565 35.28C45.0962 35.3785 45.2111 35.4246 45.3073 35.3848C45.4055 35.3429 45.4515 35.2318 45.4118 35.1334C45.3804 35.058 45.3094 35.014 45.2341 35.014Z" fill="#E11D48"/>
<path d="M47.3891 30.621C47.3013 30.621 47.2135 30.6043 47.132 30.5687C46.9649 30.4995 46.8353 30.3697 46.7663 30.2021C46.6974 30.0345 46.6974 29.8522 46.7663 29.6847C46.8353 29.5171 46.9649 29.3872 47.13 29.3202C47.2951 29.251 47.479 29.251 47.6461 29.3202C47.8133 29.3893 47.9429 29.5192 48.0098 29.6847C48.0787 29.8501 48.0787 30.0345 48.0098 30.2C47.9408 30.3676 47.8112 30.4974 47.6441 30.5666C47.5646 30.6043 47.4769 30.621 47.3891 30.621ZM47.3891 29.7517C47.364 29.7517 47.3389 29.7559 47.3159 29.7663C47.2177 29.8062 47.1718 29.9193 47.2115 30.0177C47.2324 30.0659 47.2679 30.1015 47.3159 30.1225C47.3619 30.1413 47.4142 30.1413 47.4622 30.1225C47.5103 30.1015 47.5458 30.0659 47.5667 30.0177C47.5855 29.9716 47.5855 29.9172 47.5667 29.8711C47.5458 29.8229 47.5103 29.7873 47.4622 29.7663C47.4393 29.758 47.4142 29.7517 47.3891 29.7517Z" fill="#E11D48"/>
<path d="M10.4281 46.3723C10.217 46.3723 10.0018 46.3304 9.79487 46.2403C9.40407 46.0707 9.10311 45.7564 8.94641 45.3605C8.78967 44.9625 8.79803 44.5268 8.96731 44.1372C9.3184 43.3286 10.2609 42.9578 11.0676 43.3076C11.4584 43.4773 11.7594 43.7894 11.9161 44.1874C12.0728 44.5855 12.0644 45.0212 11.8952 45.4108C11.6339 46.012 11.0446 46.3723 10.4281 46.3723ZM10.4302 43.6009C10.286 43.6009 10.1397 43.6281 10.0018 43.6826C9.71128 43.7978 9.48348 44.0177 9.35811 44.3047C9.23481 44.5917 9.22854 44.9101 9.34348 45.2013C9.45842 45.4925 9.67785 45.7208 9.96418 45.8465C10.5577 46.1042 11.2452 45.8318 11.5023 45.239C11.6256 44.952 11.6319 44.6336 11.5169 44.3424C11.402 44.0513 11.1826 43.8229 10.8962 43.6972C10.7458 43.6344 10.589 43.6009 10.4302 43.6009Z" fill="#E11D48"/>
<path d="M11.473 43.0161C11.3852 43.0161 11.2974 42.9994 11.2138 42.9616C11.055 42.8925 10.9338 42.7647 10.869 42.6034C10.8063 42.4421 10.8084 42.2662 10.8774 42.107C10.9463 41.9478 11.0738 41.8263 11.2347 41.7613C11.3957 41.6985 11.5712 41.7006 11.73 41.7697C11.8889 41.8388 12.0101 41.9666 12.0749 42.1279C12.1376 42.2892 12.1355 42.4652 12.0665 42.6244C11.9975 42.7836 11.8701 42.9072 11.7091 42.97C11.6339 43.0014 11.5524 43.0161 11.473 43.0161ZM11.473 42.1468C11.4458 42.1468 11.4186 42.151 11.3936 42.1635C11.3392 42.1845 11.2953 42.2264 11.2724 42.2808C11.2243 42.3919 11.2744 42.5238 11.3873 42.5699C11.4416 42.5951 11.5002 42.5951 11.5545 42.5741C11.6088 42.5532 11.6527 42.5113 11.6757 42.4568C11.7238 42.3458 11.6736 42.2138 11.5608 42.1677C11.5315 42.153 11.5022 42.1468 11.473 42.1468Z" fill="#E11D48"/>
<path d="M9.33886 47.9386C9.25108 47.9386 9.16331 47.9218 9.07971 47.8841C8.92088 47.815 8.79967 47.6872 8.73489 47.528C8.67219 47.3646 8.67638 47.1887 8.74534 47.0294C8.8143 46.8702 8.94179 46.7487 9.1027 46.6838C9.26362 46.621 9.43917 46.6231 9.598 46.6922C9.75683 46.7613 9.87804 46.8891 9.94282 47.0483C10.0055 47.2096 10.0034 47.3856 9.93446 47.5448C9.86549 47.704 9.73801 47.8255 9.5771 47.8904C9.49977 47.9218 9.42036 47.9386 9.33886 47.9386ZM9.33886 47.0672C9.31169 47.0672 9.28452 47.0713 9.25944 47.0818C9.20511 47.1028 9.16122 47.1447 9.13823 47.1991C9.11524 47.2536 9.11315 47.3123 9.13405 47.3667C9.15495 47.4212 9.19675 47.4652 9.25108 47.4882C9.30542 47.5133 9.36602 47.5133 9.42036 47.4924C9.4747 47.4715 9.51858 47.4296 9.54157 47.3751C9.56456 47.3206 9.56665 47.262 9.54366 47.2075C9.52276 47.153 9.48097 47.109 9.42663 47.086C9.39946 47.0734 9.3702 47.0672 9.33886 47.0672Z" fill="#E11D48"/>
<path d="M12.7078 46.4141C12.62 46.4141 12.5322 46.3974 12.4486 46.3597C12.1205 46.2172 11.97 45.8339 12.1122 45.505C12.2543 45.1761 12.6367 45.0252 12.9648 45.1677C13.2929 45.3101 13.4434 45.6935 13.3013 46.0224C13.2323 46.1816 13.1049 46.3052 12.9439 46.368C12.8687 46.3995 12.7893 46.4141 12.7078 46.4141ZM12.7099 45.5448C12.6242 45.5448 12.5427 45.595 12.5071 45.6788C12.4591 45.7899 12.5113 45.9197 12.6221 45.9679C12.7328 46.0161 12.8624 45.9637 12.9105 45.8548C12.9585 45.7438 12.9063 45.6118 12.7955 45.5657C12.7684 45.5511 12.737 45.5448 12.7099 45.5448Z" fill="#E11D48"/>
<path d="M8.16664 44.4363C8.07887 44.4363 7.9911 44.4195 7.9075 44.3818C7.5794 44.2394 7.42893 43.856 7.57104 43.5271C7.64 43.3679 7.76748 43.2464 7.9284 43.1815C8.08932 43.1186 8.26487 43.1207 8.42369 43.1899C8.58253 43.259 8.70373 43.3868 8.76852 43.5481C8.83121 43.7094 8.82912 43.8853 8.76016 44.0445C8.69119 44.2038 8.56371 44.3273 8.40279 44.3902C8.32756 44.4216 8.24815 44.4363 8.16664 44.4363ZM8.16664 43.567C8.13947 43.567 8.11231 43.5711 8.08723 43.5837C8.03289 43.6047 7.98901 43.6466 7.96602 43.701C7.91795 43.812 7.96811 43.944 8.07887 43.9901C8.18963 44.0383 8.3192 43.9859 8.36727 43.877C8.41533 43.766 8.36518 43.634 8.25233 43.5879C8.22725 43.5732 8.1959 43.567 8.16664 43.567Z" fill="#E11D48"/>
<path d="M10.9797 43.7153C10.9504 43.7153 10.9212 43.709 10.894 43.6986C10.7853 43.6525 10.7352 43.5247 10.7832 43.4158L11.103 42.6805C11.1511 42.5716 11.2744 42.5213 11.3851 42.5695C11.4938 42.6155 11.5439 42.7433 11.4959 42.8523L11.1761 43.5875C11.1427 43.6692 11.0633 43.7153 10.9797 43.7153Z" fill="#E11D48"/>
<path d="M12.1835 45.7495C12.1542 45.7495 12.1249 45.7432 12.0978 45.7327L11.6108 45.5211C11.5022 45.4751 11.452 45.3473 11.5001 45.2383C11.5461 45.1294 11.6735 45.0791 11.7822 45.1273L12.2691 45.3389C12.3778 45.385 12.428 45.5128 12.3799 45.6217C12.3444 45.7013 12.265 45.7495 12.1835 45.7495Z" fill="#E11D48"/>
<path d="M9.16125 44.4365C9.13199 44.4365 9.10273 44.4302 9.07556 44.4197L8.59072 44.2102C8.48205 44.1641 8.43189 44.0364 8.47996 43.9274C8.52593 43.8185 8.65341 43.7682 8.76208 43.8164L9.24693 44.0259C9.3556 44.072 9.40576 44.1998 9.35769 44.3087C9.32425 44.3862 9.24484 44.4365 9.16125 44.4365Z" fill="#E11D48"/>
<path d="M9.51271 47.1054C9.48345 47.1054 9.45419 47.0991 9.42702 47.0886C9.31835 47.0425 9.26819 46.9148 9.31626 46.8058L9.68407 45.9595C9.73005 45.8506 9.85753 45.8003 9.9662 45.8485C10.0749 45.8946 10.125 46.0224 10.077 46.1313L9.70915 46.9776C9.67362 47.0572 9.5963 47.1054 9.51271 47.1054Z" fill="#E11D48"/>
<path d="M11.7635 44.4069C11.6694 44.4069 11.5838 44.344 11.5566 44.2498C11.5252 44.1366 11.5921 44.0172 11.7071 43.9858L12.1041 43.8769C12.2191 43.8455 12.3361 43.9125 12.3675 44.0277C12.3988 44.1429 12.3319 44.2602 12.217 44.2917L11.8199 44.4006C11.8011 44.4048 11.7823 44.4069 11.7635 44.4069Z" fill="#E11D48"/>
<path d="M8.6995 45.6763C8.61382 45.6763 8.53441 45.626 8.50097 45.5422C8.45708 45.4312 8.51142 45.3076 8.62009 45.2636L9.06732 45.0856C9.17599 45.0437 9.30138 45.0961 9.34527 45.205C9.38916 45.316 9.33482 45.4396 9.22615 45.4836L8.77892 45.6616C8.75175 45.6721 8.72667 45.6763 8.6995 45.6763Z" fill="#E11D48"/>
<path d="M12.4991 44.5097C12.4239 44.5097 12.3486 44.4929 12.2796 44.4636C12.1459 44.4049 12.0414 44.296 11.9871 44.1598C11.9327 44.0216 11.9348 43.8708 11.9933 43.7367C12.0519 43.6005 12.1605 43.4958 12.2964 43.4413C12.4343 43.3869 12.5848 43.389 12.7185 43.4497C12.8544 43.5084 12.9589 43.6173 13.0132 43.7555C13.0675 43.8938 13.0654 44.0446 13.0048 44.1787C12.9463 44.3128 12.8376 44.4175 12.7018 44.472C12.637 44.4971 12.568 44.5097 12.4991 44.5097ZM12.4991 43.831C12.4845 43.831 12.4677 43.8331 12.4531 43.8394C12.4218 43.8519 12.3988 43.875 12.3841 43.9064C12.3716 43.9378 12.3695 43.9713 12.382 44.0028C12.3946 44.0342 12.4176 44.0572 12.4489 44.0698C12.4803 44.0844 12.5137 44.0844 12.5451 44.0719C12.5764 44.0593 12.5994 44.0363 12.614 44.0048C12.6266 43.9755 12.6287 43.942 12.6161 43.9085C12.6036 43.8771 12.5806 43.854 12.5492 43.8415C12.5325 43.8352 12.5158 43.831 12.4991 43.831Z" fill="#E11D48"/>
<path d="M8.36944 46.1273C8.29421 46.1273 8.21897 46.1105 8.15 46.0812C7.86996 45.9597 7.74248 45.6329 7.86369 45.3522C7.9849 45.0715 8.31092 44.9437 8.59097 45.0652C8.87101 45.1867 8.99849 45.5135 8.87728 45.7942C8.81877 45.9304 8.7101 46.0351 8.57426 46.0896C8.50738 46.1147 8.4384 46.1273 8.36944 46.1273ZM8.36944 45.4486C8.32137 45.4486 8.2754 45.4779 8.2545 45.524C8.22733 45.5868 8.25659 45.6622 8.31928 45.6895C8.34854 45.702 8.38407 45.7041 8.41542 45.6916C8.44677 45.679 8.46975 45.6559 8.48439 45.6245C8.51155 45.5617 8.4823 45.4863 8.4196 45.459C8.40288 45.4507 8.38616 45.4486 8.36944 45.4486Z" fill="#E11D48"/>
<path d="M11.1386 46.7051C11.055 46.7051 10.9756 46.6548 10.9421 46.5732L10.7603 46.1353C10.7144 46.0264 10.7666 45.9007 10.8753 45.8546C10.9839 45.8106 11.1093 45.8609 11.1553 45.9698L11.3371 46.4077C11.3831 46.5166 11.3309 46.6423 11.2222 46.6884C11.195 46.6988 11.1678 46.7051 11.1386 46.7051Z" fill="#E11D48"/>
<path d="M9.92201 43.7075C9.8426 43.7075 9.76737 43.6635 9.72975 43.586L9.51241 43.1377C9.46016 43.0309 9.50405 42.9031 9.61063 42.8507C9.71721 42.8005 9.84469 42.8424 9.89694 42.9492L10.1143 43.3975C10.1665 43.5043 10.1226 43.6321 10.0161 43.6845C9.98471 43.7012 9.95336 43.7075 9.92201 43.7075Z" fill="#E11D48"/>
<path d="M11.2723 47.3815C11.2013 47.3815 11.1302 47.3689 11.0612 47.3396C10.7812 47.2223 10.6454 46.8997 10.7624 46.6168C10.8794 46.334 11.2034 46.1979 11.4855 46.3173C11.7676 46.4346 11.9014 46.7572 11.7844 47.04C11.6945 47.2537 11.4897 47.3815 11.2723 47.3815ZM11.2243 46.9436C11.289 46.9709 11.3622 46.9394 11.3873 46.8766C11.4123 46.8138 11.3831 46.7404 11.3204 46.7132C11.2577 46.6881 11.1845 46.7174 11.1574 46.7802C11.1302 46.8431 11.1616 46.9164 11.2243 46.9436Z" fill="#E11D48"/>
<path d="M9.58761 43.2714C9.51656 43.2714 9.44341 43.2568 9.37654 43.2295C9.24069 43.173 9.13412 43.0661 9.07769 42.93C9.02126 42.7938 9.02126 42.643 9.07769 42.5068C9.13412 42.3707 9.2407 42.2638 9.37654 42.2073C9.51238 42.1507 9.66285 42.1486 9.79868 42.2073C9.93452 42.2638 10.0411 42.3707 10.0975 42.5068C10.154 42.643 10.154 42.7938 10.0975 42.93C10.0411 43.0661 9.93452 43.173 9.79868 43.2295C9.73181 43.2568 9.65866 43.2714 9.58761 43.2714ZM9.58761 42.5927C9.57089 42.5927 9.55417 42.5969 9.53954 42.6011C9.5082 42.6137 9.48521 42.6388 9.47267 42.6681C9.46013 42.6996 9.46013 42.7331 9.47267 42.7645C9.48521 42.7959 9.51029 42.819 9.53954 42.8315C9.5688 42.8441 9.60433 42.8441 9.63568 42.8315C9.66703 42.819 9.69001 42.7938 9.70255 42.7645C9.71509 42.7352 9.71509 42.6996 9.70255 42.6702C9.69001 42.6388 9.66494 42.6158 9.63568 42.6032C9.61896 42.5948 9.60433 42.5927 9.58761 42.5927Z" fill="#E11D48"/>
<path d="M41.5726 46.3738C41.3741 46.3738 41.1755 46.336 40.9874 46.2606C40.5904 46.1035 40.279 45.8019 40.1097 45.4102C39.9404 45.0184 39.9321 44.5848 40.0888 44.1868C40.2456 43.7888 40.5465 43.4767 40.9373 43.307C41.3281 43.1373 41.7607 43.131 42.1577 43.2861C42.5548 43.4432 42.8662 43.7448 43.0354 44.1365C43.2047 44.5283 43.2131 44.964 43.0563 45.3599C42.8996 45.7579 42.5987 46.07 42.2079 46.2397C42.0052 46.3298 41.7879 46.3738 41.5726 46.3738ZM41.5726 43.6002C41.4138 43.6002 41.2571 43.6337 41.1066 43.6987C40.8203 43.8244 40.6008 44.0527 40.4859 44.3439C40.3709 44.635 40.3772 44.9534 40.5026 45.2404C40.628 45.5274 40.8558 45.7474 41.1463 45.8626C41.4367 45.9778 41.7544 45.9715 42.0407 45.848C42.6301 45.5903 42.9038 44.899 42.6468 44.3062C42.5193 44.0192 42.2915 43.7971 42.001 43.6819C41.8631 43.6274 41.7168 43.6002 41.5726 43.6002Z" fill="#E11D48"/>
<path d="M40.5299 43.0161C40.4505 43.0161 40.369 43.0015 40.2917 42.9701C40.1308 42.9072 40.0033 42.7836 39.9343 42.6244C39.8653 42.4652 39.8633 42.2892 39.926 42.1279C39.9887 41.9666 40.112 41.8389 40.2708 41.7697C40.5968 41.6273 40.9813 41.7781 41.1235 42.107C41.2656 42.4359 41.1151 42.8192 40.787 42.9617C40.7055 42.9994 40.6177 43.0161 40.5299 43.0161ZM40.5299 42.1468C40.5007 42.1468 40.4714 42.1531 40.4422 42.1657C40.3314 42.2138 40.2791 42.3437 40.3293 42.4547C40.3774 42.5658 40.5048 42.6181 40.6177 42.5679C40.7285 42.5197 40.7807 42.3898 40.7305 42.2788C40.6971 42.1971 40.6156 42.1468 40.5299 42.1468Z" fill="#E11D48"/>
<path d="M42.664 47.9384C42.5846 47.9384 42.5031 47.9237 42.4258 47.8923C42.2649 47.8295 42.1374 47.7059 42.0684 47.5467C41.9995 47.3875 41.9974 47.2115 42.0601 47.0502C42.1228 46.8889 42.2461 46.7611 42.4049 46.6941C42.7351 46.5495 43.1154 46.7025 43.2576 47.0314C43.3265 47.1906 43.3286 47.3665 43.2659 47.5278C43.2032 47.6891 43.0799 47.8169 42.9211 47.8839C42.8396 47.9196 42.7518 47.9384 42.664 47.9384ZM42.6619 47.067C42.6327 47.067 42.6034 47.0732 42.5742 47.0858C42.5198 47.1089 42.478 47.1528 42.4571 47.2073C42.4362 47.2618 42.4362 47.3225 42.4613 47.3749C42.5094 47.4859 42.6369 47.5383 42.7497 47.488C42.804 47.465 42.8458 47.421 42.8667 47.3665C42.8876 47.3121 42.8876 47.2513 42.8646 47.1989C42.8291 47.1172 42.7476 47.067 42.6619 47.067Z" fill="#E11D48"/>
<path d="M39.2951 46.414C39.2157 46.414 39.1342 46.3994 39.0569 46.368C38.896 46.3051 38.7685 46.1815 38.7016 46.0223C38.6326 45.8631 38.6305 45.6871 38.6932 45.5258C38.7559 45.3645 38.8792 45.2368 39.0381 45.1676C39.1969 45.1006 39.3724 45.0964 39.5334 45.1593C39.6943 45.2221 39.8218 45.3457 39.8886 45.5049C39.9576 45.6641 39.9597 45.8401 39.897 46.0014C39.8343 46.1627 39.711 46.2904 39.5522 46.3596C39.4707 46.3973 39.3829 46.414 39.2951 46.414ZM39.2951 45.5447C39.2659 45.5447 39.2366 45.551 39.2073 45.5635C39.0966 45.6117 39.0443 45.7416 39.0945 45.8526C39.1175 45.9071 39.1614 45.949 39.2157 45.9699C39.27 45.9909 39.3306 45.9909 39.3829 45.9657C39.4957 45.9176 39.5459 45.7877 39.4978 45.6767C39.4748 45.6222 39.431 45.5803 39.3766 45.5594C39.3495 45.5489 39.3223 45.5447 39.2951 45.5447Z" fill="#E11D48"/>
<path d="M43.8362 44.4363C43.7568 44.4363 43.6753 44.4216 43.598 44.3902C43.437 44.3274 43.3096 44.2038 43.2406 44.0446C43.1716 43.8854 43.1695 43.7094 43.2322 43.5481C43.2949 43.3868 43.4182 43.259 43.5771 43.1899C43.9031 43.0475 44.2876 43.1983 44.4297 43.5272C44.5719 43.8561 44.4214 44.2394 44.0933 44.3819C44.0118 44.4196 43.924 44.4363 43.8362 44.4363ZM43.8362 43.567C43.8069 43.567 43.7777 43.5732 43.7484 43.5858C43.6377 43.634 43.5854 43.7639 43.6356 43.8749C43.6836 43.9859 43.8111 44.0383 43.924 43.988C44.0347 43.9398 44.087 43.81 44.0368 43.6989C44.0013 43.6172 43.9198 43.567 43.8362 43.567Z" fill="#E11D48"/>
<path d="M41.0232 43.7154C40.9396 43.7154 40.8623 43.6672 40.8267 43.5855L40.5091 42.8503C40.4631 42.7413 40.5112 42.6156 40.6198 42.5675C40.7264 42.5214 40.8539 42.5696 40.902 42.6785L41.2196 43.4138C41.2656 43.5227 41.2175 43.6484 41.1089 43.6966C41.0796 43.7112 41.0503 43.7154 41.0232 43.7154Z" fill="#E11D48"/>
<path d="M39.8194 45.7497C39.7358 45.7497 39.6585 45.7015 39.623 45.6198C39.577 45.5109 39.625 45.3852 39.7337 45.337L40.2207 45.1255C40.3272 45.0794 40.4547 45.1276 40.5028 45.2365C40.5488 45.3454 40.5007 45.4711 40.392 45.5193L39.9051 45.7309C39.8779 45.7434 39.8487 45.7497 39.8194 45.7497Z" fill="#E11D48"/>
<path d="M42.8416 44.4361C42.758 44.4361 42.6807 44.3879 42.6452 44.3062C42.5992 44.1973 42.6494 44.0716 42.756 44.0234L43.2408 43.8139C43.3495 43.7678 43.4749 43.816 43.5229 43.925C43.5689 44.0339 43.5187 44.1596 43.4122 44.2078L42.9273 44.4172C42.8981 44.4298 42.8688 44.4361 42.8416 44.4361Z" fill="#E11D48"/>
<path d="M42.4901 47.1051C42.4065 47.1051 42.3292 47.0569 42.2937 46.9752L41.9258 46.129C41.8799 46.02 41.9279 45.8943 42.0366 45.8462C42.1432 45.8001 42.2707 45.8483 42.3187 45.9572L42.6865 46.8035C42.7325 46.9124 42.6845 47.0381 42.5758 47.0863C42.5486 47.0988 42.5194 47.1051 42.4901 47.1051Z" fill="#E11D48"/>
<path d="M40.2394 44.4065C40.2206 44.4065 40.2018 44.4044 40.183 44.3981L39.7859 44.2892C39.673 44.2578 39.6062 44.1384 39.6354 44.0253C39.6668 43.9121 39.7859 43.8451 39.8988 43.8744L40.2958 43.9834C40.4108 44.0169 40.4776 44.1363 40.4463 44.2494C40.4212 44.3458 40.3334 44.4065 40.2394 44.4065Z" fill="#E11D48"/>
<path d="M43.3033 45.6763C43.2761 45.6763 43.249 45.6721 43.2239 45.6617L42.7767 45.4836C42.668 45.4396 42.6136 45.316 42.6575 45.205C42.7014 45.094 42.8268 45.0437 42.9355 45.0856L43.3827 45.2637C43.4914 45.3076 43.5457 45.4312 43.5018 45.5423C43.4684 45.6261 43.389 45.6763 43.3033 45.6763Z" fill="#E11D48"/>
<path d="M39.5038 44.5097C39.2906 44.5097 39.0858 44.384 38.996 44.1766C38.9375 44.0405 38.9354 43.8896 38.9897 43.7514C39.044 43.6131 39.1485 43.5063 39.2844 43.4476C39.4181 43.389 39.5686 43.3848 39.7065 43.4392C39.8444 43.4937 39.9531 43.5985 40.0116 43.7346C40.0701 43.8687 40.0722 44.0195 40.02 44.1578C39.9657 44.296 39.8612 44.4049 39.7253 44.4636C39.6522 44.495 39.5769 44.5097 39.5038 44.5097ZM39.3889 44.0048C39.4014 44.0342 39.4265 44.0593 39.4578 44.0719C39.4892 44.0844 39.5226 44.0844 39.554 44.0698C39.5853 44.0572 39.6083 44.0321 39.6208 44.0006C39.6334 43.9692 39.6334 43.9357 39.6187 43.9064C39.6062 43.875 39.5811 43.8519 39.5498 43.8393C39.5184 43.8268 39.4829 43.8268 39.4557 43.8414C39.4244 43.854 39.4014 43.8791 39.3889 43.9106C39.3763 43.942 39.3763 43.9755 39.3889 44.0048Z" fill="#E11D48"/>
<path d="M43.6334 46.1269C43.5645 46.1269 43.4955 46.1143 43.4307 46.0892C43.2928 46.0347 43.1862 45.93 43.1256 45.7938C43.0044 45.5131 43.134 45.1863 43.4119 45.0648C43.6919 44.9412 44.018 45.0732 44.1392 45.3518C44.2604 45.6325 44.1308 45.9593 43.8529 46.0808C43.7818 46.1122 43.7066 46.1269 43.6334 46.1269ZM43.6334 45.4482C43.6167 45.4482 43.6 45.4524 43.5833 45.4587C43.5206 45.4859 43.4913 45.5592 43.5185 45.6221C43.531 45.6514 43.5561 45.6765 43.5875 45.6891C43.6167 45.7017 43.6522 45.7017 43.6815 45.687C43.7442 45.6598 43.7735 45.5864 43.7463 45.5215C43.7275 45.4754 43.6815 45.4482 43.6334 45.4482Z" fill="#E11D48"/>
<path d="M40.8643 46.7051C40.8371 46.7051 40.8099 46.6988 40.7807 46.6884C40.672 46.6423 40.6198 46.5166 40.6657 46.4077L40.8475 45.9698C40.8935 45.8609 41.0189 45.8106 41.1276 45.8546C41.2363 45.9007 41.2885 46.0264 41.2425 46.1353L41.0607 46.5732C41.0273 46.6548 40.9479 46.7051 40.8643 46.7051Z" fill="#E11D48"/>
<path d="M42.0808 43.7076C42.0495 43.7076 42.0181 43.6992 41.9868 43.6866C41.8802 43.6343 41.8363 43.5065 41.8886 43.3996L42.1059 42.9513C42.1582 42.8445 42.2857 42.8005 42.3922 42.8529C42.4988 42.9053 42.5427 43.033 42.4905 43.1399L42.2731 43.5882C42.2355 43.6636 42.1603 43.7076 42.0808 43.7076Z" fill="#E11D48"/>
<path d="M40.7305 47.3816C40.5132 47.3816 40.3084 47.2517 40.2206 47.0401C40.1036 46.7573 40.2373 46.4327 40.5194 46.3153C40.8037 46.1959 41.1255 46.3321 41.2426 46.6149C41.3596 46.8977 41.2258 47.2224 40.9437 47.3397C40.8727 47.369 40.8016 47.3816 40.7305 47.3816ZM40.7305 46.7029C40.7138 46.7029 40.6992 46.7071 40.6845 46.7113C40.6218 46.7385 40.5905 46.8118 40.6177 46.8747C40.6427 46.9396 40.7201 46.9668 40.7807 46.9417C40.8434 46.9145 40.8747 46.8411 40.8476 46.7783C40.8267 46.7322 40.7786 46.7029 40.7305 46.7029Z" fill="#E11D48"/>
<path d="M42.4152 43.2717C42.1979 43.2717 41.9931 43.1418 41.9053 42.9302C41.8489 42.794 41.8489 42.6432 41.9053 42.5071C41.9617 42.3709 42.0683 42.2641 42.2041 42.2075C42.4842 42.0902 42.8102 42.2243 42.9272 42.5071C43.0443 42.7878 42.9105 43.1145 42.6284 43.2298C42.5573 43.257 42.4863 43.2717 42.4152 43.2717ZM42.4152 42.5929C42.3985 42.5929 42.3818 42.5971 42.3671 42.6013C42.3358 42.6139 42.3128 42.639 42.3003 42.6684C42.2877 42.6977 42.2877 42.7333 42.3003 42.7626C42.3254 42.8276 42.4027 42.8548 42.4633 42.8297C42.4946 42.8171 42.5176 42.7919 42.5302 42.7626C42.5427 42.7333 42.5427 42.6977 42.5302 42.6684C42.5113 42.6223 42.4633 42.5929 42.4152 42.5929Z" fill="#E11D48"/>
<path d="M11.6608 17.0361C11.7276 17.034 11.7945 17.0068 11.8468 16.9544C12.1477 16.6423 12.4653 16.3365 12.7872 16.0453C12.8959 15.9469 12.9042 15.7772 12.806 15.6661C12.7057 15.5551 12.5364 15.5488 12.4277 15.6473C12.0975 15.9468 11.7736 16.2611 11.4643 16.5795C11.3619 16.6863 11.364 16.856 11.4685 16.9587C11.5207 17.0131 11.5918 17.0382 11.6608 17.0361Z" fill="#E11D48"/>
<path d="M13.4166 15.4257C13.473 15.4236 13.5315 15.4048 13.5796 15.365C13.914 15.0927 14.263 14.8266 14.6183 14.571C14.7395 14.4851 14.7666 14.3176 14.681 14.1982C14.5953 14.0767 14.4281 14.0494 14.309 14.1353C13.9432 14.3951 13.5859 14.6695 13.2431 14.9502C13.1282 15.0444 13.1115 15.212 13.2055 15.3272C13.2578 15.3943 13.3372 15.4278 13.4166 15.4257Z" fill="#E11D48"/>
<path d="M15.3474 14.0278C15.3934 14.0257 15.4415 14.0131 15.4833 13.9859C15.8511 13.7512 16.2293 13.5271 16.6076 13.3197C16.7372 13.2485 16.7853 13.0851 16.7142 12.9552C16.6432 12.8253 16.4802 12.7771 16.3506 12.8484C15.9619 13.062 15.5732 13.2925 15.1949 13.5333C15.0695 13.613 15.034 13.7784 15.1134 13.9041C15.1677 13.9858 15.2555 14.0299 15.3474 14.0278Z" fill="#E11D48"/>
<path d="M6.1481 27.4475C6.169 27.4517 6.18781 27.4538 6.20662 27.4517C6.32783 27.4496 6.4365 27.3616 6.46158 27.2359C6.54727 26.8107 6.64549 26.3812 6.75625 25.9623C6.79386 25.8198 6.70818 25.6732 6.56607 25.6334C6.42396 25.5957 6.27558 25.6816 6.23797 25.824C6.12303 26.2535 6.02271 26.6934 5.93494 27.1312C5.90777 27.2778 6.00181 27.4182 6.1481 27.4475Z" fill="#E11D48"/>
<path d="M6.71416 25.1308C6.74341 25.1413 6.77268 25.1434 6.80193 25.1434C6.91269 25.1413 7.01509 25.068 7.05062 24.9569C7.18228 24.5443 7.33066 24.1295 7.48948 23.7252C7.54382 23.5869 7.47694 23.4319 7.33902 23.3774C7.20109 23.323 7.04643 23.39 6.9921 23.5283C6.82909 23.943 6.67654 24.3704 6.54069 24.7935C6.49681 24.9339 6.57414 25.0847 6.71416 25.1308Z" fill="#E11D48"/>
<path d="M10.1039 18.8402C10.1812 18.8382 10.2585 18.8025 10.3087 18.7355C10.572 18.392 10.85 18.0526 11.1363 17.7258C11.2345 17.6148 11.222 17.4451 11.1112 17.3467C11.0004 17.2503 10.8312 17.2608 10.7329 17.3718C10.4383 17.7091 10.152 18.0568 9.88241 18.4087C9.79254 18.526 9.81344 18.6936 9.93047 18.7837C9.98481 18.8235 10.0454 18.8423 10.1039 18.8402Z" fill="#E11D48"/>
<path d="M8.62033 20.771C8.6663 20.7982 8.71437 20.8108 8.76453 20.8087C8.8523 20.8066 8.93798 20.7605 8.98814 20.6788C9.20966 20.308 9.44791 19.9393 9.6945 19.579C9.77809 19.4575 9.74884 19.2899 9.62553 19.2061C9.50432 19.1223 9.33714 19.1517 9.25354 19.2753C9.00067 19.6439 8.75616 20.0231 8.52835 20.4044C8.45312 20.5301 8.49493 20.6955 8.62033 20.771Z" fill="#E11D48"/>
<path d="M7.54391 22.8952C7.58152 22.912 7.62123 22.9204 7.66094 22.9183C7.75916 22.9162 7.85529 22.8575 7.89918 22.7612C8.07891 22.3653 8.27326 21.9714 8.47596 21.5881C8.54493 21.4582 8.49686 21.2948 8.3652 21.2257C8.23563 21.1566 8.07262 21.2047 8.00366 21.3367C7.79468 21.7284 7.59614 22.1327 7.41222 22.5391C7.34952 22.6753 7.40807 22.8345 7.54391 22.8952Z" fill="#E11D48"/>
<path d="M43.2803 20.7919C43.3326 20.8777 43.4245 20.9259 43.5165 20.9238C43.5604 20.9217 43.6063 20.9113 43.646 20.8861C43.7735 20.8107 43.8153 20.6452 43.7401 20.5195C43.5144 20.1383 43.272 19.757 43.0191 19.3862C42.9355 19.2626 42.7683 19.2333 42.6471 19.315C42.5259 19.3988 42.4945 19.5643 42.576 19.6879C42.8247 20.0503 43.0609 20.4211 43.2803 20.7919Z" fill="#E11D48"/>
<path d="M41.9658 18.8379C42.0202 18.9091 42.1038 18.9468 42.1853 18.9447C42.2396 18.9427 42.2939 18.9259 42.3399 18.8903C42.4569 18.8002 42.4799 18.6326 42.3901 18.5153C42.1226 18.1613 41.8384 17.8115 41.5437 17.4721C41.4455 17.3611 41.2783 17.3485 41.1654 17.4449C41.0547 17.5412 41.0421 17.7109 41.1383 17.824C41.4288 18.1529 41.7046 18.4944 41.9658 18.8379Z" fill="#E11D48"/>
<path d="M44.766 23.8549C44.9228 24.2634 45.0691 24.6782 45.1986 25.0908C45.2362 25.2082 45.3449 25.2815 45.4599 25.2773C45.4849 25.2773 45.51 25.2731 45.533 25.2647C45.673 25.2207 45.7524 25.0699 45.7085 24.9274C45.5748 24.5043 45.4264 24.0791 45.2655 23.6601C45.2133 23.5218 45.0586 23.4527 44.9207 23.5072C44.7807 23.5616 44.7138 23.7166 44.766 23.8549Z" fill="#E11D48"/>
<path d="M43.7923 21.7075C43.995 22.0951 44.1873 22.491 44.3649 22.8869C44.4109 22.9895 44.5112 23.0482 44.6157 23.0461C44.6491 23.0461 44.6847 23.0377 44.7181 23.0231C44.8539 22.9623 44.9125 22.8031 44.8539 22.669C44.6742 22.2647 44.4757 21.8563 44.2688 21.4603C44.1998 21.3284 44.0389 21.2802 43.9072 21.3472C43.7735 21.4142 43.7233 21.5756 43.7923 21.7075Z" fill="#E11D48"/>
<path d="M45.4872 26.0985C45.5958 26.5154 45.692 26.9448 45.7756 27.3742C45.8006 27.5041 45.9156 27.5942 46.0452 27.5921C46.0598 27.5921 46.0744 27.59 46.0891 27.5879C46.2333 27.5607 46.3294 27.4182 46.3022 27.2737C46.2165 26.8317 46.1183 26.3918 46.0055 25.9644C45.9678 25.822 45.8236 25.7361 45.6794 25.7717C45.5352 25.8094 45.4496 25.954 45.4872 26.0985Z" fill="#E11D48"/>
<path d="M35.6983 13.3871C36.0766 13.5966 36.4527 13.8228 36.8185 14.0595C36.8645 14.0889 36.9188 14.1035 36.971 14.1014C37.0567 14.0993 37.1382 14.0553 37.1884 13.9778C37.2678 13.8542 37.2323 13.6867 37.109 13.6071C36.7349 13.3641 36.3482 13.1315 35.9596 12.9178C35.83 12.8466 35.667 12.8927 35.5959 13.0226C35.5228 13.1525 35.5687 13.3159 35.6983 13.3871Z" fill="#E11D48"/>
<path d="M38.7141 15.448C38.7664 15.4899 38.8291 15.5108 38.8897 15.5088C38.9649 15.5067 39.038 15.4731 39.0903 15.4103C39.1843 15.2951 39.1676 15.1275 39.0548 15.0332C38.712 14.7504 38.3568 14.4739 37.9931 14.2142C37.8719 14.1283 37.7068 14.1555 37.619 14.2749C37.5333 14.3943 37.5605 14.5619 37.6796 14.6499C38.0328 14.9034 38.3798 15.1715 38.7141 15.448Z" fill="#E11D48"/>
<path d="M40.4379 17.0489C40.4922 17.1055 40.5653 17.1327 40.6385 17.1306C40.7033 17.1285 40.766 17.1034 40.8161 17.0552C40.9227 16.9526 40.9269 16.7829 40.8245 16.6761C40.5152 16.3535 40.1933 16.0392 39.8652 15.7376C39.7565 15.6391 39.5873 15.6454 39.487 15.7544C39.3866 15.8633 39.395 16.033 39.5037 16.1335C39.8213 16.4268 40.1369 16.7347 40.4379 17.0489Z" fill="#E11D48"/>
<path d="M45.4893 37.5468C45.3493 37.5007 45.1988 37.5782 45.1529 37.7185C45.0191 38.1333 44.8707 38.5481 44.7119 38.9503C44.6576 39.0885 44.7244 39.2436 44.8624 39.298C44.8958 39.3127 44.9313 39.3169 44.9669 39.3169C45.0714 39.3148 45.1675 39.2499 45.2093 39.1472C45.3723 38.7366 45.5248 38.3093 45.6628 37.884C45.7088 37.7437 45.6314 37.5928 45.4893 37.5468Z" fill="#E11D48"/>
<path d="M44.6574 39.7797C44.5258 39.7189 44.3648 39.7776 44.3042 39.9117C44.1245 40.3055 43.9302 40.7014 43.7254 41.0827C43.6564 41.2126 43.7045 41.3759 43.834 41.4451C43.8758 41.4681 43.9218 41.4786 43.9678 41.4765C44.0597 41.4744 44.1496 41.4241 44.1977 41.3361C44.4067 40.9444 44.6073 40.5401 44.7912 40.1337C44.8518 39.9996 44.7912 39.8404 44.6574 39.7797Z" fill="#E11D48"/>
<path d="M8.44488 40.9655C8.24216 40.5801 8.04781 40.1842 7.87018 39.7882C7.80958 39.6521 7.65075 39.5934 7.517 39.6542C7.38116 39.7149 7.32264 39.8741 7.38325 40.0082C7.56506 40.4146 7.7636 40.821 7.9726 41.2169C8.02067 41.3091 8.1168 41.3614 8.21502 41.3593C8.25473 41.3593 8.29652 41.3489 8.33415 41.3279C8.46372 41.2588 8.51385 41.0954 8.44488 40.9655Z" fill="#E11D48"/>
<path d="M7.46636 38.8184C7.30962 38.4141 7.16333 37.9973 7.03167 37.5846C6.98779 37.4442 6.83732 37.3646 6.69521 37.4107C6.55519 37.4547 6.47577 37.6055 6.52175 37.748C6.6555 38.1732 6.80597 38.5984 6.96689 39.0132C7.00868 39.1222 7.11318 39.1871 7.22184 39.1829C7.2511 39.1829 7.28245 39.1766 7.31171 39.1641C7.45173 39.1117 7.51861 38.9567 7.46636 38.8184Z" fill="#E11D48"/>
</svg>
