<svg width="53" height="52" viewBox="0 0 53 52" fill="none" xmlns="http://www.w3.org/2000/svg">
<path d="M45.7421 9.75105C42.8056 8.73661 38.2673 9.3773 34.957 11.246C31.3264 7.02808 21.449 6.86791 17.7116 11.246C14.1878 9.59087 10.1834 8.62982 6.92652 9.75105C4.09677 10.7655 2.38825 13.1681 2.33486 16.158C2.28146 18.9344 3.66964 22.1379 6.71296 25.1812C7.94096 26.6227 9.96983 27.2101 12.1055 26.3024C13.2801 25.7685 14.2412 24.9676 14.7217 23.7396C15.2556 22.6184 15.2556 21.4972 14.7751 20.3759C13.814 18.5606 14.5615 16.4784 16.27 15.4105C16.27 15.5173 16.3234 15.6775 16.3234 15.7843C18.2989 22.0311 20.221 28.2245 21.8761 34.5781C18.9396 37.9417 20.5947 40.2376 21.9295 43.7614C22.0897 44.1885 22.7838 43.9216 22.6236 43.4945C21.3956 40.2376 19.7405 37.9951 22.5168 34.8984C22.6236 34.7916 22.6236 34.6849 22.6236 34.5781C20.9685 28.1711 19.0464 21.8709 17.0175 15.6241C17.0175 15.5707 17.0175 15.4639 17.0175 15.3571C21.5558 16.0512 22.8906 16.2648 23.2109 22.1913C23.3177 25.0744 23.7448 27.1033 25.9873 29.1321V40.0774C24.9728 39.9706 23.8516 39.5435 23.3177 38.5824C23.1575 38.2087 22.5702 38.4757 22.7304 38.8494C23.1575 40.3977 23.5313 41.9995 23.9584 43.5478C24.0652 43.975 24.7593 43.7614 24.6525 43.3343C24.3321 42.2131 24.0652 41.0918 23.7448 39.9706C25.1864 40.985 27.4822 40.985 28.9772 39.9706C28.7102 41.0918 28.4433 42.2131 28.1229 43.3343C28.0161 43.7614 28.6568 43.975 28.817 43.5478C29.2442 41.9461 29.6179 40.3444 30.045 38.796C30.1518 38.3689 29.6179 38.2087 29.4577 38.5824C28.9238 39.5435 27.8026 40.024 26.7348 40.0774V29.2389C28.9772 27.1567 29.4043 25.1278 29.5111 22.1913C29.8315 16.2648 31.1662 16.0512 35.7045 15.3571C35.7045 15.4105 35.7045 15.5173 35.7045 15.6241C33.6756 21.8709 31.7002 28.1711 30.045 34.5781C29.9916 34.6849 30.045 34.7916 30.1518 34.8984C32.9282 37.9951 31.3264 40.2376 30.045 43.4945C29.8849 43.9216 30.5789 44.1885 30.7391 43.7614C32.0739 40.2376 33.6756 37.9417 30.7925 34.5781C32.3942 28.2779 34.3697 22.0311 36.3452 15.7843C36.3986 15.7309 36.3986 15.5173 36.3986 15.3571C37.8402 16.2648 38.8012 18.1869 38.1605 19.842C36.5588 22.1379 38.1605 25.021 40.4564 26.1422C41.9513 26.8363 43.8734 26.9965 45.2616 25.8753C45.9557 25.3947 47.1303 23.8998 47.6642 23.2591C50.9745 19.0412 52.0957 11.9935 45.7421 9.75105ZM11.9453 25.6617C9.96983 26.6761 7.72739 26.0888 6.97991 24.3803C6.23243 22.6718 7.19348 20.4827 9.16896 19.4683C11.1444 18.5072 13.3869 19.0412 14.1878 20.8031C14.9352 22.5116 13.9208 24.6473 11.9453 25.6617ZM13.6005 19.0945C13.1733 18.8276 12.7996 18.614 12.3191 18.5072C11.625 18.2937 10.8775 18.2937 10.0766 18.4539C8.90201 18.2937 7.24687 17.4928 6.81974 16.3182C6.07226 14.2359 8.63505 12.9545 10.397 13.0079C12.2123 13.0079 14.1878 14.0224 15.7361 14.9834C14.4547 15.8377 13.4937 17.4394 13.6005 19.0945ZM16.27 14.4495C14.6149 13.3817 12.4792 12.3138 10.4504 12.2604C8.15452 12.2604 5.32478 13.9156 6.17904 16.4784C6.60617 17.653 7.78079 18.4539 8.9554 18.881C7.83418 19.4149 6.97991 20.3226 6.49939 21.337C6.17904 22.0311 6.01887 22.832 6.12565 23.526C3.9366 20.9633 2.92216 18.3471 2.97555 16.1046C3.08234 13.4351 4.5773 11.246 7.14009 10.3917C9.5961 9.53748 13.1199 9.75104 17.2845 11.7265C16.7505 12.5274 16.4302 13.4351 16.27 14.4495ZM28.7636 22.1913C28.6568 24.8074 28.2831 26.7295 26.3076 28.5982C24.3321 26.7295 24.0118 24.8608 23.8516 22.1913C23.5313 15.8911 22.1431 15.4639 17.5514 14.7698C20.0074 13.7554 23.905 13.4351 26.0941 15.2504C26.2008 15.3571 26.4144 15.3571 26.5212 15.2504C28.6568 13.4351 32.5544 13.7554 35.0638 14.7698C30.5255 15.4639 29.084 15.8911 28.7636 22.1913ZM26.3076 14.5563C23.7982 12.6342 19.7939 13.0613 17.0709 14.2359C18.2989 6.81452 34.3697 6.81452 35.5977 14.2359C32.8748 13.0613 28.817 12.6342 26.3076 14.5563ZM36.8791 14.93C38.3741 13.969 40.3496 12.9545 42.2183 12.9545C45.3684 12.9011 47.5574 15.9978 44.4073 17.8132C43.7666 18.1869 43.0725 18.4539 42.2717 18.4005C41.1505 18.1869 39.9758 18.4005 39.0148 19.0412C39.175 17.4394 38.2139 15.8377 36.8791 14.93ZM45.6353 24.4337C44.7277 26.249 42.3785 26.3558 40.7233 25.6083C39.0682 24.754 37.6266 22.6718 38.4809 20.7497C39.3885 18.8276 41.6844 18.6674 43.4463 19.5217C45.2082 20.4293 46.543 22.5116 45.6353 24.4337ZM46.5964 23.4727C46.7566 21.5506 45.4218 19.6819 43.7132 18.881C44.1404 18.7742 44.4607 18.5606 44.7277 18.4005C48.4651 16.2648 46.0625 12.2071 42.1649 12.2604C40.136 12.3138 38.0004 13.3817 36.3452 14.4495C36.2384 13.4351 35.8647 12.5274 35.3308 11.7799C39.5487 9.80444 43.0192 9.53748 45.4752 10.4451C51.722 12.5808 49.96 19.5217 46.5964 23.4727Z" fill="#E11D48"/>
</svg>
