<svg width="52" height="52" viewBox="0 0 52 52" fill="none" xmlns="http://www.w3.org/2000/svg">
<path d="M22.9185 28.0637C22.9016 28.0637 22.8827 28.0616 22.8637 28.0616C21.5327 27.8696 20.6531 27.2242 20.6172 27.1968C20.4527 27.0765 20.4211 26.8466 20.5413 26.6842C20.6615 26.5218 20.8914 26.488 21.0517 26.6082C21.0665 26.6188 21.8343 27.1715 22.9691 27.3339C23.1695 27.3634 23.3087 27.549 23.2792 27.7494C23.2539 27.9329 23.0957 28.0637 22.9185 28.0637Z" fill="#695fa3"/>
<path d="M20.5647 32.7743C20.4023 32.7743 20.2525 32.6646 20.2103 32.4979L19.6619 30.3233C19.2696 29.045 19.5522 27.8807 20.5499 26.6699C20.6786 26.5138 20.9106 26.4906 21.0667 26.6172C21.2228 26.7458 21.2481 26.9779 21.1195 27.1361C20.2799 28.1591 20.0479 29.0767 20.3664 30.1186C20.3686 30.125 20.3707 30.1313 20.3728 30.1376L20.9233 32.3166C20.9718 32.5127 20.8537 32.7131 20.6575 32.7638C20.6259 32.7701 20.5963 32.7743 20.5647 32.7743Z" fill="#695fa3"/>
<path d="M4.48066 15.8761C4.43214 15.8761 4.37941 15.8635 4.3309 15.8424C4.12207 15.7496 3.91325 15.6188 3.70656 15.4543C3.13915 15.0008 2.69198 14.3617 2.41567 13.6065C1.77865 11.8705 1.8778 10.0481 2.68567 8.60527C3.38808 7.35023 4.64312 6.34829 6.22091 5.78508C7.43798 5.35056 8.84702 5.15859 10.6442 5.18181C13.2449 5.21556 15.9681 5.76818 18.9632 6.86927C21.0177 5.79772 23.4455 5.23246 25.9998 5.23246C26.2023 5.23246 26.3668 5.39699 26.3668 5.59948C26.3668 5.79987 26.2023 5.96651 25.9998 5.96651C23.5065 5.96651 21.1399 6.52971 19.1635 7.59489C19.0707 7.64341 18.9589 7.65184 18.8619 7.61388C15.8857 6.50436 13.192 5.94963 10.6357 5.91589C8.92506 5.89268 7.60252 6.07197 6.46768 6.47699C5.05654 6.98111 3.94071 7.86281 3.3248 8.9639C2.63297 10.2021 2.55067 11.8431 3.10332 13.3555C3.33535 13.9841 3.70027 14.5114 4.16428 14.8805C4.32037 15.0071 4.47857 15.1062 4.62834 15.1737C4.81396 15.256 4.89622 15.4712 4.81396 15.6568C4.75489 15.7939 4.61987 15.8761 4.48066 15.8761Z" fill="#695fa3"/>
<path d="M8.96743 20.7552C8.79025 20.7552 8.61095 20.7468 8.42955 20.7299C6.76953 20.5633 5.23181 19.555 4.4134 18.0996C3.67092 16.777 3.77427 15.4418 4.68761 14.6234C5.62417 13.7839 7.6428 13.4633 10.2414 15.3195C10.5282 15.5262 10.8151 15.7435 11.0893 15.9565C11.4331 16.2181 11.7875 16.4902 12.144 16.7349C12.3106 16.8488 12.3528 17.0766 12.2389 17.2432C12.125 17.4098 11.8972 17.4541 11.7305 17.3381C11.3572 17.085 10.9965 16.8066 10.6442 16.5387C10.3721 16.332 10.0916 16.1168 9.81315 15.9185C7.5667 14.3112 5.91088 14.5116 5.17477 15.1697C4.53143 15.7477 4.48505 16.7327 5.04821 17.741C5.75062 18.9918 7.07105 19.8546 8.49905 19.998C10.2561 20.1731 12.0343 19.2872 13.4623 18.5721C13.553 18.5278 13.6542 18.5215 13.7513 18.5573C15.3248 19.1205 16.6284 18.9096 18.1344 18.6691L18.2779 18.6438C18.4783 18.6122 18.666 18.7493 18.6976 18.9497C18.7314 19.1479 18.5943 19.3378 18.3939 19.3694L18.2505 19.3926C16.755 19.6352 15.3396 19.863 13.6521 19.2998C12.3064 19.9706 10.6781 20.7552 8.96743 20.7552Z" fill="#695fa3"/>
<path d="M20.8071 27.2688C20.7945 27.2688 20.7818 27.2688 20.7691 27.2666C20.5667 27.2477 20.4211 27.0663 20.4422 26.8638C20.5329 25.9715 20.1279 25.1637 19.6976 24.3073C19.6154 24.1427 19.5331 23.9782 19.4508 23.8094C18.4742 21.7782 17.7592 18.7661 17.5377 15.7518C17.5229 15.5493 17.6748 15.3721 17.8773 15.3594C18.0776 15.3425 18.2548 15.4965 18.2696 15.6969C18.4826 18.6247 19.1724 21.5374 20.1132 23.4933C20.1933 23.6557 20.2735 23.8181 20.3536 23.9784C20.8134 24.8896 21.2881 25.8346 21.1741 26.9399C21.1509 27.1297 20.9927 27.2688 20.8071 27.2688Z" fill="#695fa3"/>
<path d="M29.0841 28.0636C28.9048 28.0636 28.7487 27.9329 28.7213 27.7494C28.6917 27.549 28.8309 27.3612 29.0334 27.3338C30.1725 27.1714 30.9424 26.6146 30.9487 26.6082C31.1132 26.4901 31.3411 26.5217 31.4613 26.6862C31.5815 26.8486 31.5478 27.0765 31.3854 27.1967C31.3495 27.2241 30.4699 27.8696 29.1389 28.0615C29.122 28.0615 29.103 28.0636 29.0841 28.0636Z" fill="#695fa3"/>
<path d="M31.4972 32.5361C31.4677 32.5361 31.4382 32.5319 31.4086 32.5256C31.2125 32.475 31.0922 32.2746 31.1429 32.0784L31.6322 30.1378C31.6343 30.1315 31.6364 30.1252 31.6364 30.1188C31.9592 29.0789 31.725 28.1593 30.8855 27.1363C30.7569 26.9802 30.7801 26.7481 30.9362 26.6174C31.0923 26.4908 31.3264 26.5119 31.4529 26.6701C32.4507 27.883 32.7333 29.0452 32.3431 30.3234L31.8558 32.2577C31.8094 32.4264 31.6618 32.5361 31.4972 32.5361Z" fill="#695fa3"/>
<path d="M47.5215 15.8763C47.3822 15.8763 47.2473 15.794 47.1861 15.659C47.1038 15.4734 47.1861 15.2582 47.3717 15.176C47.5215 15.1064 47.6797 15.0093 47.8358 14.8828C48.2977 14.5158 48.6647 13.9863 48.8967 13.3599C49.4493 11.8475 49.3671 10.2064 48.6752 8.96824C48.0593 7.86715 46.9435 6.98546 45.5324 6.48133C44.3975 6.07634 43.0771 5.89706 41.3643 5.92022C38.8057 5.95397 36.1142 6.5087 33.1381 7.61822C33.0411 7.65407 32.9293 7.64775 32.8365 7.59712C30.8601 6.53189 28.4955 5.96874 26.0003 5.96874C25.7978 5.96874 25.6333 5.80421 25.6333 5.60171C25.6333 5.40133 25.7978 5.2368 26.0003 5.2368C28.5547 5.2368 30.9846 5.80211 33.0368 6.87361C36.03 5.77041 38.7531 5.2199 41.3559 5.18615C43.1572 5.16505 44.5621 5.35489 45.7791 5.78942C47.359 6.35263 48.6141 7.35452 49.3144 8.60751C50.1223 10.0524 50.2214 11.8749 49.5844 13.6108C49.308 14.3638 48.8609 15.0051 48.2935 15.4565C48.0868 15.6231 47.8779 15.7518 47.6691 15.8467C47.6227 15.8636 47.57 15.8763 47.5215 15.8763Z" fill="#695fa3"/>
<path d="M43.0352 20.7552C41.3224 20.7552 39.6962 19.9706 38.3462 19.2977C36.6608 19.8609 35.2434 19.6331 33.7479 19.3905L33.6044 19.3673C33.4041 19.3336 33.2691 19.1479 33.3007 18.9476C33.3345 18.7472 33.5222 18.6101 33.7205 18.6438L33.8639 18.667C35.37 18.9096 36.6714 19.1205 38.2471 18.5552C38.3399 18.5215 38.4454 18.5278 38.5339 18.5721C39.9619 19.285 41.7443 20.1731 43.4993 19.9959C44.9252 19.8525 46.2456 18.9876 46.948 17.7389C47.5133 16.7306 47.4648 15.7456 46.8215 15.1676C46.0853 14.5095 44.4295 14.3092 42.1831 15.9164C41.9046 16.1168 41.622 16.3299 41.3499 16.5387C40.9997 16.8066 40.639 17.085 40.2678 17.3381C40.1012 17.4541 39.8712 17.4098 39.7573 17.2432C39.6413 17.0766 39.6856 16.8466 39.8523 16.7349C40.2087 16.4902 40.5631 16.2181 40.9048 15.9565C41.1811 15.7456 41.468 15.5262 41.757 15.3195C44.3556 13.4633 46.3722 13.7839 47.3086 14.6234C48.2219 15.4418 48.3274 16.7749 47.5828 18.0996C46.7686 19.555 45.2288 20.5633 43.5687 20.7299C43.3936 20.7468 43.2145 20.7552 43.0352 20.7552Z" fill="#695fa3"/>
<path d="M31.1954 27.2688C31.0098 27.2688 30.8495 27.1275 30.8305 26.9398C30.7166 25.8366 31.1891 24.8916 31.651 23.9783C31.7312 23.818 31.8113 23.6556 31.8894 23.4931C32.8301 21.5378 33.5178 18.6248 33.735 15.6968C33.7498 15.4964 33.9228 15.3424 34.1274 15.3593C34.3299 15.372 34.4818 15.5491 34.467 15.7516C34.2455 18.7637 33.5304 21.7757 32.5517 23.8093C32.4716 23.9781 32.3893 24.1426 32.307 24.3071C31.8746 25.1635 31.4696 25.9714 31.5624 26.8637C31.5814 27.0661 31.438 27.2454 31.2355 27.2665C31.2207 27.2686 31.2081 27.2688 31.1954 27.2688Z" fill="#695fa3"/>
<path d="M26.0023 46.8199C21.8617 46.8199 18.4932 43.4513 18.4932 39.3108C18.4932 35.1702 21.8618 31.8018 26.0023 31.8018C30.1429 31.8018 33.5114 35.1704 33.5114 39.3108C33.5114 43.4515 30.1428 46.8199 26.0023 46.8199ZM26.0023 32.5356C22.2667 32.5356 19.2271 35.5751 19.2271 39.3108C19.2271 43.0486 22.2666 46.086 26.0023 46.086C29.74 46.086 32.7775 43.0465 32.7775 39.3108C32.7775 35.5731 29.738 32.5356 26.0023 32.5356Z" fill="#695fa3"/>
<path d="M28.7087 42.384C28.6159 42.384 28.521 42.3481 28.4493 42.2764L23.0348 36.8619C22.8914 36.7185 22.8914 36.4844 23.0348 36.343C23.1783 36.1996 23.4103 36.1996 23.5537 36.343L28.9703 41.7575C29.1116 41.9009 29.1116 42.133 28.9703 42.2764C28.8965 42.3502 28.8015 42.384 28.7087 42.384Z" fill="#695fa3"/>
<path d="M23.2938 42.384C23.1989 42.384 23.1061 42.3481 23.0344 42.2764C22.8909 42.133 22.8909 41.9009 23.0344 41.7575L28.4488 36.343C28.5922 36.1996 28.8264 36.1996 28.9698 36.343C29.1111 36.4844 29.1111 36.7185 28.9698 36.8619L23.5532 42.2764C23.4815 42.3502 23.3866 42.384 23.2938 42.384Z" fill="#695fa3"/>
<path d="M22.9185 28.0637C22.9016 28.0637 22.8827 28.0616 22.8637 28.0616C21.5327 27.8696 20.6531 27.2242 20.6172 27.1968C20.4527 27.0765 20.4211 26.8466 20.5413 26.6842C20.6615 26.5218 20.8914 26.488 21.0517 26.6082C21.0665 26.6188 21.8343 27.1715 22.9691 27.3339C23.1695 27.3634 23.3087 27.549 23.2792 27.7494C23.2539 27.9329 23.0957 28.0637 22.9185 28.0637Z" fill="#695fa3"/>
<path d="M20.5647 32.7743C20.4023 32.7743 20.2525 32.6646 20.2103 32.4979L19.6619 30.3233C19.2696 29.045 19.5522 27.8807 20.5499 26.6699C20.6786 26.5138 20.9106 26.4906 21.0667 26.6172C21.2228 26.7458 21.2481 26.9779 21.1195 27.1361C20.2799 28.1591 20.0479 29.0767 20.3664 30.1186C20.3686 30.125 20.3707 30.1313 20.3728 30.1376L20.9233 32.3166C20.9718 32.5127 20.8537 32.7131 20.6575 32.7638C20.6259 32.7701 20.5963 32.7743 20.5647 32.7743Z" fill="#695fa3"/>
<path d="M4.48066 15.8761C4.43214 15.8761 4.37941 15.8635 4.3309 15.8424C4.12207 15.7496 3.91325 15.6188 3.70656 15.4543C3.13915 15.0008 2.69198 14.3617 2.41567 13.6065C1.77865 11.8705 1.8778 10.0481 2.68567 8.60527C3.38808 7.35023 4.64312 6.34829 6.22091 5.78508C7.43798 5.35056 8.84702 5.15859 10.6442 5.18181C13.2449 5.21556 15.9681 5.76818 18.9632 6.86927C21.0177 5.79772 23.4455 5.23246 25.9998 5.23246C26.2023 5.23246 26.3668 5.39699 26.3668 5.59948C26.3668 5.79987 26.2023 5.96651 25.9998 5.96651C23.5065 5.96651 21.1399 6.52971 19.1635 7.59489C19.0707 7.64341 18.9589 7.65184 18.8619 7.61388C15.8857 6.50436 13.192 5.94963 10.6357 5.91589C8.92506 5.89268 7.60252 6.07197 6.46768 6.47699C5.05654 6.98111 3.94071 7.86281 3.3248 8.9639C2.63297 10.2021 2.55067 11.8431 3.10332 13.3555C3.33535 13.9841 3.70027 14.5114 4.16428 14.8805C4.32037 15.0071 4.47857 15.1062 4.62834 15.1737C4.81396 15.256 4.89622 15.4712 4.81396 15.6568C4.75489 15.7939 4.61987 15.8761 4.48066 15.8761Z" fill="#695fa3"/>
<path d="M8.96743 20.7552C8.79025 20.7552 8.61095 20.7468 8.42955 20.7299C6.76953 20.5633 5.23181 19.555 4.4134 18.0996C3.67092 16.777 3.77427 15.4418 4.68761 14.6234C5.62417 13.7839 7.6428 13.4633 10.2414 15.3195C10.5282 15.5262 10.8151 15.7435 11.0893 15.9565C11.4331 16.2181 11.7875 16.4902 12.144 16.7349C12.3106 16.8488 12.3528 17.0766 12.2389 17.2432C12.125 17.4098 11.8972 17.4541 11.7305 17.3381C11.3572 17.085 10.9965 16.8066 10.6442 16.5387C10.3721 16.332 10.0916 16.1168 9.81315 15.9185C7.5667 14.3112 5.91088 14.5116 5.17477 15.1697C4.53143 15.7477 4.48505 16.7327 5.04821 17.741C5.75062 18.9918 7.07105 19.8546 8.49905 19.998C10.2561 20.1731 12.0343 19.2872 13.4623 18.5721C13.553 18.5278 13.6542 18.5215 13.7513 18.5573C15.3248 19.1205 16.6284 18.9096 18.1344 18.6691L18.2779 18.6438C18.4783 18.6122 18.666 18.7493 18.6976 18.9497C18.7314 19.1479 18.5943 19.3378 18.3939 19.3694L18.2505 19.3926C16.755 19.6352 15.3396 19.863 13.6521 19.2998C12.3064 19.9706 10.6781 20.7552 8.96743 20.7552Z" fill="#695fa3"/>
<path d="M20.8071 27.2688C20.7945 27.2688 20.7818 27.2688 20.7691 27.2666C20.5667 27.2477 20.4211 27.0663 20.4422 26.8638C20.5329 25.9715 20.1279 25.1637 19.6976 24.3073C19.6154 24.1427 19.5331 23.9782 19.4508 23.8094C18.4742 21.7782 17.7592 18.7661 17.5377 15.7518C17.5229 15.5493 17.6748 15.3721 17.8773 15.3594C18.0776 15.3425 18.2548 15.4965 18.2696 15.6969C18.4826 18.6247 19.1724 21.5374 20.1132 23.4933C20.1933 23.6557 20.2735 23.8181 20.3536 23.9784C20.8134 24.8896 21.2881 25.8346 21.1741 26.9399C21.1509 27.1297 20.9927 27.2688 20.8071 27.2688Z" fill="#695fa3"/>
<path d="M29.0841 28.0636C28.9048 28.0636 28.7487 27.9329 28.7213 27.7494C28.6917 27.549 28.8309 27.3612 29.0334 27.3338C30.1725 27.1714 30.9424 26.6146 30.9487 26.6082C31.1132 26.4901 31.3411 26.5217 31.4613 26.6862C31.5815 26.8486 31.5478 27.0765 31.3854 27.1967C31.3495 27.2241 30.4699 27.8696 29.1389 28.0615C29.122 28.0615 29.103 28.0636 29.0841 28.0636Z" fill="#695fa3"/>
<path d="M31.4972 32.5361C31.4677 32.5361 31.4382 32.5319 31.4086 32.5256C31.2125 32.475 31.0922 32.2746 31.1429 32.0784L31.6322 30.1378C31.6343 30.1315 31.6364 30.1252 31.6364 30.1188C31.9592 29.0789 31.725 28.1593 30.8855 27.1363C30.7569 26.9802 30.7801 26.7481 30.9362 26.6174C31.0923 26.4908 31.3264 26.5119 31.4529 26.6701C32.4507 27.883 32.7333 29.0452 32.3431 30.3234L31.8558 32.2577C31.8094 32.4264 31.6618 32.5361 31.4972 32.5361Z" fill="#695fa3"/>
<path d="M47.5215 15.8763C47.3822 15.8763 47.2473 15.794 47.1861 15.659C47.1038 15.4734 47.1861 15.2582 47.3717 15.176C47.5215 15.1064 47.6797 15.0093 47.8358 14.8828C48.2977 14.5158 48.6647 13.9863 48.8967 13.3599C49.4493 11.8475 49.3671 10.2064 48.6752 8.96824C48.0593 7.86715 46.9435 6.98546 45.5324 6.48133C44.3975 6.07634 43.0771 5.89706 41.3643 5.92022C38.8057 5.95397 36.1142 6.5087 33.1381 7.61822C33.0411 7.65407 32.9293 7.64775 32.8365 7.59712C30.8601 6.53189 28.4955 5.96874 26.0003 5.96874C25.7978 5.96874 25.6333 5.80421 25.6333 5.60171C25.6333 5.40133 25.7978 5.2368 26.0003 5.2368C28.5547 5.2368 30.9846 5.80211 33.0368 6.87361C36.03 5.77041 38.7531 5.2199 41.3559 5.18615C43.1572 5.16505 44.5621 5.35489 45.7791 5.78942C47.359 6.35263 48.6141 7.35452 49.3144 8.60751C50.1223 10.0524 50.2214 11.8749 49.5844 13.6108C49.308 14.3638 48.8609 15.0051 48.2935 15.4565C48.0868 15.6231 47.8779 15.7518 47.6691 15.8467C47.6227 15.8636 47.57 15.8763 47.5215 15.8763Z" fill="#695fa3"/>
<path d="M43.0352 20.7552C41.3224 20.7552 39.6962 19.9706 38.3462 19.2977C36.6608 19.8609 35.2434 19.6331 33.7479 19.3905L33.6044 19.3673C33.4041 19.3336 33.2691 19.1479 33.3007 18.9476C33.3345 18.7472 33.5222 18.6101 33.7205 18.6438L33.8639 18.667C35.37 18.9096 36.6714 19.1205 38.2471 18.5552C38.3399 18.5215 38.4454 18.5278 38.5339 18.5721C39.9619 19.285 41.7443 20.1731 43.4993 19.9959C44.9252 19.8525 46.2456 18.9876 46.948 17.7389C47.5133 16.7306 47.4648 15.7456 46.8215 15.1676C46.0853 14.5095 44.4295 14.3092 42.1831 15.9164C41.9046 16.1168 41.622 16.3299 41.3499 16.5387C40.9997 16.8066 40.639 17.085 40.2678 17.3381C40.1012 17.4541 39.8712 17.4098 39.7573 17.2432C39.6413 17.0766 39.6856 16.8466 39.8523 16.7349C40.2087 16.4902 40.5631 16.2181 40.9048 15.9565C41.1811 15.7456 41.468 15.5262 41.757 15.3195C44.3556 13.4633 46.3722 13.7839 47.3086 14.6234C48.2219 15.4418 48.3274 16.7749 47.5828 18.0996C46.7686 19.555 45.2288 20.5633 43.5687 20.7299C43.3936 20.7468 43.2145 20.7552 43.0352 20.7552Z" fill="#695fa3"/>
<path d="M31.1954 27.2688C31.0098 27.2688 30.8495 27.1275 30.8305 26.9398C30.7166 25.8366 31.1891 24.8916 31.651 23.9783C31.7312 23.818 31.8113 23.6556 31.8894 23.4931C32.8301 21.5378 33.5178 18.6248 33.735 15.6968C33.7498 15.4964 33.9228 15.3424 34.1274 15.3593C34.3299 15.372 34.4818 15.5491 34.467 15.7516C34.2455 18.7637 33.5304 21.7757 32.5517 23.8093C32.4716 23.9781 32.3893 24.1426 32.307 24.3071C31.8746 25.1635 31.4696 25.9714 31.5624 26.8637C31.5814 27.0661 31.438 27.2454 31.2355 27.2665C31.2207 27.2686 31.2081 27.2688 31.1954 27.2688Z" fill="#695fa3"/>
<path d="M26.0023 46.8199C21.8617 46.8199 18.4932 43.4513 18.4932 39.3108C18.4932 35.1702 21.8618 31.8018 26.0023 31.8018C30.1429 31.8018 33.5114 35.1704 33.5114 39.3108C33.5114 43.4515 30.1428 46.8199 26.0023 46.8199ZM26.0023 32.5356C22.2667 32.5356 19.2271 35.5751 19.2271 39.3108C19.2271 43.0486 22.2666 46.086 26.0023 46.086C29.74 46.086 32.7775 43.0465 32.7775 39.3108C32.7775 35.5731 29.738 32.5356 26.0023 32.5356Z" fill="#695fa3"/>
<path d="M28.7087 42.384C28.6159 42.384 28.521 42.3481 28.4493 42.2764L23.0348 36.8619C22.8914 36.7185 22.8914 36.4844 23.0348 36.343C23.1783 36.1996 23.4103 36.1996 23.5537 36.343L28.9703 41.7575C29.1116 41.9009 29.1116 42.133 28.9703 42.2764C28.8965 42.3502 28.8015 42.384 28.7087 42.384Z" fill="#695fa3"/>
<path d="M23.2938 42.384C23.1989 42.384 23.1061 42.3481 23.0344 42.2764C22.8909 42.133 22.8909 41.9009 23.0344 41.7575L28.4488 36.343C28.5922 36.1996 28.8264 36.1996 28.9698 36.343C29.1111 36.4844 29.1111 36.7185 28.9698 36.8619L23.5532 42.2764C23.4815 42.3502 23.3866 42.384 23.2938 42.384Z" fill="#695fa3"/>
</svg>
