<svg width="53" height="52" viewBox="0 0 53 52" fill="none" xmlns="http://www.w3.org/2000/svg">
<path d="M35.5945 7.3407C35.864 7.52955 36.1729 7.62004 36.4798 7.62004C36.9676 7.62004 37.4496 7.38988 37.7505 6.96103C37.9886 6.62268 38.0791 6.21153 38.0063 5.80432C37.9335 5.39711 37.7073 5.04107 37.3689 4.80498C36.6686 4.31515 35.7008 4.4863 35.2129 5.18465C34.9749 5.523 34.8844 5.93415 34.9572 6.34136C35.03 6.74856 35.2562 7.10461 35.5945 7.3407ZM35.8581 5.63516C36.0057 5.42271 36.2437 5.31058 36.4837 5.31058C36.6352 5.31058 36.7867 5.35583 36.9204 5.44828C37.0876 5.56435 37.1978 5.73942 37.2332 5.94008C37.2686 6.14073 37.2234 6.34335 37.1073 6.50859C36.8653 6.85284 36.3912 6.93547 36.047 6.69547C35.8798 6.5794 35.7696 6.40433 35.7342 6.20368C35.6968 6.00499 35.7421 5.80237 35.8581 5.63516Z" fill="#E11D48"/>
<path d="M50.4688 49.2651L45.0159 46.1117L48.9305 29.4653L50.1816 29.7604C50.3902 29.8096 50.6046 29.6798 50.6538 29.4673C50.7029 29.2549 50.5731 29.0444 50.3607 28.9932L46.1313 27.9998C42.5412 24.6792 38.5713 21.7718 34.334 19.3621C33.6514 18.9745 32.9393 18.5929 32.2193 18.2192L39.9621 7.15968C40.3831 6.55773 40.5464 5.82595 40.4185 5.10203C40.2906 4.37811 39.8893 3.74665 39.2854 3.32373L38.105 2.49753C37.5031 2.07655 36.7713 1.91326 36.0474 2.04115C35.3235 2.16901 34.692 2.57033 34.2691 3.17424L26.6129 14.1119L25.7257 15.3787L24.1894 15.062C23.1763 14.8515 22.1199 15.1584 21.3645 15.8803L17.0918 20.0114C16.7967 20.2986 16.5606 20.6409 16.3895 21.0323L13.0807 28.7399C13.0768 28.7497 13.0709 28.7635 13.0669 28.7773C12.884 29.2159 12.9056 29.7078 13.1319 30.1287C13.3601 30.5556 13.7633 30.8507 14.2335 30.9333C14.3712 30.9609 14.5069 30.9707 14.6407 30.9786C14.6938 30.9825 14.7489 30.9825 14.802 30.9845L2.73732 48.2427C2.61339 48.4217 2.65667 48.6657 2.83372 48.7896C2.84158 48.7955 2.84945 48.7974 2.85732 48.8014C2.86519 48.8073 2.86716 48.8152 2.87503 48.8211C3.97861 49.5961 5.26515 49.9994 6.58512 49.9994C6.96282 49.9994 7.34248 49.9659 7.72215 49.899C9.43161 49.5981 10.9228 48.6479 11.9181 47.2256L16.181 41.1311C16.6413 41.5167 17.2295 41.7291 17.8334 41.7291C18.1284 41.7291 18.4275 41.678 18.7147 41.5737C18.815 41.5383 18.9114 41.4931 19.0117 41.4557C19.0156 41.4734 19.0176 41.495 19.0215 41.5128C19.0412 41.6032 19.0687 41.6918 19.0983 41.7842C19.3127 42.3881 19.7612 42.876 20.3572 43.1573C20.7054 43.3206 21.0851 43.4032 21.4667 43.4032C21.7657 43.4032 22.0667 43.3521 22.35 43.2478C22.468 43.2045 22.6037 43.1534 22.7473 43.0963C22.9637 43.6826 23.3985 44.1586 23.9808 44.436C24.3309 44.6032 24.7145 44.6858 25.1001 44.6858C25.3991 44.6858 25.6962 44.6347 25.9794 44.5324C27.1853 44.0937 28.3302 43.4918 29.3826 42.7442C29.9295 42.3528 30.4469 41.9239 30.921 41.4695C31.4029 41.0092 31.8534 40.5135 32.2646 39.9922C32.2764 39.9764 32.2862 39.9627 32.296 39.945C32.9865 38.7528 32.656 37.246 31.5407 36.5103C30.738 35.985 29.6954 35.9969 28.8692 36.4827C28.6902 35.9713 28.3558 35.5247 27.9093 35.2277C27.1361 34.7202 26.1388 34.7143 25.3264 35.149C25.1985 34.5077 24.8365 33.9215 24.2759 33.5516C23.4163 32.9851 22.2733 33.0343 21.4215 33.6323L22.6471 31.8815C23.4162 32.1431 24.2267 32.2867 25.0549 32.2867H31.0865C31.3146 33.0539 31.773 34.0532 32.6877 34.9306C34.2497 36.4276 36.148 36.6066 36.8916 36.6145H36.8956C37.1119 36.6145 37.287 36.4414 37.289 36.225C37.291 36.0086 37.1159 35.8296 36.8995 35.8277C36.2503 35.8218 34.592 35.6664 33.2347 34.3641C32.3297 33.4966 31.9403 32.4913 31.7711 31.8009C31.7259 31.6317 31.5685 31.5078 31.3875 31.5078H25.0553C23.4009 31.5078 21.8114 30.898 20.5819 29.7924C20.1039 29.3616 19.8875 28.7262 20.0056 28.0948C20.0567 27.8154 20.1708 27.5912 20.3026 27.4043C20.6764 27.782 21.1622 28.0495 21.6836 28.1361C21.8429 28.1636 22.0023 28.1754 22.1596 28.1754C22.4901 28.1754 22.8167 28.1262 23.1471 28.0711C23.576 28.0003 24.0068 27.9197 24.4376 27.8311C24.8586 27.7426 25.2953 27.6285 25.6159 27.298C25.8854 27.0246 26.0408 26.6253 26.0507 26.1748C26.0585 25.8502 25.9956 25.5433 25.9346 25.2699C26.3595 25.1164 26.7844 24.961 27.2034 24.7977C27.3667 24.7328 27.53 24.664 27.6932 24.599C27.6952 24.5971 27.6972 24.5971 27.7011 24.5971C28.3011 24.3531 28.903 24.1013 29.4912 23.8338C31.1358 23.0902 33.0912 23.3774 34.478 24.5636L40.1807 29.4462C40.346 29.5878 40.5938 29.5681 40.7355 29.4029C40.8771 29.2376 40.8575 28.9898 40.6922 28.8481L34.9895 23.9597C33.3745 22.5748 31.0886 22.2404 29.1669 23.1099C28.9899 23.1905 28.8069 23.2673 28.6279 23.3459L31.3741 19.4253C31.376 19.4234 31.376 19.4234 31.378 19.4214L31.7655 18.8686C32.5091 19.2522 33.2429 19.6476 33.9471 20.0469C38.092 22.4036 41.975 25.2441 45.4946 28.4842C44.3812 32.0408 43.3445 35.6705 42.416 39.2783C42.1563 40.2835 41.9045 41.3025 41.6586 42.3235L40.6101 41.8081C40.5196 41.7629 40.4134 41.755 40.319 41.7865C38.702 42.2979 37.0318 42.5497 35.3263 42.5241C34.1656 42.5104 33.003 42.3687 31.8719 42.1012C31.6594 42.0501 31.4489 42.1819 31.3978 42.3943C31.3486 42.6068 31.4784 42.8172 31.6909 42.8684C32.8791 43.1497 34.0987 43.2992 35.3164 43.313C35.3872 43.313 35.458 43.3149 35.5308 43.3149C37.1832 43.3149 38.8219 43.071 40.4035 42.5871L41.4717 43.1124C41.3635 43.5628 41.2533 44.0153 41.1491 44.4658C41.1097 44.6349 41.1865 44.8081 41.336 44.8946L50.0759 49.9482C50.1388 49.9836 50.2057 50.0013 50.2726 50.0013C50.4083 50.0013 50.5401 49.9305 50.6129 49.8046C50.7231 49.6138 50.6582 49.3738 50.4693 49.2656L50.4688 49.2651ZM34.9162 3.62664C35.2172 3.19583 35.6677 2.90862 36.185 2.81812C36.7043 2.72566 37.2257 2.84173 37.6545 3.14467L38.8349 3.97087C39.2657 4.27185 39.5529 4.7243 39.6434 5.24165C39.7339 5.75899 39.6198 6.28032 39.3168 6.71115L30.9581 18.6479L26.5556 15.5653L27.4172 14.3319L34.9162 3.62664ZM14.6958 30.1934C14.5915 30.1875 14.4892 30.1816 14.3771 30.16C14.141 30.1186 13.9404 29.9711 13.8263 29.7567C13.7122 29.5423 13.7023 29.2905 13.7987 29.0682C13.8027 29.0583 13.8086 29.0426 13.8125 29.0288L17.1115 21.3449C17.2393 21.0499 17.4164 20.7921 17.6387 20.5778L21.9094 16.4487C22.476 15.9057 23.2668 15.6755 24.0281 15.8349L25.232 16.0828L17.2902 27.4217C17.2883 27.4257 17.2883 27.4296 17.2843 27.4335L15.39 30.1423C15.1618 30.1896 14.9299 30.2111 14.6958 30.1934ZM31.112 37.1748C31.8576 37.6666 32.0878 38.719 31.6314 39.5334C31.2478 40.0173 30.8268 40.4776 30.3802 40.9065C29.9337 41.3354 29.4438 41.7406 28.9284 42.1084C27.935 42.8146 26.8531 43.3852 25.7141 43.7983C25.2616 43.9615 24.7541 43.936 24.3213 43.7294C23.9181 43.5386 23.6191 43.2101 23.4715 42.793C23.4715 42.7911 23.4696 42.7891 23.4696 42.7871C24.2722 42.4153 25.0394 41.9747 25.7495 41.4671C26.2905 41.0796 26.8078 40.6527 27.2918 40.1924C27.7737 39.7321 28.2262 39.2345 28.6354 38.7151C28.6472 38.6994 28.657 38.6856 28.6668 38.6679C28.9029 38.2607 29.015 37.8063 29.015 37.344C29.615 36.8365 30.4766 36.7577 31.112 37.1748ZM27.4787 35.8902C27.9056 36.1754 28.1869 36.6653 28.2282 37.2043C28.2577 37.5682 28.179 37.9282 27.998 38.2508C27.6164 38.7328 27.1954 39.195 26.7489 39.6219C26.2925 40.0567 25.8027 40.4619 25.2912 40.8258C24.5378 41.3648 23.7175 41.8291 22.8519 42.2068C22.5804 42.3268 22.2971 42.433 22.0808 42.5117C21.6323 42.675 21.1267 42.6514 20.692 42.4468C20.2867 42.256 19.9838 41.9275 19.8421 41.5301C19.8225 41.4731 19.8028 41.414 19.789 41.3413C19.7733 41.2783 19.7634 41.2153 19.7536 41.1504C20.5818 40.7747 21.3766 40.3223 22.1181 39.7931C22.663 39.4016 23.1804 38.9728 23.6545 38.5184C24.1306 38.0679 24.5712 37.582 25.002 37.0371C25.0139 37.0214 25.0237 37.0056 25.0335 36.9899C25.1968 36.7066 25.3011 36.3997 25.3483 36.0889C25.9522 35.5558 26.8354 35.4692 27.4787 35.8902ZM19.6689 36.3584C20.4282 35.8135 21.101 35.1702 21.6715 34.4463C22.2754 33.8778 23.1862 33.7794 23.8452 34.2141C24.5908 34.7059 24.821 35.7564 24.3685 36.5689C23.9672 37.0744 23.5561 37.5249 23.1135 37.9459C22.6649 38.3747 22.1771 38.7799 21.6617 39.1498C20.6722 39.856 19.5902 40.4225 18.4473 40.8357C17.8159 41.0658 17.1097 40.9203 16.6355 40.4855L19.3935 36.5414C19.484 36.4843 19.5765 36.4253 19.6689 36.3584ZM21.8977 31.5899L11.2749 46.7764C10.3995 48.0275 9.08935 48.8616 7.58641 49.1272C6.19956 49.3711 4.80485 49.0957 3.6147 48.362L17.7094 28.2005L19.3539 29.3532C19.4995 29.7388 19.7336 30.0909 20.0522 30.3782C20.6109 30.8759 21.2328 31.2791 21.8977 31.5899ZM25.2655 26.1506C25.2616 26.2961 25.2301 26.5656 25.0531 26.7447C24.8839 26.9178 24.5888 26.9925 24.278 27.0574C23.857 27.144 23.438 27.2207 23.017 27.2915C22.5961 27.3623 22.1869 27.4214 21.8131 27.3584C21.4571 27.2994 21.1266 27.1184 20.8709 26.8646C20.9928 26.7879 21.0931 26.7407 21.1325 26.723C22.4957 26.3866 23.8531 25.9814 25.1868 25.525C25.2341 25.7355 25.2714 25.9479 25.2655 26.1506ZM26.916 24.0595C24.9685 24.8227 22.9501 25.4641 20.9181 25.9637C20.9024 25.9676 20.8867 25.9715 20.8709 25.9794C20.8139 26.0011 19.4959 26.5223 19.2323 27.9486C19.2126 28.0568 19.1988 28.165 19.1929 28.2732L18.1621 27.5512L26.1074 16.2102L30.5079 19.2908L27.268 23.9156C27.15 23.9629 27.032 24.0123 26.916 24.0595ZM43.1786 39.4741C44.0953 35.9155 45.1144 32.3351 46.21 28.8255L48.1654 29.2858L44.3058 45.7001L41.9825 44.3565C42.3622 42.7218 42.7636 41.0813 43.1786 39.4741Z" fill="#E11D48"/>
<path d="M11.3927 39.939L7.8518 45.0535C7.72787 45.2325 7.77311 45.4764 7.95213 45.6003C8.02098 45.6476 8.09769 45.6712 8.17638 45.6712C8.30031 45.6712 8.42425 45.6121 8.50097 45.502L12.0419 40.3875C12.1658 40.2084 12.1205 39.9645 11.9415 39.8406C11.7605 39.7167 11.5146 39.76 11.3927 39.939Z" fill="#E11D48"/>
</svg>
