<svg xmlns="http://www.w3.org/2000/svg" xmlns:xlink="http://www.w3.org/1999/xlink" width="56" zoomAndPan="magnify" viewBox="0 0 42 42" height="56" preserveAspectRatio="xMidYMid meet" version="1.0"><defs><clipPath id="71f2a43086"><path d="M 2.390625 0 L 39.75 0 L 39.75 41.023438 L 2.390625 41.023438 Z M 2.390625 0 " clip-rule="nonzero"/></clipPath><clipPath id="f7c55693fa"><path d="M 2.390625 0 L 39.75 0 L 39.75 41 L 2.390625 41 Z M 2.390625 0 " clip-rule="nonzero"/></clipPath></defs><path fill="#e3988a" d="M 14.496094 18 L 14.53125 18.964844 L 14.371094 19.46875 C 14.25 19.867188 14.066406 20.222656 13.820312 20.527344 C 13.511719 20.910156 13.015625 21.339844 12.382812 21.238281 C 11.6875 21.132812 11.191406 20.023438 10.941406 18.023438 C 10.878906 17.519531 10.84375 17.023438 10.820312 16.578125 L 12.753906 16.304688 L 13.035156 17.46875 C 13.035156 17.46875 13.398438 19 13.398438 19 C 13.398438 19.03125 13.429688 19.058594 13.464844 19.058594 C 13.496094 19.058594 13.472656 19.058594 13.480469 19.058594 C 13.523438 19.050781 13.539062 19.007812 13.53125 18.972656 L 13.199219 17.570312 L 14.488281 18 Z M 26.117188 16.238281 L 25.816406 17.46875 C 25.816406 17.46875 25.453125 19 25.453125 19 C 25.453125 19.03125 25.421875 19.058594 25.386719 19.058594 C 25.355469 19.058594 25.378906 19.058594 25.371094 19.058594 C 25.332031 19.050781 25.3125 19.007812 25.320312 18.972656 L 25.652344 17.570312 L 24.828125 17.851562 L 24.601562 19.851562 C 24.710938 20.082031 25.398438 21.421875 26.472656 21.253906 C 27.164062 21.148438 27.660156 20.039062 27.910156 18.039062 C 27.976562 17.511719 28.015625 16.992188 28.042969 16.527344 L 26.125 16.246094 Z M 20.257812 11.066406 C 19.304688 11.066406 18.769531 10.644531 18.734375 10.613281 L 17.875 9.941406 L 17.875 11.117188 L 19.792969 13.785156 L 20.828125 11.125 L 20.828125 11.023438 C 20.621094 11.058594 20.429688 11.074219 20.257812 11.074219 Z M 21.519531 7.148438 C 21.710938 7.644531 21.785156 8.097656 21.761719 8.660156 C 21.605469 8.605469 21.324219 8.546875 20.859375 8.546875 C 20.808594 8.378906 20.761719 8.207031 20.726562 8.125 C 20.71875 8.089844 20.679688 8.066406 20.636719 8.082031 C 20.605469 8.089844 20.578125 8.132812 20.59375 8.175781 C 20.636719 8.296875 20.679688 8.429688 20.710938 8.546875 C 20.25 8.5625 19.621094 8.628906 18.777344 8.820312 L 18.089844 8.488281 C 18.238281 8.050781 18.464844 7.621094 18.828125 7.289062 C 19.257812 6.894531 20.296875 6.753906 20.960938 6.867188 C 21.257812 6.917969 21.445312 7.015625 21.519531 7.148438 Z M 20.023438 8.230469 C 20.023438 8.117188 19.925781 8.015625 19.800781 8.015625 C 19.6875 8.015625 19.585938 8.117188 19.585938 8.238281 C 19.585938 8.355469 19.6875 8.453125 19.808594 8.453125 C 19.925781 8.453125 20.023438 8.355469 20.023438 8.230469 Z M 21.539062 8.222656 C 21.539062 8.109375 21.4375 8.007812 21.3125 8.007812 C 21.199219 8.007812 21.097656 8.109375 21.097656 8.230469 C 21.097656 8.355469 21.199219 8.445312 21.324219 8.445312 C 21.445312 8.445312 21.539062 8.347656 21.539062 8.222656 Z M 18.695312 9.296875 L 17.984375 8.859375 C 17.933594 9.074219 17.902344 9.289062 17.875 9.488281 L 18.695312 10.03125 Z M 18.695312 9.296875 " fill-opacity="1" fill-rule="nonzero"/><g clip-path="url(#71f2a43086)"><path fill="#000000" d="M 29.117188 5.289062 C 28.339844 5.015625 27.554688 5.222656 27.363281 5.746094 C 27.289062 5.933594 27.304688 6.148438 27.414062 6.363281 C 27.578125 6.71875 27.957031 7.023438 28.429688 7.191406 C 28.472656 7.207031 28.519531 7.222656 28.5625 7.230469 C 28.742188 7.28125 28.933594 7.304688 29.105469 7.304688 C 29.621094 7.304688 30.039062 7.097656 30.171875 6.726562 C 30.246094 6.539062 30.230469 6.324219 30.125 6.109375 C 29.957031 5.753906 29.578125 5.445312 29.105469 5.28125 Z M 28.480469 7.066406 C 28.15625 6.949219 27.902344 6.746094 27.792969 6.511719 C 27.734375 6.378906 27.71875 6.257812 27.761719 6.148438 C 27.808594 6.007812 27.933594 5.910156 28.089844 5.851562 C 28.050781 5.894531 28.023438 5.933594 28.007812 5.984375 C 27.976562 6.082031 27.984375 6.191406 28.03125 6.304688 C 28.125 6.496094 28.339844 6.667969 28.601562 6.769531 C 28.742188 6.820312 28.882812 6.84375 29.007812 6.84375 C 29.28125 6.84375 29.496094 6.734375 29.570312 6.546875 C 29.585938 6.503906 29.585938 6.464844 29.585938 6.421875 C 29.585938 6.421875 29.585938 6.4375 29.59375 6.4375 C 29.652344 6.570312 29.667969 6.695312 29.628906 6.800781 C 29.503906 7.132812 28.992188 7.25 28.472656 7.066406 Z M 28.140625 6.035156 C 28.191406 5.902344 28.363281 5.828125 28.570312 5.828125 C 28.777344 5.828125 28.800781 5.84375 28.925781 5.894531 C 29.15625 5.976562 29.347656 6.125 29.421875 6.28125 C 29.445312 6.332031 29.46875 6.414062 29.4375 6.496094 C 29.363281 6.695312 29 6.761719 28.652344 6.636719 C 28.421875 6.554688 28.230469 6.40625 28.15625 6.25 C 28.132812 6.199219 28.105469 6.117188 28.140625 6.035156 Z M 30.039062 6.6875 C 29.964844 6.882812 29.792969 7.023438 29.5625 7.097656 C 29.652344 7.035156 29.71875 6.941406 29.761719 6.84375 C 29.816406 6.695312 29.800781 6.53125 29.726562 6.371094 C 29.601562 6.109375 29.3125 5.867188 28.957031 5.746094 C 28.371094 5.539062 27.777344 5.695312 27.628906 6.089844 C 27.585938 6.199219 27.585938 6.324219 27.621094 6.4375 C 27.585938 6.390625 27.5625 6.347656 27.535156 6.296875 C 27.453125 6.117188 27.4375 5.941406 27.496094 5.785156 C 27.609375 5.472656 27.976562 5.296875 28.421875 5.296875 C 28.867188 5.296875 28.851562 5.332031 29.066406 5.414062 C 29.496094 5.570312 29.851562 5.851562 30 6.164062 C 30.082031 6.347656 30.097656 6.519531 30.039062 6.679688 Z M 29.585938 4.214844 C 29.628906 4.230469 29.675781 4.25 29.71875 4.257812 C 29.898438 4.304688 30.089844 4.332031 30.265625 4.332031 C 30.777344 4.332031 31.199219 4.125 31.328125 3.753906 C 31.40625 3.5625 31.386719 3.347656 31.28125 3.132812 C 31.113281 2.777344 30.734375 2.472656 30.265625 2.304688 C 29.488281 2.035156 28.703125 2.242188 28.511719 2.761719 C 28.4375 2.949219 28.453125 3.167969 28.5625 3.382812 C 28.726562 3.734375 29.105469 4.042969 29.578125 4.207031 Z M 29.636719 4.089844 C 29.3125 3.976562 29.058594 3.769531 28.949219 3.539062 C 28.890625 3.40625 28.875 3.28125 28.917969 3.175781 C 28.964844 3.042969 29.082031 2.941406 29.230469 2.886719 C 29.191406 2.925781 29.164062 2.96875 29.148438 3.015625 C 29.105469 3.117188 29.117188 3.230469 29.171875 3.347656 C 29.265625 3.546875 29.480469 3.710938 29.742188 3.8125 C 29.882812 3.859375 30.015625 3.886719 30.140625 3.886719 C 30.414062 3.886719 30.636719 3.777344 30.710938 3.578125 C 30.726562 3.53125 30.734375 3.472656 30.734375 3.421875 C 30.742188 3.4375 30.75 3.457031 30.761719 3.472656 C 30.816406 3.605469 30.835938 3.726562 30.792969 3.835938 C 30.667969 4.164062 30.15625 4.28125 29.636719 4.101562 Z M 29.28125 3.066406 C 29.332031 2.925781 29.503906 2.851562 29.71875 2.851562 C 29.933594 2.851562 29.949219 2.867188 30.066406 2.910156 C 30.296875 2.992188 30.480469 3.140625 30.554688 3.296875 C 30.578125 3.355469 30.601562 3.4375 30.570312 3.519531 C 30.496094 3.726562 30.132812 3.792969 29.777344 3.671875 C 29.554688 3.585938 29.363281 3.4375 29.289062 3.28125 C 29.265625 3.222656 29.238281 3.140625 29.273438 3.058594 Z M 28.652344 2.820312 C 28.769531 2.503906 29.132812 2.332031 29.578125 2.332031 C 30.023438 2.332031 30.007812 2.363281 30.222656 2.445312 C 30.652344 2.605469 31.007812 2.886719 31.15625 3.199219 C 31.238281 3.382812 31.253906 3.554688 31.199219 3.710938 C 31.125 3.910156 30.949219 4.050781 30.71875 4.125 C 30.808594 4.058594 30.875 3.96875 30.917969 3.867188 C 30.976562 3.71875 30.957031 3.554688 30.882812 3.398438 C 30.761719 3.132812 30.46875 2.894531 30.117188 2.769531 C 29.527344 2.5625 28.933594 2.71875 28.785156 3.117188 C 28.742188 3.222656 28.742188 3.347656 28.777344 3.464844 C 28.742188 3.414062 28.71875 3.371094 28.695312 3.324219 C 28.609375 3.140625 28.59375 2.96875 28.652344 2.8125 Z M 31.890625 4.753906 C 31.113281 4.480469 30.332031 4.6875 30.140625 5.207031 C 30.066406 5.398438 30.082031 5.613281 30.191406 5.828125 C 30.355469 6.183594 30.734375 6.488281 31.207031 6.652344 C 31.253906 6.667969 31.296875 6.6875 31.347656 6.695312 C 31.527344 6.746094 31.71875 6.769531 31.890625 6.769531 C 32.40625 6.769531 32.824219 6.5625 32.957031 6.191406 C 33.03125 6 33.015625 5.785156 32.910156 5.570312 C 32.742188 5.214844 32.363281 4.910156 31.890625 4.746094 Z M 31.246094 6.53125 C 30.925781 6.414062 30.667969 6.207031 30.5625 5.976562 C 30.503906 5.84375 30.488281 5.71875 30.527344 5.613281 C 30.578125 5.480469 30.695312 5.378906 30.84375 5.324219 C 30.800781 5.363281 30.777344 5.40625 30.761719 5.457031 C 30.71875 5.554688 30.726562 5.671875 30.785156 5.785156 C 30.875 5.984375 31.089844 6.148438 31.355469 6.25 C 31.496094 6.296875 31.628906 6.324219 31.75 6.324219 C 32.023438 6.324219 32.246094 6.214844 32.320312 6.015625 C 32.339844 5.96875 32.347656 5.910156 32.347656 5.859375 C 32.355469 5.875 32.363281 5.894531 32.371094 5.910156 C 32.429688 6.042969 32.445312 6.164062 32.402344 6.273438 C 32.28125 6.605469 31.769531 6.71875 31.246094 6.539062 Z M 30.890625 5.503906 C 30.941406 5.363281 31.113281 5.289062 31.328125 5.289062 C 31.542969 5.289062 31.5625 5.304688 31.675781 5.347656 C 31.910156 5.429688 32.089844 5.578125 32.164062 5.734375 C 32.1875 5.792969 32.214844 5.875 32.179688 5.960938 C 32.105469 6.164062 31.742188 6.230469 31.386719 6.109375 C 31.15625 6.023438 30.976562 5.875 30.898438 5.71875 C 30.875 5.660156 30.851562 5.578125 30.882812 5.496094 Z M 32.816406 6.148438 C 32.742188 6.347656 32.570312 6.488281 32.339844 6.5625 C 32.429688 6.496094 32.496094 6.40625 32.527344 6.304688 C 32.585938 6.15625 32.570312 5.992188 32.496094 5.835938 C 32.371094 5.570312 32.082031 5.332031 31.726562 5.207031 C 31.140625 5 30.546875 5.15625 30.394531 5.554688 C 30.355469 5.660156 30.355469 5.785156 30.386719 5.902344 C 30.355469 5.851562 30.332031 5.808594 30.304688 5.761719 C 30.222656 5.578125 30.207031 5.40625 30.265625 5.25 C 30.378906 4.933594 30.742188 4.761719 31.191406 4.761719 C 31.636719 4.761719 31.621094 4.792969 31.835938 4.875 C 32.265625 5.035156 32.621094 5.316406 32.769531 5.628906 C 32.851562 5.808594 32.867188 5.984375 32.808594 6.140625 Z M 28.554688 4.503906 C 28.628906 4.316406 28.609375 4.101562 28.503906 3.886719 C 28.339844 3.53125 27.957031 3.222656 27.488281 3.058594 C 26.710938 2.785156 25.925781 2.992188 25.734375 3.511719 C 25.660156 3.703125 25.675781 3.917969 25.785156 4.132812 C 25.949219 4.488281 26.332031 4.792969 26.800781 4.960938 C 26.851562 4.976562 26.890625 4.992188 26.941406 5 C 27.125 5.050781 27.3125 5.074219 27.488281 5.074219 C 28 5.074219 28.421875 4.867188 28.554688 4.496094 Z M 26.007812 3.859375 C 25.96875 3.96875 25.96875 4.089844 26 4.207031 C 25.96875 4.15625 25.941406 4.117188 25.917969 4.066406 C 25.835938 3.886719 25.816406 3.710938 25.875 3.554688 C 25.992188 3.242188 26.355469 3.066406 26.800781 3.066406 C 27.246094 3.066406 27.230469 3.101562 27.445312 3.183594 C 27.875 3.339844 28.230469 3.621094 28.378906 3.933594 C 28.460938 4.117188 28.480469 4.289062 28.421875 4.445312 C 28.347656 4.644531 28.171875 4.785156 27.941406 4.859375 C 28.03125 4.792969 28.097656 4.703125 28.132812 4.605469 C 28.191406 4.457031 28.171875 4.289062 28.097656 4.132812 C 27.976562 3.867188 27.6875 3.628906 27.332031 3.503906 C 26.742188 3.296875 26.148438 3.457031 26 3.851562 Z M 27.800781 4.273438 C 27.726562 4.480469 27.363281 4.546875 27.007812 4.421875 C 26.777344 4.339844 26.59375 4.191406 26.519531 4.035156 C 26.496094 3.976562 26.472656 3.894531 26.503906 3.8125 C 26.554688 3.671875 26.726562 3.597656 26.941406 3.597656 C 27.15625 3.597656 27.171875 3.613281 27.289062 3.652344 C 27.519531 3.734375 27.703125 3.886719 27.777344 4.042969 C 27.800781 4.101562 27.828125 4.183594 27.792969 4.265625 Z M 26.859375 4.835938 C 26.535156 4.71875 26.28125 4.511719 26.171875 4.28125 C 26.117188 4.148438 26.097656 4.027344 26.140625 3.917969 C 26.191406 3.777344 26.3125 3.679688 26.472656 3.621094 C 26.421875 3.660156 26.386719 3.710938 26.371094 3.769531 C 26.332031 3.867188 26.339844 3.984375 26.398438 4.101562 C 26.488281 4.296875 26.703125 4.464844 26.964844 4.5625 C 27.105469 4.613281 27.238281 4.636719 27.363281 4.636719 C 27.636719 4.636719 27.859375 4.53125 27.933594 4.332031 C 27.949219 4.273438 27.957031 4.214844 27.949219 4.15625 C 27.957031 4.175781 27.976562 4.191406 27.984375 4.207031 C 28.042969 4.339844 28.058594 4.464844 28.015625 4.570312 C 27.902344 4.902344 27.378906 5.015625 26.859375 4.835938 Z M 38.917969 35.230469 L 38.703125 35.230469 C 38.667969 35.023438 38.488281 34.867188 38.273438 34.867188 L 35.691406 34.867188 L 35.691406 34.246094 C 35.816406 34.222656 35.90625 34.105469 35.90625 33.972656 L 35.90625 30.660156 C 35.90625 30.527344 35.816406 30.417969 35.691406 30.386719 L 35.691406 25.179688 C 35.917969 25.039062 36.105469 24.859375 36.261719 24.652344 L 39.054688 24.652344 C 39.097656 24.652344 39.121094 24.617188 39.121094 24.585938 L 39.121094 24.089844 C 39.335938 24.074219 39.503906 23.890625 39.503906 23.675781 L 39.503906 22.964844 C 39.503906 22.734375 39.3125 22.554688 39.089844 22.554688 L 35.691406 22.554688 L 35.691406 15.496094 C 35.816406 15.472656 35.90625 15.355469 35.90625 15.230469 L 35.90625 7.429688 C 35.90625 7.28125 35.785156 7.15625 35.628906 7.15625 L 34.957031 7.15625 L 33.320312 5.820312 L 33.660156 4.902344 C 33.882812 4.304688 33.832031 3.644531 33.527344 3 C 33.074219 2.027344 32.066406 1.183594 30.84375 0.753906 C 28.71875 0 26.535156 0.652344 25.984375 2.191406 L 25.5625 3.347656 C 25.339844 3.941406 25.386719 4.605469 25.695312 5.257812 C 26.148438 6.230469 27.15625 7.066406 28.371094 7.496094 C 28.964844 7.710938 29.570312 7.808594 30.140625 7.808594 C 31.421875 7.808594 32.535156 7.304688 33.058594 6.421875 L 34.578125 7.667969 L 34.578125 15.238281 C 34.578125 15.371094 34.667969 15.480469 34.792969 15.503906 L 34.792969 22.5625 L 29.117188 22.5625 C 28.882812 22.5625 28.703125 22.75 28.703125 22.972656 L 28.703125 23.683594 C 28.703125 23.792969 28.742188 23.882812 28.808594 23.957031 L 28.222656 23.957031 C 28.289062 23.882812 28.332031 23.785156 28.332031 23.675781 L 28.332031 22.964844 C 28.332031 22.734375 28.140625 22.554688 27.917969 22.554688 L 24.28125 22.554688 L 24.5625 20.097656 C 24.652344 20.253906 24.785156 20.480469 24.976562 20.695312 C 25.371094 21.15625 25.816406 21.402344 26.28125 21.402344 C 26.742188 21.402344 26.421875 21.402344 26.488281 21.386719 C 27.734375 21.199219 28.082031 18.371094 28.171875 16.527344 C 28.171875 16.527344 28.179688 16.527344 28.191406 16.519531 C 28.207031 16.511719 28.214844 16.488281 28.214844 16.46875 L 28.28125 15.546875 C 28.339844 15.460938 28.585938 15.097656 28.703125 14.910156 C 28.769531 14.792969 28.835938 14.578125 28.875 14.421875 C 28.890625 14.355469 28.910156 14.289062 28.925781 14.273438 C 28.941406 14.238281 29.132812 13.941406 29.265625 13.792969 C 29.332031 13.71875 29.320312 13.613281 29.246094 13.535156 C 29.132812 13.414062 28.882812 13.40625 28.644531 13.601562 C 28.535156 13.695312 28.4375 13.816406 28.363281 13.925781 L 28.554688 12.15625 C 28.585938 12.023438 28.503906 11.875 28.355469 11.835938 C 28.230469 11.792969 28.097656 11.851562 28.050781 11.96875 C 28.050781 11.96875 28.050781 11.96875 28.050781 11.976562 L 27.828125 12.800781 L 27.910156 11.753906 C 27.933594 11.628906 27.851562 11.496094 27.71875 11.460938 C 27.644531 11.4375 27.5625 11.445312 27.496094 11.488281 C 27.4375 11.519531 27.394531 11.578125 27.378906 11.652344 L 27.222656 12.652344 L 27.222656 11.957031 C 27.222656 11.792969 27.082031 11.703125 26.957031 11.695312 C 26.84375 11.695312 26.71875 11.753906 26.695312 11.925781 L 26.59375 12.816406 L 26.554688 12.4375 C 26.554688 12.4375 26.554688 12.4375 26.554688 12.429688 C 26.527344 12.339844 26.445312 12.273438 26.355469 12.265625 C 26.273438 12.265625 26.140625 12.28125 26.097656 12.488281 C 26.097656 12.488281 26.042969 13.042969 26.042969 13.503906 C 25.984375 13.835938 25.96875 14.097656 25.984375 14.3125 L 25.414062 12.984375 C 25.414062 12.984375 25.183594 12.445312 25.183594 12.445312 C 25.183594 12.445312 25.183594 12.429688 25.164062 12.429688 C 24.910156 11.910156 24.429688 11.554688 23.851562 11.472656 L 20.960938 11.089844 L 20.960938 11.007812 C 21.304688 10.933594 21.570312 10.761719 21.753906 10.480469 C 22.171875 9.828125 21.96875 8.851562 21.957031 8.808594 C 21.957031 8.792969 21.949219 8.777344 21.933594 8.769531 C 21.933594 8.769531 21.917969 8.753906 21.894531 8.742188 C 21.894531 8.667969 21.894531 8.59375 21.894531 8.527344 C 21.894531 8.527344 21.894531 8.527344 21.894531 8.519531 C 21.894531 8.511719 21.910156 8.496094 21.917969 8.472656 C 22.296875 7.703125 22.363281 7.007812 22.132812 6.414062 C 21.835938 5.570312 21.023438 5.140625 19.851562 5.199219 C 19.332031 5.222656 18.519531 5.414062 17.820312 5.886719 C 16.933594 6.472656 16.4375 7.371094 16.382812 8.480469 C 16.347656 9.058594 16.5625 9.910156 17.015625 10.355469 C 17.222656 10.554688 17.457031 10.660156 17.710938 10.660156 L 17.710938 11.109375 L 14.976562 11.488281 C 14.421875 11.570312 13.933594 11.925781 13.679688 12.421875 L 13.679688 12.445312 C 13.660156 12.445312 13.660156 12.453125 13.660156 12.460938 L 13.398438 13.082031 C 13.398438 13.089844 13.398438 13.089844 13.398438 13.089844 L 12.859375 14.332031 C 12.859375 14.125 12.859375 13.890625 12.800781 13.59375 C 12.800781 13.132812 12.753906 12.585938 12.753906 12.570312 C 12.710938 12.371094 12.578125 12.347656 12.496094 12.355469 C 12.398438 12.355469 12.316406 12.429688 12.296875 12.519531 C 12.296875 12.519531 12.296875 12.519531 12.296875 12.527344 L 12.257812 12.910156 L 12.15625 12.015625 C 12.132812 11.851562 12.007812 11.785156 11.894531 11.785156 C 11.769531 11.785156 11.636719 11.882812 11.636719 12.050781 L 11.636719 12.742188 C 11.636719 12.742188 11.472656 11.742188 11.472656 11.742188 C 11.457031 11.675781 11.414062 11.621094 11.355469 11.585938 C 11.289062 11.546875 11.207031 11.539062 11.132812 11.5625 C 11 11.601562 10.917969 11.726562 10.933594 11.84375 L 11.019531 12.902344 L 10.792969 12.074219 C 10.792969 12.074219 10.792969 12.074219 10.792969 12.066406 C 10.746094 11.949219 10.613281 11.890625 10.488281 11.933594 C 10.347656 11.976562 10.257812 12.117188 10.289062 12.257812 L 10.480469 14.023438 C 10.40625 13.917969 10.308594 13.792969 10.199219 13.703125 C 9.960938 13.496094 9.710938 13.511719 9.597656 13.636719 C 9.523438 13.710938 9.515625 13.816406 9.578125 13.890625 C 9.710938 14.042969 9.902344 14.347656 9.917969 14.371094 C 9.925781 14.394531 9.945312 14.453125 9.96875 14.519531 C 10.007812 14.675781 10.074219 14.890625 10.140625 15.007812 C 10.25 15.199219 10.503906 15.5625 10.5625 15.644531 L 10.628906 16.570312 C 10.628906 16.585938 10.636719 16.609375 10.652344 16.621094 C 10.652344 16.621094 10.671875 16.628906 10.679688 16.636719 C 10.777344 18.46875 11.132812 21.230469 12.363281 21.421875 C 12.429688 21.429688 12.503906 21.4375 12.570312 21.4375 C 13.050781 21.4375 13.523438 21.171875 13.933594 20.660156 C 14.191406 20.347656 14.382812 19.972656 14.511719 19.554688 L 14.546875 19.429688 L 14.660156 22.578125 L 10.332031 22.578125 C 10.101562 22.578125 9.917969 22.769531 9.917969 22.992188 L 9.917969 23.703125 C 9.917969 23.808594 9.960938 23.90625 10.027344 23.980469 L 9.917969 23.980469 C 9.761719 23.980469 9.605469 23.964844 9.457031 23.941406 L 9.398438 23.941406 C 9.4375 23.890625 9.472656 23.832031 9.480469 23.777344 L 9.664062 22.867188 C 9.679688 22.785156 9.664062 22.710938 9.613281 22.644531 C 9.5625 22.570312 9.488281 22.527344 9.398438 22.511719 L 3.722656 21.519531 C 3.546875 21.488281 3.382812 21.601562 3.347656 21.769531 L 3.167969 22.675781 C 3.152344 22.757812 3.167969 22.832031 3.214844 22.898438 C 3.265625 22.972656 3.339844 23.015625 3.429688 23.03125 L 3.5625 23.058594 L 3.464844 23.535156 C 3.464844 23.550781 3.464844 23.578125 3.472656 23.585938 C 3.480469 23.59375 3.496094 23.609375 3.523438 23.617188 L 8.8125 24.542969 L 5.753906 24.542969 C 5.730469 24.542969 5.703125 24.5625 5.6875 24.585938 C 5.671875 24.609375 5.679688 24.636719 5.6875 24.660156 C 6.140625 25.246094 6.878906 25.59375 7.65625 25.59375 C 8.429688 25.59375 7.664062 25.59375 7.671875 25.59375 L 13.597656 25.5625 L 14.792969 25.5625 C 14.792969 25.5625 14.710938 26.363281 14.710938 26.363281 L 2.554688 26.363281 C 2.464844 26.363281 2.390625 26.4375 2.390625 26.527344 L 2.390625 26.644531 C 2.390625 26.734375 2.464844 26.808594 2.554688 26.808594 L 2.878906 26.808594 L 2.960938 27.015625 C 3.042969 27.230469 3.300781 27.378906 3.582031 27.378906 L 4.355469 27.378906 L 4.355469 38.875 L 4.085938 38.875 C 4.042969 38.875 4.011719 38.90625 4.011719 38.941406 L 4.011719 39.707031 C 4.011719 39.75 4.042969 39.773438 4.085938 39.773438 L 4.339844 39.773438 L 4.339844 39.855469 C 4.167969 39.957031 4.050781 40.144531 4.050781 40.351562 C 4.050781 40.675781 4.316406 40.929688 4.644531 40.929688 C 4.976562 40.929688 5.242188 40.675781 5.242188 40.351562 C 5.242188 40.03125 5.226562 40.1875 5.191406 40.113281 L 5.464844 39.773438 L 11.117188 39.773438 L 11.117188 39.855469 C 10.941406 39.957031 10.828125 40.144531 10.828125 40.351562 C 10.828125 40.675781 11.09375 40.929688 11.421875 40.929688 C 11.753906 40.929688 12.019531 40.675781 12.019531 40.351562 C 12.019531 40.03125 12 40.1875 11.96875 40.113281 L 12.242188 39.773438 L 12.414062 39.773438 C 12.457031 39.773438 12.488281 39.742188 12.488281 39.707031 L 12.488281 38.941406 C 12.488281 38.898438 12.457031 38.875 12.414062 38.875 L 5 38.875 L 5 27.378906 L 14.613281 27.378906 L 13.429688 38.320312 C 13.429688 38.335938 13.429688 38.363281 13.445312 38.378906 C 13.464844 38.394531 13.480469 38.402344 13.496094 38.402344 L 13.910156 38.402344 L 13.753906 39.195312 C 13.257812 39.585938 12.960938 40.210938 12.917969 40.410156 C 12.917969 40.433594 12.894531 40.5 12.953125 40.75 C 12.984375 40.882812 13.09375 40.972656 13.222656 40.972656 L 15.777344 40.972656 C 15.941406 40.972656 16.082031 40.855469 16.109375 40.699219 C 16.148438 40.484375 16.175781 40.328125 16.175781 40.253906 C 16.175781 40.105469 16 39.742188 15.710938 39.425781 L 15.917969 38.410156 L 16.726562 38.410156 C 16.761719 38.410156 16.785156 38.386719 16.792969 38.363281 L 16.910156 37.890625 C 17.257812 37.867188 17.53125 37.59375 17.53125 37.261719 C 17.53125 36.933594 17.511719 37.121094 17.496094 37.054688 L 19.324219 37.054688 L 19.339844 38.34375 C 19.339844 38.386719 19.371094 38.410156 19.414062 38.410156 L 20.324219 38.410156 L 20.257812 39.246094 L 20.183594 39.261719 C 20.15625 39.261719 20.140625 39.285156 20.132812 39.3125 L 19.769531 40.5 C 19.71875 40.699219 19.769531 40.816406 19.820312 40.882812 C 19.882812 40.972656 20 41.023438 20.125 41.023438 L 24.710938 41.023438 C 24.859375 41.023438 24.992188 40.929688 25.042969 40.789062 C 25.125 40.550781 25.105469 40.460938 25.089844 40.417969 C 24.875 39.941406 23.429688 39.476562 23.214844 39.410156 L 22.386719 38.765625 C 22.371094 38.75 22.347656 38.75 22.332031 38.75 L 22.324219 38.75 C 22.324219 38.75 22.324219 38.410156 22.324219 38.410156 L 22.785156 38.410156 C 22.816406 38.410156 22.851562 38.386719 22.851562 38.34375 L 22.941406 37.054688 L 24.414062 37.054688 C 24.386719 37.121094 24.378906 37.1875 24.378906 37.261719 C 24.378906 37.609375 24.675781 37.890625 25.050781 37.890625 C 25.421875 37.890625 25.71875 37.609375 25.71875 37.261719 C 25.71875 36.914062 25.703125 37.121094 25.6875 37.054688 L 26.066406 37.054688 C 26.105469 37.054688 26.132812 37.023438 26.132812 36.988281 L 26.132812 35.792969 C 26.132812 35.75 26.097656 35.726562 26.066406 35.726562 L 23.894531 35.726562 L 23.894531 26.59375 C 24.214844 26.519531 24.453125 26.238281 24.453125 25.890625 L 24.453125 25.601562 L 28.835938 25.601562 C 28.835938 25.609375 34.386719 25.609375 34.386719 25.609375 C 34.535156 25.609375 34.675781 25.59375 34.824219 25.570312 L 34.824219 30.429688 C 34.703125 30.453125 34.609375 30.570312 34.609375 30.699219 L 34.609375 34.015625 C 34.609375 34.148438 34.703125 34.253906 34.824219 34.289062 L 34.824219 34.90625 L 32.246094 34.90625 C 32.03125 34.90625 31.851562 35.0625 31.816406 35.269531 L 31.585938 35.269531 C 31.230469 35.269531 30.941406 35.558594 30.941406 35.914062 L 30.941406 36.757812 C 30.941406 36.800781 30.976562 36.824219 31.007812 36.824219 L 31.207031 36.824219 L 31.480469 37.164062 C 31.445312 37.238281 31.429688 37.3125 31.429688 37.394531 C 31.429688 37.707031 31.683594 37.964844 32.007812 37.964844 C 32.328125 37.964844 32.585938 37.707031 32.585938 37.394531 C 32.585938 37.082031 32.46875 37.007812 32.304688 36.90625 L 32.304688 36.824219 L 38.105469 36.824219 L 38.378906 37.164062 C 38.347656 37.238281 38.328125 37.3125 38.328125 37.394531 C 38.328125 37.707031 38.585938 37.964844 38.90625 37.964844 C 39.230469 37.964844 39.488281 37.707031 39.488281 37.394531 C 39.488281 37.082031 39.371094 37.007812 39.207031 36.90625 L 39.207031 36.824219 L 39.535156 36.824219 C 39.578125 36.824219 39.601562 36.792969 39.601562 36.757812 L 39.601562 35.933594 C 39.601562 35.566406 39.304688 35.269531 38.941406 35.269531 Z M 26.125 2.230469 C 26.660156 0.761719 28.761719 0.15625 30.808594 0.878906 C 32 1.296875 32.972656 2.109375 33.414062 3.050781 C 33.703125 3.660156 33.742188 4.289062 33.535156 4.84375 L 33.378906 5.273438 C 33.378906 4.902344 33.289062 4.519531 33.105469 4.140625 C 32.652344 3.167969 31.644531 2.332031 30.429688 1.902344 C 28.660156 1.273438 26.84375 1.628906 25.96875 2.660156 Z M 28.429688 7.355469 C 27.238281 6.933594 26.273438 6.125 25.828125 5.191406 C 25.539062 4.570312 25.488281 3.949219 25.695312 3.390625 C 26.230469 1.917969 28.332031 1.316406 30.378906 2.035156 C 31.570312 2.457031 32.535156 3.265625 32.984375 4.199219 C 33.273438 4.820312 33.320312 5.4375 33.113281 6 C 32.578125 7.472656 30.480469 8.074219 28.429688 7.355469 Z M 33.140625 6.289062 C 33.179688 6.214844 33.214844 6.132812 33.238281 6.050781 L 33.273438 5.949219 L 35.304688 7.613281 C 35.339844 7.644531 35.363281 7.6875 35.371094 7.726562 C 35.371094 7.777344 35.363281 7.820312 35.328125 7.851562 C 35.261719 7.925781 35.15625 7.933594 35.082031 7.875 Z M 34.734375 15.222656 L 34.734375 7.769531 L 35 7.984375 C 35.058594 8.035156 35.132812 8.058594 35.207031 8.058594 C 35.28125 8.058594 35.386719 8.015625 35.453125 7.941406 C 35.511719 7.875 35.535156 7.792969 35.527344 7.710938 C 35.527344 7.628906 35.476562 7.554688 35.414062 7.496094 L 35.148438 7.28125 L 35.644531 7.28125 C 35.71875 7.28125 35.785156 7.339844 35.785156 7.414062 L 35.785156 15.214844 C 35.785156 15.289062 35.71875 15.347656 35.644531 15.347656 L 34.882812 15.347656 C 34.808594 15.347656 34.742188 15.289062 34.742188 15.214844 Z M 35.554688 15.503906 L 35.554688 22.554688 L 34.949219 22.554688 L 34.949219 15.503906 Z M 28.5625 24.097656 L 38.992188 24.097656 L 38.992188 24.519531 L 28.5625 24.519531 Z M 28.421875 24.097656 L 28.421875 24.519531 L 23.800781 24.519531 L 23.828125 24.097656 Z M 27.910156 18.03125 C 27.660156 20.023438 27.164062 21.140625 26.472656 21.246094 C 25.398438 21.414062 24.710938 20.074219 24.601562 19.84375 L 24.828125 17.84375 L 25.652344 17.5625 L 25.320312 18.964844 C 25.3125 19.007812 25.339844 19.039062 25.371094 19.050781 C 25.371094 19.050781 25.378906 19.050781 25.386719 19.050781 C 25.421875 19.050781 25.445312 19.023438 25.453125 18.992188 L 25.816406 17.460938 C 25.816406 17.460938 26.117188 16.230469 26.117188 16.230469 L 28.03125 16.511719 C 28.007812 16.976562 27.964844 17.503906 27.902344 18.023438 Z M 26.183594 13.511719 C 26.183594 13.511719 26.183594 13.503906 26.183594 13.496094 C 26.183594 13.042969 26.230469 12.496094 26.230469 12.496094 C 26.246094 12.398438 26.296875 12.386719 26.339844 12.398438 C 26.371094 12.398438 26.40625 12.421875 26.414062 12.453125 L 26.519531 13.496094 C 26.519531 13.527344 26.554688 13.5625 26.585938 13.5625 C 26.621094 13.5625 26.652344 13.535156 26.652344 13.496094 L 26.816406 11.941406 C 26.835938 11.84375 26.902344 11.835938 26.933594 11.835938 C 26.992188 11.835938 27.058594 11.882812 27.058594 11.957031 L 27.058594 13.511719 C 27.066406 13.546875 27.089844 13.578125 27.132812 13.578125 C 27.171875 13.578125 27.199219 13.554688 27.207031 13.519531 L 27.496094 11.675781 C 27.496094 11.644531 27.519531 11.628906 27.546875 11.613281 C 27.578125 11.59375 27.621094 11.585938 27.660156 11.601562 C 27.726562 11.621094 27.769531 11.675781 27.75 11.742188 L 27.601562 13.554688 C 27.601562 13.585938 27.628906 13.621094 27.660156 13.628906 C 27.695312 13.628906 27.734375 13.613281 27.742188 13.578125 L 28.164062 12.023438 C 28.191406 11.984375 28.238281 11.957031 28.296875 11.976562 C 28.371094 12 28.414062 12.066406 28.394531 12.132812 C 28.394531 12.132812 28.394531 12.132812 28.394531 12.140625 L 28.164062 14.238281 C 28.164062 14.273438 28.179688 14.304688 28.214844 14.3125 C 28.246094 14.320312 28.28125 14.3125 28.296875 14.28125 C 28.296875 14.28125 28.480469 13.917969 28.710938 13.71875 C 28.902344 13.554688 29.066406 13.585938 29.125 13.644531 C 29.140625 13.660156 29.15625 13.6875 29.132812 13.710938 C 28.992188 13.867188 28.785156 14.191406 28.769531 14.230469 C 28.75 14.265625 28.734375 14.320312 28.71875 14.394531 C 28.675781 14.535156 28.621094 14.75 28.5625 14.851562 C 28.4375 15.058594 28.140625 15.488281 28.140625 15.496094 C 28.140625 15.503906 28.132812 15.519531 28.125 15.527344 L 28.058594 16.394531 L 26.058594 16.105469 L 26.230469 15.546875 C 26.230469 15.546875 26.230469 15.535156 26.230469 15.527344 C 26.246094 15.246094 26.207031 15.03125 26.164062 14.808594 C 26.105469 14.480469 26.042969 14.140625 26.15625 13.519531 Z M 21.636719 10.386719 C 21.480469 10.636719 21.230469 10.792969 20.917969 10.859375 C 19.726562 11.097656 18.984375 10.628906 18.84375 10.519531 L 18.84375 8.957031 C 21.015625 8.480469 21.710938 8.785156 21.828125 8.851562 C 21.859375 9.007812 21.992188 9.84375 21.636719 10.386719 Z M 20.585938 8.183594 C 20.628906 8.304688 20.667969 8.4375 20.703125 8.554688 C 20.238281 8.570312 19.613281 8.636719 18.769531 8.828125 L 18.082031 8.496094 C 18.230469 8.058594 18.457031 7.628906 18.820312 7.296875 C 19.25 6.902344 20.289062 6.761719 20.949219 6.875 C 21.25 6.925781 21.4375 7.023438 21.511719 7.15625 C 21.703125 7.652344 21.777344 8.109375 21.753906 8.667969 C 21.59375 8.613281 21.3125 8.554688 20.851562 8.554688 C 20.800781 8.390625 20.753906 8.214844 20.71875 8.132812 C 20.710938 8.097656 20.667969 8.074219 20.628906 8.089844 C 20.59375 8.097656 20.570312 8.140625 20.585938 8.183594 Z M 18.695312 8.941406 L 18.695312 9.132812 C 18.695312 9.132812 18.023438 8.710938 18.023438 8.710938 C 18.023438 8.679688 18.042969 8.652344 18.050781 8.621094 L 18.695312 8.933594 Z M 18.695312 9.296875 L 18.695312 10.03125 C 18.695312 10.03125 17.886719 9.488281 17.886719 9.488281 C 17.902344 9.289062 17.933594 9.074219 17.992188 8.859375 L 18.703125 9.296875 Z M 18.695312 10.199219 L 18.695312 10.40625 C 18.695312 10.40625 17.859375 9.753906 17.859375 9.753906 C 17.859375 9.71875 17.859375 9.6875 17.859375 9.652344 L 18.6875 10.199219 Z M 17.867188 9.933594 L 18.726562 10.601562 C 18.761719 10.636719 19.296875 11.058594 20.25 11.058594 C 21.199219 11.058594 20.613281 11.042969 20.820312 11.007812 L 20.820312 11.109375 C 20.820312 11.109375 19.785156 13.769531 19.785156 13.769531 L 17.867188 11.097656 L 17.867188 9.925781 Z M 17.726562 10.488281 C 17.511719 10.488281 17.316406 10.398438 17.140625 10.222656 C 16.71875 9.808594 16.519531 9 16.546875 8.453125 C 16.597656 7.421875 17.363281 5.429688 19.875 5.304688 C 19.941406 5.304688 20.007812 5.304688 20.066406 5.304688 C 21.066406 5.304688 21.753906 5.703125 22.015625 6.4375 C 22.214844 6.949219 22.171875 7.546875 21.894531 8.191406 C 21.875 8.007812 21.851562 7.777344 21.800781 7.546875 C 21.902344 7.527344 21.992188 7.480469 22.066406 7.40625 C 22.089844 7.371094 22.089844 7.332031 22.066406 7.304688 C 22.042969 7.28125 21.992188 7.28125 21.96875 7.304688 C 21.917969 7.363281 21.851562 7.398438 21.777344 7.40625 C 21.742188 7.289062 21.703125 7.175781 21.652344 7.082031 C 21.652344 7.066406 21.636719 7.050781 21.628906 7.042969 C 21.777344 6.925781 21.875 6.753906 21.910156 6.570312 C 21.910156 6.53125 21.894531 6.496094 21.851562 6.488281 C 21.808594 6.488281 21.777344 6.503906 21.769531 6.546875 C 21.734375 6.703125 21.652344 6.84375 21.527344 6.941406 C 21.390625 6.828125 21.164062 6.761719 20.992188 6.734375 C 20.949219 6.734375 20.902344 6.71875 20.859375 6.71875 C 20.910156 6.628906 20.941406 6.519531 20.941406 6.414062 C 20.941406 6.371094 20.910156 6.339844 20.875 6.339844 C 20.835938 6.339844 20.800781 6.371094 20.800781 6.40625 C 20.800781 6.511719 20.761719 6.621094 20.703125 6.703125 C 20.546875 6.695312 20.378906 6.695312 20.207031 6.703125 C 20.074219 6.464844 20.015625 6.191406 20.042969 5.925781 C 20.042969 5.886719 20.015625 5.851562 19.976562 5.851562 C 19.933594 5.851562 19.902344 5.875 19.902344 5.917969 C 19.867188 6.199219 19.925781 6.480469 20.050781 6.726562 C 19.570312 6.777344 19.101562 6.917969 18.800781 7.148438 C 18.59375 7.089844 18.40625 6.941406 18.316406 6.746094 C 18.296875 6.710938 18.257812 6.695312 18.222656 6.710938 C 18.191406 6.726562 18.175781 6.769531 18.191406 6.800781 C 18.289062 7.015625 18.472656 7.183594 18.6875 7.257812 C 18.621094 7.324219 18.554688 7.398438 18.496094 7.472656 C 18.398438 7.472656 18.296875 7.429688 18.222656 7.355469 C 18.199219 7.332031 18.148438 7.332031 18.125 7.355469 C 18.101562 7.378906 18.101562 7.429688 18.125 7.453125 C 18.199219 7.527344 18.289062 7.578125 18.398438 7.605469 C 18.015625 8.132812 17.851562 8.769531 17.785156 9.273438 C 17.636719 9.445312 17.414062 9.554688 17.191406 9.570312 C 17.148438 9.570312 17.125 9.601562 17.125 9.644531 C 17.125 9.6875 17.15625 9.710938 17.191406 9.710938 C 17.222656 9.710938 17.191406 9.710938 17.191406 9.710938 C 17.390625 9.703125 17.585938 9.621094 17.753906 9.496094 C 17.703125 9.96875 17.71875 10.347656 17.734375 10.503906 Z M 17.769531 11.207031 L 19.753906 13.964844 C 19.769531 13.984375 19.785156 14 19.808594 14 C 19.835938 14 19.808594 14 19.820312 14 C 19.84375 14 19.867188 13.984375 19.875 13.957031 L 20.941406 11.214844 L 21.347656 11.265625 L 19.882812 14.859375 L 17.339844 11.265625 L 17.761719 11.207031 Z M 10.703125 15.578125 C 10.703125 15.5625 10.703125 15.554688 10.6875 15.546875 C 10.6875 15.546875 10.382812 15.105469 10.265625 14.902344 C 10.207031 14.800781 10.148438 14.585938 10.109375 14.445312 C 10.082031 14.363281 10.066406 14.304688 10.058594 14.28125 C 10.042969 14.238281 9.835938 13.917969 9.695312 13.761719 C 9.679688 13.734375 9.695312 13.710938 9.703125 13.695312 C 9.730469 13.667969 9.777344 13.644531 9.835938 13.644531 C 9.894531 13.644531 10.007812 13.675781 10.117188 13.769531 C 10.347656 13.964844 10.53125 14.332031 10.53125 14.332031 C 10.546875 14.363281 10.578125 14.378906 10.613281 14.363281 C 10.644531 14.355469 10.671875 14.320312 10.664062 14.289062 L 10.4375 12.191406 C 10.4375 12.191406 10.4375 12.191406 10.4375 12.183594 C 10.421875 12.117188 10.464844 12.050781 10.539062 12.023438 C 10.597656 12.007812 10.644531 12.023438 10.671875 12.074219 L 11.09375 13.628906 C 11.101562 13.660156 11.132812 13.6875 11.175781 13.675781 C 11.207031 13.675781 11.234375 13.636719 11.234375 13.601562 L 11.082031 11.785156 C 11.074219 11.726562 11.117188 11.667969 11.175781 11.652344 C 11.214844 11.644531 11.257812 11.652344 11.289062 11.667969 C 11.316406 11.6875 11.339844 11.710938 11.339844 11.734375 L 11.628906 13.585938 C 11.628906 13.621094 11.671875 13.644531 11.703125 13.644531 C 11.738281 13.644531 11.769531 13.613281 11.769531 13.578125 L 11.769531 12.023438 C 11.785156 11.941406 11.84375 11.902344 11.910156 11.902344 C 11.941406 11.902344 12.007812 11.902344 12.027344 12.007812 L 12.191406 13.5625 C 12.191406 13.59375 12.222656 13.628906 12.257812 13.628906 C 12.289062 13.628906 12.324219 13.601562 12.324219 13.5625 L 12.429688 12.519531 C 12.4375 12.488281 12.472656 12.472656 12.503906 12.460938 C 12.546875 12.460938 12.597656 12.460938 12.613281 12.5625 C 12.613281 12.5625 12.671875 13.117188 12.664062 13.570312 C 12.664062 13.570312 12.664062 13.578125 12.664062 13.585938 C 12.777344 14.207031 12.710938 14.546875 12.644531 14.875 C 12.605469 15.097656 12.5625 15.3125 12.578125 15.59375 C 12.578125 15.59375 12.578125 15.601562 12.578125 15.609375 L 12.753906 16.171875 L 10.753906 16.460938 L 10.695312 15.59375 Z M 14.371094 19.480469 C 14.25 19.875 14.066406 20.230469 13.820312 20.535156 C 13.511719 20.917969 13.015625 21.347656 12.382812 21.246094 C 11.6875 21.140625 11.191406 20.03125 10.941406 18.03125 C 10.878906 17.527344 10.84375 17.03125 10.820312 16.585938 L 12.753906 16.3125 L 13.035156 17.480469 C 13.035156 17.480469 13.398438 19.007812 13.398438 19.007812 C 13.398438 19.039062 13.429688 19.066406 13.464844 19.066406 C 13.496094 19.066406 13.472656 19.066406 13.480469 19.066406 C 13.523438 19.058594 13.539062 19.015625 13.53125 18.984375 L 13.199219 17.578125 L 14.488281 18.007812 C 14.488281 18.015625 14.523438 18.984375 14.523438 18.984375 L 14.363281 19.488281 Z M 14.53125 15.289062 C 14.53125 15.246094 14.496094 15.222656 14.457031 15.222656 C 14.414062 15.222656 14.390625 15.257812 14.390625 15.296875 L 14.488281 17.84375 L 13.726562 17.585938 L 13.167969 17.394531 L 12.894531 16.28125 C 12.902344 16.28125 12.910156 16.265625 12.917969 16.253906 C 12.925781 16.238281 12.933594 16.214844 12.917969 16.199219 L 12.71875 15.5625 C 12.703125 15.304688 12.746094 15.097656 12.785156 14.882812 C 12.785156 14.84375 12.800781 14.808594 12.8125 14.769531 L 13.53125 13.089844 L 13.820312 12.429688 C 14.050781 11.96875 14.496094 11.644531 15.007812 11.570312 L 17.175781 11.273438 L 19.835938 15.03125 C 19.851562 15.050781 19.867188 15.066406 19.894531 15.066406 C 19.917969 15.066406 19.894531 15.066406 19.894531 15.066406 C 19.917969 15.066406 19.941406 15.050781 19.949219 15.023438 L 21.472656 11.273438 L 23.816406 11.578125 C 24.363281 11.660156 24.828125 12.007812 25.050781 12.511719 L 25.265625 13.015625 L 26.03125 14.808594 C 26.074219 15.023438 26.105469 15.222656 26.097656 15.488281 L 25.902344 16.125 C 25.902344 16.140625 25.902344 16.164062 25.902344 16.179688 C 25.910156 16.199219 25.925781 16.207031 25.949219 16.214844 L 25.660156 17.394531 L 24.808594 17.675781 L 25.082031 15.289062 C 25.082031 15.246094 25.058594 15.214844 25.023438 15.214844 C 24.984375 15.214844 24.949219 15.238281 24.949219 15.273438 L 23.984375 23.832031 L 14.835938 23.832031 L 14.511719 15.28125 Z M 3.621094 23.46875 L 3.703125 23.058594 L 9.4375 24.058594 C 9.597656 24.082031 9.761719 24.097656 9.925781 24.097656 L 14.96875 24.097656 C 14.96875 24.097656 14.925781 24.511719 14.925781 24.511719 L 9.945312 24.511719 C 9.746094 24.511719 9.546875 24.496094 9.347656 24.460938 L 3.636719 23.460938 Z M 13.613281 25.394531 L 7.6875 25.429688 L 7.671875 25.429688 C 6.992188 25.429688 6.347656 25.148438 5.910156 24.660156 L 14.902344 24.660156 L 14.820312 25.402344 L 13.605469 25.402344 Z M 2.925781 26.644531 L 2.554688 26.644531 C 2.539062 26.644531 2.53125 26.636719 2.53125 26.617188 L 2.53125 26.503906 C 2.53125 26.484375 2.539062 26.476562 2.554688 26.476562 L 16 26.476562 C 16.015625 26.476562 16.027344 26.484375 16.027344 26.503906 L 16.027344 26.617188 C 16.027344 26.636719 16.015625 26.644531 16 26.644531 Z M 4.820312 40.3125 C 4.769531 40.371094 4.695312 40.402344 4.621094 40.402344 C 4.546875 40.402344 4.472656 40.335938 4.472656 40.261719 L 4.472656 39.757812 L 5.273438 39.757812 C 5.273438 39.757812 4.820312 40.3125 4.820312 40.3125 Z M 11.597656 40.3125 C 11.546875 40.371094 11.472656 40.402344 11.398438 40.402344 C 11.324219 40.402344 11.25 40.335938 11.25 40.261719 L 11.25 39.757812 L 12.050781 39.757812 C 12.050781 39.757812 11.597656 40.3125 11.597656 40.3125 Z M 12.332031 38.988281 L 12.332031 39.617188 L 4.152344 39.617188 L 4.152344 38.988281 Z M 4.496094 38.847656 L 4.496094 27.355469 L 4.859375 27.355469 L 4.859375 38.847656 Z M 4.925781 27.214844 L 3.582031 27.214844 C 3.355469 27.214844 3.152344 27.097656 3.09375 26.941406 L 3.035156 26.785156 L 15.539062 26.785156 L 15.464844 26.992188 C 15.421875 27.121094 15.257812 27.214844 15.082031 27.214844 Z M 15.597656 39.269531 C 15.371094 39.0625 15.101562 38.898438 14.792969 38.847656 C 14.464844 38.800781 14.175781 38.882812 13.917969 39.039062 L 14.050781 38.371094 L 15.769531 38.371094 L 15.585938 39.269531 Z M 18.25 36.875 L 17.164062 36.875 L 17.4375 35.816406 L 19.324219 35.816406 L 19.324219 36.875 C 19.332031 36.875 18.257812 36.875 18.257812 36.875 Z M 17.472656 35.675781 L 18.109375 33.1875 L 18.109375 35.675781 Z M 18.25 35.675781 L 18.25 32.632812 L 18.917969 30.023438 L 18.917969 35.675781 Z M 19.058594 35.675781 L 19.058594 29.476562 L 19.25 28.742188 L 19.324219 35.675781 Z M 16.679688 38.238281 L 13.578125 38.238281 L 14.753906 27.363281 L 15.074219 27.363281 C 15.316406 27.363281 15.53125 27.230469 15.597656 27.046875 L 15.6875 26.792969 L 16.007812 26.792969 C 16.101562 26.792969 16.175781 26.71875 16.175781 26.625 L 16.175781 26.511719 C 16.175781 26.421875 16.101562 26.347656 16.007812 26.347656 L 14.867188 26.347656 L 15.125 23.992188 L 20.324219 23.992188 L 16.6875 38.238281 Z M 22.183594 38.75 L 20.40625 39.171875 L 20.464844 38.371094 L 22.183594 38.371094 Z M 22.71875 38.238281 L 19.480469 38.238281 L 19.371094 28.246094 C 19.371094 28.246094 19.371094 28.238281 19.371094 28.230469 L 20.453125 23.992188 L 23.6875 23.992188 L 22.710938 38.238281 Z M 23.726562 26.570312 C 23.726562 26.570312 23.734375 26.570312 23.742188 26.570312 L 23.742188 35.683594 L 23.074219 35.683594 L 23.074219 35.128906 L 23.660156 26.578125 L 23.726562 26.578125 Z M 25.992188 35.816406 L 25.992188 36.875 L 22.957031 36.875 L 23.035156 35.816406 Z M 34.371094 25.4375 L 24.40625 25.4375 C 24.398438 25.421875 24.386719 25.421875 24.371094 25.421875 L 23.734375 25.421875 L 23.785156 24.660156 L 36.082031 24.660156 C 35.667969 25.148438 35.039062 25.4375 34.371094 25.4375 Z M 35.554688 25.273438 L 35.554688 30.386719 L 34.949219 30.386719 L 34.949219 25.511719 C 35.164062 25.460938 35.363281 25.378906 35.554688 25.28125 Z M 34.734375 33.972656 L 34.734375 30.660156 C 34.734375 30.585938 34.800781 30.519531 34.875 30.519531 L 35.636719 30.519531 C 35.710938 30.519531 35.777344 30.585938 35.777344 30.660156 L 35.777344 33.972656 C 35.777344 34.046875 35.710938 34.113281 35.636719 34.113281 L 34.875 34.113281 C 34.800781 34.113281 34.734375 34.046875 34.734375 33.972656 Z M 35.554688 34.253906 L 35.554688 34.867188 L 34.949219 34.867188 L 34.949219 34.253906 Z M 32.230469 35.007812 L 38.28125 35.007812 C 38.421875 35.007812 38.535156 35.105469 38.570312 35.230469 L 31.949219 35.230469 C 31.984375 35.097656 32.097656 35.007812 32.238281 35.007812 Z M 32.148438 37.285156 C 32.148438 37.363281 32.082031 37.425781 32.007812 37.425781 C 31.933594 37.425781 31.859375 37.394531 31.816406 37.335938 L 31.378906 36.792969 L 32.148438 36.792969 C 32.148438 36.792969 32.148438 37.285156 32.148438 37.285156 Z M 39.039062 37.285156 C 39.039062 37.363281 38.972656 37.425781 38.898438 37.425781 C 38.824219 37.425781 38.75 37.394531 38.710938 37.335938 L 38.273438 36.792969 L 39.039062 36.792969 C 39.039062 36.792969 39.039062 37.285156 39.039062 37.285156 Z M 39.4375 36.652344 L 31.066406 36.652344 L 31.066406 35.875 C 31.066406 35.59375 31.289062 35.371094 31.570312 35.371094 L 38.917969 35.371094 C 39.207031 35.371094 39.4375 35.601562 39.4375 35.890625 Z M 18.785156 35.371094 C 18.785156 35.46875 18.703125 35.542969 18.605469 35.542969 C 18.503906 35.542969 18.421875 35.460938 18.421875 35.371094 C 18.421875 35.277344 18.503906 35.195312 18.605469 35.195312 C 18.703125 35.195312 18.785156 35.277344 18.785156 35.371094 Z M 23.570312 35.371094 C 23.570312 35.46875 23.488281 35.542969 23.386719 35.542969 C 23.289062 35.542969 23.207031 35.460938 23.207031 35.371094 C 23.207031 35.277344 23.289062 35.195312 23.386719 35.195312 C 23.488281 35.195312 23.570312 35.277344 23.570312 35.371094 Z M 20.023438 8.230469 C 20.023438 8.347656 19.933594 8.445312 19.808594 8.453125 C 19.695312 8.453125 19.59375 8.363281 19.585938 8.238281 C 19.585938 8.125 19.679688 8.023438 19.800781 8.015625 C 19.917969 8.015625 20.015625 8.109375 20.023438 8.230469 Z M 21.109375 8.230469 C 21.109375 8.117188 21.199219 8.015625 21.324219 8.007812 C 21.4375 8.007812 21.539062 8.097656 21.546875 8.222656 C 21.554688 8.347656 21.453125 8.4375 21.332031 8.445312 C 21.207031 8.453125 21.117188 8.355469 21.109375 8.230469 Z M 15.445312 20.644531 L 17.488281 20.644531 C 17.53125 20.644531 17.5625 20.609375 17.5625 20.570312 L 17.5625 20.050781 C 17.5625 20.007812 17.53125 19.972656 17.488281 19.972656 L 15.445312 19.972656 C 15.40625 19.972656 15.371094 20.007812 15.371094 20.050781 L 15.371094 20.570312 C 15.371094 20.609375 15.40625 20.644531 15.445312 20.644531 Z M 15.519531 20.125 L 17.421875 20.125 L 17.421875 20.503906 L 15.519531 20.503906 Z M 21.820312 20.644531 L 23.859375 20.644531 C 23.902344 20.644531 23.925781 20.609375 23.925781 20.570312 L 23.925781 20.050781 C 23.925781 20.007812 23.894531 19.972656 23.859375 19.972656 L 21.820312 19.972656 C 21.777344 19.972656 21.753906 20.007812 21.753906 20.050781 L 21.753906 20.570312 C 21.753906 20.609375 21.785156 20.644531 21.820312 20.644531 Z M 21.882812 20.125 L 23.785156 20.125 L 23.785156 20.503906 L 21.882812 20.503906 Z M 21.882812 20.125 " fill-opacity="1" fill-rule="nonzero"/></g><path fill="#827fc6" d="M 29.414062 6.273438 C 29.4375 6.324219 29.460938 6.40625 29.429688 6.488281 C 29.355469 6.6875 28.992188 6.753906 28.644531 6.628906 C 28.414062 6.546875 28.222656 6.398438 28.148438 6.238281 C 28.125 6.191406 28.097656 6.109375 28.132812 6.023438 C 28.179688 5.894531 28.355469 5.820312 28.5625 5.820312 C 28.769531 5.820312 28.792969 5.835938 28.917969 5.886719 C 29.148438 5.96875 29.339844 6.117188 29.414062 6.273438 Z M 30.074219 2.910156 C 29.957031 2.867188 29.835938 2.851562 29.726562 2.851562 C 29.511719 2.851562 29.339844 2.925781 29.289062 3.066406 C 29.253906 3.148438 29.289062 3.230469 29.304688 3.289062 C 29.378906 3.445312 29.570312 3.597656 29.792969 3.679688 C 30.148438 3.800781 30.503906 3.734375 30.585938 3.53125 C 30.621094 3.445312 30.585938 3.363281 30.570312 3.304688 C 30.496094 3.148438 30.304688 3 30.082031 2.917969 Z M 27.007812 4.429688 C 27.363281 4.554688 27.71875 4.488281 27.800781 4.28125 C 27.835938 4.199219 27.800781 4.117188 27.785156 4.058594 C 27.710938 3.902344 27.519531 3.753906 27.296875 3.671875 C 27.179688 3.628906 27.058594 3.613281 26.949219 3.613281 C 26.734375 3.613281 26.5625 3.6875 26.511719 3.828125 C 26.480469 3.910156 26.511719 3.992188 26.527344 4.050781 C 26.601562 4.207031 26.792969 4.355469 27.015625 4.4375 Z M 32.171875 5.734375 C 32.097656 5.578125 31.910156 5.429688 31.683594 5.347656 C 31.570312 5.304688 31.445312 5.289062 31.339844 5.289062 C 31.125 5.289062 30.949219 5.363281 30.898438 5.503906 C 30.867188 5.585938 30.898438 5.671875 30.917969 5.726562 C 30.992188 5.886719 31.179688 6.035156 31.40625 6.117188 C 31.757812 6.238281 32.113281 6.175781 32.199219 5.96875 C 32.230469 5.886719 32.199219 5.800781 32.179688 5.746094 Z M 19.546875 23.980469 L 15.117188 23.980469 L 14.859375 26.335938 L 16 26.335938 C 16.089844 26.335938 16.167969 26.410156 16.167969 26.503906 L 16.167969 26.617188 C 16.167969 26.710938 16.089844 26.785156 16 26.785156 L 15.679688 26.785156 L 15.585938 27.039062 C 15.519531 27.222656 15.304688 27.355469 15.066406 27.355469 L 14.746094 27.355469 L 13.570312 38.230469 L 16.671875 38.230469 L 20.304688 23.980469 L 19.539062 23.980469 Z M 19.378906 28.230469 C 19.378906 28.230469 19.378906 28.238281 19.378906 28.246094 L 19.488281 38.238281 L 22.726562 38.238281 L 23.703125 23.992188 L 20.472656 23.992188 L 19.390625 28.230469 Z M 12.597656 15.585938 C 12.578125 15.304688 12.621094 15.089844 12.664062 14.867188 C 12.726562 14.535156 12.785156 14.199219 12.679688 13.578125 C 12.679688 13.578125 12.679688 13.570312 12.679688 13.5625 C 12.679688 13.105469 12.628906 12.5625 12.628906 12.554688 C 12.613281 12.460938 12.5625 12.453125 12.523438 12.453125 C 12.488281 12.453125 12.457031 12.480469 12.449219 12.511719 L 12.339844 13.554688 C 12.339844 13.585938 12.308594 13.621094 12.273438 13.621094 C 12.242188 13.621094 12.207031 13.59375 12.207031 13.554688 L 12.042969 12 C 12.027344 11.902344 11.960938 11.890625 11.925781 11.890625 C 11.867188 11.890625 11.804688 11.941406 11.804688 12.015625 L 11.804688 13.570312 C 11.792969 13.601562 11.761719 13.636719 11.726562 13.636719 C 11.695312 13.636719 11.664062 13.613281 11.652344 13.578125 L 11.363281 11.726562 C 11.363281 11.703125 11.339844 11.675781 11.316406 11.660156 C 11.28125 11.644531 11.242188 11.636719 11.199219 11.644531 C 11.132812 11.660156 11.09375 11.71875 11.109375 11.777344 L 11.257812 13.59375 C 11.257812 13.628906 11.234375 13.660156 11.199219 13.667969 C 11.167969 13.667969 11.125 13.652344 11.117188 13.621094 L 10.695312 12.066406 C 10.671875 12.023438 10.621094 12 10.5625 12.015625 C 10.488281 12.042969 10.449219 12.105469 10.464844 12.171875 C 10.464844 12.171875 10.464844 12.171875 10.464844 12.183594 L 10.6875 14.28125 C 10.6875 14.3125 10.671875 14.347656 10.636719 14.355469 C 10.605469 14.363281 10.570312 14.355469 10.554688 14.320312 C 10.554688 14.320312 10.375 13.957031 10.140625 13.761719 C 10.035156 13.667969 9.933594 13.636719 9.859375 13.636719 C 9.785156 13.636719 9.753906 13.652344 9.730469 13.6875 C 9.710938 13.703125 9.695312 13.726562 9.71875 13.75 C 9.859375 13.910156 10.066406 14.230469 10.082031 14.273438 C 10.101562 14.304688 10.117188 14.363281 10.132812 14.4375 C 10.175781 14.578125 10.234375 14.792969 10.289062 14.890625 C 10.414062 15.097656 10.710938 15.527344 10.710938 15.535156 C 10.710938 15.546875 10.71875 15.5625 10.726562 15.570312 L 10.785156 16.4375 L 12.785156 16.148438 L 12.613281 15.585938 C 12.613281 15.585938 12.613281 15.578125 12.613281 15.570312 Z M 28.734375 13.710938 C 28.503906 13.910156 28.320312 14.273438 28.320312 14.273438 C 28.304688 14.304688 28.273438 14.320312 28.238281 14.304688 C 28.207031 14.296875 28.179688 14.265625 28.191406 14.230469 L 28.421875 12.132812 C 28.421875 12.132812 28.421875 12.132812 28.421875 12.125 C 28.4375 12.058594 28.394531 11.992188 28.320312 11.96875 C 28.265625 11.949219 28.214844 11.96875 28.191406 12.015625 L 27.769531 13.570312 C 27.761719 13.601562 27.726562 13.628906 27.6875 13.621094 C 27.652344 13.621094 27.628906 13.578125 27.628906 13.546875 L 27.777344 11.734375 C 27.785156 11.667969 27.742188 11.613281 27.6875 11.59375 C 27.644531 11.585938 27.601562 11.59375 27.570312 11.601562 C 27.546875 11.621094 27.519531 11.644531 27.519531 11.667969 L 27.230469 13.511719 C 27.230469 13.546875 27.199219 13.570312 27.15625 13.570312 C 27.125 13.570312 27.089844 13.535156 27.089844 13.503906 L 27.089844 11.949219 C 27.082031 11.875 27.015625 11.828125 26.957031 11.828125 C 26.925781 11.828125 26.859375 11.828125 26.84375 11.933594 L 26.675781 13.488281 C 26.675781 13.519531 26.644531 13.554688 26.613281 13.554688 C 26.578125 13.554688 26.546875 13.527344 26.546875 13.488281 L 26.4375 12.445312 C 26.429688 12.414062 26.398438 12.398438 26.363281 12.386719 C 26.320312 12.386719 26.273438 12.386719 26.257812 12.488281 C 26.257812 12.488281 26.199219 13.03125 26.207031 13.488281 C 26.207031 13.488281 26.207031 13.496094 26.207031 13.503906 C 26.089844 14.125 26.15625 14.460938 26.214844 14.792969 C 26.257812 15.015625 26.296875 15.230469 26.28125 15.511719 C 26.28125 15.511719 26.28125 15.519531 26.28125 15.527344 L 26.105469 16.089844 L 28.105469 16.378906 L 28.171875 15.511719 C 28.171875 15.496094 28.171875 15.488281 28.191406 15.480469 C 28.191406 15.480469 28.496094 15.050781 28.609375 14.835938 C 28.667969 14.734375 28.726562 14.519531 28.769531 14.378906 C 28.792969 14.296875 28.808594 14.238281 28.816406 14.214844 C 28.835938 14.171875 29.039062 13.851562 29.179688 13.695312 C 29.199219 13.667969 29.179688 13.644531 29.171875 13.628906 C 29.117188 13.570312 28.957031 13.535156 28.761719 13.703125 Z M 15.519531 20.503906 L 17.421875 20.503906 L 17.421875 20.125 L 15.519531 20.125 Z M 21.882812 20.503906 L 23.785156 20.503906 L 23.785156 20.125 L 21.882812 20.125 Z M 25.976562 16.222656 L 25.6875 17.40625 L 24.835938 17.683594 L 25.105469 15.296875 C 25.105469 15.257812 25.082031 15.222656 25.050781 15.222656 C 25.007812 15.222656 24.976562 15.246094 24.976562 15.28125 L 24.007812 23.84375 L 14.859375 23.84375 L 14.539062 15.289062 C 14.539062 15.246094 14.503906 15.222656 14.464844 15.222656 C 14.421875 15.222656 14.398438 15.257812 14.398438 15.296875 L 14.496094 17.84375 L 13.738281 17.585938 L 13.175781 17.394531 L 12.902344 16.28125 C 12.910156 16.28125 12.917969 16.265625 12.925781 16.253906 C 12.933594 16.238281 12.941406 16.214844 12.925781 16.199219 L 12.726562 15.5625 C 12.710938 15.304688 12.753906 15.097656 12.792969 14.882812 C 12.792969 14.84375 12.8125 14.808594 12.820312 14.769531 L 13.539062 13.089844 L 13.828125 12.429688 C 14.058594 11.96875 14.503906 11.644531 15.015625 11.570312 L 17.183594 11.273438 L 19.84375 15.03125 C 19.859375 15.050781 19.875 15.066406 19.902344 15.066406 C 19.925781 15.066406 19.902344 15.066406 19.902344 15.066406 C 19.925781 15.066406 19.949219 15.050781 19.960938 15.023438 L 21.480469 11.273438 L 23.828125 11.578125 C 24.371094 11.660156 24.835938 12.007812 25.058594 12.511719 L 25.273438 13.015625 L 26.042969 14.808594 C 26.082031 15.023438 26.117188 15.222656 26.105469 15.488281 L 25.910156 16.125 C 25.910156 16.140625 25.910156 16.164062 25.910156 16.179688 C 25.917969 16.199219 25.933594 16.207031 25.957031 16.214844 Z M 17.5625 20.058594 C 17.5625 20.015625 17.53125 19.984375 17.488281 19.984375 L 15.445312 19.984375 C 15.40625 19.984375 15.371094 20.015625 15.371094 20.058594 L 15.371094 20.578125 C 15.371094 20.617188 15.40625 20.652344 15.445312 20.652344 L 17.488281 20.652344 C 17.53125 20.652344 17.5625 20.617188 17.5625 20.578125 Z M 23.925781 20.058594 C 23.925781 20.015625 23.894531 19.984375 23.859375 19.984375 L 21.820312 19.984375 C 21.777344 19.984375 21.753906 20.015625 21.753906 20.058594 L 21.753906 20.578125 C 21.753906 20.617188 21.785156 20.652344 21.820312 20.652344 L 23.859375 20.652344 C 23.902344 20.652344 23.925781 20.617188 23.925781 20.578125 Z M 17.347656 11.265625 L 19.894531 14.859375 L 21.355469 11.265625 L 20.949219 11.214844 L 19.882812 13.957031 C 19.875 13.984375 19.851562 14 19.828125 14 C 19.828125 14 19.828125 14 19.820312 14 C 19.792969 14 19.777344 13.992188 19.761719 13.964844 L 17.777344 11.207031 L 17.355469 11.265625 Z M 21.636719 10.386719 C 21.992188 9.84375 21.859375 9.015625 21.828125 8.851562 C 21.710938 8.785156 21.015625 8.472656 18.835938 8.957031 L 18.835938 10.519531 C 18.984375 10.621094 19.726562 11.097656 20.917969 10.859375 C 21.230469 10.792969 21.480469 10.636719 21.636719 10.386719 Z M 18.695312 8.941406 L 18.050781 8.628906 C 18.042969 8.660156 18.035156 8.6875 18.023438 8.71875 L 18.695312 9.140625 Z M 17.859375 9.753906 L 18.695312 10.40625 L 18.695312 10.199219 C 18.695312 10.199219 17.867188 9.652344 17.867188 9.652344 C 17.867188 9.6875 17.867188 9.71875 17.867188 9.753906 Z M 17.726562 10.488281 C 17.71875 10.332031 17.695312 9.949219 17.746094 9.480469 C 17.585938 9.601562 17.390625 9.6875 17.183594 9.695312 C 17.148438 9.695312 17.117188 9.667969 17.117188 9.628906 C 17.117188 9.585938 17.140625 9.554688 17.183594 9.554688 C 17.40625 9.539062 17.628906 9.429688 17.777344 9.257812 C 17.851562 8.753906 18.015625 8.117188 18.390625 7.585938 C 18.289062 7.570312 18.191406 7.511719 18.117188 7.4375 C 18.089844 7.414062 18.089844 7.363281 18.117188 7.339844 C 18.140625 7.3125 18.191406 7.3125 18.214844 7.339844 C 18.28125 7.414062 18.390625 7.453125 18.488281 7.453125 C 18.546875 7.378906 18.613281 7.304688 18.679688 7.238281 C 18.464844 7.15625 18.273438 6.992188 18.183594 6.785156 C 18.164062 6.753906 18.183594 6.710938 18.214844 6.695312 C 18.25 6.679688 18.289062 6.695312 18.304688 6.726562 C 18.398438 6.925781 18.585938 7.082031 18.792969 7.132812 C 19.089844 6.902344 19.5625 6.761719 20.042969 6.710938 C 19.917969 6.464844 19.859375 6.183594 19.894531 5.902344 C 19.894531 5.859375 19.933594 5.835938 19.96875 5.835938 C 20.007812 5.835938 20.035156 5.875 20.035156 5.910156 C 20 6.183594 20.058594 6.453125 20.199219 6.6875 C 20.371094 6.679688 20.539062 6.679688 20.695312 6.6875 C 20.753906 6.59375 20.792969 6.496094 20.792969 6.390625 C 20.792969 6.347656 20.828125 6.324219 20.867188 6.324219 C 20.910156 6.324219 20.933594 6.355469 20.933594 6.398438 C 20.933594 6.503906 20.902344 6.613281 20.851562 6.703125 C 20.902344 6.703125 20.941406 6.71875 20.984375 6.71875 C 21.164062 6.753906 21.378906 6.808594 21.519531 6.925781 C 21.644531 6.828125 21.734375 6.6875 21.761719 6.53125 C 21.761719 6.488281 21.800781 6.464844 21.84375 6.472656 C 21.882812 6.472656 21.910156 6.511719 21.902344 6.554688 C 21.867188 6.734375 21.761719 6.910156 21.621094 7.023438 C 21.628906 7.042969 21.636719 7.050781 21.644531 7.066406 C 21.695312 7.15625 21.734375 7.265625 21.769531 7.390625 C 21.84375 7.378906 21.910156 7.339844 21.957031 7.289062 C 21.984375 7.257812 22.035156 7.257812 22.058594 7.289062 C 22.082031 7.324219 22.089844 7.363281 22.058594 7.390625 C 21.992188 7.464844 21.894531 7.511719 21.792969 7.527344 C 21.84375 7.753906 21.875 7.992188 21.882812 8.175781 C 22.164062 7.519531 22.207031 6.933594 22.007812 6.421875 C 21.753906 5.6875 21.066406 5.289062 20.058594 5.289062 C 19.050781 5.289062 19.933594 5.289062 19.867188 5.289062 C 17.347656 5.414062 16.585938 7.398438 16.539062 8.4375 C 16.511719 8.984375 16.710938 9.785156 17.132812 10.207031 C 17.304688 10.378906 17.503906 10.472656 17.71875 10.472656 Z M 17.726562 10.488281 " fill-opacity="1" fill-rule="nonzero"/><g clip-path="url(#f7c55693fa)"><path fill="#f0f0f0" d="M 35.554688 15.503906 L 35.554688 22.554688 L 34.949219 22.554688 L 34.949219 15.503906 Z M 35.554688 34.867188 L 35.554688 34.253906 L 34.949219 34.253906 L 34.949219 34.867188 Z M 34.949219 25.503906 L 34.949219 30.378906 L 35.554688 30.378906 L 35.554688 25.261719 C 35.363281 25.371094 35.164062 25.445312 34.949219 25.496094 Z M 35.511719 7.71875 C 35.511719 7.800781 35.496094 7.882812 35.4375 7.949219 C 35.371094 8.023438 35.28125 8.066406 35.1875 8.066406 C 35.097656 8.066406 35.046875 8.042969 34.984375 7.992188 L 34.71875 7.777344 L 34.71875 15.230469 C 34.71875 15.304688 34.785156 15.363281 34.859375 15.363281 L 35.617188 15.363281 C 35.691406 15.363281 35.757812 15.304688 35.757812 15.230469 L 35.757812 7.429688 C 35.757812 7.355469 35.691406 7.296875 35.617188 7.296875 L 35.125 7.296875 L 35.386719 7.511719 C 35.453125 7.570312 35.496094 7.644531 35.503906 7.726562 Z M 34.734375 30.660156 L 34.734375 33.972656 C 34.734375 34.046875 34.800781 34.113281 34.875 34.113281 L 35.636719 34.113281 C 35.710938 34.113281 35.777344 34.046875 35.777344 33.972656 L 35.777344 30.660156 C 35.777344 30.585938 35.710938 30.519531 35.636719 30.519531 L 34.875 30.519531 C 34.800781 30.519531 34.734375 30.585938 34.734375 30.660156 Z M 35.339844 7.859375 C 35.371094 7.828125 35.378906 7.777344 35.378906 7.734375 C 35.378906 7.6875 35.355469 7.644531 35.3125 7.621094 L 33.28125 5.960938 L 33.246094 6.058594 C 33.214844 6.140625 33.179688 6.214844 33.148438 6.296875 L 35.089844 7.882812 C 35.164062 7.941406 35.28125 7.933594 35.339844 7.859375 Z M 30.429688 1.902344 C 31.652344 2.332031 32.652344 3.167969 33.105469 4.140625 C 33.289062 4.519531 33.371094 4.902344 33.378906 5.273438 L 33.535156 4.84375 C 33.742188 4.28125 33.703125 3.660156 33.414062 3.050781 C 32.972656 2.109375 32 1.296875 30.808594 0.878906 C 28.761719 0.148438 26.660156 0.761719 26.125 2.230469 L 25.96875 2.660156 C 26.84375 1.628906 28.660156 1.28125 30.429688 1.902344 Z M 25.828125 5.191406 C 25.539062 4.570312 25.488281 3.949219 25.695312 3.390625 C 26.230469 1.917969 28.332031 1.316406 30.378906 2.035156 C 31.570312 2.457031 32.535156 3.265625 32.984375 4.199219 C 33.273438 4.820312 33.320312 5.4375 33.113281 6 C 32.578125 7.472656 30.480469 8.074219 28.429688 7.355469 C 27.238281 6.933594 26.273438 6.125 25.828125 5.191406 Z M 30.132812 6.117188 C 29.964844 5.761719 29.585938 5.457031 29.117188 5.289062 C 28.339844 5.015625 27.554688 5.222656 27.363281 5.746094 C 27.289062 5.933594 27.304688 6.148438 27.414062 6.363281 C 27.578125 6.71875 27.957031 7.023438 28.429688 7.191406 C 28.472656 7.207031 28.519531 7.222656 28.5625 7.230469 C 28.742188 7.28125 28.933594 7.304688 29.105469 7.304688 C 29.621094 7.304688 30.039062 7.097656 30.171875 6.726562 C 30.246094 6.539062 30.230469 6.324219 30.125 6.109375 Z M 31.890625 4.753906 C 31.113281 4.480469 30.332031 4.6875 30.140625 5.207031 C 30.066406 5.398438 30.082031 5.613281 30.191406 5.828125 C 30.355469 6.183594 30.734375 6.488281 31.207031 6.652344 C 31.253906 6.667969 31.296875 6.6875 31.347656 6.695312 C 31.527344 6.746094 31.71875 6.769531 31.890625 6.769531 C 32.40625 6.769531 32.824219 6.5625 32.957031 6.191406 C 33.03125 6 33.015625 5.785156 32.910156 5.570312 C 32.742188 5.214844 32.363281 4.910156 31.890625 4.746094 Z M 28.570312 3.390625 C 28.734375 3.746094 29.117188 4.050781 29.585938 4.214844 C 29.628906 4.230469 29.675781 4.25 29.71875 4.257812 C 29.898438 4.304688 30.089844 4.332031 30.265625 4.332031 C 30.777344 4.332031 31.199219 4.125 31.328125 3.753906 C 31.40625 3.5625 31.386719 3.347656 31.28125 3.132812 C 31.113281 2.777344 30.734375 2.472656 30.265625 2.304688 C 29.488281 2.035156 28.703125 2.242188 28.511719 2.761719 C 28.4375 2.949219 28.453125 3.167969 28.5625 3.382812 Z M 25.785156 4.132812 C 25.949219 4.488281 26.332031 4.792969 26.800781 4.960938 C 26.851562 4.976562 26.890625 4.992188 26.941406 5 C 27.125 5.050781 27.3125 5.074219 27.488281 5.074219 C 28 5.074219 28.421875 4.867188 28.554688 4.496094 C 28.628906 4.304688 28.609375 4.089844 28.503906 3.875 C 28.339844 3.519531 27.957031 3.214844 27.488281 3.050781 C 26.710938 2.777344 25.925781 2.984375 25.734375 3.503906 C 25.660156 3.695312 25.675781 3.910156 25.785156 4.125 Z M 29.074219 5.421875 C 28.851562 5.347656 28.628906 5.304688 28.429688 5.304688 C 27.984375 5.304688 27.609375 5.480469 27.503906 5.792969 C 27.445312 5.949219 27.460938 6.132812 27.546875 6.304688 C 27.570312 6.355469 27.59375 6.398438 27.628906 6.445312 C 27.59375 6.324219 27.59375 6.207031 27.636719 6.101562 C 27.785156 5.703125 28.378906 5.546875 28.964844 5.753906 C 29.320312 5.875 29.609375 6.117188 29.734375 6.378906 C 29.808594 6.546875 29.824219 6.710938 29.769531 6.851562 C 29.726562 6.949219 29.660156 7.042969 29.570312 7.109375 C 29.800781 7.035156 29.976562 6.882812 30.050781 6.695312 C 30.105469 6.539062 30.089844 6.355469 30.007812 6.183594 C 29.859375 5.859375 29.511719 5.578125 29.074219 5.429688 Z M 29.601562 6.4375 C 29.601562 6.4375 29.601562 6.421875 29.59375 6.421875 C 29.59375 6.464844 29.59375 6.503906 29.578125 6.546875 C 29.503906 6.734375 29.289062 6.84375 29.015625 6.84375 C 28.742188 6.84375 28.75 6.820312 28.609375 6.769531 C 28.347656 6.679688 28.132812 6.503906 28.042969 6.304688 C 27.992188 6.199219 27.984375 6.082031 28.015625 5.984375 C 28.03125 5.933594 28.066406 5.894531 28.097656 5.851562 C 27.941406 5.910156 27.816406 6.007812 27.769531 6.148438 C 27.726562 6.257812 27.734375 6.390625 27.800781 6.511719 C 27.910156 6.746094 28.164062 6.949219 28.488281 7.066406 C 29 7.25 29.519531 7.132812 29.644531 6.800781 C 29.683594 6.695312 29.675781 6.5625 29.609375 6.4375 Z M 28.777344 3.472656 C 28.742188 3.347656 28.742188 3.230469 28.785156 3.125 C 28.933594 2.726562 29.527344 2.570312 30.117188 2.777344 C 30.46875 2.902344 30.761719 3.140625 30.882812 3.40625 C 30.957031 3.570312 30.976562 3.734375 30.917969 3.875 C 30.875 3.976562 30.808594 4.066406 30.71875 4.132812 C 30.949219 4.058594 31.125 3.910156 31.199219 3.71875 C 31.253906 3.5625 31.238281 3.382812 31.15625 3.207031 C 31.007812 2.886719 30.660156 2.605469 30.222656 2.457031 C 30 2.382812 29.777344 2.339844 29.578125 2.339844 C 29.132812 2.339844 28.761719 2.511719 28.652344 2.828125 C 28.59375 2.984375 28.609375 3.167969 28.695312 3.339844 C 28.71875 3.390625 28.742188 3.429688 28.777344 3.480469 Z M 30.761719 3.457031 C 30.761719 3.4375 30.742188 3.421875 30.734375 3.40625 C 30.734375 3.464844 30.734375 3.511719 30.710938 3.5625 C 30.636719 3.761719 30.414062 3.867188 30.140625 3.867188 C 29.867188 3.867188 29.875 3.84375 29.742188 3.792969 C 29.480469 3.703125 29.265625 3.53125 29.171875 3.332031 C 29.125 3.214844 29.117188 3.101562 29.148438 3 C 29.164062 2.949219 29.199219 2.902344 29.230469 2.867188 C 29.082031 2.925781 28.964844 3.027344 28.917969 3.15625 C 28.875 3.265625 28.882812 3.398438 28.949219 3.519531 C 29.058594 3.753906 29.3125 3.960938 29.636719 4.074219 C 30.148438 4.257812 30.667969 4.140625 30.792969 3.8125 C 30.835938 3.703125 30.824219 3.570312 30.761719 3.445312 Z M 30.265625 5.257812 C 30.207031 5.414062 30.222656 5.59375 30.304688 5.769531 C 30.332031 5.820312 30.355469 5.859375 30.386719 5.910156 C 30.355469 5.785156 30.355469 5.671875 30.394531 5.5625 C 30.546875 5.164062 31.140625 5.007812 31.726562 5.214844 C 32.082031 5.339844 32.371094 5.578125 32.496094 5.84375 C 32.570312 6.007812 32.585938 6.175781 32.527344 6.316406 C 32.488281 6.414062 32.421875 6.503906 32.339844 6.570312 C 32.570312 6.496094 32.742188 6.347656 32.816406 6.15625 C 32.875 6 32.859375 5.820312 32.777344 5.644531 C 32.628906 5.324219 32.28125 5.042969 31.84375 4.894531 C 31.621094 4.820312 31.394531 4.777344 31.199219 4.777344 C 30.75 4.777344 30.378906 4.949219 30.273438 5.265625 Z M 32.371094 5.902344 C 32.371094 5.886719 32.355469 5.867188 32.347656 5.851562 C 32.347656 5.910156 32.347656 5.960938 32.320312 6.007812 C 32.246094 6.207031 32.023438 6.316406 31.75 6.316406 C 31.480469 6.316406 31.488281 6.289062 31.355469 6.238281 C 31.089844 6.148438 30.875 5.976562 30.785156 5.777344 C 30.734375 5.660156 30.726562 5.546875 30.761719 5.445312 C 30.777344 5.398438 30.808594 5.347656 30.84375 5.316406 C 30.695312 5.371094 30.578125 5.472656 30.527344 5.605469 C 30.488281 5.710938 30.496094 5.84375 30.5625 5.96875 C 30.667969 6.199219 30.925781 6.40625 31.246094 6.519531 C 31.757812 6.703125 32.28125 6.585938 32.40625 6.257812 C 32.445312 6.148438 32.4375 6.015625 32.371094 5.894531 Z M 27.339844 3.519531 C 27.695312 3.644531 27.984375 3.886719 28.105469 4.148438 C 28.179688 4.316406 28.199219 4.480469 28.140625 4.621094 C 28.097656 4.71875 28.03125 4.808594 27.949219 4.875 C 28.179688 4.800781 28.355469 4.652344 28.429688 4.464844 C 28.488281 4.304688 28.472656 4.125 28.386719 3.949219 C 28.238281 3.628906 27.890625 3.347656 27.453125 3.199219 C 27.230469 3.125 27.007812 3.082031 26.808594 3.082031 C 26.363281 3.082031 25.992188 3.257812 25.882812 3.570312 C 25.828125 3.726562 25.84375 3.910156 25.925781 4.082031 C 25.949219 4.132812 25.976562 4.175781 26.007812 4.222656 C 25.976562 4.101562 25.976562 3.984375 26.015625 3.875 C 26.164062 3.480469 26.761719 3.324219 27.347656 3.53125 Z M 27.976562 4.207031 C 27.964844 4.191406 27.957031 4.175781 27.941406 4.15625 C 27.941406 4.214844 27.941406 4.273438 27.925781 4.332031 C 27.851562 4.53125 27.628906 4.636719 27.355469 4.636719 C 27.082031 4.636719 27.089844 4.613281 26.957031 4.5625 C 26.695312 4.472656 26.480469 4.296875 26.386719 4.101562 C 26.339844 3.984375 26.332031 3.867188 26.363281 3.769531 C 26.386719 3.710938 26.421875 3.660156 26.460938 3.621094 C 26.304688 3.679688 26.183594 3.777344 26.132812 3.917969 C 26.089844 4.027344 26.097656 4.15625 26.164062 4.28125 C 26.273438 4.511719 26.527344 4.71875 26.851562 4.835938 C 27.363281 5.015625 27.882812 4.902344 28.007812 4.570312 C 28.050781 4.464844 28.042969 4.332031 27.976562 4.207031 Z M 31.941406 35.230469 L 38.5625 35.230469 C 38.527344 35.097656 38.410156 35.007812 38.273438 35.007812 L 32.222656 35.007812 C 32.082031 35.007812 31.964844 35.105469 31.933594 35.230469 Z M 38.917969 35.371094 L 31.570312 35.371094 C 31.289062 35.371094 31.066406 35.59375 31.066406 35.875 L 31.066406 36.652344 L 39.4375 36.652344 L 39.4375 35.890625 C 39.4375 35.601562 39.207031 35.371094 38.917969 35.371094 Z M 31.808594 37.335938 C 31.859375 37.394531 31.925781 37.425781 32 37.425781 C 32.074219 37.425781 32.140625 37.371094 32.140625 37.285156 L 32.140625 36.792969 L 31.371094 36.792969 C 31.371094 36.792969 31.808594 37.335938 31.808594 37.335938 Z M 38.710938 37.335938 C 38.757812 37.394531 38.824219 37.425781 38.898438 37.425781 C 38.972656 37.425781 39.039062 37.371094 39.039062 37.285156 L 39.039062 36.792969 L 38.273438 36.792969 C 38.273438 36.792969 38.710938 37.335938 38.710938 37.335938 Z M 28.421875 24.097656 L 23.828125 24.097656 C 23.828125 24.097656 23.800781 24.519531 23.800781 24.519531 L 28.421875 24.519531 Z M 9.925781 24.519531 L 14.910156 24.519531 L 14.953125 24.097656 L 9.910156 24.097656 C 9.746094 24.097656 9.578125 24.082031 9.421875 24.058594 L 3.6875 23.058594 L 3.605469 23.46875 L 9.316406 24.46875 C 9.515625 24.503906 9.710938 24.519531 9.910156 24.519531 Z M 38.992188 24.097656 C 38.992188 24.097656 29.140625 24.097656 29.140625 24.097656 L 28.5625 24.097656 L 28.5625 24.519531 L 38.992188 24.519531 Z M 36.089844 24.660156 L 23.792969 24.660156 L 23.742188 25.421875 L 24.378906 25.421875 C 24.386719 25.421875 24.40625 25.421875 24.414062 25.429688 L 28.835938 25.429688 C 28.835938 25.4375 34.386719 25.4375 34.386719 25.4375 C 35.058594 25.4375 35.683594 25.148438 36.097656 24.660156 Z M 5.910156 24.660156 C 6.347656 25.148438 6.992188 25.429688 7.671875 25.429688 L 7.6875 25.429688 L 13.613281 25.394531 L 14.828125 25.394531 C 14.828125 25.394531 14.910156 24.660156 14.910156 24.660156 Z M 18.917969 35.675781 L 18.25 35.675781 L 18.25 32.632812 L 18.917969 30.023438 Z M 18.785156 35.371094 C 18.785156 35.269531 18.703125 35.195312 18.605469 35.195312 C 18.503906 35.195312 18.421875 35.277344 18.421875 35.371094 C 18.421875 35.460938 18.503906 35.542969 18.605469 35.542969 C 18.703125 35.542969 18.785156 35.460938 18.785156 35.371094 Z M 23.742188 35.675781 L 23.074219 35.675781 L 23.074219 35.121094 L 23.660156 26.570312 L 23.726562 26.570312 C 23.726562 26.570312 23.734375 26.570312 23.742188 26.570312 L 23.742188 35.683594 Z M 23.570312 35.371094 C 23.570312 35.269531 23.488281 35.195312 23.386719 35.195312 C 23.289062 35.195312 23.207031 35.277344 23.207031 35.371094 C 23.207031 35.460938 23.289062 35.542969 23.386719 35.542969 C 23.488281 35.542969 23.570312 35.460938 23.570312 35.371094 Z M 19.25 28.742188 L 19.058594 29.476562 L 19.058594 35.675781 L 19.316406 35.675781 L 19.238281 28.742188 Z M 17.4375 35.816406 L 17.164062 36.875 L 19.332031 36.875 L 19.332031 35.816406 Z M 22.957031 36.875 L 25.992188 36.875 L 25.992188 35.816406 L 23.035156 35.816406 Z M 20.40625 39.171875 L 22.183594 38.75 L 22.183594 38.378906 C 22.183594 38.378906 20.464844 38.378906 20.464844 38.378906 L 20.40625 39.179688 Z M 13.925781 39.046875 C 14.183594 38.890625 14.472656 38.800781 14.800781 38.855469 C 15.109375 38.90625 15.382812 39.070312 15.605469 39.277344 L 15.785156 38.378906 L 14.066406 38.378906 L 13.933594 39.046875 Z M 4.925781 27.214844 L 15.074219 27.214844 C 15.257812 27.214844 15.414062 27.121094 15.457031 26.992188 L 15.53125 26.785156 L 3.027344 26.785156 L 3.085938 26.941406 C 3.152344 27.105469 3.347656 27.214844 3.570312 27.214844 Z M 16 26.476562 L 2.554688 26.476562 C 2.539062 26.476562 2.53125 26.484375 2.53125 26.503906 L 2.53125 26.617188 C 2.53125 26.636719 2.539062 26.644531 2.554688 26.644531 L 16 26.644531 C 16.015625 26.644531 16.027344 26.636719 16.027344 26.617188 L 16.027344 26.503906 C 16.027344 26.484375 16.015625 26.476562 16 26.476562 Z M 4.859375 38.847656 L 4.859375 27.355469 L 4.496094 27.355469 L 4.496094 38.847656 Z M 4.421875 38.988281 L 4.152344 38.988281 L 4.152344 39.617188 L 12.332031 39.617188 L 12.332031 38.988281 Z M 4.472656 40.261719 C 4.472656 40.335938 4.539062 40.402344 4.621094 40.402344 C 4.703125 40.402344 4.769531 40.371094 4.820312 40.3125 L 5.273438 39.757812 L 4.472656 39.757812 C 4.472656 39.757812 4.472656 40.261719 4.472656 40.261719 Z M 11.25 40.261719 C 11.25 40.335938 11.316406 40.402344 11.398438 40.402344 C 11.480469 40.402344 11.546875 40.371094 11.597656 40.3125 L 12.050781 39.757812 L 11.25 39.757812 C 11.25 39.757812 11.25 40.261719 11.25 40.261719 Z M 11.25 40.261719 " fill-opacity="1" fill-rule="nonzero"/></g></svg>