<svg xmlns="http://www.w3.org/2000/svg" xmlns:xlink="http://www.w3.org/1999/xlink" width="56" zoomAndPan="magnify" viewBox="0 0 42 42" height="56" preserveAspectRatio="xMidYMid meet" version="1.0"><defs><clipPath id="450ec36c09"><path d="M 1.292969 0.804688 L 40.851562 0.804688 L 40.851562 40.363281 L 1.292969 40.363281 Z M 1.292969 0.804688 " clip-rule="nonzero"/></clipPath></defs><g clip-path="url(#450ec36c09)"><path fill="#827fc6" d="M 40.703125 20.511719 C 40.703125 21.15625 40.671875 21.800781 40.609375 22.441406 C 40.546875 23.085938 40.449219 23.722656 40.324219 24.355469 C 40.199219 24.988281 40.042969 25.613281 39.855469 26.230469 C 39.667969 26.847656 39.449219 27.453125 39.203125 28.050781 C 38.957031 28.648438 38.679688 29.230469 38.375 29.800781 C 38.074219 30.367188 37.742188 30.921875 37.382812 31.457031 C 37.023438 31.996094 36.640625 32.511719 36.230469 33.011719 C 35.820312 33.511719 35.386719 33.988281 34.933594 34.445312 C 34.476562 34.898438 34 35.332031 33.5 35.742188 C 33 36.152344 32.484375 36.535156 31.945312 36.894531 C 31.410156 37.253906 30.855469 37.585938 30.289062 37.886719 C 29.71875 38.191406 29.136719 38.46875 28.539062 38.714844 C 27.941406 38.960938 27.335938 39.179688 26.71875 39.367188 C 26.101562 39.554688 25.476562 39.710938 24.84375 39.835938 C 24.210938 39.960938 23.574219 40.058594 22.929688 40.121094 C 22.289062 40.183594 21.644531 40.214844 21 40.214844 C 20.351562 40.214844 19.710938 40.183594 19.066406 40.121094 C 18.425781 40.058594 17.789062 39.960938 17.15625 39.835938 C 16.523438 39.710938 15.894531 39.554688 15.277344 39.367188 C 14.660156 39.179688 14.054688 38.960938 13.457031 38.714844 C 12.863281 38.46875 12.277344 38.191406 11.710938 37.886719 C 11.140625 37.585938 10.589844 37.253906 10.050781 36.894531 C 9.515625 36.535156 8.996094 36.152344 8.5 35.742188 C 8 35.332031 7.523438 34.898438 7.066406 34.445312 C 6.609375 33.988281 6.175781 33.511719 5.765625 33.011719 C 5.359375 32.511719 4.972656 31.996094 4.613281 31.457031 C 4.257812 30.921875 3.925781 30.367188 3.621094 29.800781 C 3.316406 29.230469 3.042969 28.648438 2.792969 28.050781 C 2.546875 27.453125 2.328125 26.847656 2.144531 26.230469 C 1.957031 25.613281 1.796875 24.988281 1.671875 24.355469 C 1.546875 23.722656 1.453125 23.085938 1.390625 22.441406 C 1.324219 21.800781 1.292969 21.15625 1.292969 20.511719 C 1.292969 19.863281 1.324219 19.222656 1.390625 18.578125 C 1.453125 17.9375 1.546875 17.300781 1.671875 16.667969 C 1.796875 16.035156 1.957031 15.40625 2.144531 14.789062 C 2.328125 14.171875 2.546875 13.566406 2.792969 12.96875 C 3.042969 12.375 3.316406 11.789062 3.621094 11.222656 C 3.925781 10.652344 4.257812 10.101562 4.613281 9.5625 C 4.972656 9.027344 5.359375 8.507812 5.765625 8.011719 C 6.175781 7.511719 6.609375 7.035156 7.066406 6.578125 C 7.523438 6.121094 8 5.6875 8.5 5.277344 C 8.996094 4.871094 9.515625 4.484375 10.050781 4.125 C 10.589844 3.769531 11.140625 3.4375 11.710938 3.132812 C 12.277344 2.828125 12.863281 2.550781 13.457031 2.304688 C 14.054688 2.058594 14.660156 1.839844 15.277344 1.652344 C 15.894531 1.46875 16.523438 1.308594 17.15625 1.183594 C 17.789062 1.058594 18.425781 0.964844 19.066406 0.902344 C 19.710938 0.835938 20.351562 0.804688 21 0.804688 C 21.644531 0.804688 22.289062 0.835938 22.929688 0.902344 C 23.574219 0.964844 24.210938 1.058594 24.84375 1.183594 C 25.476562 1.308594 26.101562 1.46875 26.71875 1.652344 C 27.335938 1.839844 27.941406 2.058594 28.539062 2.304688 C 29.136719 2.550781 29.71875 2.828125 30.289062 3.132812 C 30.855469 3.4375 31.410156 3.769531 31.945312 4.125 C 32.484375 4.484375 33 4.871094 33.5 5.277344 C 34 5.6875 34.476562 6.121094 34.933594 6.578125 C 35.386719 7.035156 35.820312 7.511719 36.230469 8.011719 C 36.640625 8.507812 37.023438 9.027344 37.382812 9.5625 C 37.742188 10.101562 38.074219 10.652344 38.375 11.222656 C 38.679688 11.789062 38.957031 12.375 39.203125 12.96875 C 39.449219 13.566406 39.667969 14.171875 39.855469 14.789062 C 40.042969 15.40625 40.199219 16.035156 40.324219 16.667969 C 40.449219 17.300781 40.546875 17.9375 40.609375 18.578125 C 40.671875 19.222656 40.703125 19.863281 40.703125 20.511719 Z M 40.703125 20.511719 " fill-opacity="1" fill-rule="nonzero"/></g><path fill="#ffffff" d="M 27.726562 20.125 C 27.652344 20.125 27.5625 20.097656 27.519531 20.039062 C 25.328125 17.863281 23.082031 15.601562 23.082031 13.3125 C 23.082031 11.953125 24.191406 10.84375 25.550781 10.84375 C 26.632812 10.84375 27.238281 11.34375 27.726562 12.160156 C 28.210938 11.34375 28.820312 10.84375 29.898438 10.84375 C 31.257812 10.84375 32.367188 11.953125 32.367188 13.3125 C 32.367188 15.601562 30.105469 17.863281 27.933594 20.039062 C 27.871094 20.097656 27.796875 20.125 27.726562 20.125 Z M 27.726562 20.125 " fill-opacity="1" fill-rule="evenodd"/><path fill="#ffffff" d="M 27.726562 28.996094 C 27.636719 28.996094 27.5625 28.964844 27.519531 28.90625 L 27.726562 28.699219 L 27.519531 28.90625 C 26.230469 27.621094 24.902344 26.289062 24.902344 24.902344 C 24.902344 24.042969 25.597656 23.347656 26.453125 23.347656 C 27.058594 23.347656 27.429688 23.601562 27.726562 24.015625 C 28.003906 23.601562 28.375 23.347656 28.980469 23.347656 C 29.839844 23.347656 30.546875 24.042969 30.546875 24.902344 C 30.546875 26.289062 29.21875 27.621094 27.933594 28.90625 C 27.871094 28.964844 27.796875 28.996094 27.726562 28.996094 Z M 27.726562 28.996094 " fill-opacity="1" fill-rule="evenodd"/><path fill="#ffffff" d="M 13.179688 15.914062 C 12.734375 15.527344 11.050781 13.84375 12.75 10.917969 C 12.808594 10.796875 12.941406 10.738281 13.0625 10.753906 C 13.089844 10.769531 15.675781 11.136719 17.066406 10.164062 C 17.039062 10.074219 16.992188 9.984375 16.964844 9.898438 C 16.59375 9.070312 15.691406 8.035156 13.5625 7.902344 L 13.476562 7.902344 C 12.234375 7.902344 10.398438 9.46875 10.03125 10.871094 C 9.882812 11.464844 9.925781 12.972656 9.957031 14.082031 C 9.972656 14.464844 9.972656 14.804688 9.972656 15.054688 L 9.972656 19.933594 C 11.019531 19.371094 13.578125 17.761719 13.179688 15.914062 Z M 13.179688 15.914062 " fill-opacity="1" fill-rule="evenodd"/><path fill="#ffffff" d="M 13.195312 11.40625 C 11.730469 14.125 13.546875 15.425781 13.621094 15.46875 C 13.695312 15.515625 13.726562 15.574219 13.753906 15.648438 C 14.289062 17.65625 12.234375 19.296875 10.875 20.140625 L 10.875 28.773438 C 11.566406 29.320312 15.308594 32.21875 18.21875 32.988281 C 19.59375 33.414062 21.292969 32.765625 21.753906 32.144531 C 21.839844 32.011719 21.855469 31.921875 21.839844 31.847656 C 21.796875 31.894531 21.753906 31.921875 21.722656 31.953125 L 21.679688 31.996094 C 21.339844 32.292969 20.703125 32.441406 20.066406 32.441406 C 19.476562 32.441406 18.898438 32.320312 18.589844 32.054688 L 13.296875 27.664062 C 13.195312 27.5625 13.164062 27.398438 13.238281 27.265625 C 14.347656 25.328125 13.667969 21.988281 13.667969 21.960938 C 13.621094 21.78125 13.726562 21.621094 13.902344 21.589844 C 14.066406 21.558594 14.230469 21.664062 14.273438 21.824219 C 14.300781 21.972656 14.953125 25.195312 13.886719 27.339844 L 18.988281 31.582031 C 19.433594 31.953125 20.894531 31.863281 21.28125 31.523438 L 21.308594 31.492188 C 21.441406 31.375 21.695312 31.152344 21.988281 31.199219 C 23.15625 30.28125 23.480469 27.855469 22.699219 25.683594 C 21.886719 23.378906 20.140625 22.136719 18.070312 22.359375 C 17.9375 22.359375 17.820312 22.300781 17.761719 22.179688 C 17.703125 22.0625 17.71875 21.929688 17.804688 21.839844 C 18.234375 21.351562 18.382812 20.804688 18.234375 20.230469 C 18.203125 20.113281 18.160156 20.007812 18.117188 19.90625 C 17.804688 20.039062 17.480469 20.097656 17.140625 20.097656 C 16.105469 20.097656 14.996094 19.503906 14.023438 18.398438 C 13.902344 18.261719 13.917969 18.070312 14.035156 17.953125 C 14.167969 17.851562 14.363281 17.863281 14.480469 17.984375 C 14.894531 18.457031 16.328125 19.90625 17.804688 19.371094 C 17.40625 18.839844 16.816406 18.382812 16.195312 18.175781 C 16.179688 18.175781 16.164062 18.160156 16.148438 18.144531 C 14.9375 17.449219 14.730469 16.148438 14.714844 15.382812 C 14.628906 15.367188 14.523438 15.351562 14.4375 15.335938 C 14.257812 15.308594 14.15625 15.144531 14.183594 14.96875 C 14.214844 14.804688 14.375 14.699219 14.554688 14.730469 C 15.46875 14.90625 16.121094 14.289062 16.417969 13.902344 C 17.007812 13.164062 17.390625 11.964844 17.214844 10.796875 C 15.855469 11.613281 13.84375 11.480469 13.195312 11.40625 Z M 16.285156 25.402344 C 16.0625 24.488281 16.402344 23.703125 17.199219 23.304688 C 18.101562 22.847656 19.285156 23.023438 19.847656 23.703125 C 20.15625 24.058594 20.496094 24.8125 19.726562 26.039062 L 19.816406 26.097656 C 20.851562 25.996094 21.425781 26.617188 21.457031 26.628906 L 21.472656 26.644531 C 21.722656 26.421875 22.121094 26.363281 22.449219 26.527344 C 22.800781 26.6875 22.949219 27.074219 22.832031 27.488281 C 22.726562 27.871094 22.507812 28.136719 22.195312 28.316406 C 21.972656 28.433594 21.722656 28.476562 21.515625 28.476562 C 21.707031 29.230469 21.472656 29.882812 20.835938 30.265625 C 20.496094 30.457031 20.066406 30.5625 19.609375 30.5625 C 18.617188 30.5625 17.464844 30.089844 16.667969 29.054688 C 15.738281 27.84375 15.617188 26.628906 16.355469 25.699219 Z M 16.285156 25.402344 " fill-opacity="1" fill-rule="evenodd"/><path fill="#ffffff" d="M 19.371094 24.101562 C 19.003906 23.660156 18.117188 23.539062 17.480469 23.851562 C 17.097656 24.042969 16.695312 24.441406 16.890625 25.269531 L 16.992188 25.714844 C 17.007812 25.816406 16.992188 25.921875 16.917969 25.996094 C 16.105469 26.894531 16.59375 27.945312 17.15625 28.671875 C 18.117188 29.910156 19.683594 30.222656 20.511719 29.71875 C 20.96875 29.453125 21.085938 28.996094 20.820312 28.390625 L 20.320312 27.589844 C 20.230469 27.441406 20.273438 27.25 20.421875 27.164062 C 20.570312 27.074219 20.761719 27.117188 20.851562 27.265625 L 21.207031 27.828125 C 21.355469 27.855469 21.664062 27.886719 21.914062 27.753906 C 22.0625 27.679688 22.179688 27.53125 22.242188 27.308594 C 22.285156 27.132812 22.210938 27.089844 22.179688 27.074219 C 22.09375 27.03125 21.960938 27.042969 21.902344 27.101562 C 21.8125 27.25 21.664062 27.398438 21.457031 27.398438 C 21.265625 27.398438 21.101562 27.28125 20.984375 27.03125 C 20.878906 26.957031 20.570312 26.71875 20.054688 26.703125 C 20.171875 27.191406 20.125 27.785156 19.578125 28.242188 C 19.550781 28.269531 19.460938 28.34375 19.34375 28.417969 C 19.3125 28.550781 19.3125 28.730469 19.460938 28.921875 C 19.566406 29.054688 19.550781 29.246094 19.417969 29.351562 C 19.359375 29.410156 19.285156 29.425781 19.226562 29.425781 C 19.136719 29.425781 19.046875 29.378906 18.972656 29.304688 C 18.796875 29.085938 18.722656 28.847656 18.707031 28.640625 C 18.605469 28.65625 18.5 28.671875 18.367188 28.671875 C 18.070312 28.671875 17.703125 28.609375 17.289062 28.449219 C 17.125 28.375 17.039062 28.195312 17.109375 28.035156 C 17.171875 27.886719 17.347656 27.796875 17.511719 27.855469 C 18.234375 28.152344 18.691406 28.050781 18.929688 27.929688 L 18.972656 27.917969 C 19.09375 27.855469 19.136719 27.796875 19.152344 27.796875 L 19.179688 27.769531 C 19.699219 27.355469 19.433594 26.71875 19.328125 26.511719 C 19.285156 26.496094 19.226562 26.484375 19.179688 26.484375 C 19.121094 26.484375 19.0625 26.527344 18.988281 26.617188 C 18.972656 26.644531 18.945312 26.71875 18.957031 26.75 C 18.957031 26.761719 19.003906 26.792969 19.121094 26.835938 C 19.285156 26.882812 19.386719 27.042969 19.34375 27.222656 C 19.300781 27.382812 19.121094 27.472656 18.957031 27.429688 C 18.589844 27.324219 18.441406 27.117188 18.382812 26.96875 C 18.351562 26.910156 18.339844 26.851562 18.339844 26.792969 C 18 26.554688 17.777344 26.617188 17.761719 26.628906 C 17.613281 26.6875 17.4375 26.617188 17.363281 26.453125 C 17.304688 26.304688 17.378906 26.113281 17.539062 26.054688 C 17.585938 26.023438 17.984375 25.875 18.546875 26.1875 C 18.738281 25.949219 18.945312 25.875 19.105469 25.863281 C 19.609375 25.121094 19.710938 24.5 19.371094 24.101562 Z M 19.371094 24.101562 " fill-opacity="1" fill-rule="evenodd"/><path fill="#ffffff" d="M 20.808594 20.230469 C 20.6875 20.230469 20.585938 20.171875 20.539062 20.050781 C 20.394531 19.726562 20.1875 19.222656 20.394531 18.738281 C 20.511719 18.46875 20.761719 18.261719 21.085938 18.160156 C 21.441406 18.042969 21.855469 18.054688 22.179688 18.175781 C 22.34375 18.027344 22.625 17.851562 23.007812 17.804688 C 23.410156 17.746094 23.820312 17.863281 24.25 18.160156 C 24.855469 18.054688 25.390625 18.21875 25.699219 18.589844 C 25.878906 18.808594 26.128906 19.285156 25.789062 20.050781 C 25.714844 20.199219 25.535156 20.273438 25.390625 20.199219 C 25.242188 20.140625 25.183594 19.964844 25.242188 19.816406 C 25.402344 19.460938 25.402344 19.164062 25.242188 18.972656 C 25.0625 18.75 24.679688 18.664062 24.234375 18.765625 C 24.148438 18.796875 24.058594 18.765625 23.984375 18.707031 C 23.675781 18.457031 23.363281 18.351562 23.082031 18.382812 C 22.714844 18.425781 22.492188 18.707031 22.492188 18.707031 C 22.386719 18.824219 22.226562 18.855469 22.109375 18.78125 C 21.886719 18.664062 21.546875 18.632812 21.28125 18.722656 C 21.160156 18.765625 21 18.839844 20.941406 18.988281 C 20.835938 19.210938 20.941406 19.503906 21.085938 19.832031 C 21.148438 19.976562 21.074219 20.140625 20.925781 20.214844 C 20.878906 20.230469 20.851562 20.230469 20.808594 20.230469 Z M 20.808594 20.230469 " fill-opacity="1" fill-rule="evenodd"/><path fill="#ffffff" d="M 23.75 21.351562 C 23.585938 21.351562 23.453125 21.21875 23.453125 21.058594 L 23.453125 20.230469 C 23.453125 19.578125 23.941406 19.195312 24.414062 19.136719 C 24.84375 19.089844 25.359375 19.328125 25.492188 19.964844 C 25.523438 20.125 25.433594 20.289062 25.269531 20.316406 C 25.109375 20.363281 24.945312 20.257812 24.917969 20.097656 C 24.84375 19.726562 24.574219 19.710938 24.472656 19.726562 C 24.265625 19.742188 24.042969 19.917969 24.042969 20.230469 L 24.042969 21.058594 C 24.042969 21.21875 23.910156 21.351562 23.75 21.351562 Z M 23.75 21.351562 " fill-opacity="1" fill-rule="evenodd"/><path fill="#ffffff" d="M 22.519531 21.351562 C 22.519531 21.351562 22.507812 21.351562 22.492188 21.351562 C 22.328125 21.339844 22.210938 21.191406 22.226562 21.027344 C 22.242188 20.984375 22.242188 20.9375 22.253906 20.894531 C 22.269531 20.835938 22.285156 20.761719 22.285156 20.671875 C 22.285156 20.066406 22.0625 19.726562 21.828125 19.699219 C 21.648438 19.683594 21.5 19.832031 21.425781 20.097656 C 21.398438 20.257812 21.234375 20.347656 21.074219 20.316406 C 20.925781 20.273438 20.820312 20.125 20.851562 19.964844 C 21.011719 19.3125 21.488281 19.0625 21.902344 19.121094 C 22.386719 19.179688 22.890625 19.683594 22.875 20.671875 C 22.875 20.835938 22.847656 20.9375 22.832031 21.011719 C 22.832031 21.042969 22.816406 21.070312 22.816406 21.085938 C 22.800781 21.25 22.667969 21.351562 22.519531 21.351562 Z M 22.519531 21.351562 " fill-opacity="1" fill-rule="evenodd"/><path fill="#ffffff" d="M 20.761719 21.441406 C 20.1875 21.441406 19.726562 21.042969 19.726562 20.539062 C 19.726562 20.050781 20.1875 19.636719 20.761719 19.636719 C 21.324219 19.636719 21.78125 20.050781 21.78125 20.539062 C 21.78125 21.042969 21.324219 21.441406 20.761719 21.441406 Z M 20.761719 21.441406 " fill-opacity="1" fill-rule="evenodd"/><path fill="#ffffff" d="M 25.597656 21.441406 C 25.035156 21.441406 24.574219 21.042969 24.574219 20.539062 C 24.574219 20.050781 25.035156 19.636719 25.597656 19.636719 C 26.171875 19.636719 26.632812 20.050781 26.632812 20.539062 C 26.632812 21.042969 26.171875 21.441406 25.597656 21.441406 Z M 25.597656 21.441406 " fill-opacity="1" fill-rule="evenodd"/></svg>