<svg xmlns="http://www.w3.org/2000/svg" xmlns:xlink="http://www.w3.org/1999/xlink" width="56" zoomAndPan="magnify" viewBox="0 0 42 42" height="56" preserveAspectRatio="xMidYMid meet" version="1.0"><defs><clipPath id="5e2b069200"><path d="M 1.402344 0.914062 L 40.960938 0.914062 L 40.960938 40.472656 L 1.402344 40.472656 Z M 1.402344 0.914062 " clip-rule="nonzero"/></clipPath></defs><g clip-path="url(#5e2b069200)"><path fill="#827fc6" d="M 19.757812 3.855469 C 19.632812 3.628906 19.714844 3.34375 19.941406 3.21875 C 20.167969 3.09375 20.453125 3.175781 20.578125 3.402344 C 21.226562 4.582031 22.140625 5.695312 23.535156 7.003906 C 23.722656 7.179688 23.730469 7.476562 23.554688 7.664062 C 23.464844 7.761719 23.339844 7.8125 23.214844 7.8125 C 23.097656 7.8125 22.984375 7.769531 22.894531 7.6875 C 21.421875 6.308594 20.457031 5.125 19.757812 3.855469 Z M 32.65625 18.023438 C 32.417969 18.125 32.308594 18.398438 32.40625 18.636719 C 34.753906 24.167969 33.769531 29.699219 29.703125 33.816406 C 24.730469 38.851562 16.378906 40.5625 9.847656 37.886719 C 5.386719 36.058594 2.515625 32.132812 2.351562 27.640625 C 2.136719 21.742188 6.296875 16.226562 13.757812 12.515625 C 13.871094 12.460938 13.984375 12.40625 14.09375 12.351562 C 15.917969 11.449219 17.492188 10.667969 17.9375 9.160156 C 18.238281 8.125 17.9375 6.882812 17.015625 5.355469 C 16.882812 5.132812 16.597656 5.0625 16.375 5.195312 C 16.152344 5.328125 16.082031 5.617188 16.214844 5.839844 C 16.992188 7.128906 17.261719 8.128906 17.039062 8.894531 C 16.710938 10.011719 15.304688 10.707031 13.679688 11.511719 C 13.566406 11.566406 13.453125 11.621094 13.339844 11.679688 C 9.277344 13.699219 6.171875 16.222656 4.101562 19.175781 C 2.238281 21.839844 1.3125 24.78125 1.414062 27.675781 C 1.503906 30.054688 2.285156 32.332031 3.683594 34.269531 C 5.097656 36.222656 7.105469 37.773438 9.492188 38.75 C 11.683594 39.648438 14.039062 40.101562 16.457031 40.101562 C 17.875 40.101562 19.3125 39.945312 20.75 39.632812 C 24.464844 38.824219 27.878906 36.992188 30.367188 34.476562 C 32.398438 32.421875 33.765625 29.945312 34.320312 27.320312 C 34.933594 24.40625 34.582031 21.363281 33.269531 18.269531 C 33.167969 18.03125 32.894531 17.921875 32.65625 18.023438 Z M 18.390625 22.210938 L 19.105469 24.875 L 20.621094 25.285156 C 20.453125 25.03125 20.335938 24.765625 20.265625 24.488281 C 20.042969 23.605469 20.382812 22.824219 20.65625 22.351562 C 20.367188 21.984375 20.285156 21.535156 20.433594 21.121094 C 20.609375 20.640625 21.042969 20.316406 21.589844 20.234375 C 22.832031 17.710938 25.34375 17.175781 27.335938 17.789062 C 29.25 18.375 31.089844 20.199219 30.601562 22.808594 C 30.390625 24 29.769531 25.09375 28.855469 25.890625 C 28.09375 26.554688 27.15625 26.988281 26.164062 27.140625 C 26.96875 30.515625 23.5 34.125 20.59375 35.707031 C 18.816406 36.671875 16.816406 37.214844 14.964844 37.230469 C 14.929688 37.230469 14.898438 37.230469 14.863281 37.230469 C 13.019531 37.230469 11.4375 36.710938 10.402344 35.753906 C 9.535156 34.953125 8.316406 33.125 9.648438 29.785156 L 7.222656 28.386719 C 6.039062 27.703125 5.902344 26.457031 6.378906 25.636719 C 6.855469 24.8125 7.960938 24.339844 9.160156 25.03125 L 12.921875 27.203125 C 13.5 27.535156 13.867188 28.089844 13.953125 28.714844 C 14.203125 28.453125 14.46875 28.226562 14.746094 28.027344 C 14.34375 26.152344 13.640625 25.445312 13.066406 25.039062 C 12.527344 24.660156 11.9375 24.445312 11.316406 24.214844 C 10.214844 23.808594 9.078125 23.390625 8.25 22.058594 C 8.242188 22.042969 8.234375 22.03125 8.226562 22.015625 C 7.609375 20.753906 7.527344 19.222656 7.992188 17.589844 C 8.0625 17.339844 8.320312 17.195312 8.570312 17.265625 C 8.820312 17.335938 8.964844 17.597656 8.894531 17.84375 C 8.496094 19.242188 8.550781 20.535156 9.058594 21.585938 C 9.714844 22.625 10.605469 22.957031 11.640625 23.335938 C 12.292969 23.578125 12.964844 23.824219 13.605469 24.273438 C 14.578125 24.957031 15.21875 26.003906 15.59375 27.535156 C 15.894531 27.398438 16.210938 27.289062 16.539062 27.21875 C 16.472656 27.09375 16.421875 26.964844 16.382812 26.824219 L 15.363281 23.019531 C 15.257812 22.617188 15.3125 22.195312 15.523438 21.832031 C 15.730469 21.46875 16.070312 21.210938 16.472656 21.101562 C 16.875 20.992188 17.296875 21.050781 17.660156 21.257812 C 18.023438 21.46875 18.285156 21.808594 18.390625 22.210938 Z M 18.269531 25.378906 L 17.488281 22.453125 C 17.441406 22.289062 17.339844 22.15625 17.191406 22.070312 C 17.046875 21.984375 16.875 21.964844 16.714844 22.007812 C 16.554688 22.050781 16.417969 22.15625 16.332031 22.300781 C 16.25 22.449219 16.226562 22.617188 16.269531 22.777344 L 17.289062 26.582031 C 17.355469 26.839844 17.523438 27.023438 17.773438 27.113281 C 17.78125 27.113281 17.789062 27.117188 17.792969 27.117188 L 19.394531 27.675781 C 19.640625 27.757812 19.769531 28.027344 19.683594 28.269531 C 19.597656 28.515625 19.332031 28.644531 19.089844 28.558594 L 17.558594 28.027344 C 16.8125 28.054688 16.140625 28.25 15.539062 28.621094 C 15.519531 28.632812 15.503906 28.644531 15.484375 28.65625 C 14.839844 29.0625 14.277344 29.667969 13.785156 30.476562 L 13.691406 31.144531 C 13.65625 31.398438 13.417969 31.578125 13.164062 31.542969 C 12.90625 31.503906 12.726562 31.269531 12.765625 31.011719 L 12.871094 30.261719 C 12.871094 30.257812 12.871094 30.25 12.871094 30.242188 L 13.023438 29.179688 C 13.089844 28.695312 12.878906 28.257812 12.453125 28.015625 L 8.691406 25.84375 C 8.433594 25.691406 8.199219 25.632812 7.996094 25.632812 C 7.613281 25.632812 7.335938 25.847656 7.191406 26.101562 C 6.945312 26.53125 6.996094 27.171875 7.691406 27.574219 L 10.472656 29.179688 C 10.679688 29.300781 10.765625 29.558594 10.667969 29.777344 C 9.648438 32.074219 9.777344 33.902344 11.039062 35.066406 C 12.890625 36.777344 16.804688 36.695312 20.144531 34.882812 C 22.835938 33.417969 26.277344 29.871094 25.109375 26.902344 C 25.054688 26.761719 25.070312 26.601562 25.152344 26.472656 C 25.234375 26.347656 25.375 26.269531 25.527344 26.261719 C 27.574219 26.183594 29.320312 24.660156 29.679688 22.640625 C 30.0625 20.589844 28.589844 19.152344 27.0625 18.683594 C 25.398438 18.175781 23.292969 18.652344 22.328125 20.871094 C 22.25 21.046875 22.074219 21.160156 21.882812 21.152344 C 21.566406 21.144531 21.371094 21.289062 21.316406 21.4375 C 21.261719 21.589844 21.339844 21.765625 21.539062 21.921875 C 21.730469 22.070312 21.773438 22.34375 21.636719 22.546875 C 21.445312 22.839844 20.992188 23.527344 21.171875 24.261719 C 21.316406 24.835938 21.824219 25.367188 22.683594 25.839844 L 22.996094 25.925781 C 23.246094 25.992188 23.394531 26.25 23.324219 26.5 C 23.257812 26.75 23 26.898438 22.753906 26.828125 L 22.394531 26.734375 C 22.386719 26.730469 22.382812 26.730469 22.375 26.730469 L 18.601562 25.710938 C 18.441406 25.667969 18.3125 25.542969 18.269531 25.378906 Z M 40.59375 9.144531 C 40.59375 13.679688 36.898438 17.371094 32.363281 17.371094 C 27.824219 17.371094 24.132812 13.679688 24.132812 9.144531 C 24.132812 4.605469 27.824219 0.914062 32.363281 0.914062 C 36.898438 0.914062 40.59375 4.605469 40.59375 9.144531 Z M 39.65625 9.144531 C 39.65625 5.121094 36.382812 1.851562 32.363281 1.851562 C 28.339844 1.851562 25.070312 5.121094 25.070312 9.144531 C 25.070312 13.164062 28.339844 16.4375 32.363281 16.4375 C 36.382812 16.4375 39.65625 13.164062 39.65625 9.144531 Z M 37.796875 7.84375 L 37.796875 10.441406 C 37.796875 10.914062 37.410156 11.296875 36.941406 11.296875 L 34.515625 11.296875 L 34.515625 13.722656 C 34.515625 14.191406 34.132812 14.578125 33.660156 14.578125 L 31.0625 14.578125 C 30.589844 14.578125 30.207031 14.191406 30.207031 13.722656 L 30.207031 11.296875 L 27.785156 11.296875 C 27.3125 11.296875 26.929688 10.914062 26.929688 10.441406 L 26.929688 7.84375 C 26.929688 7.371094 27.3125 6.988281 27.785156 6.988281 L 30.207031 6.988281 L 30.207031 4.566406 C 30.207031 4.09375 30.589844 3.710938 31.0625 3.710938 L 33.660156 3.710938 C 34.132812 3.710938 34.515625 4.09375 34.515625 4.566406 L 34.515625 6.988281 L 36.941406 6.988281 C 37.410156 6.988281 37.796875 7.371094 37.796875 7.84375 Z M 36.859375 7.925781 L 34.050781 7.925781 C 33.789062 7.925781 33.582031 7.714844 33.582031 7.457031 L 33.582031 4.644531 L 31.144531 4.644531 L 31.144531 7.457031 C 31.144531 7.714844 30.933594 7.925781 30.675781 7.925781 L 27.867188 7.925781 L 27.867188 10.359375 L 30.675781 10.359375 C 30.933594 10.359375 31.144531 10.570312 31.144531 10.828125 L 31.144531 13.640625 L 33.582031 13.640625 L 33.582031 10.828125 C 33.582031 10.570312 33.789062 10.359375 34.050781 10.359375 L 36.859375 10.359375 Z M 36.859375 7.925781 " fill-opacity="1" fill-rule="nonzero"/></g></svg>